<?xml version="1.0" encoding="utf-8"?>
<!-- Generator: Adobe Illustrator 15.1.0, SVG Export Plug-In  -->
<!DOCTYPE svg PUBLIC "-//W3C//DTD SVG 1.1//EN" "http://www.w3.org/Graphics/SVG/1.1/DTD/svg11.dtd" [
	<!ENTITY ns_flows "http://ns.adobe.com/Flows/1.0/">
]>
<svg version="1.1"
	 xmlns="http://www.w3.org/2000/svg" xmlns:xlink="http://www.w3.org/1999/xlink" xmlns:a="http://ns.adobe.com/AdobeSVGViewerExtensions/3.0/"
	 x="0px" y="0px" width="595px" height="350px" viewBox="-49.815 -131.847 595 350"
	 overflow="visible" enable-background="new -49.815 -131.847 595 350" xml:space="preserve">
<defs>
</defs>
<path fill="#726F6D" d="M413.111,32.692c0,1.152,0.169,2.321,0.618,3.418c2.02,4.979,7.113,8.039,13.579,5.447
	c1.561-0.623,44.497-17.918,44.497-17.918s-16.912,42.863-17.537,44.462c-2.477,6.135,0.495,11.701,5.529,13.576
	c1.126,0.402,2.277,0.603,3.424,0.588c4.077-0.023,7.707-2.442,9.477-7.275c0.287-0.732,21.423-58.781,21.904-60.194
	c0.258-0.811,0.76-2.764,0.766-4.102c0.005-2.877-1.066-5.587-3.113-7.626c-2.045-2.026-4.7-3.083-7.546-3.068
	c-1.364,0-2.49,0.244-4.194,0.789c-1.02,0.322-55.531,20.611-60.18,22.358C415.664,24.882,413.091,28.595,413.111,32.692"/>
<path fill="#726F6D" d="M28.948,113.277L9.985,85.988l18.893-24.215h11.385L20.992,85.643l20.573,27.635H28.948z M0,61.773h9.911
	v51.504H0V61.773z"/>
<path fill="#726F6D" d="M83.937,102.327c-2.691,8.607-10.928,11.976-19.408,11.976c-8.163,0-16.192-3.199-19.096-11.45
	c-1.098-3.063-1.247-6.42-1.247-9.633V61.773h9.938v29.535c0,3.143-0.154,7.173,1.457,10.008c1.799,3.297,5.542,4.376,9.044,4.376
	c3.267,0,6.998-1.079,8.814-4.089c1.693-2.833,1.603-6.553,1.603-9.784V61.773h9.937V93.94
	C84.979,96.788,84.837,99.624,83.937,102.327"/>
<polygon fill="#726F6D" points="134.189,113.277 134.189,73.094 123.175,113.277 112.969,113.277 102.093,73.094 102.093,113.277 
	93.194,113.277 93.194,61.773 106.983,61.773 118.142,102.696 129.448,61.773 143.094,61.773 143.094,113.277 "/>
<polygon fill="#726F6D" points="181.866,113.277 181.866,90.514 161.46,90.514 161.46,113.277 151.528,113.277 151.528,61.773 
	161.46,61.773 161.46,82.343 181.866,82.343 181.866,61.773 191.789,61.773 191.789,113.277 "/>
<path fill="#726F6D" d="M221.604,69.22c-9.99,0-12.906,10.068-12.906,18.316c0,8.238,2.916,18.297,12.971,18.297
	c9.926,0,12.984-10.059,12.984-18.297C234.653,79.288,231.595,69.22,221.604,69.22 M233.288,111.233
	c-3.513,2.124-7.683,3.072-11.684,3.072c-3.353,0-7.231-0.862-10.271-2.408c-9.51-4.886-12.922-14.232-12.922-24.361
	c0-9.852,3.122-18.91,12.12-24.005c3.342-1.899,7.285-2.78,11.137-2.78c6.068,0,11.974,2.201,16.198,6.573
	c5.208,5.309,7.074,12.991,7.074,20.212C244.941,97.148,241.899,106.044,233.288,111.233"/>
<polygon fill="#726F6D" points="283.422,70.261 283.422,113.272 273.522,113.272 273.522,70.261 259.951,70.261 259.951,61.817 
	297.067,61.817 297.067,70.261 "/>
<polygon fill="#726F6D" points="326.501,93.01 326.501,113.274 316.588,113.274 316.588,93.01 299.814,61.817 310.889,61.817 
	321.683,82.293 332.329,61.817 343.26,61.817 "/>
<path fill="#726F6D" d="M369.4,71.229c-2.184-1.025-5.243-0.967-7.66-0.967h-4.724v14.881h6.481c5.243,0,9.846-1.463,9.846-7.658
	C373.344,74.647,372.032,72.379,369.4,71.229 M374.638,113.277l-10.48-19.688h-7.141v19.688h-9.92V61.82h13.926
	c4.15,0,8.534-0.15,12.457,1.312c6.487,2.33,9.994,7.722,9.994,14.501c0,6.572-3.141,11.523-9.119,14.286l11.816,21.357H374.638z"/>
<polygon fill="#726F6D" points="391.054,113.277 391.054,61.82 423.48,61.82 423.48,70.263 400.964,70.263 400.964,82.378 
	421.448,82.378 421.448,90.829 400.964,90.829 400.964,104.806 424.284,104.806 424.284,113.277 "/>
</svg>
