<?xml version="1.0" encoding="utf-8"?>
<!-- Generator: Adobe Illustrator 15.1.0, SVG Export Plug-In  -->
<!DOCTYPE svg PUBLIC "-//W3C//DTD SVG 1.1//EN" "http://www.w3.org/Graphics/SVG/1.1/DTD/svg11.dtd" [
	<!ENTITY ns_flows "http://ns.adobe.com/Flows/1.0/">
]>
<svg version="1.1"
	 xmlns="http://www.w3.org/2000/svg" xmlns:xlink="http://www.w3.org/1999/xlink" xmlns:a="http://ns.adobe.com/AdobeSVGViewerExtensions/3.0/"
	 x="0px" y="0px" width="595px" height="350px" viewBox="-82.177 -175.679 595 350"
	 overflow="visible" enable-background="new -82.177 -175.679 595 350" xml:space="preserve">
<defs>
</defs>
<path fill="#666666" d="M341.047,41.093c-5.129,0.911-7.214,6.461-8.04,10.514c-0.933,4.557-0.049,10.829,6.058,9.047
	c3.538-1.034,9.684-5.854,9.789-11.544C348.99,41.764,344.492,40.481,341.047,41.093 M320.432,16.152
	c-5.708,6.821-5.948,19.485-4.825,30.57C323.56,35.667,322.327,16.599,320.432,16.152 M299.497,10.445
	c-0.497-0.948-1.243-1.788-1.788-2.475c-17.202-21.58-36.565,43.271-15.179,55.11c14.135,7.827,27.318-9.713,29.343-12.027
	c-1.859-11.99-2.731-30.051,4.024-37.58c12.681-14.133,13.946,26.479,1.74,38.353c2.295,6.624,3.06,11.117,8.979,3.286
	c0.71-2.754,1.201-6.13,2.475-8.658c3.662-7.268,9.616-9.437,13.192-9.276c0.785,0.034,8.257,1.207,9.498,8.1
	c1.437,7.98,0.695,15.218,6.789,13.134c4.039-1.537,11.278-15.758,12.469-16.904c6.756-5.88,1.875,5.345,1.856,19.376
	c2.631-4.065,4.296-10.526,6.593-15.459c1.536-4.032,6.017-1.952,5.979,1.648c5.403,0.074,7.664-4.68,10.307-8.041
	c5.01-27.712,7.634-40.215,8.864-32.773c0.873,5.286-1.977,13.413-3.455,24.034c-2.468,17.702-2.504,36.124,1.642,23.736
	c2.99-8.935,12.338-23.865,17.045-14.975c3.937,7.437-6.052,7.149-6.806,12.535c-1.079,7.698,11.239,20.088,15.663,21.444
	c4.937,1.512-0.827,5.306-4.059,3.31c-5.354-3.31-15.276-18.251-15.891-22.688c-1.012-7.302,11.953-9.233,6.79-12.688
	c-5.072-0.112-9.05,15.593-13.12,21.79c-8.821,13.428-6.186-13.856-6.672-19.188c-0.682,0.961-4.587,10.483-14.633,6.802
	c-0.26,0.407-14.769,34.908-10.721-0.206c-1.953,0.236-3.959,7.428-8.69,11.339c-2.836,2.348-6.262,2.539-7.696,2.061
	c-2.806-1.255-4.458-3.654-4.947-7.217c-6.975,11.399-20.22,10.154-21.645,5.152c-4.835,4.005-10.663,5.246-13.811-5.562
	c-11.927,11.277-32.556,26.266-42.565,2.81c-11.515-26.982,9.317-77.59,32.604-50.898c5.13,5.879,0.016,8.986-2.991,8.986
	C296.615,16.834,300.725,12.781,299.497,10.445 M199.845,60.948c-6.959-15.62,10.99-23.296,6.661-8.956
	C205.552,55.145,201.127,60.112,199.845,60.948 M158.334,51.971c-0.045-6.646,0.473-13.503,1.287-19.086
	c3.048-0.188,3.535-1.714,3.535-1.714s-1.206,0.043-3.288,0.114c1.217-7.451,2.968-12.12,4.522-9.914
	C167.166,25.305,163.287,41.239,158.334,51.971 M142.954,63.627c-2.113,0.664-5.414,0.984-6.596-0.411
	c-0.925-1.938-1.046-4.389-1.032-6.803c0.043-6.626,2.849-15.521,4.237-22.367c5.577-0.369,10.969-0.702,15.394-0.936
	c-0.875,5.909-1.268,13.347-0.873,22.479C152.105,58.514,147.28,62.27,142.954,63.627 M121.724,62.391
	c-11.148,4.75-8.493-14.362-5.599-26.722c5.025-0.355,11.357-0.808,17.812-1.246C132.977,43.115,130.102,58.82,121.724,62.391
	 M72.175,64.895c-3.98-15.083,11.106-29.263,14.548-15.932C88.021,53.989,74.702,71.448,72.175,64.895 M260.655,45.075
	c-1.56,1.561-6.929,17.666-9.763,18.688c-1.434,0.516-1.829-15.234-6.892-14.832c-2.154,0.172-11.28,15.791-13.532,15.636
	c-2.126-0.144-3.225-12.294-3.619-17.635c-0.396-5.342-5.29-1.048-5.153,4.329c-2.989,5.018-7.986,12.229-14.431,13.809
	c-2.08,0.512-3.944,0.096-4.946-1.442c3.299-2.855,7.889-7.133,9.07-12.778c3.896-18.644-24.524-8.578-15.138,12.743
	c-3.05,1.429-6.267,3.135-9.392,2.303c-5.2-1.384-3.048-16.252-6.184-18.345c-3.279-2.189-6.926,4.488-8.451,6.391
	c-7.804,9.723-11.034,18.278-12.916,3.284c0.432-0.593,3.765-7.158,5.171-12.095c4.287-15.04,6.204-28.509,0.571-30.104
	c-3.349-0.948-7.7,4.02-9.83,16.421c-4.098,0.142-9.457,0.326-15.272,0.524c0.086-0.525,0.164-1.04,0.223-1.531l0.206-3.09
	c0.708-1.896,0.889-4.89-0.825-5.153c-4.619-0.712-5.423,3.484-5.153,6.389c0,0-0.044,1.378-0.238,3.584
	c-5.829,0.2-11.841,0.401-17.319,0.588c0.803-3.122,1.537-5.499,1.892-6.438c0.297-0.784,1.117-0.838,1.237-1.855
	c0.381-3.207-3.569-3.766-5.153-1.443c-0.705,1.034-1.127,4.387-2.342,9.881c-8.79,0.291-15.429,0.501-16.28,0.501
	c-2.766,0-10.328,5.204-1.474,5.204s6.897-2.067,11.325-2.253c0.692-0.029,2.76-0.17,5.714-0.376
	c-1.329,5.442-3.403,12.493-6.94,21.054c-1.473,3.566-5.076,8.919-8.451,7.216c-4.541-2.871-3.987-9.182-5.771-14.841
	c-1.763-5.589-2.153-9.94-9.143-9.169c-8.05,0.893-16.597,12.011-14.954,25.196c-1.527-0.102-12.828-16.906-14.147-33.87
	c-4.241-54.541-6.389,18.204-18.648,17.431C24.746,48.425,26.376-18.662,20.1,5.086C19.551,7.168,8.937,51.239,4.799,57.632
	c-1.63,2.523-7.462,7.167-3.369,9.785c4.932,3.149,6.327-3.045,7.711-6.812c1.188-3.236,11.027-40.083,11.785-40.056
	c2.17,0.074,2.165,40.371,14.634,34.832c5.999-2.659,8.075-10.955,11.75-24.941c2.399,17.489,14.269,41.199,25.148,40.814
	c6.357-0.225,11.464-8.712,15.641-14.539c0.779,5.026,2.845,12.541,8.065,12.684c5.98,0.164,11.035-8.388,13.193-10.927
	c0.837,5.056,2.498,9.97,7.213,10.105c5.923,0.165,11.375-7.013,14.018-9.898c-0.451,5.788,2.115,12.75,8.451,11.339
	c4.722-1.051,13.292-7.538,16.079-9.689c0.823,1.877,1.524,3.966,2.885,5.566c7.247,8.523,11.101-5.063,20.821-12.574
	c3.158,7.243-4.213,23.125,18.964,12.985c0.361,0.221,3.952,4.478,7.584,3.744c6.223-1.256,14.165-8.349,17.767-11.782
	c4.448,22.873,9.844,10.834,19.995-2.266c1.971,1.65,3.374,10.92,4.742,13.396c3.598,6.514,11.572-14.757,13.604-18.965
	C264.186,50.074,264.622,41.107,260.655,45.075"/>
</svg>
