<?xml version="1.0" encoding="utf-8"?>
<!-- Generator: Adobe Illustrator 15.1.0, SVG Export Plug-In  -->
<!DOCTYPE svg PUBLIC "-//W3C//DTD SVG 1.1//EN" "http://www.w3.org/Graphics/SVG/1.1/DTD/svg11.dtd" [
	<!ENTITY ns_flows "http://ns.adobe.com/Flows/1.0/">
]>
<svg version="1.1"
	 xmlns="http://www.w3.org/2000/svg" xmlns:xlink="http://www.w3.org/1999/xlink" xmlns:a="http://ns.adobe.com/AdobeSVGViewerExtensions/3.0/"
	 x="0px" y="0px" width="595px" height="350px" viewBox="-69.172 -142.864 595 350"
	 overflow="visible" enable-background="new -69.172 -142.864 595 350" xml:space="preserve">
<defs>
</defs>
<path fill="#666666" d="M104.154,44.063c-0.881,2.732-2.09,5.305-3.562,7.709h27.489v-7.709H104.154z"/>
<path fill="#666666" d="M35.699,44.063H0v7.709h39.261C37.789,49.368,36.58,46.796,35.699,44.063"/>
<path fill="#666666" d="M70.058,0C51.782,0,36.974,14.809,36.974,33.084c0,18.272,14.809,33.084,33.084,33.084
	c18.267,0,33.084-14.812,33.084-33.084C103.142,14.809,88.324,0,70.058,0z M83.254,51.772L78.681,39.88l-3.918,11.893h-4.836h-4.836
	L61.163,39.88L56.59,51.772H44.172l13.074-38.815h7.058l5.623,13.069l5.745-13.069h6.936l13.459,38.815H83.254z"/>
<rect x="420.058" y="45.108" fill="#666666" width="36.599" height="6.664"/>
<polygon fill="#666666" points="175.814,51.772 168.448,51.772 168.448,27.339 157.164,51.772 150.913,51.772 139.75,27.339 
	139.75,51.772 132.412,51.772 132.412,19.696 144.812,19.696 154.212,40.948 163.49,19.696 175.814,19.696 "/>
<path fill="#666666" d="M209.236,44.415c-0.141,7.551-6.345,7.84-12.306,7.84c-2.652,0-5.248-0.098-7.91-0.289
	c-8.041-0.582-9.794-4.43-9.794-12.072c0-7.311,2.371-10.586,9.757-10.919c2.596-0.141,5.154-0.141,7.76-0.141
	c3.355,0,7.386,0.141,9.841,2.161c3.178,2.741,2.418,7.357,2.652,11.11h-21.678c0,3.412,0.993,4.762,4.452,4.809
	c1.556,0.051,3.073,0.098,4.639,0.098c1.556,0,3.449-0.145,4.067-0.965c0.338-0.479,0.338-1.102,0.375-1.631H209.236z
	 M196.125,33.83h-3.074c-2.409,0-5.539,0-5.539,3.322c0,0.193,0,0.437,0.047,0.624h13.58
	C201.139,34.265,199.246,33.83,196.125,33.83"/>
<path fill="#666666" d="M219.884,29.312v4.471c1.321-4.18,4.732-4.953,8.66-4.953c6.767,0,8.856,1.926,8.997,8.758v1.438h-7.62
	c-0.047-0.145-0.047-0.332-0.047-0.529c-0.29-3.173-1.658-3.463-4.742-3.463c-4.255,0-5.248,2.455-5.248,6.494v10.244h-8.191v-22.46
	H219.884z"/>
<path fill="#666666" d="M260.635,35.418c-0.094-0.717-0.562-1.106-1.275-1.247c-0.899-0.238-1.986-0.29-3.074-0.29h-3.552
	c-1.04,0-2.081,0-3.074,0.192c-0.853,0.145-1.715,0.82-1.715,1.775c0,1.396,1.48,1.543,2.755,1.543c3.027,0,6.008,0,9.035,0.047
	c5.023,0.098,10.609-0.094,10.609,6.641c0,3.363-0.516,5.623-3.89,6.973c-3.073,1.152-7.76,1.203-11.303,1.203h-3.458
	c-5.68,0-12.025,0-12.165-7.408h8.565c0.047,1.059,0.562,1.682,1.612,1.973c0.844,0.238,2.222,0.285,3.402,0.285
	c1.284,0,2.605,0.053,3.88,0.053c1.472,0,3.084-0.1,4.124-0.529c0.712-0.291,0.993-1.014,0.993-1.73
	c0-1.588-1.705-1.686-2.887-1.686h-6.157c-2.315,0-4.687,0-7.001-0.193c-4.265-0.389-6.393-2.502-6.393-6.827
	c0-5.82,4.303-6.687,8.988-7.118c2.652-0.192,5.352-0.192,8.004-0.192c2.465,0,4.968,0.047,7.433,0.478
	c3.739,0.628,4.92,2.451,5.164,6.059H260.635z"/>
<path fill="#666666" d="M302.238,44.415c-0.141,7.551-6.336,7.84-12.306,7.84c-2.644,0-5.249-0.098-7.901-0.289
	c-8.051-0.582-9.794-4.43-9.794-12.072c0-7.311,2.361-10.586,9.747-10.919c2.605-0.141,5.155-0.141,7.761-0.141
	c3.364,0,7.385,0.141,9.85,2.161c3.168,2.741,2.409,7.357,2.644,11.11H280.56c0,3.412,1.003,4.762,4.452,4.809
	c1.565,0.051,3.074,0.098,4.64,0.098c1.564,0,3.458-0.145,4.067-0.965c0.328-0.479,0.328-1.102,0.384-1.631H302.238z M289.136,33.83
	h-3.084c-2.418,0-5.539,0-5.539,3.322c0,0.193,0,0.437,0.047,0.624h13.581C294.141,34.265,292.257,33.83,289.136,33.83"/>
<path fill="#666666" d="M344.217,29.312v4.471c1.331-4.18,4.742-4.953,8.669-4.953c6.767,0,8.848,1.926,8.988,8.758v1.438h-7.62
	c-0.047-0.145-0.047-0.332-0.047-0.529c-0.29-3.173-1.658-3.463-4.732-3.463c-4.255,0-5.258,2.455-5.258,6.494v10.244h-8.191v-22.46
	H344.217z"/>
<path fill="#666666" d="M363.768,35.661c0.084-5.674,5.107-6.541,9.7-6.64c2.84-0.141,5.727-0.192,8.566-0.192
	c5.585,0,10.656,0.965,10.656,7.792v15.15h-8.238v-3.654c-1.425,4.086-6.252,4.137-9.851,4.137h-1.509
	c-5.83,0-10.272-0.439-10.272-7.605c0-4.85,2.746-6.968,7.339-7.16c1.649-0.145,3.355-0.145,5.014-0.145h2.409
	c2.605,0,5.211,0.094,6.87,2.404v-2.457c0-2.787-1.19-3.219-3.74-3.416c-1.284-0.047-2.559-0.094-3.786-0.094l-2.699,0.094
	c-1.274,0-2.277,0.294-2.324,1.785H363.768z M375.173,46.964h1.378c1.894,0,3.833-0.051,5.67-0.336
	c1.472-0.24,2.138-0.867,2.231-2.363c0-2.014-2.091-2.258-3.646-2.258c-1.564-0.047-3.13-0.094-4.686-0.094
	c-1.659,0-5.211,0-5.211,2.451C370.909,46.722,373.233,46.964,375.173,46.964"/>
<path fill="#666666" d="M403.993,25.75h-8.183v-6.055h8.183V25.75z M403.993,51.772h-8.183V29.317h8.183V51.772z"/>
<rect x="407.151" y="19.696" fill="#666666" width="8.191" height="32.077"/>
<path fill="#666666" d="M313.513,55.038l-11.565-25.857h9.091l6.486,16.543l7.15-16.543h9.082l-12.971,28.043
	c-2.034,4.371-4.64,4.609-9.129,4.609c-1.04,0-2.043-0.092-3.084-0.186v-5.676c0.619,0.047,1.19,0.047,1.8,0.047
	c1.247,0,2.108-0.225,2.765-0.652L313.513,55.038z"/>
<path fill="#666666" d="M322.735,57.653c-0.656,1.322-1.378,2.246-2.193,2.873h136.114v-2.873H322.735z"/>
<path fill="#666666" d="M97.06,57.653c-0.872,1.014-1.8,1.969-2.784,2.873h212.761v-2.873H97.06z"/>
<path fill="#666666" d="M42.794,57.653H0.028v2.873h45.549C44.594,59.622,43.665,58.667,42.794,57.653"/>
<path fill="#666666" d="M66.037,81.765c1.659,5.965,2.137,13.262,2.952,18.744c-2.006,1.674-2.193-4.1-2.671-6.439
	c-0.141-3.051-0.946-6.537-2.146-8.824c-4.583,4.627-7.207,11.305-12.362,14.453c-3.046-4.34-4.808-9.49-8.247-13.74
	c-2.765,4.869-2.521,11.547-5.577,16.078c-1.096-1.719,0.422-4.053,0.769-6.059c0-4.865,2.475-8.918,3.712-13.402
	c2.053-0.141,2.821,2.338,3.721,3.721c2.577,3.436,3.431,7.633,6.251,10.924c5.005-4.818,7.489-10.639,12.447-15.455H66.037z"/>
<path fill="#666666" d="M86.778,87.491c-1.997,2.816-4.199,2.428-6.055,2.338c0.188,5.004,0.571,9.822-2.53,13.928
	c-2.953,1.521-4.283-2.012-4.817-4.293c-0.422-4.963-0.956-9.785,2.961-13.121C79.965,88.202,82.485,88.821,86.778,87.491
	 M76.618,88.874c-1.912,3.621-1.912,9.633,0,13.309c1.865-2.531,3.149-5.25,2.531-8.727C78.624,91.829,79.243,88.774,76.618,88.874"
	/>
<path fill="#666666" d="M89.355,90.308c2.39-0.529,4.817-3.918,8.061-2.293c0.769,0.906,1.049,2.146,0.862,3.529
	c-2.381,0.613-1.575-4.348-4.396-1.668c-6.288,2.281-4.808,9.109-7.77,12.877c-0.281-0.529-0.815-0.098-1.331-0.238
	c-2.146-6.58,5.343-10.357,2.287-17.461C90.312,84.628,88.409,88.681,89.355,90.308"/>
<path fill="#666666" d="M110.631,87.196c-1.097,7.783-14.593,7.402-8.585,16.799c3.627-1.049,6.147-4.729,9.25-7.109
	c-2.671,3.482-5.192,9.828-10.638,8.68c-3.055-2.291-1.144-5.867-1.284-8.965c-0.712-0.525-3.336,0.908-3.242-1.336
	c7.244,0,6.008-12.357,14.499-10.352C111.155,85.485,111.155,86.681,110.631,87.196 M108.728,87.196
	c-2.286,0-3.055,2.01-4.536,3.486c-2.052,2.006,1.05,2.197,1.622,0.43C107.004,90.161,108.109,88.687,108.728,87.196"/>
<path fill="#666666" d="M133.48,84.866c-1.097,0.76-1.912,2.1-1.912,3.576c3.637,0.432,7.395-0.141,11.312-1.285
	c0.516,0.328,0.094,1.145,0,1.57c-3.918,1.195-8.069,1.768-12.362,2.006c-1.621,4.053-2.521,8.73-0.281,12.883
	c0.899,0.135,0.281-1.199,1.331-0.67c0.956,1.092-0.432,2.811-1.574,2.525c-1.903-0.1-2.531-2.385-2.719-4.152
	c0.291-2.957-0.524-7.25,1.05-10.066c-1.715-1.855-4.526,2.578-4.526-1.193c6.195,1.391,5.482-5.914,9.972-7.105
	C134.671,83.624,133.574,84.294,133.48,84.866"/>
<path fill="#666666" d="M150.463,73.513c-2.671,7.107-4.677,14.883-6.204,22.133c2.577-2.957,5.398-6.539,7.816-9.635
	c2.015-0.766,1.865,1.621,2.296,2.576c0,3.051-1.527,7.059,0,10.305c2.765-1.48,4.968-3.387,6.964-6.012
	c-0.666,2.766-3.243,5.867-6.008,8.014c-2.053,0.664-2.718-1.098-3.252-2.24c0.149-2.816-0.797-6.346,0-9.447
	c-4.049,3.102-7.386,8.49-9.007,13.547c-0.619,0.713-1.575,1.336-2.287,0.713c2.006-11.688,6.055-23.229,9.017-34.775
	C152.516,69.126,150.219,71.937,150.463,73.513"/>
<path fill="#666666" d="M176.556,86.39c1.05,2.385-1.865,2.291-2.006,4.152c-1.237,3.574-2.952,6.967-2.193,11.256
	c1.527,0.285,2.053-1.621,3.759-1.621c0.722,1.766-2.091,3.383-3.14,4.197c-1.237,0.234-2.193-0.43-2.859-1.24
	c0-4.148,1.097-8.16,1.622-11.637c-4.293,2.957-7.779,8.061-12.597,10.061c-1.237-2.572,0.956-5.959,1.574-8.771
	C163.771,86.774,171.494,83.433,176.556,86.39 M167.202,88.915c-2.999,2.057-5.437,5.539-6.055,8.975
	c4.143-2.625,7.629-6.584,11.209-9.641C172.113,86.104,168.776,88.249,167.202,88.915"/>
<path fill="#666666" d="M183.997,86.249c-0.675,2.957-1.19,5.914-1.912,9.016c0.291,0.76,0.524-0.285,0.956,0
	c1.855-3.678,5.248-6.584,8.772-7.826c2.39,4.055-0.946,9.307,1.574,13.309c3.056,0,5.867-4.002,8.07-5.914
	c-0.956,2.434-3.103,6.205-5.773,7.775c-1.865,0.951-4.583-0.137-4.583-2.291c-0.666-4.195,0-6.818-0.666-10.586
	c-5.107,3.48-8.351,9.016-10.638,14.213c-0.524-0.385-1.199-0.094-1.574-0.67c2.146-5.77,2.287-12.494,4.817-17.742
	C183.229,86.108,183.847,85.532,183.997,86.249C183.322,89.206,182.807,92.163,183.997,86.249"/>
<path fill="#666666" d="M219.097,84.388c-3.478,11.018-1.097,25.666-13.31,31.961c-4.526,1.334-6.813-3.529-8.585-6.49
	c-0.141-1.051-0.234-3.051,1.622-2.293c-1.519,3.01,2.437,4.869,3.721,6.781c1.912,1.045,4.198-0.432,5.97-1.621
	c8.295-8.211,4.677-19.086,9.204-29.008C218.431,83.573,218.675,84.103,219.097,84.388 M223.539,71.796
	c-0.094,0.76-0.581,1.814-0.862,1.857c-0.385,0.051-0.9-0.619-1.284-1.191C220.53,70.981,223.305,71.028,223.539,71.796"/>
<path fill="#666666" d="M237.035,85.917c-0.141,4.291-2.719,8.678-0.432,12.877c2.24,1.242,3.777-0.957,5.492-1.627
	c0,1.912-2.108,2.676-3.486,3.201c-2.006,1.377-4.293-0.623-4.573-2.531c-0.525-2-0.104-4.672-0.244-6.387
	c-3.768,3.145-6.579,7.441-10.347,10.295c-2.297,0.672-1.865-1.902-1.865-3.238c0.524-3.621-0.234-10.064,3.242-11.256
	c-0.946,3.057-0.946,7.535-1.377,11.256c4.817-3.049,9.963-7.773,12.634-12.881C236.463,85.392,236.463,86.198,237.035,85.917"/>
<path fill="#666666" d="M249.969,85.626c-0.104,1.766-3.439,0.623-3.871,3.008c-1.996,5.582,4.527,12.736-1.855,16.359
	c-2.202,0.811-3.486-1.242-4.864-1.574c0.281-0.432-0.909-1.762,0.665-1.908c0,1.285,1.575,1.908,2.521,2.24
	c5.83-2.381,0.432-8.293,1.678-13.543c0.234-2,0.524-4.582,2.905-5.104C248.104,85.292,249.678,84.581,249.969,85.626"/>
<path fill="#666666" d="M259.125,84.866c-1.105,0.76-1.911,2.1-1.911,3.576c3.627,0.432,7.395-0.141,11.303-1.285
	c0.524,0.328,0.094,1.145,0,1.57c-3.908,1.195-8.061,1.768-12.353,2.006c-1.622,4.053-2.531,8.73-0.291,12.883
	c0.909,0.135,0.291-1.199,1.341-0.67c0.955,1.092-0.432,2.811-1.575,2.525c-1.902-0.1-2.53-2.385-2.718-4.152
	c0.281-2.957-0.524-7.25,1.05-10.066c-1.715-1.855-4.527,2.578-4.527-1.193c6.195,1.391,5.483-5.914,9.963-7.105
	C260.315,83.624,259.219,84.294,259.125,84.866"/>
<path fill="#666666" d="M297.374,86.39c1.059,2.385-1.856,2.291-1.997,4.152c-1.246,3.574-2.961,6.967-2.192,11.256
	c1.527,0.285,2.043-1.621,3.758-1.621c0.722,1.766-2.09,3.383-3.14,4.197c-1.246,0.234-2.193-0.43-2.868-1.24
	c0-4.148,1.106-8.16,1.622-11.637c-4.293,2.957-7.77,8.061-12.587,10.061c-1.237-2.572,0.946-5.959,1.574-8.771
	C284.6,86.774,292.322,83.433,297.374,86.39 M288.029,88.915c-3.008,2.057-5.436,5.539-6.055,8.975
	c4.143-2.625,7.63-6.584,11.21-9.641C292.94,86.104,289.604,88.249,288.029,88.915"/>
<path fill="#666666" d="M319.942,84.388c-3.486,11.018-1.097,25.666-13.309,31.961c-4.536,1.334-6.823-3.529-8.585-6.49
	c-0.15-1.051-0.244-3.051,1.621-2.293c-1.527,3.01,2.428,4.869,3.721,6.781c1.902,1.045,4.199-0.432,5.961-1.621
	c8.295-8.211,4.677-19.086,9.203-29.008C319.268,83.573,319.511,84.103,319.942,84.388 M324.375,71.796
	c-0.094,0.76-0.571,1.814-0.862,1.857c-0.374,0.051-0.899-0.619-1.283-1.191C321.367,70.981,324.141,71.028,324.375,71.796"/>
<path fill="#666666" d="M336.69,87.491c-2.006,2.816-4.208,2.428-6.063,2.338c0.188,5.004,0.571,9.822-2.531,13.928
	c-2.961,1.521-4.292-2.012-4.817-4.293c-0.431-4.963-0.955-9.785,2.962-13.121C329.858,88.202,332.389,88.821,336.69,87.491
	 M326.521,88.874c-1.902,3.621-1.902,9.633,0,13.309c1.865-2.531,3.149-5.25,2.53-8.727
	C328.527,91.829,329.146,88.774,326.521,88.874"/>
<path fill="#666666" d="M349.709,85.917c-0.15,4.291-2.728,8.678-0.432,12.877c2.24,1.242,3.768-0.957,5.483-1.627
	c0,1.912-2.1,2.676-3.487,3.201c-1.996,1.377-4.292-0.623-4.573-2.531c-0.524-2-0.094-4.672-0.244-6.387
	c-3.768,3.145-6.579,7.441-10.347,10.295c-2.287,0.672-1.855-1.902-1.855-3.238c0.516-3.621-0.244-10.064,3.233-11.256
	c-0.946,3.057-0.946,7.535-1.378,11.256c4.817-3.049,9.973-7.773,12.644-12.881C349.128,85.392,349.128,86.198,349.709,85.917"/>
<path fill="#666666" d="M358.716,90.308c2.39-0.529,4.817-3.918,8.06-2.293c0.769,0.906,1.06,2.146,0.862,3.529
	c-2.38,0.613-1.574-4.348-4.386-1.668c-6.299,2.281-4.817,9.109-7.779,12.877c-0.281-0.529-0.806-0.098-1.331-0.238
	c-2.146-6.58,5.343-10.357,2.287-17.461C359.672,84.628,357.76,88.681,358.716,90.308"/>
<path fill="#666666" d="M372.84,86.249c-0.666,2.957-1.2,5.914-1.912,9.016c0.29,0.76,0.524-0.285,0.956,0
	c1.865-3.678,5.248-6.584,8.772-7.826c2.39,4.055-0.947,9.307,1.574,13.309c3.056,0,5.877-4.002,8.069-5.914
	c-0.956,2.434-3.102,6.205-5.773,7.775c-1.864,0.951-4.583-0.137-4.583-2.291c-0.665-4.195,0-6.818-0.665-10.586
	c-5.099,3.48-8.351,9.016-10.638,14.213c-0.524-0.385-1.19-0.094-1.574-0.67c2.146-5.77,2.287-12.494,4.817-17.742
	C372.071,86.108,372.699,85.532,372.84,86.249C372.174,89.206,371.64,92.163,372.84,86.249"/>
<path fill="#666666" d="M399.981,87.196c-1.097,7.783-14.602,7.402-8.594,16.799c3.627-1.049,6.157-4.729,9.26-7.109
	c-2.672,3.482-5.202,9.828-10.638,8.68c-3.056-2.291-1.144-5.867-1.294-8.965c-0.712-0.525-3.336,0.908-3.242-1.336
	c7.254,0,6.017-12.357,14.508-10.352C400.507,85.485,400.507,86.681,399.981,87.196 M398.069,87.196
	c-2.286,0-3.055,2.01-4.526,3.486c-2.053,2.006,1.05,2.197,1.621,0.43C396.354,90.161,397.451,88.687,398.069,87.196"/>
<path fill="#666666" d="M405.802,85.724v10.592c4.293-2.006,5.773-10.451,11.725-9.926c0.385,2.104-1.668,4.152-2.286,6.393
	c-2.568,10.492-9.251,22.709-20.029,26.33c-3.346-0.285-6.823-1.766-8.304-5.104c-0.806-1.766,0-3.621,1.19-4.816
	c2.296,0.525-1.715,3.861,1.05,5.488c1.771,2.047,4.058,2.572,6.495,3.236c5.764-1.475,9.25-8.199,13.158-12.877
	c2.438-5.145,4.293-10.348,5.773-15.834c-3.336,3.051-6.345,7.539-8.772,11.641c-0.243,0.711-0.769-0.1-1.199,0
	C404.087,96.122,402.652,88.921,405.802,85.724C405.802,88.774,405.802,93.212,405.802,85.724"/>
</svg>
