<?xml version="1.0" encoding="utf-8"?>
<!-- Generator: Adobe Illustrator 15.1.0, SVG Export Plug-In  -->
<!DOCTYPE svg PUBLIC "-//W3C//DTD SVG 1.1//EN" "http://www.w3.org/Graphics/SVG/1.1/DTD/svg11.dtd" [
	<!ENTITY ns_flows "http://ns.adobe.com/Flows/1.0/">
]>
<svg version="1.1"
	 xmlns="http://www.w3.org/2000/svg" xmlns:xlink="http://www.w3.org/1999/xlink" xmlns:a="http://ns.adobe.com/AdobeSVGViewerExtensions/3.0/"
	 x="0px" y="0px" width="595px" height="350px" viewBox="-139.49 -122.243 595 350"
	 overflow="visible" enable-background="new -139.49 -122.243 595 350" xml:space="preserve">
<defs>
</defs>
<g>
	<g>
		<path fill="#726F6D" d="M153.076,74.32l-0.025,12.571c-0.025,14.187,5.066,17.064,18.619,17.089l13.334,0.032
			c12.084,0.019,17.508-1.834,17.525-9.557c0-0.863-0.098-1.737-0.199-2.74l-27.201-0.047l0.039-18.251h51.268l-0.07,29.803
			c-0.033,18.306-11.301,23.522-35.469,23.463l-25.74-0.047c-11.977-0.024-20.518-0.666-27.066-6.778
			c-6.35-5.99-8.729-14.215-8.709-26.543l0.059-24.647c0.051-27.139,9.961-34.918,35.801-34.867h61.707l0.098,22.597l-55.387,0.16
			C156.654,56.53,153.105,58.887,153.076,74.32z M316.018,86.154c0,47.573-70.744,86.145-158.008,86.145
			C70.738,172.299,0,133.728,0,86.154C0,38.585,70.738,0,158.01,0C245.273,0,316.018,38.585,316.018,86.154z M36.213,41.025
			l-0.008-0.072C18.695,53.707,8.359,69.3,8.359,86.154c0,16.835,10.312,32.415,27.791,45.156L36.213,41.025z M285.639,127.585
			h-51.791v-1.441v-20.713V18.737c-22.15-6.697-47.877-10.544-75.352-10.544c-45.016,0-85.381,10.306-112.898,26.599h48.766
			c8.861,0.018,15.307,0.827,20.096,3.828c8.121,5.124,10.918,14.588,10.883,30.279c-0.045,24.271-6.002,33.936-22.787,33.89H59.367
			v41.887c26.441,12.084,61.123,19.435,99.129,19.435C212.078,164.11,259.07,149.521,285.639,127.585z M93.434,80.25
			c6.459,0.012,8.342-3.43,8.355-12.271c0.02-7.22-2.375-10.62-8.309-10.632H59.412L59.359,80.25H93.434z M308.625,86.154
			c0-23.124-19.406-43.892-50.209-58.164v77.44h37.096v12.576C303.916,108.28,308.625,97.507,308.625,86.154z"/>
	</g>
</g>
</svg>
