<?xml version="1.0" encoding="utf-8"?>
<!-- Generator: Adobe Illustrator 15.1.0, SVG Export Plug-In  -->
<!DOCTYPE svg PUBLIC "-//W3C//DTD SVG 1.1//EN" "http://www.w3.org/Graphics/SVG/1.1/DTD/svg11.dtd" [
	<!ENTITY ns_flows "http://ns.adobe.com/Flows/1.0/">
]>
<svg version="1.1"
	 xmlns="http://www.w3.org/2000/svg" xmlns:xlink="http://www.w3.org/1999/xlink" xmlns:a="http://ns.adobe.com/AdobeSVGViewerExtensions/3.0/"
	 x="0px" y="0px" width="595px" height="350px" viewBox="-162.424 -39.926 595 350"
	 overflow="visible" enable-background="new -162.424 -39.926 595 350" xml:space="preserve">
<defs>
</defs>
<path fill="#726F6D" d="M135.076,0C60.473,0,0,60.472,0,135.076c0,74.601,60.473,135.072,135.076,135.072
	c74.603,0,135.074-60.472,135.074-135.072C270.15,60.472,209.679,0,135.076,0z M135.076,266.178
	c-72.408,0-131.104-58.696-131.104-131.104c0-72.409,58.695-131.104,131.104-131.104c72.406,0,131.104,58.695,131.104,131.104
	C266.18,207.481,207.482,266.178,135.076,266.178z"/>
<path fill="#726F6D" d="M110.508,107.458c4.141,3.047,8.006,4.039,12.359,2.713c4.104-1.064,7.165-3.918,8.919-8.562
	c1.757-4.896,1.971-9.783,0.378-15.165c-1.592-5.639-4.199-9.732-8.081-12.778c-4.145-3.305-8.008-4.042-12.366-2.975
	c-4.102,1.323-7.158,4.175-8.914,8.818c-1.76,4.645-1.973,9.53-0.378,15.17C103.759,100.065,106.624,104.409,110.508,107.458z"/>
<path fill="#726F6D" d="M97.034,131.895c3.582-2.089,5.859-5.71,6.331-10.595c0.724-5.148-0.604-10.019-3.477-14.88
	c-2.873-4.854-6.503-8.422-11.144-10.179c-4.647-2.015-8.756-1.715-12.594,0.372c-3.576,2.343-5.859,5.71-6.327,10.851
	c-0.726,4.891,0.603,9.763,3.475,14.619c2.871,4.856,6.503,8.424,11.146,10.438C89.088,134.278,93.2,134.242,97.034,131.895z"/>
<path fill="#726F6D" d="M154.111,110.745c4.367-0.039,8.203-2.131,11.253-6.015c2.792-4.137,4.288-9.035,4.237-14.687
	c-0.053-5.654-1.895-10.522-4.758-14.61c-2.863-3.829-6.737-5.849-10.847-5.811c-4.369,0.038-8.209,2.13-10.997,6.265
	c-3.05,3.883-4.546,8.781-4.495,14.435c0.052,5.654,1.636,10.522,4.497,14.353C146.124,108.757,149.743,110.783,154.111,110.745z"/>
<path fill="#726F6D" d="M199.028,103.374c-2.095-4.352-4.688-7.155-8.811-8.146c-4.123-0.987-7.968,0.073-11.798,2.936
	c-3.568,3.115-6.362,6.995-7.598,12.406c-1.494,5.152-1.195,10.033,0.645,14.645c1.84,4.349,4.949,6.893,8.814,8.143
	c4.12,0.991,7.969,0.188,11.796-2.935c3.831-2.859,6.361-7.252,7.601-12.404C200.913,112.609,200.869,107.983,199.028,103.374z"/>
<path fill="#726F6D" d="M137.54,114.312c0,0-50.946,16.922-50.946,57.477c0,15.87,12.863,28.739,28.738,28.739
	c7.713,0,14.711-3.046,19.874-7.993v-4.272l-0.011,0.019c-5.203-2.834-17.266-10.634-17.266-21.104
	c0-6.107,4.952-11.062,11.061-11.062c3.445,0,6.521,1.575,8.55,4.044c2.027-2.469,5.104-4.044,8.548-4.044
	c6.107,0,11.062,4.955,11.062,11.062c0,12.255-12.076,18.815-17.273,21.109c0,0-0.003,2.374-0.003,4.25
	c5.157,4.945,12.155,7.991,19.871,7.991c15.871,0,28.737-12.869,28.737-28.739C188.482,137.118,137.54,114.312,137.54,114.312z"/>
<path fill="#666666" d="M32.723,166.654c-0.287-0.912-0.088-1.659,0.367-1.893c0.454-0.233,2.688-1.069,6.576-2.285
	c1.792-0.562,2.791-0.28,3.193,1.006c0.584,1.867-0.906,2.926-4.62,4.088C35.049,168.568,33.357,168.688,32.723,166.654z
	 M58.417,60.447c0.415,0.297,1.168,0.133,1.849-0.539c1.519-1.498,0.639-2.945-1.71-5.324c-2.733-2.771-4.357-3.612-5.752-2.237
	c-0.958,0.947-0.75,1.963,0.569,3.3C56.234,58.548,58.001,60.151,58.417,60.447z M261.794,135.076
	c0,69.981-56.734,126.716-126.718,126.716c-69.985,0-126.72-56.734-126.72-126.716c0-69.985,56.734-126.72,126.72-126.72
	C205.06,8.356,261.794,65.091,261.794,135.076z M212.488,42.285l-19.021,19.436c-1.536,1.57-2.021,2.187-0.868,3.313l2.764,2.708
	c0.747,0.73,1.475,0.546,2.34-0.337l6.756-6.904l0.561,0.548l-3.98,8.854c-0.717,1.604-1.261,2.161-0.204,3.194l2.643,2.586
	c0.248,0.244,0.401,0.522,0.618,0.735c0.685,0.669,1.44,0.705,1.986,0.149c0.158-0.165,0.289-0.421,0.419-0.741l3.833-9.575
	c2.857,0.811,5.533-0.99,9.471-5.014c5.765-5.89,6.356-9.667,2.285-13.652c-1.305-1.278-2.552-2.306-3.516-3.249
	c-0.65-0.64-1.396-1.495-2.359-2.439C214.691,40.406,213.929,40.813,212.488,42.285z M135.076,48.997
	c-47.533,0-86.079,38.545-86.079,86.079c0,47.526,38.546,86.075,86.079,86.075s86.077-38.549,86.077-86.075
	C221.153,87.542,182.609,48.997,135.076,48.997z M176.252,46.229c-1.061,1.924-2.19,3.34-2.898,4.624
	c-0.574,1.043-0.281,2.041,0.823,2.65c0.991,0.547,1.993,0.891,2.792,1.333c2.628,1.45,4.633,2.766,6.195,3.628
	c2.019,1.113,2.55,0.151,4.119-2.695c1.261-2.285,1.565-3.11,0.006-3.971c-0.305-0.169-1.47-0.759-3.375-1.81
	c-1.179-0.651-1.16-0.955-0.477-2.198l1.344-2.344c0.531-0.963,0.79-1.342,1.895-0.733c1.408,0.777,2.311,1.485,2.996,1.862
	c1.104,0.61,2.048-0.02,3.042-1.824l0.643-1.164c1.104-2.004,1.328-2.77-0.5-3.778c-1.065-0.589-2.008-0.952-2.655-1.309
	c-1.258-0.693-1.046-1.257-0.227-2.74l0.287-0.521c0.664-1.203,1.151-1.457,1.988-0.994l1.752,0.967
	c0.533,0.294,0.968,0.586,1.388,0.817c1.37,0.757,2.063,0.669,2.948-0.935c0.134-0.241,0.537-1.063,1.311-2.466
	c0.885-1.604,0.693-2.336-0.868-3.199c-0.418-0.231-0.668-0.317-0.745-0.359c-0.266-0.148-0.473-0.314-0.626-0.398l-5.939-3.278
	c-2.019-1.113-2.9-1.496-3.94,0.389c-0.265,0.481-0.403,0.823-0.515,1.023L176.252,46.229z M160.346,48.356l1.458,0.438
	c2.04,0.614,2.718,0.626,3.443-1.785c0.565-1.885,0.958-3.488,1.367-4.848c1.12-3.726,3.079-9.782,5.599-18.156l0.79-2.631
	c0.475-1.578,0.71-2.511,0.454-3.018c-0.297-0.52-0.908-0.752-1.908-1.052l-1.916-0.576c-1.875-0.563-2.441-0.639-3.01,1.247
	c-0.091,0.307-0.469,1.867-1.313,4.672c-3.956,13.152-6.338,20.467-6.8,22.001C157.73,47.236,157.848,47.605,160.346,48.356z
	 M127.566,41.817c-0.065,1.738,0.424,2.627,1.51,2.669l2.824,0.107c2.13,0.081,2.312-0.141,2.361-1.467
	c0.037-0.961,0.155-1.781,0.185-2.559l0.509-13.36l0.521,0.02c1.645,5.973,2.483,9.075,3.613,9.118
	c1.044,0.04,2.201-2.94,3.601-8.843l0.651,0.024c0.037,1.331,0.044,3.438-0.065,6.321l-0.334,8.784
	c-0.063,1.692,0.258,2.393,1.475,2.438l3.911,0.149c1.085,0.042,1.374-0.681,1.446-2.602c0.012-0.274-0.021-1.696,0.075-4.258
	c0.243-6.36,0.332-11.03,0.443-13.958c0.157-4.117,0.447-7.175,0.522-9.143c0.084-2.196-0.106-2.937-1.67-2.997l-4.779-0.182
	c-0.913-0.035-1.409,0.404-1.76,1.628l-2.936,10.839l-0.522-0.02l-1.718-9.779c-0.465-2.629-1.018-2.971-2.496-3.026l-4.04-0.154
	c-1.695-0.065-2.227,0.189-2.283,1.654c-0.032,0.869,0.062,1.789,0.024,2.796c-0.07,1.83-0.212,3.29-0.254,4.389l-0.754,19.856
	L127.566,41.817z M98.99,19.335c0.135,0.533,0.265,0.878,0.321,1.1l5.358,21.55c0.534,2.131,0.673,3.937,1.029,5.359
	c0.29,1.154,1.186,1.685,2.408,1.378c1.097-0.275,2.066-0.707,2.951-0.929c2.91-0.73,5.275-1.134,7.006-1.568
	c2.235-0.561,1.967-1.626,1.177-4.78c-0.635-2.531-0.973-3.343-2.702-2.91c-0.338,0.085-1.592,0.447-3.701,0.976
	c-1.307,0.329-1.5,0.094-1.847-1.283l-0.613-2.63c-0.269-1.067-0.338-1.521,0.887-1.828c1.561-0.392,2.701-0.489,3.462-0.68
	c1.223-0.307,1.483-1.411,0.983-3.409l-0.323-1.288c-0.557-2.221-0.916-2.934-2.939-2.426c-1.183,0.296-2.119,0.673-2.836,0.853
	c-1.393,0.348-1.621-0.208-2.033-1.851l-0.144-0.578c-0.336-1.332-0.151-1.851,0.777-2.083l1.939-0.486
	c0.592-0.148,1.108-0.231,1.573-0.347c1.519-0.381,1.967-0.919,1.521-2.694c-0.066-0.267-0.331-1.145-0.722-2.699
	c-0.445-1.776-1.086-2.183-2.813-1.749c-0.466,0.116-0.706,0.224-0.79,0.246c-0.296,0.074-0.561,0.093-0.73,0.135l-6.58,1.65
	C99.373,16.926,98.469,17.248,98.99,19.335z M68.162,34.435L81.398,58.19c1.071,1.919,1.525,2.557,2.931,1.774l3.382-1.885
	c0.912-0.507,0.941-1.258,0.341-2.338l-4.702-8.438l0.684-0.382l7.36,6.329c1.334,1.143,1.714,1.823,3.004,1.103l3.229-1.8
	c0.305-0.169,0.615-0.237,0.882-0.385c0.836-0.466,1.084-1.182,0.704-1.862c-0.111-0.2-0.319-0.397-0.59-0.614l-8.093-6.391
	c1.589-2.51,0.62-5.587-2.119-10.506c-4.011-7.198-7.466-8.838-12.442-6.065c-1.597,0.89-2.934,1.793-4.113,2.449
	c-0.797,0.445-1.83,0.916-3.007,1.571C66.987,31.788,67.16,32.635,68.162,34.435z M43.873,55.246
	c0.481,0.488,2.727,2.455,6.361,6.137c4.053,4.106,7.498,7.846,10.522,10.91c1.286,1.303,2.187,2.152,2.604,2.577
	c0.225,0.228,0.547,0.617,0.998,1.073c0.738,0.75,1.372,0.833,1.96,0.253c0.496-0.489,0.892-1.202,1.511-1.813
	c0.464-0.458,0.933-0.727,1.271-1.063c0.836-0.825,0.793-1.489-0.076-2.369c-0.29-0.294-1.571-1.345-3.566-3.365
	c-1.06-1.076-0.978-1.735,0.136-2.836c0.187-0.183,0.435-0.364,0.62-0.547c3.529-3.483,2.754-9.345-2.811-14.983
	c-5.79-5.867-10.502-6.619-14.836-2.341c-3.468,3.421-5.101,5.42-5.192,5.512C42.604,53.279,42.777,54.137,43.873,55.246z
	 M25.978,169.175c0.079,0.248,0.126,0.553,0.204,0.801c1.48,4.732,7.047,6.727,14.607,4.361c7.865-2.462,10.689-6.307,8.872-12.117
	c-1.454-4.648-2.483-7.015-2.521-7.139c-0.438-1.094-1.279-1.333-2.767-0.867c-0.655,0.206-3.432,1.301-8.367,2.847
	c-5.508,1.723-10.41,3.075-14.518,4.359c-1.748,0.546-2.914,0.957-3.482,1.136c-0.306,0.095-0.799,0.204-1.412,0.396
	c-1.004,0.314-1.368,0.838-1.122,1.626c0.208,0.665,0.661,1.344,0.92,2.174c0.195,0.622,0.221,1.162,0.363,1.619
	c0.351,1.12,0.962,1.385,2.141,1.015c0.394-0.123,1.914-0.781,4.624-1.628C24.961,167.306,25.511,167.68,25.978,169.175z
	 M46.861,194.654l1.146-0.672c1.975-1.155,2.559-1.699,1.504-3.5c-0.617-1.052-1.241-1.846-1.613-2.484
	c-0.727-1.237-0.258-1.613,1.204-2.469l0.515-0.301c1.185-0.693,1.734-0.663,2.218,0.162l1.011,1.727
	c0.309,0.525,0.533,0.998,0.773,1.41c0.793,1.353,1.433,1.632,3.014,0.706c0.236-0.139,1.005-0.639,2.389-1.448
	c1.58-0.926,1.79-1.653,0.889-3.192c-0.241-0.414-0.412-0.614-0.456-0.689c-0.155-0.263-0.247-0.511-0.336-0.662l-3.429-5.853
	c-1.165-1.989-1.729-2.769-3.585-1.681c-0.474,0.277-0.768,0.5-0.965,0.614l-19.184,11.186c-1.896,1.111-3.591,1.752-4.854,2.49
	c-1.027,0.603-1.286,1.61-0.647,2.699c0.571,0.975,1.257,1.783,1.719,2.571c1.517,2.59,2.567,4.745,3.47,6.283
	c1.164,1.989,2.113,1.435,4.918-0.208c2.252-1.319,2.936-1.872,2.034-3.41c-0.175-0.3-0.874-1.402-1.974-3.279
	c-0.682-1.163-0.512-1.415,0.715-2.132l2.353-1.327c0.946-0.557,1.364-0.75,2.002,0.338c0.813,1.389,1.228,2.458,1.624,3.134
	C43.951,195.754,45.084,195.696,46.861,194.654z M73.575,200.963c-0.508-0.537-1.113-1.042-1.681-1.643
	c-0.628-0.664-1.277-1.548-2.174-2.495c-0.27-0.284-1.771-1.737-4.403-4.517c-0.958-1.011-1.972-0.949-3.168,0.185
	c-2.195,2.078-3.195,3.086-2.92,3.843c0.385,1.071,1.456,1.736,2.032,2.747c0.145,0.282,0.008,0.473-0.392,0.851
	c-2.493,2.361-4.013,3.618-4.444,4.029c-0.598,0.565-1.104,1.164-1.637,1.668l-8.609,8.153c-0.599,0.565-1.258,1.069-1.823,1.604
	c-0.931,0.881-0.971,1.639,0.017,2.681c0.748,0.79,1.477,1.357,1.983,1.896c0.33,0.348,0.534,0.632,0.685,0.789
	c0.779,0.821,1.477,0.759,2.475-0.185c0.432-0.41,1.072-1.197,2.104-2.174l13.436-12.779l0.565-0.537
	c0.565-0.534,1.007-0.532,1.813,0.319l0.988,1.043c1.018,1.072,2.177,0.034,4.473-2.138l0.397-0.378
	C74.723,202.572,74.712,202.161,73.575,200.963z M93.793,224.267c0.549,0.073,1.015,0.309,1.441,0.523
	c0.428,0.216,0.775,0.393,1.071,0.388c0.807-0.056,1.21-0.468,1.643-1.325c0.288-0.573,0.479-1.143,0.687-1.552
	c0.393-0.777,0.74-1.37,0.925-1.738c0.867-1.716,0.552-2.44-1.08-3.264c-7.88-3.979-11.798-1.239-17.1,9.268
	c-2.743,5.436-4.315,9.515-3.912,13.155c0.423,3.701,2.37,5.248,5.708,6.933c1.98,1,2.965,0.884,3.832-0.834
	c0.103-0.204,0.541-1.267,1.531-3.228c0.557-1.104,0.418-1.891-0.281-2.245c-0.387-0.195-0.973-0.389-1.593-0.702
	c-2.445-1.234-1.34-3.907,1.279-9.1C90.297,225.887,91.482,223.922,93.793,224.267z M116.164,223.604
	c-0.209-0.575-0.704-0.75-1.503-0.957l-5.18-1.339c-1.221-0.317-1.653,0.658-2.815,3.243c-0.345,0.81-2.254,5.233-6.004,13.298
	c-0.531,1.186-0.799,2.395-1.273,3.359l-2.97,6.088c-0.575,1.177-1.133,2.121-1.351,2.962c-0.229,0.887,0.088,1.395,1.267,1.699
	l3.872,1.002c1.643,0.425,2.163-0.197,2.669-2.146c0.126-0.489,0.21-0.987,0.359-1.562c0.206-0.799,1.197-1.156,2.755-0.753
	c1.096,0.282,1.455,0.801,1.42,1.975c-0.018,0.941-0.391,2.027-0.412,3.156c-0.011,0.564,0.451,1.205,0.998,1.348l3.707,0.958
	c1.179,0.305,2.118-0.208,2.372-1.185c0.437-1.685,0.221-4.151,0.462-7.163c0.425-5.281,1.032-9.191,1.158-11.76
	C116.046,228.398,116.414,224.378,116.164,223.604z M143.396,256.868c0.003-0.229-0.079-0.505-0.205-0.828l-3.803-9.584
	c2.631-1.378,3.336-4.526,3.427-10.158c0.134-8.239-2.034-11.389-7.73-11.48c-1.826-0.029-3.438,0.082-4.784,0.061
	c-0.915-0.015-2.045-0.124-3.391-0.146c-2.132-0.033-2.406,0.786-2.438,2.847l-0.441,27.192c-0.035,2.197,0.04,2.977,1.647,3.002
	l3.871,0.062c1.043,0.019,1.445-0.617,1.465-1.853l0.157-9.661l0.782,0.013l3.199,9.165c0.582,1.657,0.57,2.437,2.05,2.46
	l3.695,0.059c0.349,0.005,0.651,0.102,0.954,0.107C142.811,258.141,143.383,257.646,143.396,256.868z M169.176,248.828
	c-0.589-2.542-0.912-3.359-2.649-2.958c-0.339,0.078-1.599,0.416-3.717,0.905c-1.314,0.305-1.504,0.065-1.823-1.318l-0.567-2.641
	c-0.247-1.071-0.309-1.527,0.921-1.81c1.568-0.363,2.711-0.44,3.473-0.615c1.229-0.285,1.51-1.384,1.046-3.391l-0.299-1.294
	c-0.517-2.23-0.861-2.951-2.895-2.48c-1.188,0.274-2.132,0.634-2.851,0.8c-1.399,0.323-1.619-0.237-2-1.887l-0.133-0.581
	c-0.311-1.337-0.117-1.852,0.815-2.067l1.949-0.45c0.593-0.138,1.111-0.21,1.578-0.318c1.524-0.354,1.981-0.881,1.569-2.666
	c-0.062-0.268-0.311-1.149-0.672-2.712c-0.412-1.784-1.045-2.202-2.782-1.801c-0.466,0.107-0.71,0.212-0.794,0.231
	c-0.298,0.067-0.562,0.082-0.732,0.122l-6.609,1.528c-2.244,0.518-3.157,0.822-2.672,2.919c0.124,0.537,0.248,0.884,0.301,1.106
	l4.965,21.646c0.494,2.142,0.6,3.95,0.93,5.378c0.269,1.158,1.154,1.706,2.384,1.423c1.101-0.255,2.077-0.668,2.968-0.874
	c2.923-0.677,5.294-1.036,7.031-1.438C170.156,253.067,169.908,251.996,169.176,248.828z M200.554,228.743
	c0.214-0.149,0.489-0.286,0.702-0.437c4.061-2.847,4.274-8.754-0.271-15.237c-4.73-6.747-9.252-8.272-14.238-4.778
	c-3.988,2.796-5.933,4.493-6.038,4.568c-0.909,0.75-0.882,1.624,0.013,2.897c0.395,0.562,2.279,2.874,5.248,7.11
	c3.311,4.723,6.086,8.981,8.556,12.506c1.051,1.5,1.796,2.485,2.137,2.973c0.185,0.263,0.438,0.701,0.807,1.225
	c0.604,0.863,1.214,1.051,1.891,0.576c0.569-0.399,1.079-1.036,1.792-1.536c0.533-0.374,1.04-0.561,1.431-0.836
	c0.962-0.673,1.029-1.336,0.319-2.349c-0.235-0.336-1.324-1.586-2.952-3.909C199.079,230.279,199.271,229.643,200.554,228.743z
	 M228.543,211.18l-1.798-1.627c-1.493-1.353-2.304-1.617-3.384-0.424c-0.438,0.483-0.717,0.995-1.038,1.349
	c-0.701,0.773-1.263,0.851-2.195,0.243c-0.863-0.548-4.697-4.019-11.552-10.226c-2.681-2.427-4.178-3.843-4.517-4.149
	c-0.849-0.769-1.454-1.258-1.954-1.183c-0.22,0.036-0.43,0.199-0.692,0.489c-0.351,0.387-0.808,1.029-1.479,1.77
	c-0.76,0.838-1.23,1.291-1.347,1.42c-0.905,0.998-0.354,1.617,1.343,3.153c2.851,2.581,5.391,4.821,7.598,6.818
	c4.07,3.688,7.711,7.101,11.037,10.111l0.339,0.307c2.204,1.998,3.218,2.856,4.327,1.632c0.292-0.323,0.458-0.643,0.662-0.867
	l3.65-4.029c0.291-0.323,0.734-0.742,1.231-1.292C229.884,213.45,229.798,212.317,228.543,211.18z M243.74,189.445
	c-1.487-0.901-3.912-1.405-6.727-2.5c-4.937-1.924-8.506-3.63-10.932-4.487c-7.013-2.471-10.758-3.977-11.569-3.96
	c-0.611,0.036-0.92,0.46-1.349,1.166l-2.772,4.575c-0.655,1.078,0.157,1.773,2.296,3.63c0.678,0.562,4.365,3.66,11.01,9.569
	c0.982,0.851,2.062,1.453,2.851,2.185l4.979,4.594c0.96,0.887,1.702,1.693,2.447,2.144c0.782,0.475,1.359,0.316,1.991-0.726
	l2.072-3.422c0.88-1.451,0.435-2.128-1.288-3.172c-0.431-0.261-0.884-0.483-1.393-0.792c-0.706-0.427-0.763-1.48,0.071-2.856
	c0.586-0.967,1.187-1.162,2.3-0.794c0.896,0.289,1.83,0.957,2.905,1.304c0.536,0.173,1.282-0.088,1.576-0.571l1.982-3.272
	C244.822,191.017,244.602,189.968,243.74,189.445z M254.531,164.768c0.561-1.785-0.737-2.239-3.096-2.979
	c-4.936-1.551-7.715-2.332-8.283-2.509c-1.702-0.537-3.105-1.113-4.372-1.512l-12.364-3.882c-0.436-0.137-0.728-0.273-0.947-0.343
	c-1.484-0.465-1.921-0.146-2.402,1.389l-0.809,2.573c-0.457,1.453,0.292,1.825,2.126,2.4l12.204,3.923l-0.259,0.83
	c-8.819-0.032-13.776-0.45-14.917-0.488c-1.051-0.012-1.317,0.224-1.629,1.221l-1.187,3.777c-0.573,1.825,0.479,2.292,2.618,2.966
	l25.25,7.927c2.271,0.712,2.971,0.933,3.623-1.142l0.664-2.117c0.574-1.827-0.029-2.199-2.039-2.829l-12.188-3.826l0.261-0.831
	l13.244,0.466c2.654,0.104,2.912,0.048,3.447-1.653L254.531,164.768z M133.189,231.749c-1.305-0.022-1.969,0.792-1.997,2.439
	c-0.011,0.687,0.059,1.787,0.035,3.252c-0.044,2.701-0.062,3.8,2.025,3.832c1.479,0.024,2.454-1.195,2.483-3.027
	C135.81,233.806,135.711,231.789,133.189,231.749z M78.949,39.587c1.315,2.359,1.851,3.319,3.674,2.303
	c1.292-0.72,1.527-2.266,0.635-3.865c-2.16-3.878-3.256-5.575-5.46-4.347c-1.139,0.635-1.309,1.673-0.506,3.111
	C77.626,37.39,78.237,38.307,78.949,39.587z M213.33,57.78c3.105-3.174,4.422-4.706,2.619-6.47c-0.934-0.913-1.975-0.78-3.129,0.398
	c-0.479,0.491-1.186,1.337-2.211,2.384c-1.889,1.931-2.657,2.715-1.166,4.176C210.5,59.303,212.049,59.089,213.33,57.78z
	 M106.752,238.619c-0.38,0.943-0.601,1.453-0.601,1.453c-0.139,0.533,0.349,1.084,1.399,1.355c1.18,0.305,1.619-0.005,1.838-0.849
	c0.069-0.266,0.119-0.631,0.168-0.996l1.051-9.613l-0.348-0.042L106.752,238.619z M228.822,189.863
	c-0.236-0.143-0.572-0.294-0.907-0.447l-8.904-3.769l-0.141,0.321l7.316,5.858c0.794,0.633,1.219,0.992,1.219,0.992
	c0.47,0.285,1.138-0.021,1.701-0.952C229.738,190.825,229.564,190.314,228.822,189.863z M190.012,214.389
	c-1.104,0.773-1.068,1.81,0.009,3.347c2.34,3.336,3.812,5.21,4.172,5.571c0.361,0.363,1.132,0.327,1.914-0.223
	c1.747-1.225,1.12-2.798-0.798-5.533C193.075,214.364,191.613,213.265,190.012,214.389z"/>
</svg>
