<?xml version="1.0" encoding="utf-8"?>
<!-- Generator: Adobe Illustrator 15.1.0, SVG Export Plug-In . SVG Version: 6.00 Build 0)  -->
<!DOCTYPE svg PUBLIC "-//W3C//DTD SVG 1.1//EN" "http://www.w3.org/Graphics/SVG/1.1/DTD/svg11.dtd">
<svg version="1.1" id="Layer_1" xmlns="http://www.w3.org/2000/svg" xmlns:xlink="http://www.w3.org/1999/xlink" x="0px" y="0px"
	 width="102px" height="45.439px" viewBox="0 0 102 45.439" enable-background="new 0 0 102 45.439" xml:space="preserve">
<g>
	<g>
		<path fill="#FFFFFF" d="M100.125,19.214c0.266,0,0.678,0.04,0.678-0.347c0-0.287-0.257-0.321-0.49-0.321h-0.537v0.668H100.125z
			 M101.017,20.274h-0.285l-0.536-0.877h-0.42v0.877h-0.244v-1.911h0.838c0.158,0,0.316,0,0.461,0.105
			c0.138,0.077,0.221,0.251,0.218,0.406c0,0.38-0.271,0.517-0.6,0.522L101.017,20.274z M98.722,19.325
			c0,0.806,0.646,1.446,1.444,1.446c0.807,0,1.444-0.642,1.444-1.446c0-0.802-0.638-1.447-1.444-1.447
			C99.367,17.878,98.722,18.524,98.722,19.325 M101.866,19.318c0,0.95-0.761,1.704-1.697,1.704c-0.94,0-1.705-0.755-1.705-1.704
			c0-0.939,0.765-1.693,1.705-1.693C101.105,17.625,101.866,18.381,101.866,19.318"/>
		<path fill="#FFFFFF" d="M5.776,33.382L5.767,44.606H0V12.53h8.704c1.943,0,3.342,0.041,4.207,0.636
			c1.295,0.888,1.206,2.07,1.206,2.928v13.722c0,0.855,0.089,2.038-1.206,2.927c-0.865,0.596-2.264,0.64-4.207,0.64H5.776z
			 M8.122,18.099c0-0.919-0.737-1.089-1.142-1.089H5.776v11.875c0,0,0.801,0,1.204,0c0.404,0,1.142-0.17,1.142-1.088V18.099z"/>
		<path fill="#FFFFFF" d="M49.883,35.267v5.566c0,0.988,0.104,2.35-1.386,3.373c-1.001,0.68-2.609,0.728-4.848,0.728
			c-2.233,0-3.843-0.048-4.841-0.728c-1.492-1.023-1.388-2.385-1.388-3.373v-4.973h5.257v4.288c0,0-0.021,0.617,0.959,0.617
			c0.981,0,0.987-0.617,0.987-0.617v-3.523c0,0,0.191-1.295-3.751-3.129c-3.611-1.709-3.452-3.968-3.452-3.968v-4.49
			c0-0.985-0.102-2.347,1.388-3.369c0.998-0.687,2.608-0.733,4.841-0.733c2.239,0,3.847,0.046,4.848,0.733
			c1.49,1.022,1.386,2.383,1.386,3.369v3.629h-5.259V25.37c0,0-0.013-0.645-0.976-0.645c-0.964,0-0.971,0.645-0.971,0.645v2.302
			c0,0.969,0.992,1.753,4.12,3.367C49.921,32.643,49.883,34.288,49.883,35.267"/>
		<path fill="#FFFFFF" d="M57.509,21.132h1.73v4.063h-1.73v14.385c0,0.875,1.017,0.973,1.71,0.973v4.12h-4.476
			c-1.065-0.011-2.052-0.697-2.506-1.695c-0.34-0.721-0.304-1.609-0.34-2.461V25.195h-1.486v-4.063h1.486v-5.41h5.61L57.509,21.132
			L57.509,21.132z"/>
		<path fill="#FFFFFF" d="M80.863,25.532c0,0-0.003-0.611-0.949-0.611s-0.946,0.611-0.946,0.611v19.073h-5.432V21.06h4.988v1.109
			c0,0.095,0.074,0.055,0.074,0.055c1.03-0.67,2.173-1.142,3.459-1.249c1.518-0.109,3.127,0.199,3.815,1.554
			c0.237,0.564,0.344,1.078,0.344,1.846v20.229h-5.354L80.863,25.532L80.863,25.532z"/>
		<path fill="#FFFFFF" d="M59.887,24.933c0-0.984-0.102-2.347,1.393-3.368c1.001-0.686,2.607-0.732,4.846-0.732
			c2.237,0,3.844,0.046,4.84,0.732c1.486,1.021,1.393,2.384,1.393,3.368V40.73c0,0.986,0.094,2.347-1.393,3.366
			c-0.996,0.691-2.603,0.736-4.84,0.736c-2.238,0-3.845-0.045-4.846-0.736c-1.494-1.02-1.393-2.38-1.393-3.366V24.933z
			 M67.094,25.263c0,0-0.033-0.634-0.989-0.634c-0.954,0-0.953,0.634-0.953,0.634v14.778c0,0,0.006,0.64,0.962,0.64
			c0.955,0,0.978-0.64,0.978-0.64V25.263H67.094z"/>
		<path fill="#FFFFFF" d="M99.87,35.861v4.869c0,0.989,0.105,2.347-1.387,3.366c-1.002,0.691-2.606,0.736-4.847,0.736
			c-2.235,0-3.844-0.045-4.841-0.736c-1.494-1.02-1.393-2.377-1.393-3.366V24.933c0-0.986-0.102-2.347,1.393-3.368
			c0.999-0.685,2.605-0.732,4.841-0.732c2.24,0,3.845,0.047,4.847,0.732c1.492,1.021,1.387,2.382,1.387,3.368v8.522h-7.205v6.588
			c0,0,0.005,0.638,0.967,0.638c0.965,0,0.979-0.638,0.979-0.638v-4.183H99.87z M94.61,29.671v-4.406c0,0-0.024-0.636-0.989-0.636
			c-0.962,0-0.956,0.636-0.956,0.636v4.406H94.61z"/>
		<path fill="#FFFFFF" d="M23.399,21.021c-1.227-0.099-2.385,0.433-3.219,1.229c0,0-0.08,0.085-0.08-0.033v-1.162h-5.272v23.55
			h5.663V27.732c0-0.388,0.072-1.086,0.451-1.447c0.598-0.65,1.582-0.567,2.421-0.598c0.085,0,0.147-0.014,0.147-0.089v-4.396
			C23.51,21.083,23.507,21.034,23.399,21.021"/>
		<path fill="#FFFFFF" d="M36.464,35.861h-5.257v4.183c0,0,0.005,0.638-0.98,0.638c-0.986,0-0.967-0.638-0.967-0.638v-6.59h7.205
			v-8.521c0-0.984,0.104-2.347-1.385-3.368c-1-0.685-2.609-0.732-4.844-0.732c-2.24,0-3.845,0.047-4.845,0.732
			c-1.493,1.021-1.391,2.384-1.391,3.368V40.73c0,0.989-0.103,2.347,1.391,3.366c1,0.691,2.605,0.736,4.845,0.736
			c2.235,0,3.844-0.045,4.844-0.736c1.49-1.02,1.385-2.377,1.385-3.366V35.861z M30.233,24.629c0.973,0,0.975,0.634,0.975,0.634
			v4.395h-1.947v-4.395C29.26,25.263,29.258,24.629,30.233,24.629"/>
	</g>
</g>
</svg>
