<?xml version="1.0" encoding="utf-8"?>
<!-- Generator: Adobe Illustrator 21.1.0, SVG Export Plug-In . SVG Version: 6.00 Build 0)  -->
<svg version="1.1" id="Layer_1" xmlns="http://www.w3.org/2000/svg" xmlns:xlink="http://www.w3.org/1999/xlink" x="0px" y="0px"
	 viewBox="0 0 102 259" style="enable-background:new 0 0 102 259;" xml:space="preserve">
<style type="text/css">
	.st0{fill:none;}
	.st1{fill:#FFFFFF;}
	.st2{fill:#7C3088;}
	.st3{fill:#692577;}
</style>
<rect x="9.1" y="23" class="st0" width="92.9" height="236"/>
<g>
	<g>
		<path class="st1" d="M100.3,235.1c0.3,0,0.6,0,0.6-0.3s-0.3-0.3-0.5-0.3H100v0.6L100.3,235.1L100.3,235.1z M101.1,236.1h-0.3
			l-0.5-0.8H100v0.8h-0.2v-1.7h0.7c0.2,0,0.3,0,0.5,0.1c0.1,0.1,0.2,0.3,0.2,0.4c0,0.4-0.3,0.5-0.5,0.5L101.1,236.1z M99,235.2
			c0,0.7,0.5,1.3,1.3,1.3c0.7,0,1.3-0.5,1.3-1.3c0-0.7-0.5-1.3-1.3-1.3C99.6,233.9,99,234.5,99,235.2 M101.9,235.2
			c0,0.9-0.7,1.5-1.5,1.5s-1.5-0.7-1.5-1.5s0.7-1.5,1.5-1.5C101.2,233.7,101.9,234.3,101.9,235.2"/>
		<path class="st1" d="M14.3,248v10.2H9.1v-29.2H17c1.7,0,3,0,3.8,0.5c1.2,0.8,1.1,1.9,1.1,2.6v12.5c0,0.8,0.1,1.8-1.1,2.6
			c-0.8,0.5-2.1,0.5-3.8,0.5L14.3,248L14.3,248z M16.4,234.1c0-0.8-0.6-1-1-1h-1.1V244c0,0,0.7,0,1.1,0c0.4,0,1-0.2,1-1V234.1z"/>
		<path class="st1" d="M54.5,249.8v5.1c0,0.9,0.1,2.1-1.3,3.1c-0.9,0.6-2.4,0.6-4.4,0.6s-3.5,0-4.4-0.6c-1.4-0.9-1.3-2.2-1.3-3.1
			v-4.6h4.8v3.9c0,0,0,0.5,0.9,0.5s0.9-0.5,0.9-0.5v-3.2c0,0,0.2-1.2-3.5-2.8c-3.3-1.5-3.2-3.6-3.2-3.6v-4.1c0-0.9-0.1-2.1,1.3-3.1
			c0.9-0.6,2.4-0.6,4.4-0.6s3.5,0,4.4,0.6c1.4,0.9,1.3,2.2,1.3,3.1v3.3h-4.8v-3c0,0,0-0.5-0.9-0.5s-0.9,0.5-0.9,0.5v2.1
			c0,0.9,0.9,1.6,3.7,3.1C54.5,247.3,54.5,248.9,54.5,249.8"/>
		<path class="st1" d="M61.5,236.9H63v3.7h-1.5v13.1c0,0.8,0.9,0.9,1.5,0.9v3.7h-4.1c-1,0-1.9-0.6-2.3-1.5c-0.3-0.6-0.3-1.5-0.3-2.3
			v-13.9H55v-3.7h1.4v-4.9h5.1V236.9L61.5,236.9z"/>
		<path class="st1" d="M82.8,240.9c0,0,0-0.5-0.8-0.5c-0.8,0-0.9,0.5-0.9,0.5v17.4h-4.9v-21.4h4.6v1c0,0.1,0.1,0.1,0.1,0.1
			c0.9-0.6,2-1,3.2-1.1c1.4-0.1,2.8,0.2,3.5,1.5c0.2,0.5,0.3,1,0.3,1.6v18.4h-4.9V240.9L82.8,240.9z"/>
		<path class="st1" d="M63.6,240.2c0-0.9-0.1-2.1,1.3-3.1c0.9-0.6,2.4-0.6,4.4-0.6c2,0,3.5,0,4.4,0.6c1.4,0.9,1.3,2.2,1.3,3.1v14.4
			c0,0.9,0.1,2.1-1.3,3.1c-0.9,0.6-2.4,0.6-4.4,0.6c-2,0-3.5,0-4.4-0.6c-1.4-0.9-1.3-2.2-1.3-3.1C63.6,254.6,63.6,240.2,63.6,240.2z
			 M70.2,240.7c0,0,0-0.5-0.9-0.5c-0.9,0-0.9,0.5-0.9,0.5v13.5c0,0,0,0.5,0.9,0.5c0.9,0,0.9-0.5,0.9-0.5V240.7L70.2,240.7z"/>
		<path class="st1" d="M100.1,250.3v4.5c0,0.9,0.1,2.1-1.3,3.1c-0.9,0.6-2.4,0.6-4.4,0.6c-2,0-3.5,0-4.4-0.6
			c-1.4-0.9-1.3-2.2-1.3-3.1v-14.4c0-0.9-0.1-2.1,1.3-3.1c0.9-0.6,2.4-0.6,4.4-0.6c2,0,3.5,0,4.4,0.6c1.4,0.9,1.3,2.2,1.3,3.1v7.7
			h-6.6v6c0,0,0,0.5,0.9,0.5c0.9,0,0.9-0.5,0.9-0.5v-3.8H100.1L100.1,250.3z M95.3,244.6v-4c0,0,0-0.5-0.9-0.5
			c-0.9,0-0.9,0.5-0.9,0.5v4H95.3z"/>
		<path class="st1" d="M30.4,236.8c-1.1-0.1-2.2,0.4-2.9,1.1c0,0-0.1,0.1-0.1,0v-1.1h-4.8v21.3h5.2v-15.4c0-0.4,0.1-1,0.5-1.3
			c0.5-0.6,1.5-0.5,2.2-0.5c0.1,0,0.1,0,0.1-0.1L30.4,236.8C30.5,236.9,30.5,236.8,30.4,236.8"/>
		<path class="st1" d="M42.3,250.3h-4.8v3.8c0,0,0,0.5-0.9,0.5c-0.9,0-0.9-0.5-0.9-0.5v-6h6.6v-7.7c0-0.9,0.1-2.1-1.3-3.1
			c-0.9-0.6-2.4-0.6-4.4-0.6c-2,0-3.5,0-4.4,0.6c-1.4,0.9-1.3,2.2-1.3,3.1v14.4c0,0.9-0.1,2.1,1.3,3.1c0.9,0.6,2.4,0.6,4.4,0.6
			c2,0,3.5,0,4.4-0.6c1.4-0.9,1.3-2.2,1.3-3.1L42.3,250.3L42.3,250.3z M36.6,240c0.9,0,0.9,0.5,0.9,0.5v4h-1.7v-4
			C35.8,240.7,35.8,240,36.6,240"/>
	</g>
</g>
<g>
	<g>
		<path class="st1" d="M9.2,201.8l-0.1-0.3l1.2-0.4l0.1,0.4c0.1,0.5,0.5,1.1,1.2,1.1h2.1c0.6,0,1.2-0.4,1.2-1.3v-0.5
			c0-0.4-0.3-0.9-0.8-1.1L11,199c-0.9-0.3-1.7-1.1-1.7-2.4v-0.3c0-1.4,0.9-2.5,2.4-2.5h2c1.5,0,2.2,0.9,2.5,2.1l0.1,0.3l-1.2,0.4
			v-0.4c-0.2-0.5-0.4-1-1.2-1h-2.2c-0.8,0-1.2,0.5-1.2,1.2v0.3c0,0.7,0.4,1.1,0.9,1.3l2.9,0.7C15.3,199,16,200,16,201v0.5
			c0,1.5-1.1,2.6-2.5,2.6h-1.8C10.2,203.8,9.6,202.9,9.2,201.8z"/>
		<path class="st1" d="M18.4,193.9h1.3v4.2h4.5v-4.2h1.3v9.9h-1.3v-4.5h-4.5v4.5h-1.3C18.4,203.8,18.4,193.9,18.4,193.9z"/>
		<path class="st1" d="M27.6,201.3v-4.9c0-1.5,1.1-2.6,2.6-2.6h1.9c1.5,0,2.6,1.1,2.6,2.6v4.9c0,1.5-1.1,2.6-2.6,2.6h-1.9
			C28.7,203.8,27.6,202.7,27.6,201.3z M32.1,202.6c0.6,0,1.2-0.5,1.2-1.2v-5c0-0.6-0.5-1.2-1.2-1.2H30c-0.6,0-1.2,0.5-1.2,1.2v5
			c0,0.6,0.5,1.2,1.2,1.2H32.1z"/>
		<path class="st1" d="M36.8,193.9h4.5c1.5,0,2.6,1.1,2.6,2.6v0.5c0,1.2-0.8,2.2-2,2.5l1.5,2.5c0.5,0.7,0.5,1.1,0.5,1.6v0.4h-1.3
			v-0.5c0-0.3-0.1-0.5-0.3-0.9l-1.8-3.1h-2.4v4.4h-1.3C36.8,203.8,36.8,193.9,36.8,193.9z M41.4,198.3c0.6,0,1.2-0.5,1.2-1.2v-0.7
			c0-0.6-0.5-1.2-1.2-1.2h-3.3v3.1L41.4,198.3L41.4,198.3z"/>
		<path class="st1" d="M48.4,195.1h-2.8v-1.3h7v1.3h-2.8v8.7h-1.3L48.4,195.1L48.4,195.1z"/>
		<path class="st1" d="M54.3,193.9h1.3v8.7h5.2v1.3h-6.5C54.3,203.8,54.3,193.9,54.3,193.9z"/>
		<path class="st1" d="M62.5,202.6H64v-7.4h-1.5v-1.3h4.3v1.3h-1.5v7.4h1.5v1.3h-4.3V202.6z"/>
		<path class="st1" d="M68.8,201.8l-0.1-0.3l1.2-0.4l0.1,0.4c0.1,0.5,0.5,1.1,1.2,1.1h2.1c0.6,0,1.2-0.4,1.2-1.3v-0.5
			c0-0.4-0.3-0.9-0.8-1.1l-3.1-0.8c-0.9-0.3-1.7-1.1-1.7-2.4v-0.3c0-1.4,0.9-2.5,2.4-2.5h2c1.5,0,2.2,0.9,2.5,2.1l0.1,0.3l-1.2,0.4
			l-0.1-0.4c-0.2-0.5-0.4-1-1.2-1h-2.1c-0.8,0-1.2,0.5-1.2,1.2v0.3c0,0.7,0.4,1.1,0.9,1.3l2.9,0.7c1.1,0.3,1.7,1.3,1.7,2.3v0.5
			c0,1.5-1.1,2.6-2.5,2.6h-1.9C69.8,203.8,69.2,202.9,68.8,201.8z"/>
		<path class="st1" d="M80.3,195.1h-2.8v-1.3h7v1.3h-2.8v8.7h-1.3L80.3,195.1L80.3,195.1z"/>
		<path class="st1" d="M86.1,193.9h7v1.3h-5.7v2.9h4.5v1.3h-4.5v3.2h5.7v1.3h-7C86.1,203.8,86.1,193.9,86.1,193.9z"/>
		<path class="st1" d="M94.7,193.9h4.5c1.4,0,2.6,1.1,2.6,2.6v4.9c0,1.5-1.1,2.6-2.6,2.6h-4.5V193.9z M99.3,202.6
			c0.6,0,1.2-0.5,1.2-1.2v-5c0-0.6-0.5-1.2-1.2-1.2H96v7.4H99.3z"/>
	</g>
	<g>
		<g>
			<rect x="9.1" y="54" class="st2" width="32.4" height="92.7"/>
			<rect x="69.3" y="23.1" class="st2" width="32.4" height="123.6"/>
			<polygon class="st3" points="9.1,54 46.1,54 101.7,146.6 64.6,146.6 			"/>
		</g>
		<path class="st1" d="M9.2,152.8h1.4l4.4,7.4v-7.4h1.3v9.9h-1.4l-4.4-7.5v7.5H9.2V152.8z"/>
		<path class="st1" d="M21.6,160v-4.9c0-1.5,1.1-2.6,2.6-2.6h1.9c1.4,0,2.6,1.1,2.6,2.6v4.9c0,1.4-1.1,2.6-2.6,2.6h-1.9
			C22.7,162.6,21.6,161.6,21.6,160z M26.2,161.4c0.6,0,1.2-0.5,1.2-1.2v-5c0-0.6-0.5-1.2-1.2-1.2h-2.1c-0.6,0-1.2,0.5-1.2,1.2v5
			c0,0.6,0.5,1.2,1.2,1.2H26.2z"/>
		<path class="st1" d="M34,152.8h4.5c1.4,0,2.6,1.1,2.6,2.6v0.5c0,1.2-0.8,2.2-2,2.5l1.5,2.5c0.5,0.7,0.5,1.1,0.5,1.6v0.4h-1.3v-0.4
			c0-0.3-0.1-0.5-0.3-0.9l-1.8-3.1h-2.4v4.4H34C34,162.8,34,152.8,34,152.8z M38.6,157c0.6,0,1.2-0.5,1.2-1.2v-0.6
			c0-0.6-0.5-1.2-1.2-1.2h-3.3v3.1L38.6,157L38.6,157z"/>
		<path class="st1" d="M48.4,154h-2.9v-1.3h6.9v1.3h-2.8v8.7h-1.3L48.4,154L48.4,154z"/>
		<path class="st1" d="M57.4,152.8h1.3v4.2h4.5v-4.2h1.3v9.9h-1.3v-4.5h-4.5v4.5h-1.3V152.8z"/>
		<path class="st1" d="M70.1,152.8h7v1.3h-5.7v2.9h4.5v1.3h-4.5v3.2h5.7v1.3h-7V152.8z"/>
		<path class="st1" d="M82.3,152.8h4.5c1.4,0,2.6,1.1,2.6,2.6v0.5c0,1.2-0.8,2.2-2,2.5l1.5,2.5c0.5,0.7,0.5,1.1,0.5,1.6v0.4h-1.3
			v-0.4c0-0.3-0.1-0.5-0.3-0.9l-1.8-3.1h-2.4v4.4h-1.3V152.8z M86.9,157c0.6,0,1.2-0.5,1.2-1.2v-0.6c0-0.6-0.5-1.2-1.2-1.2h-3.3v3.1
			L86.9,157L86.9,157z"/>
		<path class="st1" d="M94.7,152.8h1.4l4.4,7.4v-7.4h1.3v9.9h-1.3l-4.5-7.5v7.5h-1.3V152.8z"/>
		<path class="st1" d="M9.2,166.4h1.3l2.8,6.4l2.8-6.4h1.3v9.8h-1.2v-6.7l-2.5,5.3H13l-2.5-5.3v6.7H9.2V166.4z"/>
		<path class="st1" d="M21.3,175.8c0-0.5,0-0.6,0.2-1l2.7-8.4h1.3l2.7,8.4c0.2,0.5,0.2,0.5,0.2,1v0.5h-1.3v-0.4c0-0.2,0-0.4,0-0.5
			l-0.4-1.4h-3.6l-0.4,1.4c0,0.1,0,0.3,0,0.5v0.4h-1.3v-0.5H21.3z M26.1,172.8l-1.5-4.4l-1.5,4.4H26.1z"/>
		<path class="st1" d="M31.8,166.4h4.5c1.4,0,2.6,1.1,2.6,2.6v0.5c0,1.2-0.8,2.2-2,2.5l1.4,2.4c0.5,0.6,0.5,1.1,0.5,1.6v0.4h-1.3
			V176c0-0.3-0.1-0.5-0.3-0.9l-1.8-3.1H33v4.3h-1.2V166.4z M36.3,170.7c0.6,0,1.2-0.5,1.2-1.2v-0.7c0-0.6-0.5-1.2-1.2-1.2H33v3.1
			L36.3,170.7L36.3,170.7z"/>
		<path class="st1" d="M44.1,166.4v5l3.7-5h1.5l-2.9,3.9l2.7,4c0.4,0.6,0.5,1,0.5,1.6v0.4h-1.3V176c0-0.4-0.1-0.5-0.3-0.9l-2.4-3.6
			l-1.6,2.2v2.6h-1.3v-9.8L44.1,166.4L44.1,166.4z"/>
		<path class="st1" d="M53.3,166.4h6.9v1.3h-5.6v2.9h4.5v1.3h-4.5v3.2h5.6v1.3h-6.9C53.3,176.3,53.3,166.4,53.3,166.4z"/>
		<path class="st1" d="M66.7,167.6h-2.8v-1.3h6.9v1.3H68v8.7h-1.3C66.7,176.3,66.7,167.6,66.7,167.6z"/>
		<path class="st1" d="M74.8,175h1.5v-7.4h-1.5v-1.3h4.2v1.3h-1.5v7.4h1.5v1.3h-4.2V175z"/>
		<path class="st1" d="M83.6,166.4H85l4.4,7.3v-7.3h1.3v9.8h-1.4l-4.4-7.5v7.5h-1.3C83.6,176.3,83.6,166.4,83.6,166.4z"/>
		<path class="st1" d="M94.5,173.7v-4.9c0-1.3,1.1-2.6,2.6-2.6H99c1.5,0,2.4,1.1,2.6,2.4l-1.2,0.3l-0.1-0.4c-0.2-0.5-0.5-1-1.2-1H97
			c-0.6,0-1.2,0.6-1.2,1.2v5c0,0.5,0.5,1.2,1.2,1.2h2.1c0.6,0,1.2-0.5,1.2-1.2v-2h-2v-1.1h3.3v3.1c0,1.4-1.1,2.6-2.6,2.6h-1.9
			C95.6,176.3,94.5,175.1,94.5,173.7z"/>
		<path class="st1" d="M9.2,189.5c0-0.5,0-0.6,0.2-1l2.7-8.4h1.3l2.7,8.4c0.2,0.5,0.2,0.5,0.2,1v0.5H15v-0.4c0-0.2,0-0.4,0-0.5
			l-0.5-1.5h-3.6l-0.4,1.4c0,0.1,0,0.3,0,0.5v0.4H9.2V189.5z M14.2,186.3l-1.5-4.4l-1.5,4.4H14.2z"/>
		<path class="st1" d="M17.5,181.9c-0.2-0.8-0.2-0.9-0.2-1.5v-0.5h1.3v0.5c0,0.4,0.1,0.8,0.2,1.3l0.9,5.4l1.5-5.6h0.6l1.5,5.6
			l0.9-5.4c0.1-0.5,0.2-0.9,0.2-1.3v-0.5h1.3v0.5c0,0.6-0.1,0.7-0.2,1.5l-1.4,7.8h-1.2l-1.5-5.3l-1.5,5.3h-1.2L17.5,181.9z"/>
		<path class="st1" d="M26.7,189.5c0-0.5,0-0.6,0.2-1l2.7-8.4h1.3l2.7,8.4c0.2,0.5,0.2,0.5,0.2,1v0.5h-1.3v-0.4c0-0.2,0-0.4,0-0.5
			l-0.4-1.4h-3.6l-0.4,1.4c0,0.1,0,0.3,0,0.5v0.4h-1.3v-0.5H26.7z M31.7,186.3l-1.5-4.4l-1.5,4.4H31.7z"/>
		<path class="st1" d="M35.9,179.9h4.5c1.4,0,2.6,1.1,2.6,2.6v0.5c0,1.2-0.8,2.2-2,2.5l1.5,2.5c0.5,0.6,0.5,1.1,0.5,1.6v0.4h-1.3
			v-0.4c0-0.3-0.1-0.5-0.3-0.9l-1.8-3.1h-2.3v4.3h-1.3C35.9,189.9,35.9,179.9,35.9,179.9z M40.4,184.2c0.6,0,1.2-0.5,1.2-1.2v-0.7
			c0-0.6-0.5-1.2-1.2-1.2h-3.3v3.1L40.4,184.2L40.4,184.2z"/>
		<path class="st1" d="M45.4,179.9h4.5c1.4,0,2.6,1.1,2.6,2.6v4.8c0,1.4-1.1,2.6-2.6,2.6h-4.5V179.9z M49.9,188.7
			c0.6,0,1.2-0.5,1.2-1.2v-5c0-0.6-0.5-1.2-1.2-1.2h-3.3v7.4H49.9z"/>
		<path class="st1" d="M54.6,187.8l-0.1-0.3l1.2-0.4l0.1,0.4c0.1,0.5,0.5,1,1.2,1h2.1c0.6,0,1.2-0.4,1.2-1.3v-0.5
			c0-0.4-0.3-0.9-0.8-1.1l-3.1-0.8c-0.9-0.3-1.7-1.1-1.7-2.4v-0.3c0-1.3,0.9-2.4,2.4-2.4h2c1.5,0,2.2,0.9,2.5,2.1l0.1,0.3l-1.2,0.3
			l-0.1-0.4c-0.2-0.5-0.4-1-1.2-1H57c-0.8,0-1.2,0.5-1.2,1.2v0.3c0,0.7,0.4,1.1,0.9,1.2l2.9,0.7c1.1,0.3,1.7,1.3,1.7,2.3v0.5
			c0,1.5-1,2.6-2.5,2.6H57C55.7,189.8,55,188.9,54.6,187.8z"/>
		<path class="st1" d="M68.8,188.3c0-0.8,0.2-1.6,1-2.1l3.8-2.3c0.5-0.3,0.8-0.6,0.8-1.3v-0.3c0-0.6-0.5-1.2-1.2-1.2h-2.1
			c-0.6,0-1,0.5-1.2,1l-0.1,0.4l-1.2-0.3v-0.2c0.3-1.2,1-2.2,2.5-2.2h2.1c1.5,0,2.4,1,2.4,2.4v0.6c0,0.9-0.6,1.6-1.5,2.1l-3.2,1.8
			c-0.7,0.5-0.9,0.6-0.9,1.3v0.4h5.6v1.3h-6.9L68.8,188.3L68.8,188.3L68.8,188.3z"/>
		<path class="st1" d="M78.1,187.4v-4.8c0-1.5,1.1-2.6,2.6-2.6h1.9c1.4,0,2.6,1.1,2.6,2.6v4.8c0,1.4-1.1,2.6-2.6,2.6h-1.9
			C79.2,189.8,78.1,188.7,78.1,187.4z M82.6,188.7c0.6,0,1.2-0.5,1.2-1.2v-5c0-0.6-0.5-1.2-1.2-1.2h-2.1c-0.6,0-1.2,0.5-1.2,1.2v5
			c0,0.6,0.5,1.2,1.2,1.2H82.6z"/>
		<path class="st1" d="M88,188.7h2.1v-7.4h-1.8V180h3.1v8.7h1.9v1.3h-5.2L88,188.7L88,188.7z"/>
		<g>
			<path class="st1" d="M100.2,181.3h-5.5V180h6.9v1.2l-4.4,8.7h-1.4L100.2,181.3z"/>
		</g>
	</g>
</g>
</svg>
