<?xml version="1.0" encoding="utf-8"?>
<!-- Generator: Adobe Illustrator 15.1.0, SVG Export Plug-In  -->
<!DOCTYPE svg PUBLIC "-//W3C//DTD SVG 1.1//EN" "http://www.w3.org/Graphics/SVG/1.1/DTD/svg11.dtd" [
	<!ENTITY ns_flows "http://ns.adobe.com/Flows/1.0/">
]>
<svg version="1.1"
	 xmlns="http://www.w3.org/2000/svg" xmlns:xlink="http://www.w3.org/1999/xlink" xmlns:a="http://ns.adobe.com/AdobeSVGViewerExtensions/3.0/"
	 x="0px" y="0px" width="595px" height="350px" viewBox="-0.917 -168.138 595 350"
	 overflow="visible" enable-background="new -0.917 -168.138 595 350" xml:space="preserve">
<defs>
</defs>
<path fill="#666666" d="M37.685,57.013l-9.978-23.28l-8.668,23.28H17.83L6.54,30.993C4.746,26.84,2.938,25.148,0,24.972v-0.876
	h16.452v0.872c-1.897,0.08-3.134,0.598-3.776,1.577c-0.724,1.106-0.613,2.702,0.335,4.878l7.137,16.375l8.17-23.702h1.396L40,47.798
	l5.683-16.414c0.846-2.413,0.883-4.037,0.122-5.111c-0.559-0.788-1.51-1.215-2.899-1.301v-0.876h12.479v0.873
	c-3.388,0.162-5.334,1.902-6.842,6.055l-9.651,25.989H37.685z"/>
<path fill="#666666" d="M69.559,56.528c-4.816,0-8.179-3.124-8.179-7.597c0-6.604,6.414-10.808,20.185-13.223l0.446-0.077V35.18
	c0-7.405-1.016-10.708-7.029-10.708c-2.54,0-6.058,1.803-6.058,5.188c0,1.626-1.184,2.854-2.755,2.854
	c-1.651,0-2.849-1.202-2.849-2.854c0-4.454,6.104-7.213,11.76-7.213c9.043,0,12.731,3.661,12.731,12.636v14.625
	c0,3.895,1.934,4.315,2.766,4.315c1.027,0,2.012-0.662,2.635-1.19l0.727,0.987c-1.645,1.583-3.742,2.518-5.685,2.518
	c-3.443,0-5.593-1.83-6.053-5.154l-0.14-1.003l-0.753,0.677C76.819,54.887,73.416,56.528,69.559,56.528z M81.351,37.657
	c-9.273,2.148-13.782,5.455-13.782,10.111c0,3.599,2.561,5.479,5.09,5.479c2.28,0,4.712-0.812,9.172-4.786l0.18-0.16V37.505
	L81.351,37.657z"/>
<path fill="#666666" d="M102.39,55.271v-0.964c6.347-0.108,7.651-2.258,7.651-11.865v-4.842c0-9.529-1.305-11.661-7.651-11.769
	V24.78l12.012-2.262c0.459,1.292,1.175,4.551,1.445,6.44l0.243,1.706l0.77-1.542c1.873-3.743,6.128-6.677,9.689-6.677
	c4.905,0,7.111,3.199,7.111,5.47c0,1.499-0.433,4.014-3.334,4.014c-1.52,0-2.853-1.379-2.853-2.949c0-2.304-1.394-3.733-3.638-3.733
	c-2.791,0-7.995,4.076-7.995,11.869v5.326c0,9.718,1.233,11.764,7.65,11.865v0.964H102.39z"/>
<path fill="#666666" d="M143.14,55.271v-0.964c6.347-0.108,7.653-2.258,7.653-11.865v-4.842c0-9.529-1.306-11.661-7.653-11.769
	V24.78l12.013-2.262c0.458,1.286,1.174,4.545,1.444,6.44l0.244,1.704l0.77-1.54c1.874-3.743,6.129-6.677,9.688-6.677
	c4.907,0,7.113,3.199,7.113,5.47c0,1.499-0.432,4.014-3.335,4.014c-1.52,0-2.851-1.379-2.851-2.949c0-2.304-1.394-3.733-3.637-3.733
	c-2.791,0-7.997,4.076-7.997,11.869v5.326c0,9.718,1.233,11.764,7.651,11.865v0.964H143.14z"/>
<path fill="#666666" d="M198.63,56.917c-9.907,0-17.379-7.431-17.379-17.284c0-10.28,8.986-17.187,17.379-17.187
	c4.406,0,8.483,1.905,10.904,5.095c1.999,2.632,2.65,5.861,1.854,9.134h-23.399l-0.061,0.47c-0.691,5.405,0.327,9.834,2.94,12.803
	c2.322,2.64,5.75,3.976,10.184,3.976c3.296,0,7.742-1.788,10.592-4.218l1.085,1.325C209.183,54.567,203.583,56.917,198.63,56.917z
	 M198.146,25.247c-4.415,0-8.192,3.232-9.622,8.235l-0.196,0.687h17.174l0.125-0.364c0.646-1.875,0.331-4.044-0.821-5.659
	C203.863,26.823,201.942,25.247,198.146,25.247z"/>
<path fill="#666666" d="M256.189,24.28c4.294,2.827,5.194,8.119,5.194,12.061v6.102c0,9.936,2.582,11.771,8.728,11.865v0.964
	h-22.178v-0.965c6.274-0.115,7.651-2.368,7.651-11.864v-5.616c0-7.233-2.885-10.901-8.576-10.901
	c-5.399,0-11.676,4.466-11.676,10.224v6.294c0,9.505,0.596,11.748,6.779,11.864v0.965h-20.23v-0.964
	c6.347-0.108,7.653-2.258,7.653-11.865v-4.842c0-9.529-1.306-11.661-7.653-11.769V24.78l12.012-2.262
	c0.457,1.286,1.173,4.544,1.445,6.441l0.177,1.235l0.777-0.978c2.454-3.089,6.707-6.771,13.041-6.771
	c0.611,0,1.206,0.033,1.779,0.096l0.034-0.004c0-21.75,18.564-22.493,18.564-22.493C270.163,0.015,270.61,0,271.054,0
	c9.764,0,17.125,6.84,17.125,15.912v13.014l0.958-1.199c2.988-3.739,6.872-5.635,11.543-5.635c8.981,0,16.288,7.743,16.288,17.263
	c0,9.57-7.307,17.358-16.288,17.358c-4.495,0-8.596-2.003-11.545-5.639l-0.957-1.177v16.69c0,9.565,1.311,11.704,7.684,11.813v0.971
	h-21.196v-0.971c6.445-0.102,7.682-2.137,7.682-11.813V38.09c0-9.758-1.237-11.811-7.682-11.912v-1.046l2.166-0.321
	c5.693-0.884,8.362-6.377,8.24-11.426C284.778,1.198,270.857,1.39,270.857,1.39c-1.708-0.032-9.698,1.029-13.74,7.321
	C254.62,12.601,254.314,18.057,256.189,24.28z M298.639,24.908c-4.513,0-8.507,3.037-10.423,7.929l-0.037,0.095v12.745l0.035,0.092
	c1.881,5.013,5.877,8.127,10.425,8.127c7.111,0,11.529-5.572,11.529-14.541C310.167,30.443,305.75,24.908,298.639,24.908z"/>
<path fill="#666666" d="M335.187,56.528c-4.814,0-8.178-3.124-8.178-7.597c0-6.605,6.413-10.809,20.184-13.223l0.446-0.077V35.18
	c0-7.405-1.016-10.708-7.027-10.708c-2.541,0-6.059,1.803-6.059,5.188c0,1.626-1.184,2.854-2.755,2.854
	c-1.652,0-2.852-1.202-2.852-2.854c0-4.454,6.105-7.213,11.762-7.213c9.042,0,12.73,3.661,12.73,12.636v14.625
	c0,3.895,1.935,4.315,2.766,4.315c1.029,0,2.014-0.662,2.635-1.19l0.727,0.988c-1.645,1.582-3.741,2.517-5.687,2.517
	c-3.441,0-5.591-1.83-6.052-5.154l-0.14-1.003l-0.753,0.677C342.446,54.887,339.043,56.528,335.187,56.528z M346.978,37.657
	c-9.274,2.147-13.781,5.455-13.781,10.111c0,3.599,2.561,5.479,5.09,5.479c2.278,0,4.711-0.812,9.171-4.786l0.181-0.16V37.505
	L346.978,37.657z"/>
<path fill="#666666" d="M366.75,55.271v-0.964c6.347-0.108,7.651-2.258,7.651-11.865v-4.842c0-9.529-1.305-11.661-7.651-11.769
	V24.78l12.012-2.262c0.457,1.286,1.173,4.545,1.445,6.441l0.244,1.701l0.769-1.537c1.875-3.744,6.13-6.678,9.689-6.678
	c4.906,0,7.112,3.199,7.112,5.47c0,1.499-0.433,4.014-3.335,4.014c-1.52,0-2.853-1.379-2.853-2.949c0-2.304-1.394-3.733-3.637-3.733
	c-2.791,0-7.996,4.076-7.996,11.869v5.326c0,9.718,1.233,11.764,7.652,11.865v0.964H366.75z"/>
<path fill="#666666" d="M420.578,56.626c-5.462,0-8.469-3.661-8.469-10.31V26.409h-5.037v-1.358c6.431-1.603,8-6.941,8.562-11.61
	h2.276v10.655h8.425v2.313h-8.425v19.907c0,1.857,0,7.512,4.896,7.512c1.841,0,4.11-1.118,6.281-3.085l0.928,0.931
	C427.461,54.564,423.563,56.626,420.578,56.626z"/>
<path fill="#666666" d="M464.645,55.271v-0.965c6.274-0.115,7.65-2.368,7.65-11.864v-5.616c0-7.233-2.885-10.901-8.575-10.901
	c-5.399,0-11.676,4.466-11.676,10.224v6.294c0,9.505,0.596,11.748,6.779,11.864v0.965h-20.23v-0.964
	c6.346-0.108,7.651-2.258,7.651-11.865v-4.842c0-9.529-1.305-11.661-7.651-11.769V24.78l12.012-2.262
	c0.457,1.286,1.174,4.544,1.445,6.441l0.177,1.235l0.776-0.978c2.454-3.089,6.708-6.771,13.042-6.771
	c7.659,0,12.051,5.064,12.051,13.895v6.102c0,9.718,1.234,11.764,7.653,11.865v0.964H464.645z"/>
<path fill="#666666" d="M509.509,56.917c-9.908,0-17.379-7.431-17.379-17.284c0-10.28,8.985-17.187,17.379-17.187
	c4.407,0,8.483,1.905,10.904,5.095c1.999,2.632,2.65,5.861,1.854,9.134h-23.399l-0.061,0.47c-0.691,5.405,0.326,9.834,2.94,12.802
	c2.323,2.641,5.749,3.977,10.184,3.977c3.295,0,7.743-1.788,10.592-4.218l1.084,1.325C520.061,54.565,514.461,56.917,509.509,56.917
	z M509.025,25.247c-4.416,0-8.192,3.232-9.622,8.235l-0.195,0.687h17.174l0.125-0.364c0.646-1.876,0.33-4.045-0.822-5.66
	C514.742,26.823,512.82,25.247,509.025,25.247z"/>
<path fill="#666666" d="M532.615,55.271v-0.964c6.347-0.108,7.652-2.258,7.652-11.865v-4.842c0-9.529-1.305-11.661-7.652-11.769
	V24.78l12.014-2.262c0.456,1.287,1.171,4.545,1.444,6.441l0.245,1.701l0.769-1.538c1.873-3.743,6.128-6.677,9.688-6.677
	c4.907,0,7.115,3.199,7.115,5.47c0,1.499-0.434,4.014-3.338,4.014c-1.52,0-2.852-1.379-2.852-2.949c0-2.304-1.394-3.733-3.636-3.733
	c-2.791,0-7.996,4.076-7.996,11.869v5.326c0,9.718,1.234,11.764,7.651,11.865v0.964H532.615z"/>
<path fill="#666666" d="M584.086,56.917c-2.656,0-4.876-1.175-6.498-2.031c-1.081-0.572-1.936-1.024-2.662-1.024
	c-1.502,0-1.707,1.811-1.735,3.056h-0.963V43.852h0.977c0.286,4.618,4.204,10.848,11.075,10.848c3.398,0,6.061-2.406,6.061-5.478
	c0-2.959-2.886-4.887-5.709-6.382l-5.424-2.904c-4.501-2.44-6.106-6.358-6.106-9.212c0-5.112,4.798-8.277,9.243-8.277
	c3.204,0,5.217,1.003,6.549,1.664c0.67,0.334,1.154,0.575,1.593,0.575c1.031,0,1.183-1.168,1.205-2.239h0.963v10.163h-0.976
	c-0.238-4.041-3.152-8.138-8.365-8.138c-3.38,0-5.479,1.802-5.479,4.703c0,2.651,1.826,4.052,6.192,6.384l4.647,2.516
	c4.064,2.307,6.401,5.525,6.401,8.825C595.074,52.703,590.453,56.917,584.086,56.917z"/>
<g>
	<g>
		<path fill="#666666" d="M307.618,78.559c-0.126-0.084-0.21-0.235-0.21-0.414c0-0.306,0.238-0.54,0.535-0.54
			c0.142,0,0.269,0.056,0.339,0.125c0.931,0.773,1.86,1.146,3.115,1.146c1.325,0,2.199-0.69,2.199-1.644v-0.029
			c0-0.896-0.493-1.407-2.566-1.837c-2.27-0.482-3.312-1.203-3.312-2.792v-0.025c0-1.521,1.367-2.641,3.243-2.641
			c1.296,0,2.241,0.317,3.143,0.953c0.113,0.084,0.239,0.235,0.239,0.442c0,0.29-0.239,0.525-0.536,0.525
			c-0.126,0-0.226-0.028-0.324-0.098c-0.833-0.594-1.635-0.843-2.55-0.843c-1.283,0-2.101,0.692-2.101,1.562v0.027
			c0,0.911,0.506,1.423,2.677,1.879c2.201,0.47,3.214,1.258,3.214,2.736v0.028c0,1.657-1.41,2.734-3.369,2.734
			C309.916,79.856,308.718,79.415,307.618,78.559z"/>
		<path fill="#666666" d="M320.117,79.166V70.6c0-0.306,0.254-0.553,0.551-0.553h6.131c0.282,0,0.507,0.221,0.507,0.497
			s-0.225,0.498-0.507,0.498h-5.568v3.303h4.934c0.282,0,0.507,0.233,0.507,0.497c0,0.276-0.225,0.497-0.507,0.497h-4.934v3.386
			h5.638c0.283,0,0.507,0.221,0.507,0.498c0,0.276-0.225,0.496-0.507,0.496h-6.202C320.371,79.719,320.117,79.47,320.117,79.166z"/>
		<path fill="#666666" d="M332.082,79.001l4.003-8.581c0.141-0.305,0.351-0.483,0.704-0.483h0.057c0.337,0,0.564,0.179,0.691,0.483
			l4.002,8.566c0.043,0.097,0.071,0.194,0.071,0.276c0,0.291-0.24,0.525-0.535,0.525c-0.268,0-0.452-0.18-0.551-0.4l-1.028-2.226
			h-5.414l-1.028,2.253c-0.099,0.235-0.283,0.373-0.537,0.373c-0.281,0-0.507-0.221-0.507-0.497
			C332.011,79.207,332.024,79.111,332.082,79.001z M339.059,76.168l-2.27-4.946l-2.27,4.946H339.059z"/>
		<path fill="#666666" d="M346.864,70.6c0-0.306,0.254-0.553,0.55-0.553h3.693c1.213,0,2.186,0.358,2.806,0.967
			c0.479,0.469,0.761,1.146,0.761,1.906v0.028c0,1.589-1.099,2.515-2.635,2.805l2.452,3.095c0.113,0.125,0.183,0.249,0.183,0.401
			c0,0.29-0.281,0.539-0.564,0.539c-0.225,0-0.394-0.125-0.521-0.289l-2.776-3.539h-2.834v3.275c0,0.304-0.254,0.553-0.564,0.553
			c-0.295,0-0.55-0.249-0.55-0.553V70.6z M351.008,74.979c1.48,0,2.537-0.747,2.537-1.991v-0.025c0-1.188-0.93-1.908-2.522-1.908
			h-3.045v3.925H351.008z"/>
		<path fill="#666666" d="M359.743,74.91v-0.026c0-2.738,2.086-5.004,4.99-5.004c1.593,0,2.607,0.513,3.523,1.258
			c0.113,0.097,0.226,0.249,0.226,0.443c0,0.289-0.267,0.538-0.563,0.538c-0.155,0-0.281-0.069-0.367-0.123
			c-0.761-0.665-1.622-1.107-2.833-1.107c-2.185,0-3.82,1.741-3.82,3.965v0.03c0,2.238,1.649,3.992,3.82,3.992
			c1.227,0,2.087-0.414,2.932-1.176c0.084-0.082,0.212-0.15,0.354-0.15c0.282,0,0.535,0.248,0.535,0.525
			c0,0.165-0.084,0.304-0.184,0.387c-0.973,0.87-2.043,1.423-3.665,1.423C361.844,79.885,359.743,77.688,359.743,74.91z"/>
		<path fill="#666666" d="M373.708,70.531c0-0.306,0.254-0.555,0.549-0.555c0.311,0,0.565,0.249,0.565,0.555v3.813h5.694v-3.813
			c0-0.306,0.254-0.555,0.563-0.555c0.297,0,0.55,0.249,0.55,0.555v8.704c0,0.304-0.253,0.553-0.55,0.553
			c-0.31,0-0.563-0.249-0.563-0.553v-3.869h-5.694v3.869c0,0.304-0.254,0.553-0.565,0.553c-0.295,0-0.549-0.249-0.549-0.553V70.531z
			"/>
		<path fill="#666666" d="M395.389,68.615c0-0.26,0.22-0.476,0.486-0.476c0.25,0,0.469,0.216,0.469,0.476V81.16
			c0,0.261-0.22,0.477-0.469,0.477c-0.266,0-0.486-0.216-0.486-0.477V68.615z"/>
		<path fill="#666666" d="M410.091,75.67v-5.139c0-0.306,0.253-0.555,0.55-0.555c0.31,0,0.563,0.249,0.563,0.555v5.069
			c0,2.088,1.142,3.262,3.017,3.262c1.819,0,2.976-1.078,2.976-3.192v-5.139c0-0.306,0.253-0.555,0.562-0.555
			c0.296,0,0.55,0.249,0.55,0.555v5.057c0,2.818-1.651,4.283-4.116,4.283C411.754,79.871,410.091,78.406,410.091,75.67z"/>
		<path fill="#666666" d="M424.069,70.544c0-0.29,0.255-0.539,0.55-0.539h0.156c0.253,0,0.408,0.124,0.563,0.318l5.991,7.489v-7.297
			c0-0.29,0.239-0.539,0.55-0.539c0.295,0,0.536,0.249,0.536,0.539v8.733c0,0.29-0.212,0.512-0.508,0.512h-0.057
			c-0.24,0-0.408-0.139-0.577-0.331l-6.119-7.67v7.489c0,0.29-0.238,0.539-0.549,0.539c-0.295,0-0.536-0.249-0.536-0.539V70.544z"/>
		<path fill="#666666" d="M438.33,70.531c0-0.306,0.253-0.555,0.551-0.555c0.309,0,0.563,0.249,0.563,0.555v8.179h5.117
			c0.283,0,0.508,0.235,0.508,0.513c0,0.276-0.225,0.496-0.508,0.496h-5.68c-0.298,0-0.551-0.249-0.551-0.553V70.531z"/>
		<path fill="#666666" d="M449.18,74.91v-0.026c0-2.668,2.044-5.004,5.046-5.004c3.003,0,5.019,2.309,5.019,4.974v0.03
			c0,2.666-2.044,5.001-5.047,5.001C451.196,79.885,449.18,77.578,449.18,74.91z M458.089,74.91v-0.026
			c0-2.197-1.635-3.995-3.891-3.995s-3.862,1.77-3.862,3.965v0.03c0,2.196,1.635,3.992,3.89,3.992
			C456.482,78.876,458.089,77.107,458.089,74.91z"/>
		<path fill="#666666" d="M464.286,74.91v-0.026c0-2.738,2.087-5.004,4.99-5.004c1.594,0,2.608,0.513,3.524,1.258
			c0.113,0.097,0.226,0.249,0.226,0.443c0,0.289-0.267,0.538-0.563,0.538c-0.156,0-0.282-0.069-0.366-0.123
			c-0.762-0.665-1.622-1.107-2.834-1.107c-2.185,0-3.82,1.741-3.82,3.965v0.03c0,2.238,1.649,3.992,3.82,3.992
			c1.227,0,2.086-0.414,2.932-1.176c0.084-0.082,0.211-0.15,0.352-0.15c0.282,0,0.537,0.248,0.537,0.525
			c0,0.165-0.086,0.304-0.184,0.387c-0.973,0.87-2.044,1.423-3.666,1.423C466.387,79.885,464.286,77.688,464.286,74.91z"/>
		<path fill="#666666" d="M478.251,70.531c0-0.306,0.253-0.555,0.549-0.555c0.311,0,0.564,0.249,0.564,0.555v5.29l5.625-5.65
			c0.126-0.111,0.253-0.194,0.436-0.194c0.296,0,0.536,0.264,0.536,0.539c0,0.153-0.07,0.276-0.183,0.388l-3.496,3.398l3.749,4.533
			c0.099,0.124,0.157,0.234,0.157,0.4c0,0.29-0.255,0.553-0.566,0.553c-0.21,0-0.351-0.111-0.451-0.249l-3.679-4.491l-2.128,2.087
			v2.101c0,0.304-0.254,0.553-0.564,0.553c-0.296,0-0.549-0.249-0.549-0.553V70.531z"/>
		<path fill="#666666" d="M499.284,68.615c0-0.26,0.22-0.476,0.485-0.476c0.25,0,0.471,0.216,0.471,0.476V81.16
			c0,0.261-0.221,0.477-0.471,0.477c-0.265,0-0.485-0.216-0.485-0.477V68.615z"/>
		<path fill="#666666" d="M513.789,78.559c-0.127-0.084-0.211-0.235-0.211-0.414c0-0.306,0.239-0.54,0.536-0.54
			c0.141,0,0.268,0.056,0.338,0.125c0.93,0.773,1.86,1.146,3.116,1.146c1.324,0,2.198-0.69,2.198-1.644v-0.029
			c0-0.896-0.494-1.407-2.566-1.837c-2.269-0.482-3.312-1.203-3.312-2.792v-0.025c0-1.521,1.368-2.641,3.242-2.641
			c1.298,0,2.242,0.317,3.143,0.953c0.113,0.084,0.24,0.235,0.24,0.442c0,0.29-0.24,0.525-0.536,0.525
			c-0.127,0-0.226-0.028-0.324-0.098c-0.832-0.594-1.635-0.843-2.551-0.843c-1.283,0-2.101,0.692-2.101,1.562v0.027
			c0,0.911,0.508,1.423,2.679,1.879c2.198,0.47,3.213,1.258,3.213,2.736v0.028c0,1.657-1.409,2.734-3.369,2.734
			C516.085,79.856,514.887,79.415,513.789,78.559z"/>
		<path fill="#666666" d="M526.133,75.67v-5.139c0-0.306,0.254-0.555,0.55-0.555c0.311,0,0.564,0.249,0.564,0.555v5.069
			c0,2.088,1.142,3.262,3.016,3.262c1.818,0,2.975-1.078,2.975-3.192v-5.139c0-0.306,0.253-0.555,0.563-0.555
			c0.296,0,0.55,0.249,0.55,0.555v5.057c0,2.818-1.65,4.283-4.116,4.283C527.796,79.871,526.133,78.406,526.133,75.67z"/>
		<path fill="#666666" d="M539.759,78.559c-0.127-0.084-0.212-0.235-0.212-0.414c0-0.306,0.24-0.54,0.535-0.54
			c0.141,0,0.269,0.056,0.339,0.125c0.93,0.773,1.861,1.146,3.116,1.146c1.324,0,2.199-0.69,2.199-1.644v-0.029
			c0-0.896-0.494-1.407-2.566-1.837c-2.269-0.482-3.313-1.203-3.313-2.792v-0.025c0-1.521,1.368-2.641,3.243-2.641
			c1.296,0,2.241,0.317,3.143,0.953c0.112,0.084,0.24,0.235,0.24,0.442c0,0.29-0.24,0.525-0.536,0.525
			c-0.126,0-0.226-0.028-0.324-0.098c-0.832-0.594-1.635-0.843-2.551-0.843c-1.283,0-2.101,0.692-2.101,1.562v0.027
			c0,0.911,0.507,1.423,2.679,1.879c2.199,0.47,3.213,1.258,3.213,2.736v0.028c0,1.657-1.409,2.734-3.369,2.734
			C542.056,79.856,540.858,79.415,539.759,78.559z"/>
		<path fill="#666666" d="M554.655,71.055h-2.861c-0.282,0-0.521-0.221-0.521-0.497s0.24-0.511,0.521-0.511h6.851
			c0.282,0,0.521,0.234,0.521,0.511s-0.239,0.497-0.521,0.497h-2.862v8.181c0,0.304-0.253,0.553-0.563,0.553
			c-0.31,0-0.564-0.249-0.564-0.553V71.055z"/>
		<path fill="#666666" d="M562.489,79.001l4.003-8.581c0.141-0.305,0.352-0.483,0.704-0.483h0.056c0.338,0,0.565,0.179,0.691,0.483
			l4.003,8.566c0.043,0.097,0.071,0.194,0.071,0.276c0,0.291-0.24,0.525-0.535,0.525c-0.269,0-0.452-0.18-0.55-0.4l-1.029-2.226
			h-5.413l-1.028,2.253c-0.1,0.235-0.283,0.373-0.536,0.373c-0.282,0-0.508-0.221-0.508-0.497
			C562.417,79.207,562.433,79.111,562.489,79.001z M569.466,76.168l-2.27-4.946l-2.27,4.946H569.466z"/>
		<path fill="#666666" d="M577.37,70.531c0-0.306,0.253-0.555,0.55-0.555c0.311,0,0.563,0.249,0.563,0.555v8.704
			c0,0.304-0.253,0.553-0.563,0.553c-0.296,0-0.55-0.249-0.55-0.553V70.531z"/>
		<path fill="#666666" d="M584.499,70.544c0-0.29,0.254-0.539,0.55-0.539h0.154c0.255,0,0.409,0.124,0.565,0.318l5.991,7.489v-7.297
			c0-0.29,0.239-0.539,0.548-0.539c0.297,0,0.537,0.249,0.537,0.539v8.733c0,0.29-0.211,0.512-0.509,0.512h-0.056
			c-0.239,0-0.407-0.139-0.576-0.331l-6.119-7.67v7.489c0,0.29-0.241,0.539-0.55,0.539c-0.295,0-0.536-0.249-0.536-0.539V70.544z"/>
	</g>
</g>
</svg>
