<?xml version="1.0" encoding="utf-8"?>
<!-- Generator: Adobe Illustrator 15.1.0, SVG Export Plug-In  -->
<!DOCTYPE svg PUBLIC "-//W3C//DTD SVG 1.1//EN" "http://www.w3.org/Graphics/SVG/1.1/DTD/svg11.dtd" [
	<!ENTITY ns_flows "http://ns.adobe.com/Flows/1.0/">
]>
<svg version="1.1"
	 xmlns="http://www.w3.org/2000/svg" xmlns:xlink="http://www.w3.org/1999/xlink" xmlns:a="http://ns.adobe.com/AdobeSVGViewerExtensions/3.0/"
	 x="0px" y="0px" width="595px" height="350px" viewBox="-153.771 -66.154 595 350"
	 overflow="visible" enable-background="new -153.771 -66.154 595 350" xml:space="preserve">
<defs>
</defs>
<path fill="#666666" d="M65.254,190.512l2.688,1.205l0.02,8.289l6.178-5.508l2.662,1.193l-3.986,8.885l-1.754-0.787l3.367-7.309
	l-0.023-0.012l-6.58,5.867l-1.592-0.715l0.033-8.803l-0.025-0.01l-3.219,7.373l-1.754-0.787L65.254,190.512z"/>
<path fill="#666666" d="M78.369,196.283L80.285,197l-1.922,5.15c-0.473,1.266-0.994,2.818,1.498,3.75
	c2.504,0.936,3.129-0.58,3.602-1.846l1.924-5.152l1.916,0.717l-1.941,5.203c-0.564,1.508-1.613,4.16-6.035,2.51
	c-4.41-1.646-3.463-4.336-2.9-5.848L78.369,196.283z"/>
<path fill="#666666" d="M88.889,200.131l1.953,0.609l-2.426,7.76l5.648,1.766l-0.479,1.537l-7.604-2.377L88.889,200.131z"/>
<path fill="#666666" d="M98.164,204.52l-3.529-0.949l0.396-1.473l9.031,2.426l-0.395,1.475l-3.531-0.949l-2.127,7.928l-1.975-0.531
	L98.164,204.52z"/>
<path fill="#666666" d="M104.895,204.652l1.994,0.455l-2.174,9.492l-1.996-0.455L104.895,204.652z"/>
<path fill="#666666" d="M107.615,210.486l4.725,0.939l-0.314,1.58l-4.725-0.939L107.615,210.486z"/>
<path fill="#666666" d="M114.869,206.768l2.021,0.297l-0.799,5.434c-0.193,1.338-0.379,2.963,2.252,3.35
	c2.643,0.389,2.934-1.223,3.131-2.557l0.799-5.436l2.021,0.297l-0.807,5.49c-0.232,1.59-0.701,4.4-5.367,3.715
	c-4.654-0.684-4.293-3.51-4.059-5.102L114.869,206.768z"/>
<path fill="#666666" d="M129.758,208.363c1.494,0.127,4.463,0.652,4.482,3.488l-2.203-0.188c-0.004-0.754-0.615-1.625-2.314-1.77
	c-1.357-0.115-2.293,0.23-2.369,1.141c-0.193,2.285,7.225,0.707,6.873,4.854c-0.213,2.502-2.863,2.934-4.93,2.76
	c-3.494-0.297-4.777-1.789-4.631-3.83l2.203,0.188c-0.057,1.283,0.953,1.984,2.625,2.125c1.238,0.104,2.424-0.164,2.512-1.225
	c0.205-2.406-7.121-0.918-6.783-4.9C125.404,208.846,127.391,208.164,129.758,208.363z"/>
<path fill="#666666" d="M135.82,209.107l8.455,0.225l-0.041,1.527l-6.408-0.172l-0.064,2.455l6.148,0.164l-0.039,1.527l-6.152-0.164
	l-0.07,2.699l6.518,0.174l-0.041,1.527l-8.562-0.229L135.82,209.107z"/>
<path fill="#666666" d="M150.311,209.217l5.99-0.404c2.383-0.16,3.258,1.246,3.363,2.811c0.1,1.484-0.738,3.059-2.932,3.207
	l-3.975,0.268l0.25,3.703l-2.043,0.137L150.311,209.217z M152.656,213.572l3.279-0.221c1.158-0.078,1.764-0.434,1.686-1.59
	c-0.082-1.199-0.945-1.441-1.734-1.389l-3.432,0.232L152.656,213.572z"/>
<path fill="#666666" d="M160.617,208.477l6.115-0.818c2.463-0.328,3.41,0.686,3.613,2.188c0.168,1.258-0.418,2.135-1.285,2.541
	l0.004,0.027c1.182,0.09,1.572,1.055,1.756,2.422c0.062,0.461,0.221,1.541,0.684,2.016l-2.191,0.295
	c-0.186-0.252-0.346-0.727-0.439-1.43c-0.186-1.379-0.504-2.328-1.994-2.129l-3.449,0.461l0.51,3.816l-2.027,0.27L160.617,208.477z
	 M166.73,212.066c1.123-0.152,1.688-0.57,1.543-1.654c-0.135-1-0.85-1.305-1.918-1.16l-3.506,0.469l0.377,2.814L166.73,212.066z"/>
<path fill="#666666" d="M171.795,211.885c-0.551-2.684,0.541-5.359,4.574-6.189s6.096,1.197,6.646,3.881
	c0.553,2.686-0.541,5.361-4.574,6.191S172.348,214.57,171.795,211.885z M180.934,210.006c-0.434-2.098-2.014-3.275-4.256-2.816
	c-2.246,0.463-3.23,2.168-2.799,4.268c0.432,2.098,2.012,3.275,4.256,2.814S181.363,212.102,180.934,210.006z"/>
<path fill="#666666" d="M183.189,204.498l5.064-1.402c3.68-1.02,5.168,0.832,5.912,3.514c0.561,2.023,0.355,4.855-2.84,5.74
	l-5.533,1.535L183.189,204.498z M187.355,211.865l2.775-0.768c1.418-0.395,2.803-1.273,2.041-4.02
	c-0.846-3.051-2.828-2.699-3.934-2.395l-2.668,0.742L187.355,211.865z"/>
<path fill="#666666" d="M194.064,201.426l1.934-0.666l1.795,5.193c0.439,1.275,1.027,2.807,3.541,1.938
	c2.527-0.873,2.043-2.439,1.604-3.715l-1.797-5.193l1.934-0.668l1.814,5.246c0.523,1.521,1.404,4.232-3.057,5.773
	c-4.449,1.537-5.43-1.141-5.955-2.662L194.064,201.426z"/>
<path fill="#666666" d="M213.406,197.982c-0.754-1.285-2.209-1.627-3.799-0.969c-1.74,0.721-2.559,2.418-1.588,4.764
	c0.777,1.881,2.613,2.641,4.482,1.869c1.967-0.814,2.068-2.424,1.828-3.432l2.043-0.846c0.477,1.9,0.094,4.291-3.615,5.824
	c-3.254,1.35-5.725-0.23-6.773-2.766c-1.051-2.535-0.48-5.371,3.064-6.836c3.104-1.285,5.396-0.314,6.4,1.545L213.406,197.982z"/>
<path fill="#666666" d="M218.439,193.428l-3.301,1.568l-0.656-1.379l8.447-4.02l0.656,1.381l-3.301,1.568l3.527,7.414l-1.846,0.879
	L218.439,193.428z"/>
<path fill="#666666" d="M51.443,185.428c-5.078-2.822-10.139-5.898-15.055-9.16c-17.877-11.854-30.416-23.785-36.297-29.846
	L0,146.327v4.849c6.656,6.596,18.465,17.301,34.504,27.936c5.197,3.447,10.559,6.697,15.932,9.66l1.008,0.557V185.428z"/>
<path fill="#666666" d="M287.623,146.527l-0.307-0.312l-1.219,1.193c-6.02,5.904-18.752,17.527-36.342,29.068
	c-4.92,3.229-9.965,6.277-14.996,9.074v3.9l1.408-0.781c5.186-2.873,10.389-6.016,15.459-9.342
	c17.039-11.178,29.582-22.439,35.996-28.645V146.527z"/>
<path fill="#666666" d="M0.199,0v133.16c39.379,41.58,89.25,66.436,143.512,66.436c54.045,0,103.734-24.654,143.035-65.926V0H0.199z
	 M281.062,131.428c-19.041,19.645-40.143,34.982-62.744,45.605c-23.92,11.242-49.02,16.943-74.607,16.943
	c-25.689,0-50.885-5.746-74.889-17.078c-22.689-10.711-43.855-26.172-62.941-45.973V5.619h275.182V131.428z"/>
<path fill="#666666" d="M22.686,20.293h20.73l3.939,26.165l4.275-26.165h16.365l4.152,26.741l4.672-26.741h47.91
	c6.168,0,15.018,4.67,15.018,17.485v53.629c0,13.592-9.84,16.894-13.957,16.894h-33.48V48.322l-9.598,59.979H64.24l-4.613-27.905
	l-4.73,27.905H36.973L22.686,20.293z M117.725,40.405c0-1.658-1.982-3.012-3.926-3.012v53.498c1.902,0,3.926-1.352,3.926-3.018
	V40.405z M159.271,55.33h-16.105v19.522h16.105V55.33z M264.146,90.349c0,7.261-6.154,18.096-22.609,18.096h-3.023
	c-14.586,0-21.219-8.502-22.387-15.492h-5.314v15.349h-20.635V92.953h-27.424V74.995l25.277-54.702h22.781v54.29h5.049v-37.08
	c0-7.257,6.199-18.093,22.652-18.093h3.023c16.455,0,22.609,10.836,22.609,18.093V90.349z M237.58,91.774
	c0,1.372,1.109,2.484,2.482,2.484s2.48-1.112,2.48-2.484V36.166c0-1.374-1.107-2.488-2.48-2.488s-2.482,1.114-2.482,2.488V91.774z
	 M190.178,59.33h-0.389l-7.559,15.091v0.162h7.947V59.33z"/>
<path fill="#666666" d="M262.715,103.4c0-2.893,2.346-5.029,5.119-5.029c2.748,0,5.094,2.136,5.094,5.029
	c0,2.92-2.346,5.053-5.094,5.053C265.061,108.453,262.715,106.321,262.715,103.4 M267.834,107.619c2.283,0,4.078-1.79,4.078-4.218
	c0-2.388-1.795-4.189-4.078-4.189c-2.305,0-4.107,1.801-4.107,4.189C263.727,105.829,265.529,107.619,267.834,107.619
	 M266.77,106.321h-0.887v-5.813h2.217c1.375,0,2.057,0.505,2.057,1.652c0,1.042-0.656,1.497-1.508,1.602l1.652,2.559h-0.988
	l-1.531-2.52h-1.012V106.321z M267.82,103.051c0.752,0,1.414-0.055,1.414-0.944c0-0.721-0.652-0.854-1.27-0.854h-1.195v1.798H267.82
	z"/>
</svg>
