<?xml version="1.0" encoding="utf-8"?>
<!-- Generator: Adobe Illustrator 15.1.0, SVG Export Plug-In  -->
<!DOCTYPE svg PUBLIC "-//W3C//DTD SVG 1.1//EN" "http://www.w3.org/Graphics/SVG/1.1/DTD/svg11.dtd" [
	<!ENTITY ns_flows "http://ns.adobe.com/Flows/1.0/">
]>
<svg version="1.1"
	 xmlns="http://www.w3.org/2000/svg" xmlns:xlink="http://www.w3.org/1999/xlink" xmlns:a="http://ns.adobe.com/AdobeSVGViewerExtensions/3.0/"
	 x="0px" y="0px" width="595px" height="350px" viewBox="-132.924 -94.328 595 350"
	 overflow="visible" enable-background="new -132.924 -94.328 595 350" xml:space="preserve">
<defs>
</defs>
<g>
	<g>
		<path fill="#666666" d="M38.072,47.091H27.711l-2.158-7.343H12.225l-2.365,7.343H0l13.127-35.808h12.426L38.072,47.091z
			 M23.336,32.704l-2.713-8.397c-0.701-2.157-1.26-4.327-1.453-5.685h-0.213c-0.348,1.964-1.051,4.178-1.549,5.685l-2.818,8.397
			H23.336z"/>
		<rect x="37.424" y="8.015" fill="#666666" width="9.455" height="39.078"/>
		<path fill="#666666" d="M48.42,8.015h9.459v11.816c2.414-2.06,4.373-3.768,8.092-3.768c8.908,0,10.564,8.646,10.564,15.445
			c0,7.636-1.656,16.288-10.309,16.288c-2.369,0-5.025-0.554-8.348-3.922v3.219H48.42V8.015z M57.879,38.442
			c1.254,1.161,2.414,2.315,4.471,2.315c4.23,0,4.531-5.689,4.531-8.456c0-3.775-0.199-9.204-4.629-9.204
			c-1.914,0-3.066,1.064-4.373,2.467V38.442z"/>
		<path fill="#666666" d="M105.516,32.1v2.427H86.705c0,2.007,0,6.536,4.727,6.536c3.076,0,4.129-2.267,4.783-3.674l7.994,2.61
			c-2.719,5.735-6.736,7.8-12.924,7.8c-12.025,0-14.23-10.267-14.23-15.745c0-8.806,4.873-15.99,14.23-15.99
			C99.223,16.062,105.516,20.842,105.516,32.1 M96.215,28.329c-0.107-1.911-0.559-5.929-4.576-5.929
			c-4.43,0-4.934,4.076-4.934,5.929H96.215z"/>
		<path fill="#666666" d="M107.641,16.768h9.451v4.078c3.174-3.475,5.939-4.785,8.855-4.785c4.275,0,6.33,2.167,7.299,4.785
			c2.508-2.174,5.273-4.785,9.848-4.785c7.49,0,7.49,6.036,7.49,9.61v21.42h-9.451V28.524c0-2.26-0.145-4.712-2.918-4.712
			c-1.01,0-1.906,0.197-4.373,2.808v20.471h-9.451V28.524c0-2.26-0.156-4.712-2.916-4.712c-1.014,0-1.912,0.197-4.383,2.808v20.471
			h-9.451V16.768z"/>
		<path fill="#666666" d="M176.938,41.762c0,1.811,0.047,3.921,0.193,5.329h-9.146c-0.053-1.311-0.203-2.817-0.203-3.924h-0.148
			c-2.057,2.014-4.977,4.631-8.547,4.631c-6.742,0-8.65-5.526-8.65-9.16c0-7.539,6.492-10.862,13.631-10.862
			c1.215,0,2.559,0.099,3.566,0.204v-0.949c0-2.93-0.756-4.634-3.721-4.634c-2.771,0-3.768,2.125-4.119,4.079l-8.398-2.415
			c0.451-1.407,2.613-7.999,12.971-7.999c9.855,0,12.572,5.377,12.572,13.021V41.762z M167.633,38.095v-4.384
			c-1.105-0.107-2.314-0.197-3.268-0.197c-2.908,0-4.781,1.554-4.781,4.071c0,1.761,1.258,2.971,3.014,2.971
			C164.717,40.556,166.375,39.142,167.633,38.095"/>
		<path fill="#666666" d="M178.953,16.768h9.445v4.878h0.109c1.9-3.831,6.139-5.234,8.145-5.234c0.549,0,1.154,0.046,1.707,0.162
			v8.492c-0.553-0.255-1.41-0.46-3.066-0.46c-2.967,0-5.338,1.264-6.895,3.372v19.113h-9.445V16.768z"/>
		<rect x="200.105" y="8.015" fill="#666666" width="9.455" height="39.078"/>
		<path fill="#666666" d="M239.289,32.1v2.427h-18.807c0,2.007,0,6.536,4.729,6.536c3.061,0,4.119-2.267,4.77-3.674l8.006,2.61
			c-2.717,5.735-6.742,7.8-12.926,7.8c-12.027,0-14.236-10.267-14.236-15.745c0-8.806,4.877-15.99,14.236-15.99
			C233.01,16.062,239.289,20.842,239.289,32.1 M229.98,28.329c-0.092-1.911-0.549-5.929-4.562-5.929
			c-4.434,0-4.936,4.076-4.936,5.929H229.98z"/>
		<path fill="#666666" d="M0,56.385h40.445c8.324,0,33.844,0,33.844,23.911c0,17.87-12.758,20.836-17.596,22.039v0.674
			c7.928,1.082,20.289,5.51,20.289,23.373c0,25.676-27.547,25.676-37.479,25.676H0V56.385z M38.965,93.735
			c6.582,0,10.471-2.815,10.471-9.263c0-7.395-3.215-9.276-10.471-9.276H25.266v18.539H38.965z M40.576,133.247
			c6.725,0,11.146-4.031,11.146-10.353c0-8.195-4.422-10.349-12.219-10.349H25.266v20.701H40.576z"/>
		<path fill="#666666" d="M118.133,69.146c26.732,0,39.229,18.954,39.229,42.456c0,23.385-12.496,42.324-39.229,42.324
			c-26.74,0-39.227-18.939-39.227-42.324C78.906,88.101,91.393,69.146,118.133,69.146 M118.133,135.928
			c12.086,0,13.438-12.099,13.438-24.325c0-12.354-1.352-24.454-13.438-24.454c-11.285,0-13.436,12.1-13.436,24.454
			C104.697,123.829,106.848,135.928,118.133,135.928"/>
		<path fill="#666666" d="M209.543,102.203c0-6.843-1.625-12.368-7.791-12.368c-4.846,0-9.951,4.847-13.574,8.203v54.02H162.92
			V71.031h25.258v10.883c8.996-7.526,15.576-12.768,26.59-12.768c20.025,0,20.025,16.118,20.025,25.666v57.245h-25.25V102.203z"/>
		<path fill="#666666" d="M314.885,152.058h-25.248v-8.599c-8.867,8.992-15.994,10.468-22.307,10.468
			c-23.107,0-27.547-23.102-27.547-43.528c0-18.138,4.439-41.254,28.215-41.254c9.949,0,15.18,4.577,21.639,10.076V47.652h25.248
			V152.058z M289.637,94.551c-3.506-3.769-6.596-6.581-11.689-6.581c-11.83,0-12.373,14.512-12.373,24.576
			c0,7.398,0.812,22.582,12.086,22.582c5.518,0,8.615-3.101,11.977-6.174V94.551z"/>
	</g>
</g>
<g>
	<defs>
		<path id="SVGID_2_" d="M244.051,55.192c0,0.403,0.008,0.806,0.014,1.207h24.82c-0.004-0.229-0.006-0.461-0.006-0.694
			c0-17.221,13.951-31.178,31.184-31.178c5.537,0,10.736,1.444,15.246,3.974l10.045-21.942C317.576,2.375,308.682,0,299.229,0
			C268.756,0,244.051,24.711,244.051,55.192"/>
	</defs>
	<clipPath id="SVGID_3_">
		<use xlink:href="#SVGID_2_"  overflow="visible"/>
	</clipPath>
	
		<radialGradient id="SVGID_4_" cx="-2834.4409" cy="502.4668" r="3.1239" gradientTransform="matrix(25.7765 0 0 -25.7765 73361.4688 13006.6143)" gradientUnits="userSpaceOnUse">
		<stop  offset="0" style="stop-color:#414140"/>
		<stop  offset="0.42" style="stop-color:#414140"/>
		<stop  offset="0.46" style="stop-color:#ABABAA"/>
		<stop  offset="0.52" style="stop-color:#C7C7C7"/>
		<stop  offset="0.56" style="stop-color:#ECECEC"/>
		<stop  offset="0.6" style="stop-color:#CBCBCB"/>
		<stop  offset="0.6344" style="stop-color:#70706F"/>
		<stop  offset="0.64" style="stop-color:#616160"/>
		<stop  offset="1" style="stop-color:#616160"/>
	</radialGradient>
	<rect x="244.051" clip-path="url(#SVGID_3_)" fill="url(#SVGID_4_)" width="81.303" height="56.398"/>
</g>
<g>
	<g>
		<path fill="#666666" d="M324.309,47.26c2.676,0,4.844,2.17,4.844,4.848c0,2.681-2.168,4.853-4.844,4.853
			c-2.682,0-4.85-2.171-4.85-4.853C319.459,49.43,321.627,47.26,324.309,47.26 M324.309,55.882c2.076,0,3.768-1.692,3.768-3.775
			c0-2.076-1.691-3.765-3.768-3.765c-2.082,0-3.773,1.688-3.773,3.765C320.535,54.19,322.227,55.882,324.309,55.882 M324.039,52.542
			h-0.666v2.247h-1.08v-5.423h2.053c1.361,0,2.131,0.433,2.131,1.612c0,0.965-0.623,1.484-1.404,1.508l1.418,2.302h-1.117
			L324.039,52.542z M324.332,51.759c0.676,0,1.064-0.232,1.064-0.781c0-0.507-0.445-0.703-0.91-0.703h-1.113v1.484H324.332z"/>
	</g>
</g>
</svg>
