<?xml version="1.0" encoding="utf-8"?>
<!-- Generator: Adobe Illustrator 15.1.0, SVG Export Plug-In  -->
<!DOCTYPE svg PUBLIC "-//W3C//DTD SVG 1.1//EN" "http://www.w3.org/Graphics/SVG/1.1/DTD/svg11.dtd" [
	<!ENTITY ns_flows "http://ns.adobe.com/Flows/1.0/">
]>
<svg version="1.1"
	 xmlns="http://www.w3.org/2000/svg" xmlns:xlink="http://www.w3.org/1999/xlink" xmlns:a="http://ns.adobe.com/AdobeSVGViewerExtensions/3.0/"
	 x="0px" y="0px" width="119px" height="55px" viewBox="0 0 119 55" overflow="visible" enable-background="new 0 0 119 55"
	 xml:space="preserve">
<defs>
</defs>
<path fill="#FFFFFF" d="M13.765,16.826h-3.746l-0.781-2.624H4.42l-0.855,2.624H0L4.746,4.032h4.492L13.765,16.826z M8.437,11.686
	l-0.98-3C7.202,7.915,7,7.139,6.93,6.654H6.853c-0.125,0.702-0.38,1.493-0.56,2.031l-1.02,3H8.437z"/>
<rect x="13.53" y="2.864" fill="#FFFFFF" width="3.417" height="13.963"/>
<path fill="#FFFFFF" d="M17.506,2.864h3.419v4.222c0.873-0.736,1.581-1.347,2.926-1.347c3.22,0,3.82,3.09,3.82,5.519
	c0,2.729-0.6,5.82-3.728,5.82c-0.856,0-1.817-0.198-3.018-1.401v1.15h-3.419V2.864z M20.925,13.736
	c0.454,0.415,0.873,0.827,1.616,0.827c1.53,0,1.638-2.033,1.638-3.021c0-1.349-0.071-3.289-1.673-3.289
	c-0.69,0-1.109,0.38-1.581,0.881V13.736z"/>
<path fill="#FFFFFF" d="M38.148,11.47v0.867h-6.801c0,0.717,0,2.335,1.709,2.335c1.111,0,1.492-0.81,1.729-1.313l2.89,0.933
	c-0.981,2.049-2.435,2.787-4.671,2.787c-4.348,0-5.145-3.668-5.145-5.626c0-3.146,1.763-5.714,5.145-5.714
	C35.872,5.739,38.148,7.447,38.148,11.47 M34.785,10.123c-0.039-0.683-0.202-2.119-1.654-2.119c-1.602,0-1.784,1.456-1.784,2.119
	H34.785z"/>
<path fill="#FFFFFF" d="M38.917,5.991h3.417v1.458c1.146-1.242,2.146-1.71,3.202-1.71c1.545,0,2.289,0.774,2.638,1.71
	c0.907-0.777,1.907-1.71,3.56-1.71c2.709,0,2.709,2.157,2.709,3.434v7.654h-3.417v-6.634c0-0.808-0.053-1.684-1.055-1.684
	c-0.364,0-0.689,0.07-1.58,1.003v7.314h-3.417v-6.634c0-0.808-0.057-1.684-1.054-1.684c-0.367,0-0.691,0.07-1.584,1.003v7.314
	h-3.417V5.991z"/>
<path fill="#FFFFFF" d="M63.969,14.922c0,0.647,0.017,1.401,0.07,1.904h-3.308c-0.019-0.468-0.073-1.006-0.073-1.402h-0.053
	c-0.745,0.72-1.799,1.655-3.091,1.655c-2.438,0-3.127-1.975-3.127-3.273c0-2.693,2.346-3.881,4.928-3.881
	c0.44,0,0.925,0.036,1.29,0.073V9.659c0-1.047-0.273-1.656-1.346-1.656c-1.001,0-1.362,0.759-1.489,1.457l-3.037-0.862
	c0.163-0.503,0.945-2.858,4.689-2.858c3.563,0,4.546,1.921,4.546,4.653V14.922z M60.606,13.612v-1.566
	c-0.4-0.038-0.837-0.07-1.183-0.07c-1.051,0-1.728,0.556-1.728,1.455c0,0.629,0.455,1.062,1.089,1.062
	C59.551,14.491,60.151,13.986,60.606,13.612"/>
<path fill="#FFFFFF" d="M64.698,5.991h3.415v1.743h0.04c0.687-1.369,2.219-1.87,2.944-1.87c0.198,0,0.417,0.017,0.617,0.058v3.035
	c-0.2-0.091-0.511-0.164-1.108-0.164c-1.073,0-1.931,0.452-2.493,1.205v6.829h-3.415V5.991z"/>
<rect x="72.345" y="2.864" fill="#FFFFFF" width="3.418" height="13.963"/>
<path fill="#FFFFFF" d="M86.511,11.47v0.867h-6.799c0,0.717,0,2.335,1.709,2.335c1.106,0,1.489-0.81,1.725-1.313l2.895,0.933
	c-0.982,2.049-2.438,2.787-4.673,2.787c-4.349,0-5.147-3.668-5.147-5.626c0-3.146,1.764-5.714,5.147-5.714
	C84.242,5.739,86.511,7.447,86.511,11.47 M83.146,10.123c-0.033-0.683-0.198-2.119-1.649-2.119c-1.603,0-1.784,1.456-1.784,2.119
	H83.146z"/>
<path fill="#FFFFFF" d="M0,20.147h14.622c3.01,0,12.236,0,12.236,8.544c0,6.384-4.613,7.445-6.361,7.875v0.239
	c2.866,0.387,7.334,1.969,7.334,8.352c0,9.175-9.958,9.175-13.549,9.175H0V20.147z M14.087,33.494c2.379,0,3.785-1.007,3.785-3.31
	c0-2.643-1.163-3.315-3.785-3.315H9.133v6.625H14.087z M14.669,47.611c2.432,0,4.03-1.44,4.03-3.699
	c0-2.929-1.599-3.696-4.417-3.696H9.133v7.396H14.669z"/>
<path fill="#FFFFFF" d="M42.709,24.707c9.665,0,14.182,6.773,14.182,15.17C56.891,48.233,52.374,55,42.709,55
	c-9.667,0-14.182-6.768-14.182-15.123C28.527,31.48,33.042,24.707,42.709,24.707 M42.709,48.569c4.37,0,4.857-4.323,4.857-8.691
	c0-4.415-0.487-8.737-4.857-8.737c-4.08,0-4.857,4.322-4.857,8.737C37.852,44.246,38.629,48.569,42.709,48.569"/>
<path fill="#FFFFFF" d="M75.757,36.518c0-2.443-0.588-4.418-2.816-4.418c-1.753,0-3.599,1.732-4.908,2.93v19.303h-9.132V25.381
	h9.132v3.889c3.253-2.689,5.632-4.562,9.613-4.562c7.24,0,7.24,5.759,7.24,9.17v20.455h-9.129V36.518z"/>
<path fill="#FFFFFF" d="M113.842,54.333h-9.128v-3.073C101.508,54.474,98.931,55,96.649,55c-8.354,0-9.959-8.254-9.959-15.554
	c0-6.481,1.605-14.74,10.201-14.74c3.597,0,5.488,1.635,7.823,3.601v-11.28h9.128V54.333z M104.714,33.784
	c-1.268-1.346-2.385-2.351-4.227-2.351c-4.276,0-4.474,5.186-4.474,8.782c0,2.643,0.294,8.067,4.37,8.067
	c1.995,0,3.114-1.106,4.33-2.206V33.784z"/>
<g>
	<defs>
		<path id="SVGID_1_" d="M88.233,19.722c0,0.143,0.003,0.287,0.005,0.43h8.974c-0.001-0.082-0.003-0.165-0.003-0.247
			c0-6.154,5.045-11.141,11.274-11.141c2.002,0,3.882,0.516,5.513,1.42l3.631-7.84C114.815,0.849,111.6,0,108.182,0
			C97.165,0,88.233,8.83,88.233,19.722"/>
	</defs>
	<use xlink:href="#SVGID_1_"  overflow="visible" fill="#FFFFFF"/>
	<clipPath id="SVGID_2_">
		<use xlink:href="#SVGID_1_"  overflow="visible"/>
	</clipPath>
</g>
<path fill="#FFFFFF" d="M117.25,16.887c0.967,0,1.751,0.775,1.751,1.733s-0.784,1.733-1.751,1.733c-0.97,0-1.754-0.776-1.754-1.733
	S116.28,16.887,117.25,16.887 M117.25,19.967c0.75,0,1.362-0.604,1.362-1.348s-0.612-1.346-1.362-1.346
	c-0.753,0-1.365,0.603-1.365,1.346S116.497,19.967,117.25,19.967 M117.152,18.774h-0.24v0.803h-0.392V17.64h0.742
	c0.492,0,0.771,0.154,0.771,0.576c0,0.344-0.225,0.531-0.508,0.539l0.514,0.823h-0.404L117.152,18.774z M117.258,18.495
	c0.243,0,0.384-0.083,0.384-0.279c0-0.181-0.16-0.25-0.329-0.25h-0.401v0.53H117.258z"/>
</svg>
