<?xml version="1.0" encoding="utf-8"?>
<!-- Generator: Adobe Illustrator 15.1.0, SVG Export Plug-In  -->
<!DOCTYPE svg PUBLIC "-//W3C//DTD SVG 1.1//EN" "http://www.w3.org/Graphics/SVG/1.1/DTD/svg11.dtd" [
	<!ENTITY ns_flows "http://ns.adobe.com/Flows/1.0/">
]>
<svg version="1.1"
	 xmlns="http://www.w3.org/2000/svg" xmlns:xlink="http://www.w3.org/1999/xlink" xmlns:a="http://ns.adobe.com/AdobeSVGViewerExtensions/3.0/"
	 x="0px" y="0px" width="102px" height="109px" viewBox="0 0 102 109" overflow="visible" enable-background="new 0 0 102 109"
	 xml:space="preserve">
<defs>
</defs>
<path fill="#FFFFFF" d="M20.787,70.173h17.99c-2.155,6.725-9.446,12.113-16.824,12.113c-4.797,0-9.312-1.927-12.715-5.422
	c-3.379-3.476-5.24-8.078-5.24-12.96c0-4.821,1.864-9.428,5.231-12.949c3.465-3.502,7.982-5.432,12.724-5.432
	c7.332,0,13.717,4.2,16.268,10.7l0.375,0.955h4.198l-0.699-1.977c-2.874-8.129-10.968-13.59-20.142-13.59
	c-5.905,0-11.438,2.336-15.586,6.589C2.261,52.481,0,58.059,0,63.904c0,5.912,2.265,11.493,6.377,15.715
	c4.175,4.282,9.707,6.638,15.576,6.638c8.414,0,17.554-6.244,20.358-13.882c0.624-1.557,0.988-3.028,1.113-4.499l0.137-1.616H20.787
	V70.173z"/>
<path fill="#FFFFFF" d="M95.308,48c-4.297-4.27-10.035-6.621-16.156-6.621c-6.058,0-11.927,2.417-16.094,6.621
	c-4.315,4.288-6.692,9.916-6.692,15.846c0,5.932,2.377,11.56,6.684,15.841c4.178,4.213,10.047,6.629,16.103,6.629
	c6.119,0,11.857-2.351,16.156-6.621C99.623,75.405,102,69.777,102,63.846C102,57.915,99.623,52.287,95.308,48z M79.151,82.402
	c-4.989,0-9.701-1.953-13.27-5.498c-3.558-3.538-5.518-8.177-5.518-13.059c0-4.881,1.96-9.518,5.518-13.057
	c3.569-3.546,8.281-5.498,13.27-5.498c5.028,0,9.763,1.952,13.329,5.498c3.521,3.501,5.459,8.138,5.459,13.057
	c0,4.92-1.938,9.558-5.458,13.059C88.915,80.449,84.181,82.402,79.151,82.402z"/>
<path fill="#FFFFFF" d="M52.309,0.585C51.688,0.198,51.008,0,50.277,0c-1.299,0-2.618,0.652-3.527,1.745
	c-1.018,1.224-1.407,2.853-1.066,4.469c0.251,1.196,1.167,2.39,1.92,2.808c0.062,0.034,0.118,0.068,0.172,0.102
	c0.187,0.113,0.377,0.229,0.619,0.229c0.09,0,0.179-0.015,0.271-0.046c0.112,0.11,0.249,0.163,0.356,0.205
	c0.038,0.013,0.076,0.028,0.113,0.046l0.223,0.11c0.134,0.18,0.15,0.268,0.154,0.377c-0.176,0.173-0.2,0.396-0.078,0.64l0.088,0.18
	l0.199-0.042c2.116-0.439,4.146-2.788,4.624-5.347C54.734,3.388,54.011,1.652,52.309,0.585z"/>
<path fill="#FFFFFF" d="M74.638,32.87c-0.286-0.048-0.594-0.087-0.896-0.112c-0.37-0.028-1.81-0.065-1.943-0.065
	c-1.363,0-7.463-1.888-12.609-5.784c-5.146-3.899-8.91-11.621-9.33-12.15c-0.421-0.527-1.049-1.202-1.557-0.994
	c-0.513,0.205-0.771,1.603-0.771,1.603l-0.036,0.171c-0.073,0.344-0.011,0.614,0.053,0.9c0.01,0.046,0.021,0.093,0.031,0.145
	c0.08,0.382,0.115,0.668,0.147,0.948c0.047,0.396,0.092,0.771,0.267,1.329c0.228,0.724,0.311,0.887,0.689,1.59
	c0.248,0.459,0.502,0.934,0.704,1.392l0.096,0.218c0.202,0.461,0.394,0.896,0.574,1.287c0.035,0.073,0.06,0.158,0.085,0.247
	c0.029,0.106,0.062,0.217,0.111,0.314c0.066,0.126,0.164,0.221,0.258,0.312c0.063,0.063,0.122,0.124,0.164,0.183
	c0.13,0.191,0.246,0.381,0.36,0.567c0.229,0.371,0.444,0.722,0.722,1.029c0.089,0.136,0.238,0.173,0.341,0.195
	c0.012,0.003,0.024,0.006,0.039,0.01c-0.007,0.133-0.005,0.323,0.223,0.456l0.136,0.078l0.088-0.071
	c0.195,0.243,0.43,0.755,0.47,0.91l-0.006,0.125l0.16,0.071c0.048,0.02,0.179,0.076,0.242,0.122l-0.024,0.066l0.098,0.098
	c0.321,0.321,0.68,0.424,0.998,0.517c0.364,0.105,0.652,0.188,0.861,0.562l0.017,0.028l0.023,0.023
	c0.427,0.409,0.911,0.755,1.381,1.089c0.372,0.266,0.758,0.541,1.104,0.84l0.032,0.03l0.042,0.013
	c0.341,0.116,0.62,0.266,0.938,0.44l0.05,0.028c0.146,0.079,0.279,0.173,0.417,0.275c0.322,0.229,0.695,0.67,1.187,0.695
	c0.076,0.093,0.167,0.156,0.244,0.211c0.065,0.045,0.12,0.085,0.156,0.13l0.05,0.06l0.076,0.017
	c0.163,0.036,0.323,0.053,0.479,0.069c0.173,0.02,0.338,0.038,0.489,0.08c0.154,0.043,0.302,0.12,0.456,0.201
	c0.18,0.093,0.364,0.189,0.574,0.238c0.2,0.047,0.401,0.047,0.578,0.048c0.322,0.001,0.51,0.01,0.631,0.166l0.071,0.095l0.123-0.01
	c0.182-0.012,0.334-0.018,0.468-0.018c0.267,0,0.475,0.025,0.636,0.08l0.039,0.013l0.041-0.001c0.202-0.005,0.405-0.025,0.6-0.043
	c0.237-0.023,0.483-0.046,0.729-0.046c0.094,0,0.18,0.003,0.265,0.01c0.06,0.005,0.135,0.034,0.216,0.062
	c0.108,0.042,0.231,0.086,0.371,0.098c0.088,0.006,0.188,0.01,0.313,0.01c0.248,0,0.532-0.013,0.783-0.026l0.109-0.003
	c0.287-0.013,0.542-0.063,0.766-0.105c0.18-0.035,0.349-0.068,0.503-0.073c0.105-0.005,0.215,0.015,0.336,0.035
	c0.125,0.023,0.256,0.045,0.396,0.045c0.049,0,0.097-0.003,0.142-0.008c0.111-0.014,0.218-0.06,0.321-0.104
	c0.064-0.026,0.135-0.056,0.174-0.063c0.07-0.013,0.155-0.018,0.275-0.018c0.05,0,0.104,0.001,0.155,0.001
	c0.056,0.002,0.112,0.002,0.171,0.002c0.106,0,0.192-0.003,0.272-0.01c0.239-0.023,0.41,0.048,0.613,0.133
	c0.185,0.078,0.393,0.165,0.654,0.165h0.025c0.026,0,0.053,0,0.079,0c0.568,0,1.106,0.143,1.773,0.424c0,0,0.579,0.084,0.637,0.043
	C76.417,34.468,75.896,33.084,74.638,32.87z"/>
<path fill="#FFFFFF" d="M59.928,36.054c-2.165-1.342-5.279-1.384-7.186-1.257c-1.903,0.125-3.922,0.53-3.922,0.53
	c0.38,0.442,2.233,0.517,3.569,0.755c0.318,0.057,0.62,0.11,0.844,0.162c0.135,0.106,0.332,0.214,0.633,0.218l0.021,0.01
	c0.339,0.16,0.689,0.324,1.052,0.473c0.209,0.085,0.425,0.148,0.635,0.209c0.197,0.057,0.401,0.116,0.589,0.191
	c0.823,0.331,1.987,1.044,2.413,1.583c0.119,0.149,0.266,0.284,0.408,0.414c0.186,0.171,0.363,0.333,0.442,0.495
	c0.07,0.147,0.043,0.379,0.016,0.603c-0.034,0.271-0.067,0.552,0.053,0.78c-0.11,0.259-0.248,0.495-0.396,0.745
	c-0.246,0.417-0.503,0.846-0.609,1.412c-0.034,0.025-0.074,0.05-0.114,0.077c-0.149,0.095-0.316,0.203-0.409,0.401l-0.069,0.154
	l-0.025-0.006l0.003,0.05l-0.033,0.073l0.039,0.005l0.011,0.176c0.004,0.071-0.006,0.098-0.226,0.183
	c-0.117,0.048-0.251,0.1-0.353,0.203l-0.145,0.145l0.136,0.151c0.017,0.017,0.034,0.035,0.054,0.055
	c0.026,0.032,0.055,0.058,0.075,0.085c-0.097-0.025-0.198-0.042-0.296-0.042c-0.275,0-0.479,0.135-0.574,0.381l-0.018,0.048
	l0.005,0.05c0.007,0.071,0.037,0.125,0.073,0.163c-0.071,0.05-0.12,0.113-0.158,0.165c-0.005,0.005-0.008,0.01-0.012,0.017
	c-0.141-0.014-0.294,0.1-0.573,0.108c-0.165,0.007-0.214,0.118-0.361,0.118c-0.207,0-0.251,0.057-0.291,0.048l-0.864,0.608
	l-0.168,0.118c-0.015,0.082-0.045,0.01-0.194,0.095c-0.02,0.012-0.125,0.083-0.145,0.095c-0.801-1.7-3.606-5.451-6.015-7.897
	c-2.149-2.18-4.536-4.577-5.777-6.39c-1.46-2.13-1.638-5.819-1.638-5.819s-0.681,1.923-1.028,3.245
	c-0.482,1.831-0.679,4.256-0.156,6.2c0.127,0.478,0.218,0.94,0.256,1.447c0.024,0.303,0.048,0.615,0.106,0.921l0.016,0.082
	l0.065,0.05c0.285,0.218,0.385,0.516,0.497,0.863c0.067,0.205,0.138,0.419,0.254,0.621c0.049,0.083,0.13,0.133,0.22,0.133
	c0.171,0,0.319-0.211,0.396-0.417c0.277,0.463,0.247,1.05,0.274,1.612l0.006,0.118l0.104,0.059c0.255,0.144,0.49,0.469,0.423,0.703
	l-0.09,0.305l0.322-0.03c0.015-0.001,0.038-0.001,0.062-0.001c0.083,0,0.164,0.007,0.228,0.017
	c-0.068,0.106-0.047,0.223-0.019,0.296l0.017,0.033c0.102,0.171,0.266,0.265,0.41,0.348c0.228,0.132,0.323,0.185,0.264,0.444
	l-0.014,0.066l0.023,0.063c0.067,0.164,0.242,0.176,0.33,0.178c0.358,0.717,0.774,1.394,1.172,2.029
	c0.062,0.099,0.11,0.209,0.159,0.312c0.086,0.193,0.176,0.391,0.351,0.554c0.083,0.077,0.169,0.119,0.245,0.157
	c0.065,0.033,0.118,0.058,0.156,0.102c0.149,0.166,0.301,0.397,0.447,0.623c0.045,0.067,0.09,0.133,0.133,0.2
	c0.115,0.173,0.302,0.31,0.48,0.44c0.149,0.108,0.305,0.22,0.372,0.326c0.387,0.614,1.01,1.134,1.559,1.593
	c0.261,0.218,0.506,0.423,0.707,0.621l0.052,0.05l-0.021,0.05c-0.053,0.115-0.262,0.383-0.463,0.643
	c-0.647,0.838-0.951,1.273-0.851,1.568c0.048,0.196,0.209,0.207,0.242,0.207c0.019,0,0.033-0.002,0.047-0.005
	c0.022,0.063,0.04,0.14,0.05,0.216l-0.083,0.02l-0.082,0.123c-0.146,0.214-0.422,0.617-0.119,1.055l0.071,0.103
	c-0.116,0.239-0.381,0.64-0.525,0.858c-0.037,0.056-0.072,0.108-0.104,0.158c-0.064-0.055-0.154-0.095-0.303-0.076L46.9,56.298
	l-0.007,0.113c-0.098,0.027-0.17,0.09-0.217,0.19l-0.013,0.046c-0.057,0.288,0.075,0.446,0.159,0.553
	c0.068,0.081,0.09,0.106,0.07,0.198l-0.055,0.294l0.36-0.048c0.028-0.003,0.055-0.007,0.076-0.009
	c-0.02,0.13-0.032,0.265-0.045,0.397c-0.012,0.123-0.023,0.25-0.04,0.366c-0.058-0.024-0.126-0.038-0.223-0.026l-0.031,0.005
	L46.91,58.39c-0.437,0.187-0.407,0.474-0.373,0.807l0.032,0.32l0.256-0.069c0.052-0.016,0.095-0.022,0.133-0.022
	c0.062,0,0.071,0.021,0.081,0.033c0.062,0.101,0.04,0.351-0.033,0.61c-0.064-0.045-0.129-0.084-0.189-0.117l-0.363-0.208l0.031,0.41
	c0.021,0.275-0.05,0.463-0.132,0.683l-0.132,0.369h0.315c0.1,0,0.147,0.033,0.173,0.066L46.48,61.41l-0.014,0.178
	c-0.057,0.264,0.075,0.337,0.166,0.513c0.079,0.159,0.101,0.213,0.075,0.252c-0.115-0.024-0.25-0.049-0.435-0.029l-0.168,0.018
	l-0.025,0.163c-0.052,0.324,0.16,0.468,0.273,0.546c0.029,0.021,0.063,0.043,0.081,0.06c0.016,0.093,0.039,0.191,0.062,0.296
	c0.069,0.293,0.151,0.65,0.041,0.823c-0.005-0.005-0.01-0.013-0.015-0.02c-0.049-0.059-0.14-0.17-0.321-0.187l-0.188-0.017
	l-0.047,0.182c-0.057,0.221,0.004,0.446,0.171,0.633c0.105,0.117,0.246,0.212,0.405,0.275c-0.006,0.138-0.03,0.264-0.057,0.394
	c-0.03,0.155-0.061,0.31-0.066,0.493c-0.022-0.002-0.044-0.002-0.066-0.002c-0.198,0-0.34,0.066-0.42,0.195l-0.055,0.089
	l0.036,0.098c0.037,0.097,0.078,0.198,0.122,0.309c0.167,0.405,0.368,0.894,0.316,1.333c-0.034-0.017-0.072-0.028-0.117-0.028
	c-0.081,0-0.223,0.037-0.271,0.271l-0.011,0.051l0.014,0.05c0.057,0.202,0.248,0.255,0.36,0.288
	c0.024,0.007,0.057,0.017,0.075,0.023l0.242,0.092c0.006,0.023,0.012,0.049,0.016,0.073c-0.079-0.008-0.166-0.012-0.273,0
	l-0.257,0.028l0.069,0.246c0.11,0.391,0.248,0.878,0.685,1.128l0.105,0.062c-0.036,0.02-0.065,0.04-0.094,0.058
	c-0.064,0.046-0.098,0.068-0.271,0.068c-0.025,0-0.053,0-0.084-0.001l-0.549-0.023l0.378,0.389c0.055,0.055-0.018,0.278-0.075,0.456
	c-0.028,0.084-0.058,0.174-0.085,0.269c-0.015,0.007-0.026,0.014-0.037,0.019l-0.018,0.002l-0.33-0.01l0.116,0.303
	c0.061,0.151,0.14,0.278,0.216,0.402c0.113,0.185,0.215,0.345,0.234,0.572c-0.063,0.027-0.179,0.079-0.216,0.213
	c-0.039,0.145,0.056,0.271,0.086,0.312l0.128,0.163l0.061-0.038c0.03,0.045,0.07,0.096,0.124,0.149l0.096,0.096l0.129-0.039
	c0.138-0.044,0.24,0.062,0.284,0.124c0.061,0.085,0.094,0.19,0.102,0.287c-0.011-0.002-0.022-0.004-0.032-0.005
	c-0.074-0.016-0.159-0.03-0.246-0.03c-0.166,0-0.302,0.06-0.403,0.177l-0.28,0.245l0.513-0.012c0.238,0,0.417-0.002,0.551,0.037
	c0.004,0.017-0.012,0.18-0.011,0.201c-0.078-0.053-0.201-0.083-0.364-0.042l-0.115,0.028l-0.041,0.11
	c-0.078,0.225-0.006,0.394,0.219,0.505h0.001l-0.014,0.197l0.251-0.016c0.142-0.008,0.283-0.013,0.433-0.013
	c0.089,0,0.167,0.001,0.237,0.001c0.057,0.002,0.109,0.004,0.156,0.004c0.145,0,0.523,0,0.53-0.356
	c0.018-0.681-0.018-0.911-0.024-1.402c-0.016-0.856-0.103-2.287-0.022-3.111c0.062-0.622,0.4-3.284,1.266-5.733
	c0.637-1.799,1.21-3.657,1.911-5.41c1.04-2.612,2.059-6.095,2.305-7.175c0.244-1.078,0.355-1.765,0.373-1.888l0.069-0.042
	c0.543-0.33,5.104-3.093,6.662-4.5c1.56-1.407,2.357-3.044,2.357-4.692C63.465,38.766,62.095,37.397,59.928,36.054z"/>
<path fill="#FFFFFF" d="M10.299,100.884c0.389-0.348,0.695-0.793,0.909-1.323c0.352-0.924,0.351-1.972-0.003-2.881
	c-0.553-1.376-1.749-2.166-3.281-2.166H1.995v14.101h6.467c2.52,0,3.81-1.838,3.972-3.659
	C12.574,103.381,11.876,101.646,10.299,100.884z M8.462,107.37H3.285v-5.635h5.177c1.87,0,2.721,1.46,2.721,2.817
	S10.332,107.37,8.462,107.37z M10.023,99.103c-0.21,0.511-0.761,1.37-2.1,1.37H3.285v-4.696h4.639c1.338,0,1.89,0.858,2.097,1.363
	C10.266,97.766,10.266,98.482,10.023,99.103z"/>
<rect x="16.786" y="94.514" fill="#FFFFFF" width="1.271" height="14.101"/>
<polygon fill="#FFFFFF" points="32.992,94.514 31.208,94.514 24.771,100.684 24.771,94.514 23.5,94.514 23.5,108.614 
	24.771,108.614 24.771,102.389 31.99,108.614 33.915,108.614 25.71,101.518 "/>
<polygon fill="#FFFFFF" points="38.828,102.186 45.783,102.186 45.783,100.924 38.828,100.924 38.828,95.758 45.936,95.758 
	45.936,94.514 37.537,94.514 37.537,108.614 45.975,108.614 45.975,107.37 38.828,107.37 "/>
<path fill="#FFFFFF" d="M61.491,105.532c0.716-1.021,1.344-2.26,1.911-3.775l0.162-0.433l-1.235-0.381l-0.148,0.393
	c-0.506,1.339-1.004,2.367-1.581,3.255l-3.483-3.676c2.431-1.14,3.394-2.227,3.394-3.78v-0.038c0-1.563-1.32-3.181-3.528-3.181
	c-2.259,0-3.609,1.657-3.609,3.259v0.038c0,1.056,0.49,2.088,1.573,3.296c-1.58,0.747-3.54,1.898-3.54,4.323v0.039
	c0,2.22,2.004,3.956,4.562,3.956c1.761,0,3.348-0.768,4.724-2.282L63.005,109l0.978-0.83L61.491,105.532z M55.968,107.56
	c-2.096,0-3.226-1.385-3.226-2.688v-0.039c0-1.722,1.285-2.508,3.139-3.354l3.94,4.148C58.987,106.566,57.698,107.56,55.968,107.56z
	 M56.981,95.164c1.385,0,2.213,0.982,2.213,1.933v0.038c0,0.948-0.502,1.726-3.003,2.836c-1.325-1.379-1.503-2.205-1.503-2.777
	v-0.038C54.688,96.177,55.547,95.164,56.981,95.164z"/>
<path fill="#FFFFFF" d="M74.791,103.595h5.803c-0.694,2.17-3.047,3.908-5.427,3.908c-1.547,0-3.003-0.622-4.101-1.75
	c-1.09-1.12-1.69-2.605-1.69-4.179c0-1.556,0.601-3.042,1.688-4.178c1.117-1.13,2.574-1.752,4.104-1.752
	c2.366,0,4.424,1.354,5.248,3.451l0.12,0.308h1.354l-0.226-0.637c-0.928-2.623-3.537-4.384-6.497-4.384
	c-1.905,0-3.689,0.753-5.028,2.125c-1.323,1.381-2.053,3.18-2.053,5.066c0,1.905,0.73,3.705,2.058,5.067
	c1.346,1.382,3.131,2.142,5.023,2.142c2.715,0,5.662-2.016,6.566-4.479c0.201-0.5,0.319-0.976,0.359-1.45l0.046-0.521h-7.348
	V103.595z"/>
<path fill="#FFFFFF" d="M97.795,96.443c-1.388-1.377-3.237-2.136-5.212-2.136c-1.954,0-3.848,0.778-5.191,2.136
	c-1.392,1.384-2.159,3.198-2.159,5.11s0.768,3.729,2.155,5.109c1.349,1.358,3.242,2.139,5.195,2.139
	c1.974,0,3.824-0.759,5.212-2.136c1.391-1.383,2.157-3.2,2.157-5.112S99.186,97.827,97.795,96.443z M92.583,107.54
	c-1.609,0-3.13-0.631-4.281-1.773c-1.146-1.143-1.779-2.638-1.779-4.213c0-1.573,0.633-3.07,1.779-4.211
	c1.151-1.145,2.672-1.772,4.281-1.772c1.621,0,3.149,0.628,4.3,1.772c1.136,1.129,1.76,2.624,1.76,4.211s-0.624,3.084-1.76,4.213
	C95.732,106.911,94.205,107.54,92.583,107.54z"/>
</svg>
