<?xml version="1.0" encoding="utf-8"?>
<!-- Generator: Adobe Illustrator 15.1.0, SVG Export Plug-In  -->
<!DOCTYPE svg PUBLIC "-//W3C//DTD SVG 1.1//EN" "http://www.w3.org/Graphics/SVG/1.1/DTD/svg11.dtd" [
	<!ENTITY ns_flows "http://ns.adobe.com/Flows/1.0/">
]>
<svg version="1.1"
	 xmlns="http://www.w3.org/2000/svg" xmlns:xlink="http://www.w3.org/1999/xlink" xmlns:a="http://ns.adobe.com/AdobeSVGViewerExtensions/3.0/"
	 x="0px" y="0px" width="595px" height="350px" viewBox="-100.527 -120.257 595 350"
	 overflow="visible" enable-background="new -100.527 -120.257 595 350" xml:space="preserve">
<defs>
</defs>
<path fill="#726F6D" d="M276.363,103.842h26.049c-3.122,9.951-13.678,17.926-24.358,17.926c-6.945,0-13.481-2.851-18.408-8.024
	c-4.894-5.145-7.588-11.954-7.588-19.175c0-7.138,2.7-13.953,7.574-19.165c5.017-5.184,11.559-8.037,18.422-8.037
	c10.613,0,19.859,6.215,23.551,15.832l0.544,1.415h6.079l-1.014-2.927c-4.159-12.028-15.88-20.109-29.16-20.109
	c-8.552,0-16.561,3.457-22.567,9.751c-5.944,6.335-9.217,14.589-9.217,23.24c0,8.747,3.279,17.003,9.232,23.253
	c6.044,6.334,14.055,9.822,22.552,9.822c12.181,0,25.415-9.242,29.474-20.543c0.904-2.303,1.432-4.481,1.611-6.658l0.197-2.389
	h-32.973V103.842z"/>
<path fill="#726F6D" d="M384.254,71.031c-6.221-6.32-14.527-9.799-23.39-9.799c-8.769,0-17.268,3.576-23.303,9.799
	c-6.247,6.346-9.687,14.673-9.687,23.45c0,8.775,3.439,17.104,9.679,23.44c6.045,6.234,14.542,9.812,23.311,9.812
	c8.859,0,17.166-3.481,23.39-9.803c6.248-6.346,9.69-14.674,9.69-23.449C393.944,85.704,390.502,77.376,384.254,71.031z
	 M360.864,121.941c-7.224,0-14.046-2.893-19.21-8.138c-5.151-5.234-7.989-12.098-7.989-19.322c0-7.224,2.838-14.086,7.989-19.322
	c5.164-5.247,11.986-8.137,19.21-8.137c7.28,0,14.135,2.89,19.299,8.137c5.096,5.182,7.904,12.045,7.904,19.322
	c0,7.28-2.809,14.142-7.902,19.322C374.999,119.052,368.146,121.941,360.864,121.941z"/>
<path fill="#726F6D" d="M37.271,91.405c1.743-1.598,3.122-3.642,4.082-6.07c1.578-4.238,1.574-9.048-0.016-13.218
	c-2.479-6.315-7.847-9.938-14.726-9.938H0v64.688h29.026c11.306,0,17.101-8.429,17.83-16.781
	C47.487,102.862,44.348,94.899,37.271,91.405z M29.026,121.164H5.792V95.308h23.234c8.394,0,12.219,6.702,12.219,12.928
	C41.245,114.462,37.42,121.164,29.026,121.164z M36.034,83.228c-0.941,2.349-3.414,6.288-9.422,6.288H5.792V67.97h20.82
	c6.007,0,8.48,3.939,9.41,6.262C37.126,77.099,37.126,80.388,36.034,83.228z"/>
<rect x="58.033" y="62.179" fill="#726F6D" width="5.705" height="64.688"/>
<polygon fill="#726F6D" points="121.589,62.179 113.575,62.179 84.687,90.487 84.687,62.179 78.982,62.179 78.982,126.867 
	84.687,126.867 84.687,98.307 117.089,126.867 125.732,126.867 88.906,94.311 "/>
<polygon fill="#726F6D" points="139.49,97.377 170.707,97.377 170.707,91.586 139.49,91.586 139.49,67.884 171.399,67.884 
	171.399,62.179 133.7,62.179 133.7,126.867 171.57,126.867 171.57,121.164 139.49,121.164 "/>
<path fill="#726F6D" d="M227.103,112.734c3.214-4.688,6.027-10.376,8.575-17.323l0.729-1.982l-5.54-1.75l-0.665,1.802
	c-2.273,6.143-4.512,10.858-7.103,14.934L207.466,91.55c10.912-5.228,15.229-10.218,15.229-17.346v-0.177
	c0-7.171-5.923-14.588-15.834-14.588c-10.138,0-16.193,7.599-16.193,14.945v0.178c0,4.842,2.191,9.581,7.056,15.127
	c-7.093,3.419-15.884,8.704-15.884,19.826v0.177c0,10.182,8.993,18.156,20.472,18.156c7.909,0,15.03-3.521,21.202-10.473
	l10.384,11.258l4.391-3.801L227.103,112.734z M202.311,122.032c-9.404,0-14.478-6.355-14.478-12.339v-0.177
	c0-7.896,5.767-11.508,14.085-15.391l17.688,19.036C215.867,117.476,210.078,122.032,202.311,122.032z M206.86,65.166
	c6.216,0,9.93,4.504,9.93,8.862v0.177c0,4.347-2.245,7.914-13.471,13.011c-5.957-6.324-6.748-10.12-6.748-12.742v-0.18
	C196.571,69.806,200.421,65.166,206.86,65.166z"/>
<path fill="#726F6D" d="M322.001,0.864C321.104,0.291,320.117,0,319.061,0c-1.881,0-3.791,0.965-5.105,2.582
	c-1.474,1.811-2.037,4.221-1.544,6.614c0.364,1.768,1.688,3.536,2.78,4.152c0.088,0.051,0.17,0.101,0.248,0.151
	c0.269,0.167,0.545,0.34,0.896,0.34c0.131,0,0.259-0.022,0.392-0.071c0.163,0.164,0.361,0.243,0.517,0.304
	c0.054,0.02,0.11,0.042,0.163,0.068l0.321,0.163c0.195,0.267,0.219,0.397,0.225,0.561c-0.254,0.256-0.289,0.585-0.112,0.947
	l0.126,0.266l0.29-0.062c3.063-0.648,6-4.125,6.693-7.913C325.512,5.014,324.465,2.442,322.001,0.864z"/>
<path fill="#726F6D" d="M354.328,48.64c-0.412-0.071-0.859-0.127-1.296-0.164c-0.535-0.042-2.62-0.097-2.812-0.097
	c-1.976,0-10.806-2.793-18.257-8.562c-7.45-5.768-12.9-17.194-13.509-17.977c-0.607-0.781-1.519-1.78-2.254-1.473
	c-0.74,0.302-1.115,2.373-1.115,2.373l-0.053,0.253c-0.105,0.51-0.018,0.909,0.076,1.33c0.016,0.071,0.03,0.14,0.044,0.215
	c0.116,0.566,0.169,0.991,0.214,1.403c0.068,0.585,0.133,1.141,0.387,1.966c0.331,1.072,0.448,1.312,0.996,2.354
	c0.36,0.679,0.729,1.38,1.021,2.061l0.14,0.321c0.29,0.682,0.567,1.326,0.829,1.906c0.052,0.106,0.086,0.232,0.125,0.365
	c0.042,0.156,0.088,0.32,0.161,0.464c0.095,0.186,0.236,0.327,0.372,0.463c0.09,0.092,0.179,0.179,0.238,0.27
	c0.188,0.281,0.356,0.564,0.52,0.838c0.334,0.549,0.645,1.068,1.046,1.524c0.13,0.203,0.345,0.255,0.493,0.289
	c0.019,0.003,0.037,0.008,0.057,0.015c-0.009,0.197-0.008,0.477,0.322,0.674l0.197,0.115l0.128-0.106
	c0.283,0.36,0.62,1.12,0.68,1.347l-0.01,0.184l0.232,0.105c0.071,0.031,0.261,0.115,0.353,0.182l-0.038,0.098l0.143,0.143
	c0.465,0.477,0.984,0.63,1.443,0.766c0.529,0.156,0.945,0.278,1.25,0.832l0.022,0.042l0.035,0.034
	c0.619,0.604,1.317,1.117,1.999,1.612c0.539,0.395,1.097,0.801,1.597,1.244l0.046,0.042l0.062,0.022
	c0.491,0.17,0.895,0.392,1.357,0.65l0.074,0.042c0.211,0.115,0.403,0.258,0.604,0.406c0.466,0.341,1.007,0.993,1.716,1.03
	c0.112,0.136,0.243,0.23,0.354,0.311c0.097,0.066,0.177,0.125,0.229,0.193l0.069,0.089l0.11,0.023
	c0.236,0.054,0.47,0.08,0.694,0.104c0.25,0.029,0.487,0.058,0.707,0.118c0.223,0.062,0.437,0.177,0.661,0.297
	c0.26,0.138,0.527,0.281,0.831,0.352c0.289,0.069,0.582,0.069,0.837,0.071c0.466,0.003,0.736,0.014,0.911,0.246l0.105,0.142
	l0.179-0.015c0.263-0.017,0.48-0.029,0.677-0.029c0.386,0,0.688,0.039,0.919,0.12l0.058,0.019l0.06-0.001
	c0.291-0.009,0.585-0.036,0.867-0.063c0.344-0.035,0.699-0.072,1.056-0.072c0.137,0,0.261,0.006,0.383,0.014
	c0.085,0.009,0.197,0.051,0.312,0.094c0.158,0.06,0.334,0.128,0.537,0.145c0.126,0.01,0.272,0.014,0.456,0.014
	c0.355,0,0.771-0.02,1.132-0.039l0.156-0.007c0.417-0.02,0.787-0.091,1.11-0.153c0.259-0.054,0.507-0.1,0.728-0.111
	c0.151-0.005,0.312,0.023,0.488,0.054c0.179,0.034,0.369,0.067,0.571,0.067c0.069,0,0.141-0.005,0.206-0.013
	c0.161-0.02,0.314-0.088,0.464-0.154c0.094-0.038,0.195-0.083,0.251-0.093c0.103-0.019,0.227-0.027,0.4-0.027
	c0.072,0,0.15,0.002,0.226,0.002c0.08,0.002,0.161,0.005,0.245,0.005c0.154,0,0.278-0.005,0.396-0.017
	c0.347-0.034,0.594,0.074,0.888,0.199c0.268,0.113,0.569,0.243,0.947,0.243h0.037c0.037-0.001,0.076-0.001,0.114-0.001
	c0.822,0,1.602,0.212,2.566,0.627c0,0,0.84,0.126,0.922,0.065C356.906,51.006,356.15,48.958,354.328,48.64z"/>
<path fill="#726F6D" d="M333.033,53.354c-3.135-1.986-7.644-2.048-10.402-1.861c-2.756,0.184-5.681,0.785-5.681,0.785
	c0.551,0.656,3.237,0.765,5.169,1.116c0.46,0.084,0.897,0.164,1.22,0.24c0.197,0.157,0.481,0.317,0.917,0.324l0.03,0.011
	c0.491,0.239,0.998,0.483,1.523,0.701c0.303,0.125,0.615,0.221,0.92,0.31c0.283,0.085,0.579,0.172,0.852,0.284
	c1.189,0.488,2.878,1.547,3.491,2.342c0.174,0.222,0.387,0.423,0.592,0.614c0.271,0.253,0.529,0.49,0.642,0.732
	c0.102,0.218,0.062,0.562,0.021,0.892c-0.048,0.401-0.095,0.816,0.08,1.153c-0.161,0.386-0.36,0.736-0.574,1.103
	c-0.357,0.618-0.728,1.254-0.883,2.09c-0.049,0.039-0.106,0.074-0.165,0.112c-0.217,0.142-0.459,0.302-0.593,0.596l-0.101,0.228
	l-0.035-0.01l0.003,0.073l-0.05,0.11l0.059,0.008l0.015,0.258c0.006,0.108-0.008,0.146-0.328,0.273
	c-0.168,0.069-0.361,0.146-0.51,0.301l-0.209,0.213l0.195,0.223c0.025,0.027,0.053,0.055,0.08,0.083
	c0.039,0.045,0.078,0.085,0.108,0.124c-0.141-0.037-0.287-0.061-0.428-0.061c-0.399,0-0.693,0.198-0.832,0.562l-0.026,0.071
	l0.008,0.074c0.009,0.106,0.053,0.187,0.105,0.241c-0.104,0.074-0.173,0.169-0.228,0.242c-0.009,0.009-0.012,0.018-0.018,0.025
	c-0.205-0.019-0.428,0.149-0.831,0.162c-0.237,0.008-0.31,0.175-0.523,0.175c-0.298,0-0.362,0.083-0.42,0.071l-1.251,0.897
	l-0.243,0.176c-0.019,0.118-0.066,0.015-0.282,0.141c-0.027,0.017-0.179,0.122-0.209,0.14c-1.158-2.517-5.221-8.065-8.706-11.686
	c-3.113-3.228-6.565-6.774-8.366-9.458c-2.113-3.152-2.368-8.611-2.368-8.611s-0.987,2.845-1.492,4.802
	c-0.697,2.709-0.981,6.297-0.227,9.174c0.186,0.706,0.318,1.391,0.371,2.14c0.035,0.449,0.069,0.911,0.154,1.365l0.024,0.119
	l0.095,0.077c0.411,0.32,0.556,0.76,0.719,1.273c0.097,0.306,0.197,0.622,0.366,0.921c0.071,0.123,0.19,0.197,0.319,0.197
	c0.246,0,0.461-0.314,0.573-0.617c0.4,0.683,0.354,1.551,0.396,2.382l0.011,0.175l0.15,0.088c0.368,0.214,0.708,0.694,0.611,1.04
	l-0.13,0.45l0.468-0.042c0.022-0.003,0.053-0.003,0.09-0.003c0.119,0,0.234,0.01,0.328,0.022c-0.1,0.159-0.069,0.332-0.027,0.438
	l0.024,0.05c0.146,0.252,0.384,0.392,0.593,0.514c0.332,0.194,0.47,0.272,0.381,0.659l-0.019,0.096l0.036,0.094
	c0.095,0.246,0.348,0.264,0.478,0.265c0.519,1.06,1.122,2.062,1.694,3.003c0.092,0.147,0.16,0.31,0.23,0.463
	c0.125,0.285,0.255,0.578,0.51,0.819c0.119,0.114,0.243,0.177,0.355,0.23c0.093,0.049,0.168,0.088,0.224,0.151
	c0.216,0.245,0.438,0.59,0.648,0.924c0.064,0.099,0.131,0.197,0.191,0.294c0.167,0.258,0.438,0.458,0.695,0.652
	c0.218,0.158,0.442,0.325,0.539,0.482c0.562,0.907,1.462,1.681,2.256,2.357c0.376,0.321,0.733,0.625,1.023,0.918l0.077,0.074
	l-0.033,0.075c-0.074,0.169-0.379,0.565-0.669,0.949c-0.938,1.239-1.376,1.886-1.233,2.32c0.072,0.289,0.307,0.306,0.353,0.306
	c0.025,0,0.048-0.003,0.066-0.008c0.034,0.096,0.06,0.206,0.073,0.32l-0.119,0.028l-0.121,0.181c-0.211,0.321-0.61,0.915-0.17,1.562
	l0.102,0.154c-0.166,0.354-0.552,0.946-0.76,1.267c-0.053,0.085-0.105,0.162-0.152,0.236c-0.092-0.081-0.223-0.141-0.438-0.113
	l-0.267,0.037l-0.011,0.17c-0.139,0.038-0.244,0.134-0.312,0.28l-0.021,0.068c-0.079,0.427,0.11,0.661,0.231,0.817
	c0.102,0.121,0.131,0.157,0.102,0.293l-0.078,0.435l0.522-0.07c0.041-0.006,0.08-0.009,0.11-0.013
	c-0.027,0.193-0.048,0.392-0.064,0.589c-0.018,0.184-0.034,0.368-0.06,0.541c-0.082-0.037-0.184-0.057-0.321-0.039l-0.044,0.007
	l-0.041,0.017c-0.631,0.276-0.588,0.702-0.539,1.195l0.046,0.476l0.371-0.104c0.074-0.021,0.138-0.032,0.193-0.032
	c0.087,0,0.102,0.028,0.117,0.05c0.087,0.147,0.058,0.517-0.049,0.901c-0.092-0.066-0.188-0.124-0.274-0.171l-0.526-0.311
	l0.046,0.609c0.03,0.403-0.071,0.683-0.192,1.007l-0.188,0.548h0.455c0.146,0,0.215,0.049,0.254,0.099l-0.333,0.205l-0.021,0.264
	c-0.082,0.392,0.108,0.499,0.239,0.758c0.114,0.237,0.146,0.314,0.11,0.373c-0.166-0.036-0.362-0.072-0.629-0.044l-0.245,0.026
	l-0.035,0.243c-0.075,0.479,0.231,0.691,0.396,0.805c0.04,0.029,0.092,0.065,0.117,0.091c0.021,0.137,0.056,0.281,0.09,0.438
	c0.099,0.433,0.219,0.962,0.058,1.219c-0.007-0.009-0.016-0.02-0.022-0.029c-0.069-0.088-0.202-0.251-0.464-0.276l-0.271-0.027
	l-0.07,0.271c-0.081,0.328,0.007,0.663,0.249,0.938c0.15,0.172,0.354,0.312,0.586,0.405c-0.009,0.204-0.044,0.393-0.082,0.583
	c-0.044,0.23-0.086,0.461-0.097,0.73c-0.032-0.002-0.064-0.002-0.097-0.002c-0.285,0-0.489,0.097-0.607,0.29l-0.076,0.13
	l0.051,0.145c0.053,0.143,0.112,0.295,0.178,0.456c0.241,0.602,0.531,1.323,0.455,1.972c-0.048-0.025-0.105-0.042-0.17-0.042
	c-0.115,0-0.319,0.054-0.39,0.401l-0.017,0.075l0.021,0.075c0.083,0.297,0.358,0.377,0.521,0.424
	c0.034,0.012,0.082,0.025,0.109,0.037l0.352,0.134c0.007,0.035,0.017,0.072,0.022,0.108c-0.114-0.011-0.242-0.017-0.396,0
	l-0.372,0.043l0.101,0.363c0.159,0.578,0.359,1.299,0.992,1.669l0.151,0.091c-0.053,0.031-0.095,0.06-0.134,0.086
	c-0.094,0.068-0.144,0.103-0.395,0.103c-0.038,0-0.077,0-0.123-0.005l-0.794-0.034l0.548,0.577c0.08,0.079-0.027,0.41-0.109,0.673
	c-0.04,0.125-0.085,0.26-0.124,0.401c-0.021,0.009-0.039,0.019-0.053,0.026l-0.025,0.002l-0.479-0.017l0.172,0.449
	c0.087,0.225,0.201,0.414,0.312,0.596c0.163,0.272,0.311,0.51,0.338,0.848c-0.092,0.042-0.258,0.118-0.311,0.314
	c-0.058,0.215,0.079,0.401,0.124,0.463l0.184,0.24l0.088-0.055c0.045,0.064,0.103,0.141,0.179,0.221l0.14,0.143l0.187-0.061
	c0.201-0.062,0.349,0.095,0.412,0.186c0.086,0.127,0.136,0.28,0.147,0.425c-0.017-0.003-0.034-0.007-0.048-0.01
	c-0.106-0.022-0.228-0.044-0.354-0.044c-0.242,0-0.438,0.088-0.585,0.261l-0.407,0.364l0.743-0.017c0.346,0,0.604-0.002,0.798,0.055
	c0.007,0.024-0.018,0.266-0.016,0.297c-0.114-0.079-0.291-0.123-0.528-0.062l-0.165,0.041l-0.06,0.164
	c-0.114,0.331-0.009,0.582,0.316,0.747c0,0,0.001,0,0.001,0.001l-0.02,0.292l0.361-0.022c0.208-0.015,0.412-0.021,0.628-0.021
	c0.129,0,0.243,0.003,0.343,0.003c0.084,0.003,0.16,0.005,0.229,0.005c0.209,0,0.754-0.002,0.767-0.527
	c0.025-1.007-0.025-1.35-0.036-2.075c-0.021-1.268-0.149-3.384-0.032-4.604c0.089-0.922,0.58-4.859,1.833-8.484
	c0.921-2.662,1.753-5.41,2.766-8.006c1.508-3.865,2.98-9.02,3.336-10.616c0.354-1.596,0.517-2.612,0.542-2.794l0.101-0.062
	c0.787-0.486,7.39-4.576,9.645-6.659c2.257-2.082,3.415-4.504,3.415-6.942C338.155,57.366,336.171,55.341,333.033,53.354z"/>
</svg>
