<?xml version="1.0" encoding="utf-8"?>
<!-- Generator: Adobe Illustrator 15.1.0, SVG Export Plug-In  -->
<!DOCTYPE svg PUBLIC "-//W3C//DTD SVG 1.1//EN" "http://www.w3.org/Graphics/SVG/1.1/DTD/svg11.dtd" [
	<!ENTITY ns_flows "http://ns.adobe.com/Flows/1.0/">
]>
<svg version="1.1"
	 xmlns="http://www.w3.org/2000/svg" xmlns:xlink="http://www.w3.org/1999/xlink" xmlns:a="http://ns.adobe.com/AdobeSVGViewerExtensions/3.0/"
	 x="0px" y="0px" width="595px" height="350px" viewBox="-0.563 -185.395 595 350"
	 overflow="visible" enable-background="new -0.563 -185.395 595 350" xml:space="preserve">
<defs>
</defs>
<path fill="#666666" d="M357.524,52.874c0,5.841-0.415,6.44-4.69,6.942l-2.497,0.312c-0.703,0.49-0.59,2.218,0.2,2.51
	c4.484-0.195,7.561-0.292,10.748-0.292c3.095,0,6.37,0.097,10.741,0.292c0.8-0.292,0.899-2.02,0.201-2.51l-2.468-0.312
	c-4.307-0.502-4.703-1.102-4.703-6.942v-5.351c0-2.882,0.208-3.885,3.78-9.548l6.177-9.922c3.092-4.96,3.595-5.558,6.666-6.16
	l2.405-0.493c0.79-0.513,0.596-2.225-0.209-2.524c-2.785,0.205-4.874,0.279-7.063,0.279c-2.291,0-4.584-0.074-7.569-0.279
	c-0.992,0.404-1.102,2.012-0.202,2.524l2.088,0.307c2.397,0.292,2.187,1.176,0.708,3.95l-3.984,7.266
	c-1.689,3.171-3.176,5.556-4.768,8.229c-1.495-2.572-2.99-5.255-4.488-8.229l-3.692-7.048c-1.582-3.075-1.285-3.677,0.897-4.168
	l1.401-0.307c0.996-0.513,0.703-2.12-0.092-2.524c-3.181,0.205-5.477,0.279-8.477,0.279c-3.561,0-5.84-0.074-9.148-0.279
	c-0.773,0.3-0.977,1.919-0.283,2.524l2.581,0.493c2.578,0.497,3.584,1.389,5.673,5.366l7.257,13.39
	c2.489,4.579,2.812,5.374,2.812,8.455V52.874L357.524,52.874z"/>
<path fill="#666666" d="M461.045,20.642c10.938,0,16.027,10.74,16.027,21.407c0,13.6-7.281,18.801-14.833,18.801
	c-11.542,0-16.22-11.042-16.22-21.297C446.018,25.519,453.869,20.642,461.045,20.642L461.045,20.642z M461.746,17.749
	c-14.444,0-24.583,10.16-24.583,23.388c0,12.547,9.151,22.594,24.583,22.594c14.022,0,24.175-9.763,24.175-23.182
	C485.921,28.387,477.773,17.749,461.746,17.749L461.746,17.749z"/>
<path fill="#666666" d="M497.047,51.881V30.807c0-6.499-0.092-8.177-2.397-8.483l-2.781-0.387c-0.782-0.093-0.999-2.196,0-2.478
	c5.458-0.401,11.052-0.601,16.51-0.601c9.267,0,19.317,1.493,19.317,11.948c0,6.344-4.978,9.229-8.861,10.641
	c-0.401,0.4-0.291,0.985,0,1.489l1.15,1.948c28.742,46.732,66.987,21.377,74.225,14.849c0.406,0.421,1.001,0.021,0.456,0.785
	c-6.529,9.003-46.865,38.581-83.285-15.702c-1.117-1.488-2.406-1.58-3.998-1.58c-2.582,0-2.774,0.193-2.774,1.58v7.064
	c0,6.834,0.384,7.338,4.673,7.925l2.264,0.309c0.711,0.505,0.627,2.222-0.166,2.516c-4.174-0.195-7.456-0.283-10.564-0.283
	c-3.187,0-6.256,0.088-9.73,0.283c-1.009-0.294-1.115-2.111-0.216-2.516l1.499-0.309C496.648,58.896,497.047,58.715,497.047,51.881
	L497.047,51.881z M504.609,24.525v13.544c0,2.479,0.101,2.479,4.975,2.479c6.463,0,9.853-2.583,9.853-9.457
	c0-4.977-3.494-9.366-10.463-9.366C505.298,21.726,504.609,21.937,504.609,24.525L504.609,24.525z"/>
<path fill="#666666" d="M561.42,20.642c10.937,0,16.025,10.74,16.025,21.407c0,13.6-7.262,18.801-14.829,18.801
	c-11.548,0-16.219-11.042-16.219-21.297C546.398,25.519,554.255,20.642,561.42,20.642L561.42,20.642z M562.12,17.749
	c-14.425,0-24.578,10.16-24.578,23.388c0,12.547,9.151,22.594,24.578,22.594c14.043,0,24.175-9.763,24.175-23.182
	C586.294,28.387,578.154,17.749,562.12,17.749L562.12,17.749z"/>
<path fill="#666666" d="M154.473,45.851c0,2.377,0,3.768-0.59,3.964c-1.085-0.783-6.873-7.044-9.033-9.211l-9.387-9.643
	c-4.063-4.167-7.742-8.452-9.74-12.254c-1.206,0.192-2.587,0.293-3.979,0.293c-2.098,0-4.779,0-8.556-0.293
	c-0.905,0.406-0.905,1.924-0.201,2.526l1.494,0.301c0.992,0.189,2.88,0.788,3.677,1.393c2.005,1.486,2.105,2.867,2.105,6.134v17.773
	c0,9.84-0.808,12.523-3.39,12.811l-2.987,0.3c-0.698,0.507-0.698,2.135,0.105,2.53c3.473-0.198,5.363-0.288,8.241-0.288
	c2.898,0,5.19,0.09,8.865,0.288c0.784-0.506,1.002-1.932,0.203-2.53l-3.186-0.3c-3.68-0.287-4.276-2.874-4.276-12.811V33.743
	c0-3.079,0-4.166,0.383-4.166c1.313,1.087,3.894,3.654,7.66,7.627l15.13,16.076c6.18,6.722,8.17,8.806,9.265,10.211
	c0.903,0.195,1.802-0.308,2.083-0.921c-0.281-1.472-0.281-9.529-0.281-11.52V34.352c0-9.836,0.793-12.527,3.364-12.817l2.982-0.301
	c0.7-0.503,0.7-2.02-0.092-2.526c-3.17,0.192-5.366,0.293-8.262,0.293c-2.879,0-5.171-0.101-8.856-0.293
	c-0.797,0.507-0.91,1.924-0.203,2.526l3.199,0.301c3.674,0.405,4.264,2.879,4.264,12.817V45.851L154.473,45.851z"/>
<path fill="#666666" d="M195.439,17.613c-7.665,0-14.523,1.981-19.407,5.771c-4.988,3.854-8.355,9.827-8.355,17.9
	c0,7.968,4.083,14.029,9.45,17.723c5.073,3.494,11.239,4.558,17.516,4.558c6.876,0,10.543-1.582,13.444-2.088
	c1.188-1.78,2.78-6.354,3.278-10.734c-0.499-0.999-2.091-0.999-2.582-0.113c-1.098,2.604-4.996,10.059-14.346,10.059
	c-9.345,0-17.916-7.56-17.916-20.894c0-13.53,8.464-19.301,17.027-19.301c8.943,0,12.33,4.662,13.845,10.148
	c0.693,0.795,2.175,0.582,2.576-0.195c-0.598-3.985-0.899-8.871-0.899-10.961C208.278,19.486,201.912,17.613,195.439,17.613
	L195.439,17.613z"/>
<path fill="#666666" d="M236.169,38.099c-3.184,0-3.583,0-3.583-2.577v-6.055c0-6.848,0.511-7.146,4.676-7.935l1.487-0.299
	c0.701-0.503,0.611-2.234-0.184-2.526c-3.49,0.192-6.562,0.292-9.753,0.292c-3.183,0-6.274-0.1-10.544-0.292
	c-0.795,0.292-0.899,2.023-0.209,2.526l2.281,0.299c4.284,0.6,4.695,1.087,4.695,7.935v22.247c0,6.859-0.506,6.859-4.695,7.931
	l-1.076,0.3c-0.724,0.505-0.605,2.236,0.173,2.53c3.101-0.198,6.192-0.288,9.375-0.288c3.079,0,6.362,0.09,10.934,0.288
	c0.797-0.294,0.897-2.025,0.21-2.53l-2.694-0.3c-4.277-0.493-4.676-1.071-4.676-7.931v-7.84c0-2.485,0.204-2.589,3.583-2.589h17.512
	c3.396,0,3.574,0.104,3.574,2.589v7.84c0,6.859-0.38,7.238-4.676,7.931l-1.88,0.3c-0.704,0.505-0.596,2.236,0.215,2.53
	c3.865-0.198,6.937-0.288,10.132-0.288c3.086,0,6.376,0.09,10.543,0.288c0.801-0.294,0.889-2.025,0.197-2.53l-2.287-0.3
	c-4.272-0.583-4.679-1.071-4.679-7.931V29.467c0-6.848,0.407-7.238,4.679-7.935l1.885-0.299c0.701-0.503,0.602-2.234-0.193-2.526
	c-3.874,0.192-6.965,0.292-10.144,0.292c-3.195,0-6.267-0.1-10.132-0.292c-0.811,0.292-0.918,2.023-0.215,2.526l1.88,0.299
	c4.296,0.696,4.676,1.087,4.676,7.935v6.055c0,2.577-0.38,2.577-3.574,2.577H236.169L236.169,38.099z"/>
<path fill="#666666" d="M295.273,43.578c-2.191,0-2.389-0.21-1.302-2.888l3.576-8.863c0.892-2.096,1.293-2.99,1.587-3.376h0.21
	c0.299,0.494,0.706,1.28,1.511,3.589l3.074,8.447c1.094,2.881,0.803,3.091-1.797,3.091H295.273L295.273,43.578z M303.724,46.762
	c2.293,0,2.582,0.09,3.394,2.365l2.376,6.453c1.186,3.071,1.291,3.669-1.282,4.064l-2.014,0.298
	c-0.881,0.405-0.79,2.238,0.213,2.536c2.489-0.203,5.379-0.292,8.967-0.292c3.378,0,5.67,0.089,8.254,0.292
	c0.975-0.203,1.172-2.029,0.304-2.536l-1.602-0.298c-3.578-0.692-4.481-1.986-5.681-5.24L307.7,30.643
	c-2.292-6.073-3.863-11.246-4.272-12.258c-0.202-0.579-0.738-1.369-1.799-1.369c-0.892,0-1.396,0.46-1.757,1.347
	c-0.262,0.626-3.116,7.606-4.808,11.677L285.488,52.9c-1.954,4.758-3.059,5.857-6.137,6.545l-2.298,0.497
	c-0.689,0.507-0.689,2.137,0.203,2.536c1.785-0.109,4.172-0.292,6.947-0.292c2.812,0,5.387,0.089,7.873,0.292
	c1.006-0.203,1.086-2.029,0.308-2.536l-2.696-0.497c-1.884-0.386-2.188-0.794-1.088-3.966l2.289-6.353
	c0.798-2.275,1.094-2.365,3.383-2.365H303.724L303.724,46.762z"/>
<path fill="#666666" d="M85.333,20.493c10.965,0,16.044,10.729,16.044,21.401c0,13.631-7.271,18.793-14.84,18.793
	c-11.546,0-16.217-11.038-16.217-21.295C70.32,25.374,78.178,20.493,85.333,20.493L85.333,20.493z M86.036,17.612
	c-14.431,0-24.558,10.139-24.558,23.365c0,12.539,9.146,22.588,24.558,22.588c14.036,0,24.176-9.747,24.176-23.167
	C110.212,28.255,102.05,17.612,86.036,17.612L86.036,17.612z"/>
<path fill="#666666" d="M0,36.003c0,12.43,5.799,21.178,13.302,26.472c6.843,4.725,14.893,6.472,23.33,6.472
	c5.994,0,12.766-1.47,14.825-2.239c1.028-0.378,2.135-0.764,3.273-0.962c1.406-1.818,3.847-8.177,4.498-13.178
	c-0.388-0.671-1.789-0.877-2.441-0.381c-2.149,5.669-7.502,13.757-19.582,13.757c-15.386,0-27.845-11.155-27.845-31.38
	c0-19.925,12.193-29.268,26.525-29.268c13.609,0,17.803,7.511,19.22,14.053c0.669,0.589,2.066,0.489,2.538-0.193
	c-0.77-5.87-1.222-11.938-1.326-14.138c-0.847,0.091-1.495-0.104-2.628-0.38c-4.403-1.256-11.529-2.316-16.591-2.316
	c-9.742,0-18.454,2.696-25.305,8.183C4.672,16.178,0,25.328,0,36.003L0,36.003z"/>
<path fill="#666666" d="M428.542,2.806h8.915c4.225,0,7.073-0.016,8.109-2.739c0.325-0.227,1.809,0.182,2.061,0.416
	c-0.021,3.673,0.444,10.315,1.168,14.575c-0.496,0.645-2.162,0.756-2.778,0.098c-0.59-2.4-1.184-4.905-2.998-7.254
	c-1.836-2.401-6.229-2.227-10.095-2.282h-4.983c-2.177,0-2.597,0.078-2.673,1.499v13.013l0.039,28.682
	c0,9.468,0.158,10.728,5.398,11.263l2.906,0.271c0.532,0.368,0.349,2.023-0.197,2.291c-5.135-0.178-8.212-0.257-11.813-0.257
	c-3.623,0-6.78,0.079-12.569,0.257c-0.522-0.268-0.705-1.812,0-2.291l3.253-0.271c5.164-0.449,5.617-1.795,5.617-11.263V8.494
	c0-2.797,0-2.875-2.712-2.875h-4.976c-3.916,0.056-8.387-0.146-10.257,2.282c-1.789,2.349-2.387,4.854-2.977,7.254
	c-0.622,0.658-2.292,0.547-2.777-0.098c0.71-4.26,1.18-10.902,1.18-14.575c0.234-0.234,1.731-0.643,2.03-0.416
	c1.033,2.739,3.945,2.739,8.113,2.739h8.886H428.542L428.542,2.806z"/>
</svg>
