<?xml version="1.0" encoding="utf-8"?>
<!-- Generator: Adobe Illustrator 15.1.0, SVG Export Plug-In  -->
<!DOCTYPE svg PUBLIC "-//W3C//DTD SVG 1.1//EN" "http://www.w3.org/Graphics/SVG/1.1/DTD/svg11.dtd" [
	<!ENTITY ns_flows "http://ns.adobe.com/Flows/1.0/">
]>
<svg version="1.1"
	 xmlns="http://www.w3.org/2000/svg" xmlns:xlink="http://www.w3.org/1999/xlink" xmlns:a="http://ns.adobe.com/AdobeSVGViewerExtensions/3.0/"
	 x="0px" y="0px" width="595px" height="350px" viewBox="-65.877 -86.041 595 350"
	 overflow="visible" enable-background="new -65.877 -86.041 595 350" xml:space="preserve">
<defs>
</defs>
<rect x="74.042" fill="#A3A3A3" width="315.164" height="58.721"/>
<rect x="74.042" y="158.231" fill="#A3A3A3" width="315.164" height="58.722"/>
<path fill="#666666" d="M404.88,56.94H58.735C26.785,56.94,0,73.682,0,108.493c0,36.712,26.785,52.551,58.735,52.551h346.039
	c30.932,0,58.472-15.814,58.472-52.551C463.247,73.633,435.903,56.94,404.88,56.94z M404.556,155.419
	c-0.547,0-86.896,0.062-173.224,0.125c-86.284,0.061-172.545,0.124-173.091,0.124c-13.973,0-26.816-4.11-36.166-11.577
	c-10.549-8.423-16.125-20.545-16.125-35.058c0-32.039,27.106-46.631,52.291-46.631c0.547,0,86.895-0.062,173.22-0.125
	c86.285-0.063,172.547-0.125,173.094-0.125c25.348,0,52.692,14.594,52.971,46.633h0.002l-0.002,0.494
	C457.241,141.158,430.749,155.419,404.556,155.419z"/>
<path fill="#666666" d="M50.466,93.007c-0.292,5.91-0.292,11.892-0.292,17.874s0,11.966,0.292,17.873h1.527
	c7.344,0,10.615-4.667,10.615-17.873C62.609,96.364,59.119,93.153,50.466,93.007z"/>
<path fill="#666666" d="M279.136,88.292c1.869,0,4.497-1.15,4.497-5.761c0-4.616-2.628-5.764-4.497-5.764
	c-1.867,0-4.5,1.148-4.5,5.764C274.636,87.142,277.269,88.292,279.136,88.292z"/>
<path fill="#666666" d="M337.878,87.357c0,1.138,0.883,1.485,1.512,1.485c1.44,0,2.9-0.928,2.9-2.443v-1.572
	c-0.323,0.256-0.857,0.465-2.203,0.673C338.875,85.709,337.878,86.01,337.878,87.357z"/>
<path fill="#666666" d="M139.385,113.767c-0.944,0-2.181,0.222-2.47,0.292v14.885c0.729,0.145,1.674,0.365,3.13,0.365
	c4.953,0,8.305-2.566,8.305-7.622C148.35,115.968,144.199,113.767,139.385,113.767z"/>
<path fill="#666666" d="M308.248,88.15c2.201,0,2.754-1.872,2.754-3.559c0-1.986-0.967-3.604-2.776-3.604
	c-1.201,0-2.547,0.876-2.547,3.744C305.678,86.301,306.327,88.15,308.248,88.15z"/>
<path fill="#666666" d="M404.439,67.247c-0.546,0-86.807,0.062-173.091,0.125c-86.327,0.062-172.676,0.125-173.224,0.125
	c-22.731,0-47.198,12.999-47.198,41.538c0,28.696,23.704,41.542,47.198,41.542c0.546,0,86.805-0.062,173.087-0.124
	c86.329-0.063,172.681-0.125,173.227-0.125c23.74,0,47.752-12.772,47.881-41.304C452.188,80.171,428.178,67.247,404.439,67.247z
	 M410.345,73.508c5.23,0,9.484,4.256,9.484,9.486c0,5.23-4.254,9.486-9.484,9.486c-5.229,0-9.484-4.256-9.484-9.486
	C400.861,77.764,405.116,73.508,410.345,73.508z M347.75,74.247h3.22v16.566h-3.22V74.247z M340.157,80.766
	c-1.628,0-1.905,0.998-1.997,1.717h-3.108c0.368-3.766,2.967-4.298,5.497-4.298c1.742,0,4.907,0.532,4.907,3.555v6.677
	c0,1.462,0.323,1.786,0.715,1.926v0.47h-3.486c-0.183-0.564-0.23-0.749-0.296-1.442c-0.746,0.762-1.792,1.777-3.999,1.777
	c-1.844,0-3.732-1.037-3.732-3.589c0-2.411,1.52-3.638,3.57-3.942l2.927-0.438c0.51-0.071,1.135-0.279,1.135-0.976
	C342.291,80.837,340.992,80.766,340.157,80.766z M322.074,78.52h3.084v1.786h0.049c0.437-0.738,1.364-2.122,3.706-2.122
	c2.402,0,4.264,1.407,4.264,4.109v8.519h-3.219v-7.478c0-0.904-0.046-2.43-2.109-2.43c-1.439,0-2.554,0.972-2.554,2.866v7.042h-3.22
	V78.52z M307.462,78.187c2.291,0,3.219,1.34,3.611,2.15h0.046v-1.819h3.081v11.636c0,2.144-0.162,5.685-6.206,5.685
	c-2.547,0-5.225-1.082-5.365-3.706h3.513c0.137,0.633,0.392,1.264,2.267,1.264c1.739,0,2.573-0.843,2.573-2.85v-1.475l-0.049-0.046
	c-0.533,0.945-1.339,1.844-3.287,1.844c-2.962,0-5.296-2.051-5.296-6.348C302.351,80.27,304.754,78.187,307.462,78.187z
	 M297.316,74.079h3.221v2.995h-3.221V74.079z M297.316,78.518h3.221v12.295h-3.221V78.518z M288.89,78.518h3.08v2.133h0.044
	c0.67-1.257,1.409-2.466,3.375-2.466c0.206,0,0.414,0.024,0.621,0.048v3.302c-0.277-0.047-0.621-0.047-0.921-0.047
	c-2.518,0-2.979,1.568-2.979,2.931v6.394h-3.22V78.518z M279.136,73.832c2.193,0,7.966,0.947,7.966,8.699
	c0,7.749-5.773,8.697-7.966,8.697c-2.192,0-7.961-0.948-7.961-8.697C271.175,74.779,276.944,73.832,279.136,73.832z M67.331,132.665
	c-4.214,3.327-9.738,4.194-15.119,4.194h-15.42c0.728-7.451,0.728-13.579,0.728-25.978c0-12.401,0-18.527-0.728-25.979h13.456
	c7.345,0,13.305,1.229,17.373,4.415c6.247,4.858,8.645,12.152,8.645,21.563C76.265,119.783,73.067,128.099,67.331,132.665z
	 M94.105,136.859H80.583c0.656-4.674,0.656-9.642,0.656-14.901v-7.009c0-5.261,0-10.195-1.237-14.836h11.704
	c0.438,1.305,0.945,3.698,1.019,4.89c2.547-3.432,5.607-5.77,9.248-5.77c0.801,0,1.239,0.075,1.601,0.214v9.658
	c-0.8-0.217-1.819-0.293-2.183-0.232c-5.534,0-7.939,5.102-7.939,13.085C93.452,127.217,93.452,132.185,94.105,136.859z
	 M102.946,137.626c-3.433,0-6.207-2.772-6.207-6.206c0-3.435,2.774-6.208,6.207-6.208c3.432,0,6.208,2.773,6.208,6.208
	C109.154,134.854,106.378,137.626,102.946,137.626z M155.69,134.172c-3.416,2.252-8.288,2.687-14.915,2.687h-17.247
	c0.731-7.477,0.731-13.633,0.731-26.061c0-12.322,0-18.417-0.731-25.896h20.075c3.778,0,7.627,0.073,11.405,2.395
	c3.848,2.396,5.664,6.389,5.664,10.089c0,4.721-3.05,9.579-8.036,11.388v0.146c5.451,1.52,9.812,6.312,9.812,12.987
	C162.448,127.258,159.541,131.708,155.69,134.172z M185.313,130.199c2.323,0,5.082-1.175,7.262-3.598l3.922,4.685
	c-2.396,2.903-7.701,6.461-14.094,6.461c-10.681,0-17.361-8.136-17.361-18.854c0-10.566,6.536-19.666,16.926-19.666
	c9.807,0,14.384,8.007,14.602,17.538l-18.307,6.828C179.351,127.704,181.678,130.199,185.313,130.199z M216.618,137.747
	c-10.416,0-17.625-7.694-17.625-17.802c0-10.688,7.792-20.718,22.286-20.718c2.401,0,4.368,0.361,4.951,0.44v9.88
	c-2.33-1.75-4.441-2.773-6.627-2.773c-5.243,0-8.083,4.387-8.083,11.195c0,8.273,3.569,12.229,8.157,12.229
	c3.057,0,5.389-1.686,6.409-2.418l3.423,4.668C226.229,135.717,221.714,137.747,216.618,137.747z M252.146,136.859
	c-0.144-1.458-1.747-5.399-2.84-8.096l-3.205-7.95l-3.128,4.01v6.274c0,2.842,0.361,5.249,0.436,5.762h-12.279
	c0.657-4.667,0.657-9.626,0.657-14.879V99.66c0-5.209,0-10.128-0.657-14.757h12.422v27.958l0.146,0.146
	c5.973-8.168,10.195-13.779,16.024-13.779c1.162,0,2.039,0,2.622,0.144v9.622h-0.873c-2.042,0-3.863,0.583-6.119,3.063l5.025,12.404
	c2.331,5.907,3.715,9.333,5.463,12.398H252.146z M304.397,136.859c0.661-4.677,0.661-9.648,0.661-14.911v-10.16
	c0-2.561-0.731-4.46-3.003-4.46c-2.489,0-3.882,1.899-3.882,4.46v10.16c0,5.263,0,10.234,0.66,14.911h-13.088
	c0.66-4.677,0.66-9.648,0.66-14.911v-10.305c0-2.416-0.731-4.315-3-4.315c-2.051,0-3.882,1.684-3.882,3.873v10.784
	c0,5.251,0,10.207,0.658,14.874h-13.082c0.659-4.667,0.659-9.623,0.659-14.874v-7c0-5.249,0-10.203-0.659-14.872h10.753
	c0.508,1.093,0.87,2.334,1.09,3.235c2.701-2.459,5.998-4.121,9.645-4.121c3.921,0,6.389,2.241,8.136,4.628
	c2.624-2.317,5.551-4.628,10.297-4.628c7.117,0,9.807,4.991,9.807,12.194v10.526c0,5.263,0,10.234,0.653,14.911H304.397z
	 M319.679,90.813h-3.217V78.518h3.217V90.813z M319.679,77.073h-3.217v-2.995h3.217V77.073z M341.963,136.859
	c-0.876-1.168-1.167-1.969-1.242-2.289c-1.972,1.459-4.672,2.847-8.179,2.847c-7.044,0-11.621-4.887-11.621-10.992
	c0-6.711,5.303-11.23,12.206-13.494l6.06-1.972c-0.069-2.554-1.75-4.74-5.181-4.74c-2.333,0-5.965,1.094-9.669,3.792V99.807
	c1.018-0.147,4.938-0.58,7.627-0.58c15.103,0,19.7,5.896,19.7,15.672v9.12c0,3.499,0,7.44,1.893,12.84H341.963z M376.045,136.859
	c0.665-4.663,0.665-9.612,0.665-14.858V111.95c0-2.253-0.962-4.078-3.179-4.078c-1.852,0-3.924,1.314-3.924,3.496v10.617
	c0,5.251,0,10.207,0.663,14.874h-13.088c0.657-4.667,0.657-9.623,0.657-14.874v-7c0-5.249,0-10.203-0.657-14.872h10.608
	c0.509,1.093,0.873,2.334,1.091,3.271c2.722-2.627,5.54-4.157,9.356-4.157c6.177,0,10.245,4.52,10.245,11.561V122
	c0,5.246,0,10.195,0.654,14.858H376.045z M412.461,136.859c0.665-4.663,0.665-9.612,0.665-14.858V111.95
	c0-2.253-0.964-4.078-3.182-4.078c-1.849,0-3.923,1.314-3.923,3.496v10.617c0,5.251,0,10.207,0.668,14.874h-13.092
	c0.655-4.667,0.655-9.623,0.655-14.874v-7c0-5.249,0-10.203-0.655-14.872h10.608c0.506,1.093,0.871,2.334,1.087,3.271
	c2.726-2.627,5.54-4.157,9.359-4.157c6.175,0,10.244,4.52,10.244,11.561V122c0,5.246,0,10.195,0.655,14.858H412.461z"/>
<path fill="#666666" d="M181.46,106.218c-2.907,0-4.65,3.345-4.65,8.655c0,0.512,0,1.235,0.146,2.036l5.741-2.182
	c1.817-0.729,2.106-1.235,2.106-3.057C184.803,108.544,183.568,106.218,181.46,106.218z"/>
<path fill="#666666" d="M332.693,125.562c0,2.557,1.603,4.524,3.941,4.524c1.532,0,3.064-0.947,3.502-1.603v-10.587
	C335.538,119.065,332.693,121.91,332.693,125.562z"/>
<path fill="#666666" d="M413.238,80.665c0-1.487-0.978-1.945-2.374-1.945h-3.375v3.891h3.375
	C412.26,82.61,413.238,82.169,413.238,80.665z"/>
<path fill="#666666" d="M410.345,91.372c4.619,0,8.376-3.758,8.376-8.378c0-4.62-3.757-8.377-8.376-8.377
	c-4.619,0-8.376,3.757-8.376,8.377C401.969,87.613,405.727,91.372,410.345,91.372z M405.997,77.422h5.103
	c1.775,0,3.636,0.682,3.636,3.243c0,1.441-0.653,2.833-2.62,3.151l3.109,4.869h-1.809l-3.043-4.775h-2.884v4.775h-1.492V77.422z"/>
<path fill="#666666" d="M147.016,98.913c0-4.139-2.617-6.459-7.049-6.459c-1.019,0-2.325,0.146-3.052,0.364v12.555
	c0.581,0.218,1.671,0.292,2.47,0.292C145.125,105.665,147.016,102.253,147.016,98.913z"/>
</svg>
