<?xml version="1.0" encoding="utf-8"?>
<!-- Generator: Adobe Illustrator 15.1.0, SVG Export Plug-In  -->
<!DOCTYPE svg PUBLIC "-//W3C//DTD SVG 1.1//EN" "http://www.w3.org/Graphics/SVG/1.1/DTD/svg11.dtd" [
	<!ENTITY ns_flows "http://ns.adobe.com/Flows/1.0/">
]>
<svg version="1.1"
	 xmlns="http://www.w3.org/2000/svg" xmlns:xlink="http://www.w3.org/1999/xlink" xmlns:a="http://ns.adobe.com/AdobeSVGViewerExtensions/3.0/"
	 x="0px" y="0px" width="595px" height="350px" viewBox="-109.899 -167.044 595 350"
	 overflow="visible" enable-background="new -109.899 -167.044 595 350" xml:space="preserve">
<defs>
</defs>
<path fill="#666666" d="M61.681,76.214c6.758,0,9.558-2.933,9.558-9.814V43.718H29.185v22.941c0,6.755,2.677,9.555,9.812,9.555
	h1.914v4.969H0v-4.969h2.162c6.508,0,9.434-2.933,9.434-9.301V16.19c0-6.372-2.802-9.305-9.553-9.305H0V1.917h40.911v4.969h-1.784
	c-6.631,0-9.942,2.164-9.942,9.305v20.006h42.054V16.573c0-7.138-2.8-9.688-10.192-9.688h-1.146V1.917h40.783v4.969h-2.298
	c-6.496,0-9.555,2.416-9.555,9.305v50.469c0,6.622,2.421,9.555,9.809,9.555h2.044v4.969H59.899v-4.969H61.681"/>
<path fill="#666666" d="M133.971,51.745l-5.348,14.914c-2.295,6.496-2.164,9.555,10.068,9.555h1.651v4.969h-33.773v-4.969h1.917
	c6.113,0,9.3-2.8,12.485-11.722l21.795-60.792l-1.398-3.699h18.859l25.493,64.742c3.315,8.411,6.115,10.956,12.742,11.47v4.969
	h-41.418v-4.969h4.455c7.775,0,8.924-3.439,6.377-9.684l-5.989-14.785H133.971z M147.23,14.916l-10.705,29.817h22.43L147.23,14.916"
	/>
<path fill="#666666" d="M289.187,47.921c-6.756,0.131-9.054,2.169-9.054,8.029v18.991c-9.176,4.205-22.296,8.027-33.267,8.027
	c-32.238,0-47.797-17.97-47.797-42.438c0-23.324,19.25-40.53,46.396-40.53c13.132,0,23.331,4.464,27.66,4.464
	c1.905,0,2.936-0.514,3.82-1.66h3.187v23.324h-5.102c-3.435-12.996-13.123-20.646-26.381-20.646
	c-18.091,0-30.583,14.276-30.583,34.917c0,20.908,13.127,36.451,30.845,36.451c4.841,0,10.192-1.271,13.634-3.311V55.95
	c0-6.369-2.673-7.775-15.68-8.029v-4.836h42.32V47.921"/>
<path fill="#666666" d="M297.744,57.737h4.967c4.2,12.608,11.724,19.116,21.79,19.116c8.408,0,14.787-5.354,14.787-12.489
	c0-18.996-40.914-18.354-40.914-43.59C298.374,8.539,309.078,0,324.248,0c9.81,0,17.457,3.32,19.364,3.32
	c0.901,0,1.668-0.254,2.816-1.403h2.666l2.419,20.644h-5.085c-2.816-10.323-10.97-17.078-20.776-17.078
	c-7.136,0-12.49,3.819-12.49,8.791c0,11.729,21.159,13.896,35.434,28.169c5.224,5.227,7.255,10.707,7.255,16.819
	c0,13.253-11.97,23.707-27.14,23.707c-10.194,0-19.502-4.077-21.8-4.077c-1.145,0-2.033,0.643-2.671,2.041h-3.313L297.744,57.737"/>
<path fill="#666666" d="M357.934,11.491c0-5.393,4.07-8.468,8.613-8.468c4.49,0,8.655,3.076,8.655,8.468
	c0,5.347-4.165,8.467-8.655,8.467C362.004,19.958,357.934,16.838,357.934,11.491 M373.451,11.491c0-4.634-3.123-7.048-7.002-7.048
	c-3.88,0-7,2.415-7,7.048c0,4.588,3.12,7.049,7,7.049C370.328,18.54,373.451,16.079,373.451,11.491 M366.732,12.294h-1.563v3.598
	h-1.843V6.762h3.549c2.319,0,3.36,0.992,3.36,2.743c0,1.18-0.615,2.078-1.705,2.507l1.891,3.12v0.76h-1.652L366.732,12.294z
	 M368.436,9.505c0-0.852-0.424-1.418-1.703-1.418h-1.563v2.933h1.563C367.964,11.02,368.436,10.451,368.436,9.505"/>
</svg>
