<?xml version="1.0" encoding="utf-8"?>
<!-- Generator: Adobe Illustrator 15.1.0, SVG Export Plug-In . SVG Version: 6.00 Build 0)  -->
<!DOCTYPE svg PUBLIC "-//W3C//DTD SVG 1.1//EN" "http://www.w3.org/Graphics/SVG/1.1/DTD/svg11.dtd">
<svg version="1.1" xmlns="http://www.w3.org/2000/svg" xmlns:xlink="http://www.w3.org/1999/xlink" x="0px" y="0px" width="595px"
	 height="350px" viewBox="712 0 595 350" enable-background="new 712 0 595 350" xml:space="preserve">
<g id="Layer_1">
	<g>
		<path fill="#666666" d="M443.637,166.966c0.788,0,2.015,0.117,2.015-1.031c0-0.85-0.763-0.955-1.459-0.955H442.6v1.986H443.637z
			 M446.285,170.112h-0.842l-1.598-2.603H442.6v2.603h-0.726v-5.675h2.488c0.464,0,0.939,0,1.363,0.312
			c0.413,0.231,0.658,0.749,0.645,1.21c0,1.124-0.798,1.533-1.776,1.55L446.285,170.112z M439.463,167.289
			c0,2.397,1.922,4.305,4.305,4.305c2.387,0,4.281-1.907,4.281-4.305c0-2.375-1.895-4.294-4.281-4.294
			C441.385,162.995,439.463,164.915,439.463,167.289 M448.811,167.276c0,2.823-2.26,5.063-5.043,5.063
			c-2.797,0-5.067-2.241-5.067-5.063c0-2.786,2.271-5.03,5.067-5.03C446.551,162.246,448.811,164.49,448.811,167.276"/>
		<path fill="#666666" d="M163.349,209.058l-0.021,33.333H146.19v-95.284h25.858c5.771,0,9.928,0.125,12.5,1.889
			c3.847,2.639,3.583,6.153,3.583,8.699v40.767c0,2.543,0.264,6.055-3.583,8.69c-2.572,1.773-6.729,1.906-12.5,1.906H163.349z
			 M170.317,163.655c0-2.733-2.19-3.232-3.389-3.232h-3.579v35.276c0,0,2.382,0.001,3.579,0.001c1.199,0,3.389-0.502,3.389-3.233
			V163.655z"/>
		<path fill="#666666" d="M294.381,214.648v16.54c0,2.936,0.306,6.98-4.118,10.015c-2.975,2.025-7.75,2.166-14.399,2.166
			c-6.638,0-11.418-0.141-14.385-2.166c-4.427-3.034-4.124-7.079-4.124-10.015v-14.764h15.622v12.73c0,0-0.065,1.837,2.849,1.837
			c2.913,0,2.932-1.837,2.932-1.837v-10.463c0,0,0.568-3.837-11.145-9.295c-10.729-5.077-10.257-11.791-10.257-11.791v-13.342
			c0-2.925-0.304-6.969,4.124-10.007c2.967-2.038,7.747-2.177,14.385-2.177c6.649,0,11.424,0.139,14.399,2.177
			c4.424,3.039,4.118,7.083,4.118,10.007v10.78h-15.624v-9.794c0,0-0.038-1.913-2.898-1.913c-2.861,0-2.882,1.913-2.882,1.913v6.843
			c0,2.875,2.943,5.204,12.238,9.993C294.493,206.864,294.381,211.75,294.381,214.648"/>
		<path fill="#666666" d="M317.033,172.662h5.139v12.075h-5.139v42.73c0,2.595,3.024,2.894,5.08,2.894V242.6H308.82
			c-3.167-0.037-6.1-2.076-7.446-5.044c-1.009-2.144-0.9-4.778-1.005-7.308v-45.512h-4.416v-12.075h4.416v-16.074h16.664V172.662z"
			/>
		<path fill="#666666" d="M386.414,185.735c0,0-0.01-1.81-2.818-1.81c-2.81,0-2.809,1.81-2.809,1.81v56.655h-16.14v-69.942h14.821
			v3.293c0,0.283,0.223,0.17,0.223,0.17c3.061-1.995,6.45-3.39,10.275-3.712c4.508-0.322,9.285,0.588,11.332,4.619
			c0.705,1.668,1.024,3.202,1.024,5.485v60.086h-15.909V185.735z"/>
		<path fill="#666666" d="M324.101,183.954c0-2.929-0.298-6.973,4.133-10.005c2.978-2.04,7.751-2.174,14.398-2.174
			c6.648,0,11.419,0.135,14.377,2.174c4.419,3.033,4.141,7.077,4.141,10.005v46.929c0,2.929,0.278,6.969-4.141,10
			c-2.958,2.051-7.729,2.188-14.377,2.188c-6.647,0-11.421-0.138-14.398-2.188c-4.431-3.031-4.133-7.071-4.133-10V183.954z
			 M345.506,184.936c0,0-0.096-1.885-2.932-1.885c-2.835,0-2.833,1.885-2.833,1.885v43.9c0,0,0.018,1.895,2.858,1.895
			c2.842,0,2.906-1.895,2.906-1.895V184.936z"/>
		<path fill="#666666" d="M442.881,216.424v14.457c0,2.932,0.307,6.971-4.118,10.003c-2.978,2.048-7.745,2.188-14.398,2.188
			c-6.64,0-11.417-0.141-14.387-2.188c-4.432-3.032-4.134-7.071-4.134-10.003v-46.925c0-2.932-0.298-6.975,4.134-10.007
			c2.97-2.038,7.747-2.176,14.387-2.176c6.653,0,11.421,0.138,14.398,2.176c4.425,3.033,4.118,7.076,4.118,10.007v25.315h-21.406
			v19.566c0,0,0.016,1.895,2.878,1.895s2.904-1.895,2.904-1.895v-12.414H442.881z M427.257,198.028v-13.092
			c0,0-0.077-1.886-2.938-1.886c-2.86,0-2.844,1.886-2.844,1.886v13.092H427.257z"/>
		<path fill="#666666" d="M215.705,172.33c-3.645-0.295-7.083,1.285-9.559,3.652c0,0-0.242,0.254-0.242-0.102v-3.448h-15.663v69.958
			h16.82v-50.124c0-1.151,0.214-3.227,1.342-4.302c1.771-1.932,4.699-1.685,7.191-1.771c0.252,0,0.437-0.043,0.437-0.271v-13.058
			C216.031,172.521,216.025,172.374,215.705,172.33"/>
		<path fill="#666666" d="M254.52,216.424h-15.618v12.414c0,0,0.014,1.895-2.916,1.895c-2.929,0-2.869-1.895-2.869-1.895v-19.567
			h21.403v-25.314c0-2.931,0.308-6.975-4.118-10.008c-2.971-2.038-7.749-2.174-14.389-2.174c-6.652,0-11.421,0.136-14.391,2.174
			c-4.435,3.033-4.131,7.077-4.131,10.008v46.927c0,2.93-0.304,6.969,4.131,10.002c2.97,2.049,7.739,2.188,14.391,2.188
			c6.64,0,11.417-0.139,14.389-2.188c4.426-3.033,4.118-7.072,4.118-10.002V216.424z M236.003,183.051
			c2.893,0,2.898,1.883,2.898,1.883v13.053h-5.785v-13.053C233.116,184.934,233.111,183.051,236.003,183.051"/>
	</g>
	<g>
		<path fill="#666666" d="M-272.23,175.297v-0.04c0.374-0.11,0.638-0.374,0.638-0.712c0-0.301-0.129-0.547-0.3-0.68
			c-0.227-0.129-0.489-0.227-1.073-0.227c-0.51,0-0.903,0.042-1.184,0.098v3.084h0.713v-1.24h0.34c0.393,0,0.582,0.149,0.637,0.486
			c0.096,0.362,0.154,0.644,0.247,0.754h0.772c-0.077-0.11-0.131-0.3-0.227-0.771C-271.759,175.639-271.93,175.412-272.23,175.297
			 M-273.076,175.071h-0.341v-0.886c0.076-0.019,0.206-0.037,0.396-0.037c0.453,0,0.659,0.19,0.659,0.473
			C-272.362,174.94-272.684,175.071-273.076,175.071"/>
		<path fill="#666666" d="M-272.947,172.116c-1.766,0-3.18,1.376-3.18,3.086c0,1.754,1.414,3.128,3.18,3.128
			c1.79,0,3.163-1.374,3.163-3.128C-269.784,173.492-271.157,172.116-272.947,172.116 M-272.929,177.667
			c-1.393,0-2.41-1.092-2.41-2.465c0-1.353,1.018-2.462,2.392-2.462c1.376,0,2.372,1.109,2.372,2.481
			C-270.575,176.575-271.571,177.667-272.929,177.667"/>
		<path fill="#666666" d="M-444.156,242.409c2.41-0.008,4.834,0.237,7.232,0c10.202-1.012,17.685-6.358,21.817-16.088
			c0.955-2.254,1.875-4.559,2.431-6.933c1.652-7.085,3.247-14.194,4.602-21.344c0.625-3.306,0.894-6.732,0.875-10.097
			c-0.037-7.506-3.903-12.203-10.915-14.569c-3.445-1.161-7.506-1.497-11.351-1.502c-11.156-0.006-22.318-0.003-33.475-0.003h-2.554
			c-4.92,23.578-9.788,46.902-14.715,70.535h3.078C-466.138,242.409-455.147,242.444-444.156,242.409 M-450.4,188.368h17.266
			c5.465,0.106,7.241,2.643,6.241,8.187c-1.155,6.414-2.57,12.779-3.933,19.152c-0.245,1.147-0.713,2.257-1.184,3.335
			c-1.997,4.555-5.362,6.849-10.366,6.875c-4.498,0.023-15.847,0-15.847,0C-455.566,213.208-450.4,188.368-450.4,188.368"/>
		<path fill="#666666" d="M-580.796,223.777h14.73c3.898,0.063,5.758,2.199,5.532,6.173c-0.046,0.759-0.163,1.516-0.314,2.264
			c-0.505,2.485-2.271,10.195-2.271,10.195h18.846c0,0,1.776-9.117,2.597-13.271c0.294-1.487,0.531-3.016,0.539-4.527
			c0.022-4.276-2.242-7.245-6.283-8.384c-1.116-0.314-2.224-0.526-3.587-0.708l0.083-0.478c0.999-0.312,1.995-0.633,2.999-0.932
			c6.415-1.909,10.739-5.989,12.417-12.67c0.928-3.691,1.785-7.41,2.431-11.158c0.384-2.232,0.5-4.562,0.375-6.828
			c-0.222-4.08-1.973-7.348-5.765-9.124c-1.351-0.634-2.175-0.983-4.249-1.456c-3.32-0.757-6.769-0.961-10.165-1h-35.652
			c-4.902,23.491-9.773,46.983-14.686,70.535h18.512C-583.388,236.218-580.796,223.777-580.796,223.777 M-573.43,188.464h16.119
			c3.853,0.023,4.996,1.868,4.365,5.704c-0.437,2.668-1.033,5.321-1.701,7.939c-0.778,3.046-2.766,4.886-5.891,4.95
			c-5.471,0.113-16.774,0.033-16.774,0.033C-576.003,200.784-573.43,188.464-573.43,188.464"/>
		<path fill="#666666" d="M-360.726,242.409c1.049-5.025,2.094-10.22,3.203-15.539h-32.037c0.985-4.71,1.908-9.12,2.854-13.648
			h29.449c0.9-4.324,1.772-8.5,2.724-13.048h-29.428c0.912-4.381,1.749-8.515,2.635-12.771h31.407
			c1.092-5.253,2.129-10.259,3.201-15.424h-49.946c-4.879,23.381-9.75,46.876-14.66,70.431H-360.726z"/>
		<path fill="#666666" d="M-510.505,200.173c0.921-4.377,1.766-8.568,2.665-12.831h31.396c1.083-5.224,2.109-10.174,3.178-15.32
			h-49.938c-2.479,11.821-4.965,23.493-7.361,35.177c-2.392,11.647-7.203,35.211-7.203,35.211h50.573c0,0,2.041-10.294,3.142-15.598
			h-32.05c0.989-4.698,1.906-9.052,2.864-13.613h29.457c0.909-4.374,1.77-8.501,2.712-13.025
			C-481.071,200.173-509.44,200.237-510.505,200.173"/>
		<path fill="#666666" d="M-315.265,197.419c0,0-4.718-17.119-7.007-25.438h-21.551l12.25,33.987c0,0-27.444,35.43-28.155,36.441
			h21.61l19.215-26.921c2.616,8.735,7.989,26.921,7.989,26.921h21.574l-13.146-36.241l26.183-34.188h-21.235L-315.265,197.419z"/>
	</g>
	<g>
		<path fill="#666666" d="M-1323.447,205.476l-1.733-1.199c-2.501-1.745-4.645-3.176-6.456-4.381
			c-3.491-2.328-5.797-3.864-6.784-5.123c-0.9-1.147-1.315-2.228-1.38-3.63c-0.056-1.025,0.247-2.525,1.264-3.638
			c0.754-0.824,1.758-1.269,2.981-1.316c5.24-0.203,7.818,2.371,8.237,8.131c0.047,0.621,0.567,1.106,1.19,1.106h11.024
			c0.657,0,1.191-0.533,1.191-1.193v-21.688c0-0.654-0.534-1.189-1.191-1.189h-10.964h-1.191v2.568
			c-2.605-1.69-6.008-2.467-10.656-2.467h-0.188c-5.352,0.024-10.977,2.439-14.679,6.295c-3.652,3.807-5.471,8.881-5.258,14.669
			c0.306,8.305,5.283,11.679,12.176,16.349l1.291,0.877c1.992,1.365,3.764,2.542,5.32,3.578c4.096,2.722,6.804,4.519,7.892,5.911
			c0.904,1.152,1.318,2.231,1.391,3.63c0.052,1.026-0.254,2.521-1.271,3.635c-0.752,0.828-1.758,1.27-2.983,1.314
			c-5.192,0.217-7.815-2.361-8.236-8.125c-0.043-0.623-0.566-1.104-1.191-1.104h-11.02h-1.192v22.876
			c0,0.656,0.536,1.192,1.192,1.192h10.96c0.656,0,1.192-0.536,1.192-1.192v-1.377c2.602,1.692,6.007,2.469,10.664,2.469h0.183
			c5.347-0.029,10.97-2.439,14.674-6.295c3.655-3.809,5.473-8.879,5.259-14.676
			C-1312.034,213.359-1316.822,210.055-1323.447,205.476"/>
		<path fill="#666666" d="M-1213.01,171.354h-16.473c-0.468,0-0.893,0.275-1.086,0.703l-12.569,27.872l-12.567-27.872
			c-0.193-0.428-0.62-0.703-1.087-0.703h-16.472h-1.188v15.523c0,0.622,0.521,1.147,1.141,1.19c0.623,0.048,2.583,1.799,2.593,4.053
			v29.41c0,3.7-0.188,4.362-2.545,4.362c-0.656,0-1.188,0.534-1.188,1.189v14.279c0,0.654,0.532,1.192,1.188,1.192h20.352
			c0.658,0,1.19-0.538,1.19-1.192v-14.279c0-0.655-0.532-1.189-1.19-1.189c-2.354,0-2.544-0.662-2.544-4.362v-12.798l8.143,18.326
			c0.387,1.035,1.704,2.795,4.191,2.795c2.458,0,3.773-1.76,4.135-2.733l8.168-18.38v12.79c0,3.7-0.188,4.362-2.542,4.362
			c-0.655,0-1.188,0.534-1.188,1.189v14.279c0,0.654,0.533,1.192,1.188,1.192h20.352c0.656,0,1.191-0.538,1.191-1.192v-14.279
			c0-0.655-0.535-1.189-1.191-1.189c-2.356,0-2.543-0.662-2.543-4.362v-29.405c0.006-2.259,1.971-4.01,2.591-4.058
			c0.637-0.022,1.144-0.548,1.144-1.19v-14.333C-1211.819,171.889-1212.354,171.354-1213.01,171.354"/>
		<path fill="#666666" d="M-1019.528,218.483h-9.936c-0.659,0-1.191,0.531-1.194,1.19l-0.003,2.146
			c0.011,2.235-1.803,4.073-4.028,4.09l-7.934-0.012l24.013-38.441c0.12-0.188,0.183-0.411,0.183-0.637v-14.275
			c0-0.655-0.533-1.19-1.193-1.19h-43.146v22.877c0,0.66,0.531,1.195,1.19,1.195h9.938c0.656,0,1.188-0.535,1.191-1.195l0.004-2.144
			c-0.012-2.235,1.802-4.072,4.028-4.092l7.938,0.014l-24.017,38.44c-0.122,0.194-0.179,0.409-0.179,0.632v14.279
			c0,0.654,0.532,1.192,1.189,1.192h41.954c0.66,0,1.192-0.538,1.192-1.192v-21.688
			C-1018.336,219.015-1018.869,218.483-1019.528,218.483"/>
		<path fill="#666666" d="M-1284.312,171.354h-20.168h-1.193v15.465c0,0.642,0.545,1.173,1.185,1.196
			c0.149,0.004,0.764,0.273,1.412,1.089c0.408,0.509,1.091,1.575,1.096,2.979c0,0.015,0,0.033,0.003,0.048
			c0.013,0.944,0.013,28.701,0,29.649c-0.003,0.014-0.003,0.028-0.003,0.048c-0.005,1.398-0.688,2.461-1.096,2.973
			c-0.647,0.816-1.262,1.085-1.412,1.092c-0.655,0-1.185,0.534-1.185,1.189v14.279c0,0.654,0.533,1.192,1.193,1.192h20.168
			c0.659,0,1.19-0.538,1.19-1.192v-14.279c0-0.641-0.546-1.167-1.185-1.189c-0.15-0.007-0.764-0.275-1.414-1.092
			c-0.405-0.512-1.087-1.574-1.095-2.977v-0.049c-0.018-0.949-0.018-28.705,0-29.65v-0.048c0.008-1.397,0.69-2.464,1.095-2.973
			c0.649-0.815,1.263-1.085,1.414-1.089c0.654-0.006,1.185-0.535,1.185-1.196v-14.275
			C-1283.123,171.889-1283.653,171.354-1284.312,171.354"/>
		<path fill="#666666" d="M-1072.74,171.354h-21.359v15.465c0,0.642,0.545,1.173,1.185,1.196c0.149,0.004,0.764,0.273,1.413,1.089
			c0.407,0.509,1.089,1.575,1.097,2.979c0,0.019,0,0.033,0.001,0.048c0.016,0.955,0.016,28.701,0,29.649
			c-0.001,0.014-0.001,0.028-0.001,0.048c-0.008,1.398-0.69,2.461-1.094,2.973c-0.651,0.816-1.266,1.085-1.416,1.092
			c-0.653,0-1.185,0.534-1.185,1.189v14.279c0,0.654,0.536,1.192,1.191,1.192h20.167c0.66,0,1.194-0.538,1.194-1.192v-14.279
			c0-0.641-0.547-1.167-1.188-1.189c-0.15-0.007-0.762-0.275-1.411-1.092c-0.406-0.512-1.09-1.574-1.098-2.977
			c0-0.016,0-0.035-0.002-0.049c-0.012-0.949-0.012-28.705,0-29.65c0.002-0.019,0.002-0.031,0.002-0.048
			c0.008-1.397,0.691-2.464,1.098-2.973c0.649-0.815,1.261-1.085,1.411-1.089c0.658-0.006,1.188-0.535,1.188-1.196v-14.275
			C-1071.546,171.889-1072.08,171.354-1072.74,171.354"/>
		<path fill="#666666" d="M-1104.356,171.364h-20.348c-0.659,0-1.195,0.531-1.195,1.19v14.276c0,0.659,0.536,1.194,1.195,1.194
			c2.354,0,2.542,0.655,2.542,4.361v12.728l-14.507-33.046c-0.191-0.434-0.617-0.713-1.091-0.713h-17.661v15.524
			c0,0.62,0.52,1.146,1.141,1.19c0.622,0.049,2.586,1.797,2.595,4.053v29.409c0,3.7-0.19,4.36-2.547,4.36
			c-0.656,0-1.189,0.535-1.189,1.19v14.28c0,0.655,0.533,1.192,1.189,1.192h20.351c0.658,0,1.191-0.537,1.191-1.192v-14.28
			c0-0.655-0.534-1.19-1.191-1.19c-2.354,0-2.542-0.66-2.542-4.36v-12.792l8.162,18.372l6.342,14.729
			c0.189,0.438,0.616,0.717,1.091,0.717h16.472c0.66,0,1.192-0.534,1.192-1.19v-14.331c0-0.625-0.521-1.145-1.144-1.192
			c-0.625-0.042-2.583-1.797-2.594-4.053v-29.404c0-3.706,0.189-4.361,2.545-4.361c0.66,0,1.192-0.535,1.192-1.194v-14.276
			C-1103.164,171.895-1103.696,171.364-1104.356,171.364"/>
		<path fill="#666666" d="M-1183.345,171.353c-11.623,0-21.035,9.188-21.035,20.478l-0.044,30.247
			c0,11.288,9.457,20.475,21.08,20.475c11.62,0,21.076-9.187,21.076-20.475v-30.247
			C-1162.269,180.541-1171.725,171.353-1183.345,171.353 M-1179.479,219.693c0,2.493-1.737,4.521-3.881,4.521
			c-2.137,0-3.874-2.028-3.874-4.521v-25.481c0-2.496,1.737-4.521,3.874-4.521h0.008c2.136,0,3.873,2.024,3.873,4.521V219.693z"/>
		<path fill="#666666" d="M-1019.086,205.953c-2.252,0.009-4.142,1.791-4.131,4.114c0.01,2.371,1.916,4.146,4.169,4.136
			c2.253-0.009,4.11-1.801,4.104-4.172C-1014.958,207.707-1016.834,205.941-1019.086,205.953 M-1019.052,213.6
			c-1.93,0.009-3.407-1.51-3.413-3.535c-0.011-1.97,1.455-3.502,3.383-3.512c1.905-0.006,3.382,1.513,3.391,3.482
			C-1015.681,212.06-1017.146,213.59-1019.052,213.6"/>
		<path fill="#666666" d="M-1017.14,209.025c-0.003-0.915-0.543-1.375-1.702-1.369l-1.849,0.008l0.024,4.815l0.742-0.004
			l-0.01-2.078l0.8-0.003l1.328,2.072l0.8-0.005l-1.383-2.114C-1017.686,210.268-1017.137,209.91-1017.14,209.025
			 M-1019.154,209.802l-0.785,0.002l-0.005-1.545l0.996-0.004c0.5-0.003,1.063,0.106,1.063,0.749
			C-1017.881,209.756-1018.471,209.799-1019.154,209.802"/>
	</g>
	<g>
		<polygon fill="#666666" points="838.445,214.41 780.825,243.221 793.768,243.221 851.388,214.41 		"/>
		<polygon fill="#666666" points="849.15,185.393 812.927,167.281 810.17,172.374 836.207,185.393 		"/>
		<polygon fill="#666666" points="806.503,243.221 859.181,243.221 859.181,216.883 		"/>
		<polygon fill="#666666" points="859.182,156.978 818.505,156.978 816.083,161.452 859.182,182.998 		"/>
		<polygon fill="#666666" points="787.412,214.41 773.288,240.501 825.299,214.41 		"/>
		<polygon fill="#666666" points="864.969,243.221 877.564,243.221 877.564,156.978 864.969,156.978 864.969,191.259 
			799.946,191.259 790.546,208.622 864.969,208.622 		"/>
		<polygon fill="#666666" points="807.812,176.729 803.08,185.471 825.299,185.471 		"/>
		<polygon fill="#666666" points="1182.793,185.391 1208.83,172.372 1206.074,167.28 1169.851,185.391 		"/>
		<polygon fill="#666666" points="1202.916,161.448 1200.495,156.974 1159.819,156.974 1159.819,182.997 		"/>
		<polygon fill="#666666" points="1245.712,240.498 1231.588,214.408 1193.701,214.408 		"/>
		<polygon fill="#666666" points="1215.92,185.469 1211.188,176.725 1193.702,185.469 		"/>
		<polygon fill="#666666" points="1167.612,214.408 1225.233,243.219 1238.175,243.219 1180.555,214.408 		"/>
		<polygon fill="#666666" points="1159.819,243.219 1212.497,243.219 1159.819,216.88 		"/>
		<polygon fill="#666666" points="1228.455,208.619 1219.055,191.256 1154.031,191.256 1154.031,156.974 1141.437,156.974 
			1141.437,243.219 1154.031,243.219 1154.031,208.619 		"/>
		<polygon fill="#666666" points="1020.74,156.979 1020.74,243.225 1040.18,243.225 1040.204,156.979 		"/>
		<polygon fill="#666666" points="911.405,189.893 930.986,189.893 930.986,156.979 950.416,156.979 950.416,243.225 
			930.986,243.225 930.986,205.945 911.405,205.945 911.405,243.225 892.028,243.225 892.028,156.979 911.405,156.979 		"/>
		<g>
			<path fill="#666666" d="M1107.127,166.417c0-4.489,3.293-7.87,7.594-7.87c4.252,0,7.584,3.38,7.584,7.87
				c0,4.557-3.332,7.919-7.584,7.919C1110.42,174.336,1107.127,170.974,1107.127,166.417 M1114.721,175.9
				c5.11,0,9.453-4,9.453-9.484c0-5.427-4.343-9.435-9.453-9.435c-5.152,0-9.465,4.008-9.465,9.435
				C1105.256,171.901,1109.568,175.9,1114.721,175.9 M1112.733,167.159h1.893l2.856,4.742h1.841l-3.08-4.817
				c1.587-0.196,2.803-1.033,2.803-2.999c0-2.158-1.264-3.096-3.821-3.096h-4.142v10.912h1.65V167.159z M1112.733,165.776v-3.402
				h2.237c1.144,0,2.363,0.249,2.363,1.612c0,1.689-1.238,1.79-2.634,1.79H1112.733z"/>
			<path fill="#666666" d="M1014.868,212.797c0,16.803-13.118,30.428-29.287,30.428c-16.173,0-29.292-13.625-29.292-30.428
				c0-16.811,13.119-30.433,29.292-30.433C1001.75,182.364,1014.868,195.986,1014.868,212.797 M985.581,198.415
				c-7.636,0-13.837,6.438-13.837,14.382c0,7.938,6.201,14.369,13.837,14.369c7.632,0,13.819-6.432,13.819-14.369
				C999.4,204.854,993.213,198.415,985.581,198.415"/>
			<path fill="#666666" d="M1072.388,182.128h-0.007v-25.148h-19.452c0,16.994-0.023,7.596-0.023,25.161h-2.687h-0.498h-3.563
				v16.065h6.748v45.019h19.481v-45.019h6.666v-16.065h-6.666L1072.388,182.128z"/>
			<path fill="#666666" d="M1130.715,222.205c-1.531-10.069-6.393-13.137-14.031-15.191l-7.05-1.878
				c-5.056-1.372-7.148-2.539-7.451-4.532c-0.472-3.098,2.587-4.475,6.483-4.801c2.933-0.244,6.037-0.093,8.897,0.34
				c3.911,0.658,6.793,1.661,9.412,2.93v-13.82c-1.459-0.55-3.111-1.088-5.227-1.561l-0.001-0.017
				c-4.432-1.063-10.427-1.766-16.359-1.271c-17.585,1.466-22.823,10.759-21.274,20.936c1.109,7.307,4.639,12.728,14.383,15.275
				l6.458,1.706c5.166,1.36,6.892,2.337,7.195,4.329c0.403,2.656-2.16,4.327-7.614,4.781c-2.287,0.191-4.412,0.157-6.368-0.011
				v-0.001c-5.328-0.52-8.918-1.825-12.084-3.648l-0.007,15.033c1.544,0.559,3.217,1.009,5.246,1.379
				c1.803,0.419,4.537,0.786,7.562,0.997c0.104,0.011,0.2,0.021,0.305,0.03l-0.001-0.01c3.154,0.207,6.589,0.246,9.583-0.004
				C1125.913,241.769,1132.532,234.158,1130.715,222.205"/>
		</g>
	</g>
</g>
<g id="screen_grab">
</g>
</svg>
