<?xml version="1.0" encoding="utf-8"?>
<!-- Generator: Adobe Illustrator 15.1.0, SVG Export Plug-In  -->
<!DOCTYPE svg PUBLIC "-//W3C//DTD SVG 1.1//EN" "http://www.w3.org/Graphics/SVG/1.1/DTD/svg11.dtd" [
	<!ENTITY ns_flows "http://ns.adobe.com/Flows/1.0/">
]>
<svg version="1.1"
	 xmlns="http://www.w3.org/2000/svg" xmlns:xlink="http://www.w3.org/1999/xlink" xmlns:a="http://ns.adobe.com/AdobeSVGViewerExtensions/3.0/"
	 x="0px" y="0px" width="200px" height="46px" viewBox="0 0 200 46" overflow="visible" enable-background="new 0 0 200 46"
	 xml:space="preserve">
<defs>
</defs>
<path fill="#FFFFFF" d="M166.79,13.156c0,0.464,0.067,0.934,0.249,1.376c0.816,2.003,2.872,3.235,5.483,2.192
	c0.629-0.251,17.966-7.21,17.966-7.21s-6.829,17.249-7.082,17.893c-0.999,2.469,0.201,4.709,2.233,5.463
	c0.454,0.162,0.919,0.243,1.382,0.237c1.646-0.009,3.111-0.983,3.826-2.928c0.116-0.295,8.649-23.656,8.844-24.225
	c0.104-0.326,0.307-1.112,0.309-1.651c0.002-1.158-0.43-2.248-1.257-3.068c-0.825-0.815-1.897-1.241-3.046-1.235
	c-0.551,0-1.006,0.098-1.693,0.317c-0.412,0.13-22.42,8.295-24.298,8.998C167.821,10.013,166.782,11.507,166.79,13.156"/>
<path fill="#FFFFFF" d="M11.688,45.586L4.032,34.604l7.627-9.745h4.596l-7.78,9.606l8.306,11.121H11.688z M0,24.859h4.002v20.727H0
	V24.859z"/>
<path fill="#FFFFFF" d="M33.888,41.18c-1.085,3.464-4.411,4.819-7.834,4.819c-3.296,0-6.538-1.288-7.71-4.608
	c-0.444-1.232-0.503-2.583-0.503-3.877V24.859h4.013v11.886c0,1.266-0.063,2.887,0.588,4.027c0.726,1.328,2.237,1.762,3.652,1.762
	c1.318,0,2.825-0.434,3.558-1.646c0.684-1.141,0.647-2.638,0.647-3.938V24.859h4.012v12.945
	C34.309,38.95,34.252,40.092,33.888,41.18"/>
<polygon fill="#FFFFFF" points="54.177,45.586 54.177,29.415 49.731,45.586 45.61,45.586 41.219,29.415 41.219,45.586 
	37.626,45.586 37.626,24.859 43.194,24.859 47.699,41.328 52.263,24.859 57.773,24.859 57.773,45.586 "/>
<polygon fill="#FFFFFF" points="73.427,45.586 73.427,36.425 65.188,36.425 65.188,45.586 61.178,45.586 61.178,24.859 
	65.188,24.859 65.188,33.137 73.427,33.137 73.427,24.859 77.433,24.859 77.433,45.586 "/>
<path fill="#FFFFFF" d="M89.471,27.856c-4.034,0-5.211,4.051-5.211,7.371c0,3.315,1.177,7.363,5.237,7.363
	c4.007,0,5.242-4.047,5.242-7.363C94.739,31.908,93.504,27.856,89.471,27.856 M94.188,44.764C92.77,45.619,91.085,46,89.471,46
	c-1.354,0-2.92-0.347-4.147-0.968c-3.839-1.966-5.217-5.728-5.217-9.804c0-3.965,1.261-7.61,4.894-9.66
	c1.349-0.764,2.941-1.12,4.497-1.12c2.449,0,4.834,0.887,6.54,2.646c2.103,2.137,2.856,5.229,2.856,8.135
	C98.893,39.096,97.665,42.675,94.188,44.764"/>
<polygon fill="#FFFFFF" points="114.429,28.275 114.429,45.584 110.432,45.584 110.432,28.275 104.953,28.275 104.953,24.877 
	119.938,24.877 119.938,28.275 "/>
<polygon fill="#FFFFFF" points="131.821,37.43 131.821,45.585 127.819,45.585 127.819,37.43 121.047,24.877 125.518,24.877 
	129.876,33.117 134.175,24.877 138.588,24.877 "/>
<path fill="#FFFFFF" d="M149.142,28.665c-0.882-0.412-2.117-0.388-3.093-0.388h-1.907v5.988h2.617c2.117,0,3.975-0.588,3.975-3.081
	C150.734,30.04,150.204,29.127,149.142,28.665 M151.256,45.586l-4.231-7.923h-2.883v7.923h-4.005V24.878h5.622
	c1.676,0,3.446-0.061,5.03,0.528c2.619,0.938,4.035,3.107,4.035,5.835c0,2.645-1.268,4.638-3.682,5.749l4.771,8.595H151.256z"/>
<polygon fill="#FFFFFF" points="157.884,45.586 157.884,24.878 170.976,24.878 170.976,28.276 161.885,28.276 161.885,33.152 
	170.155,33.152 170.155,36.553 161.885,36.553 161.885,42.177 171.301,42.177 171.301,45.586 "/>
</svg>
