<?xml version="1.0" encoding="utf-8"?>
<!-- Generator: Adobe Illustrator 21.1.0, SVG Export Plug-In . SVG Version: 6.00 Build 0)  -->
<svg version="1.1" id="Layer_1" xmlns="http://www.w3.org/2000/svg" xmlns:xlink="http://www.w3.org/1999/xlink" x="0px" y="0px"
	 viewBox="0 0 595 350" style="enable-background:new 0 0 595 350;" xml:space="preserve">
<style type="text/css">
	.st0{fill:#666666;}
</style>
<g>
	<g>
		<polygon class="st0" points="436.9,150.4 442.3,155.8 449.3,148.8 515.4,215 449.3,281.2 435.4,267.3 487.7,215 430,157.3 
			405.3,182 438.3,215 405.3,248 417.6,260.3 423,254.9 416.1,248 449.1,215 416.1,182 430,168.1 476.9,215 424.6,267.3 449.3,292 
			526.3,215 449.3,138 		"/>
		<g>
			<path class="st0" d="M136.6,223.4c0-20.7,6.5-28.4,24.4-28.4c18,0,24.4,8,24.4,28.4c0,20.3-6.5,28.4-24.4,28.4
				S136.6,244.1,136.6,223.4z M175.9,223.4c0-15.8-3.4-20.6-14.9-20.6c-11.3,0-14.8,4.1-14.8,20.6S149.7,244,161,244
				C172.5,244,175.9,239.2,175.9,223.4z"/>
			<path class="st0" d="M203.5,195.7c0.9,8.3,5,27.3,9.5,45.6l12.3-35.1c1.5-4.1,3.3-6.1,6.6-6.1s5.3,2,6.7,6.1l11.9,35
				c4.5-18.3,8.7-37.2,9.7-45.5h9.4c-1.2,8.4-6.4,29.6-11.7,49.6c-1.2,4.4-3.6,6.5-7,6.5c-3.6,0-5.7-2.1-7.2-6.5l-11.8-33.6
				l-12.1,33.5c-1.6,4.3-3.6,6.5-7.2,6.5s-6-2.1-7.2-6.6c-5.3-19.9-10.4-41.1-11.5-49.5h9.6V195.7z"/>
			<path class="st0" d="M277.8,223.4c0-20.1,6.1-28.4,24.4-28.4c19.3,0,24,10.1,24,25.9c0,1.5-0.1,3.3-0.3,4.7
				c-6.3,1.1-19.3,2.3-27,2.7l-11.5,0.5c0.8,11,5.2,15.3,16.6,15.3c7.3,0,13.4-0.8,19.7-2.9l0.8,7.1c-5.5,2.3-13.8,3.6-23.5,3.6
				C282.6,251.8,277.8,239.8,277.8,223.4z M300,221.3c4.5-0.2,12-0.8,16.5-1.4c0.1-0.9,0.1-2.3,0.1-3.3c0-8.9-3.7-14.3-14.4-14.3
				c-12.8,0-15.1,7.2-15.1,19.5L300,221.3z"/>
			<path class="st0" d="M348,176.5h-9.5v60.2c0,7.7,2,12.6,5.6,16.8l8.2-4c-2.9-3.8-4.3-7.7-4.3-13.3L348,176.5L348,176.5z"/>
			<path class="st0" d="M374.1,176.5h-9.5v60.2c0,7.7,2,12.6,5.6,16.8l8.2-4c-2.9-3.8-4.3-7.7-4.3-13.3L374.1,176.5L374.1,176.5z"/>
			<path class="st0" d="M108.7,251.2c9.2,0,15.2-0.9,21.1-2l-0.9-7.8c-5.4,0.7-10.6,1.6-18.4,1.6c-10.8-0.1-12.7-2.6-12.7-12.6
				l-0.1-51.8H87.6l0.1,56.1c0,14.3,9.5,16.2,20.5,16.5H108.7L108.7,251.2z"/>
		</g>
	</g>
</g>
</svg>
