<?xml version="1.0" encoding="utf-8"?>
<!-- Generator: Adobe Illustrator 15.1.0, SVG Export Plug-In  -->
<!DOCTYPE svg PUBLIC "-//W3C//DTD SVG 1.1//EN" "http://www.w3.org/Graphics/SVG/1.1/DTD/svg11.dtd" [
	<!ENTITY ns_flows "http://ns.adobe.com/Flows/1.0/">
]>
<svg version="1.1"
	 xmlns="http://www.w3.org/2000/svg" xmlns:xlink="http://www.w3.org/1999/xlink" xmlns:a="http://ns.adobe.com/AdobeSVGViewerExtensions/3.0/"
	 x="0px" y="0px" width="206px" height="37px" viewBox="-0.225 0.211 206 37"
	 overflow="visible" enable-background="new -0.225 0.211 206 37" xml:space="preserve">
<defs>
</defs>
<path fill="#FFFFFF" d="M162.571,19.587c-2.445,0.435-3.439,3.081-3.833,5.013c-0.444,2.172-0.023,5.162,2.889,4.312
	c1.687-0.492,4.616-2.79,4.665-5.502C166.358,19.908,164.212,19.296,162.571,19.587 M152.744,7.699
	c-2.721,3.251-2.835,9.288-2.301,14.572C154.235,17.001,153.647,7.913,152.744,7.699 M142.764,4.979
	c-0.236-0.453-0.592-0.853-0.852-1.18c-8.2-10.287-17.43,20.626-7.235,26.27c6.737,3.731,13.021-4.63,13.986-5.733
	c-0.886-5.715-1.302-14.324,1.919-17.914c6.044-6.737,6.648,12.623,0.829,18.283c1.094,3.157,1.459,5.299,4.28,1.565
	c0.338-1.312,0.572-2.922,1.18-4.127c1.746-3.464,4.584-4.498,6.288-4.422c0.375,0.017,3.936,0.576,4.527,3.861
	c0.686,3.804,0.332,7.254,3.236,6.261c1.925-0.733,5.376-7.513,5.943-8.058c3.221-2.803,0.895,2.547,0.885,9.237
	c1.255-1.938,2.048-5.019,3.144-7.37c0.731-1.922,2.868-0.931,2.85,0.786c2.575,0.035,3.653-2.23,4.913-3.833
	c2.388-13.21,3.64-19.17,4.226-15.623c0.416,2.52-0.943,6.394-1.647,11.457c-1.177,8.438-1.193,17.22,0.782,11.315
	c1.426-4.26,5.882-11.376,8.126-7.139c1.876,3.544-2.886,3.408-3.244,5.976c-0.515,3.669,5.357,9.575,7.465,10.222
	c2.354,0.721-0.394,2.529-1.935,1.578c-2.553-1.578-7.281-8.7-7.574-10.815c-0.482-3.48,5.697-4.401,3.236-6.047
	c-2.418-0.054-4.314,7.433-6.255,10.386c-4.204,6.401-2.948-6.604-3.18-9.146c-0.325,0.458-2.188,4.997-6.976,3.242
	c-0.123,0.194-7.04,16.64-5.11-0.098c-0.932,0.112-1.887,3.541-4.143,5.404c-1.353,1.12-2.984,1.211-3.668,0.982
	c-1.338-0.598-2.125-1.741-2.358-3.439c-3.324,5.434-9.639,4.84-10.318,2.455c-2.304,1.909-5.083,2.501-6.582-2.651
	c-5.687,5.376-15.52,12.521-20.291,1.34c-5.488-12.862,4.442-36.986,15.543-24.263c2.444,2.802,0.007,4.284-1.426,4.284
	C141.39,8.024,143.349,6.092,142.764,4.979 M95.263,29.052c-3.317-7.445,5.238-11.104,3.174-4.269
	C97.983,26.287,95.873,28.654,95.263,29.052 M75.475,24.773c-0.021-3.167,0.226-6.436,0.614-9.097
	c1.453-0.09,1.686-0.817,1.686-0.817s-0.576,0.02-1.567,0.054c0.58-3.552,1.414-5.777,2.155-4.726
	C79.684,12.062,77.836,19.657,75.475,24.773 M68.143,30.33c-1.007,0.316-2.581,0.47-3.144-0.196
	c-0.441-0.924-0.499-2.092-0.492-3.242c0.021-3.158,1.358-7.398,2.02-10.662c2.658-0.176,5.229-0.334,7.338-0.446
	c-0.417,2.817-0.604,6.362-0.416,10.716C72.506,27.892,70.206,29.682,68.143,30.33 M58.023,29.741
	c-5.314,2.265-4.048-6.847-2.668-12.738c2.396-0.169,5.414-0.385,8.491-0.594C63.388,20.551,62.017,28.039,58.023,29.741
	 M34.404,30.934c-1.897-7.189,5.294-13.949,6.935-7.595C41.958,25.735,35.609,34.057,34.404,30.934 M124.25,21.487
	c-0.744,0.743-3.303,8.42-4.653,8.907c-0.684,0.246-0.873-7.262-3.286-7.07c-1.026,0.083-5.376,7.528-6.45,7.454
	c-1.013-0.068-1.537-5.86-1.725-8.406c-0.189-2.546-2.521-0.5-2.456,2.063c-1.426,2.392-3.808,5.828-6.88,6.582
	c-0.992,0.244-1.88,0.046-2.357-0.688c1.572-1.361,3.761-3.4,4.324-6.091c1.856-8.887-11.691-4.09-7.216,6.074
	c-1.455,0.682-2.988,1.494-4.477,1.098c-2.479-0.659-1.453-7.747-2.947-8.745c-1.563-1.043-3.302,2.14-4.029,3.046
	c-3.719,4.636-5.259,8.714-6.157,1.566c0.206-0.283,1.795-3.412,2.465-5.766c2.043-7.169,2.958-13.589,0.272-14.35
	c-1.596-0.451-3.67,1.916-4.686,7.828c-1.953,0.067-4.507,0.156-7.279,0.25c0.041-0.251,0.078-0.496,0.105-0.73l0.098-1.473
	c0.338-0.904,0.423-2.331-0.393-2.457c-2.202-0.339-2.585,1.661-2.456,3.045c0,0-0.021,0.657-0.114,1.708
	c-2.778,0.095-5.644,0.191-8.256,0.28c0.383-1.488,0.733-2.621,0.902-3.069c0.142-0.374,0.532-0.399,0.589-0.884
	c0.182-1.529-1.701-1.795-2.457-0.688c-0.336,0.493-0.537,2.091-1.116,4.71c-4.19,0.139-7.354,0.239-7.76,0.239
	c-1.318,0-4.923,2.48-0.703,2.48s3.288-0.985,5.398-1.074c0.33-0.014,1.316-0.081,2.724-0.179
	c-0.633,2.594-1.622,5.955-3.308,10.036c-0.702,1.7-2.42,4.252-4.029,3.439c-2.164-1.368-1.9-4.376-2.751-7.074
	c-0.84-2.664-1.026-4.738-4.358-4.371c-3.837,0.426-7.911,5.725-7.128,12.011c-0.729-0.049-6.115-8.06-6.744-16.146
	c-2.021-25.999-3.045,8.678-8.889,8.308c-4.271-0.27-3.494-32.249-6.485-20.929c-0.262,0.992-5.321,22-7.294,25.048
	c-0.777,1.203-3.557,3.417-1.606,4.664c2.351,1.501,3.016-1.451,3.676-3.248C4.924,27.346,9.613,9.782,9.975,9.795
	c1.035,0.036,1.032,19.245,6.976,16.604c2.859-1.268,3.849-5.222,5.601-11.889c1.144,8.336,6.802,19.639,11.987,19.456
	c3.03-0.107,5.465-4.152,7.456-6.931c0.372,2.396,1.356,5.978,3.845,6.047c2.851,0.078,5.26-3.999,6.289-5.209
	c0.399,2.41,1.191,4.752,3.438,4.816c2.823,0.078,5.422-3.342,6.682-4.718c-0.215,2.759,1.008,6.077,4.028,5.404
	c2.251-0.5,6.337-3.593,7.666-4.618c0.392,0.895,0.727,1.891,1.375,2.653c3.454,4.062,5.291-2.413,9.925-5.993
	c1.505,3.452-2.008,11.022,9.039,6.189c0.172,0.104,1.884,2.134,3.616,1.784c2.966-0.599,6.751-3.979,8.469-5.616
	c2.12,10.903,4.691,5.165,9.53-1.08c0.94,0.787,1.608,5.206,2.262,6.387c1.715,3.104,5.516-7.035,6.484-9.041
	C125.932,23.869,126.14,19.595,124.25,21.487"/>
</svg>
