<?xml version="1.0" encoding="utf-8"?>
<!-- Generator: Adobe Illustrator 15.1.0, SVG Export Plug-In  -->
<!DOCTYPE svg PUBLIC "-//W3C//DTD SVG 1.1//EN" "http://www.w3.org/Graphics/SVG/1.1/DTD/svg11.dtd" [
	<!ENTITY ns_flows "http://ns.adobe.com/Flows/1.0/">
]>
<svg version="1.1"
	 xmlns="http://www.w3.org/2000/svg" xmlns:xlink="http://www.w3.org/1999/xlink" xmlns:a="http://ns.adobe.com/AdobeSVGViewerExtensions/3.0/"
	 x="0px" y="0px" width="595px" height="350px" viewBox="-159.138 -34.834 595 350"
	 overflow="visible" enable-background="new -159.138 -34.834 595 350" xml:space="preserve">
<defs>
</defs>
<path fill="#726F6D" d="M0,152.264c0,13.868,11.284,25.151,25.153,25.151c13.869,0,25.151-11.283,25.151-25.151
	c0-13.869-11.283-25.153-25.151-25.153C11.284,127.11,0,138.395,0,152.264 M2,152.264c0-12.766,10.386-23.153,23.152-23.153
	c12.766,0,23.151,10.387,23.151,23.153c0,12.766-10.386,23.151-23.151,23.151C12.386,175.415,2,165.029,2,152.264"/>
<path fill="#726F6D" d="M226.42,152.223c0,13.868,11.283,25.152,25.152,25.152c13.868,0,25.151-11.284,25.151-25.152
	c0-13.869-11.283-25.152-25.151-25.152C237.704,127.071,226.42,138.354,226.42,152.223 M228.419,152.223
	c0-12.767,10.387-23.152,23.153-23.152c12.765,0,23.152,10.386,23.152,23.152c0,12.766-10.388,23.151-23.152,23.151
	C238.806,175.374,228.419,164.988,228.419,152.223"/>
<path fill="#726F6D" d="M217.871,180.037l-0.308,0.354c-20.259,23.072-46.997,38.387-71.526,40.969l0.209,1.989
	c25.017-2.634,52.239-18.199,72.819-41.638l0.314-0.359c2.281-2.619,6.098-7.002,14.638-7.002c5.065,0,10.543,2.559,14.293,6.681
	c2.763,3.036,5.898,8.346,5.139,16.393c-1.087,11.515-17.604,36.67-44.629,52.028c-22.267,12.655-46.058,19.071-70.712,19.071
	c-24.655,0-48.446-6.416-70.711-19.071c-27.026-15.358-43.543-40.514-44.631-52.028c-0.759-8.047,2.375-13.356,5.139-16.393
	c3.75-4.122,9.227-6.681,14.293-6.681c8.54,0,12.357,4.383,14.637,7.002l0.315,0.359c20.543,23.397,47.718,38.963,72.691,41.638
	l0.213-1.989c-24.488-2.622-51.181-17.938-71.402-40.969l-0.309-0.354c-2.34-2.687-6.695-7.688-16.146-7.688
	c-5.611,0-11.654,2.811-15.773,7.336c-3.035,3.335-6.479,9.151-5.65,17.927C21.901,209.55,38.8,235.5,66.408,251.19
	c22.571,12.828,46.693,19.332,71.7,19.332s49.129-6.504,71.7-19.332c27.607-15.69,44.507-41.641,45.633-53.579
	c0.829-8.775-2.616-14.592-5.65-17.927c-4.118-4.525-10.162-7.336-15.772-7.336C224.567,172.349,220.21,177.351,217.871,180.037"/>
<path fill="#726F6D" d="M183.138,75.793H92.317l-0.258,0.181c-2.325,1.627-6.636,5.508-7.494,6.444l-0.263,0.287v111.358
	l53.805,34.587l53.804-34.587V82.581l-0.333-0.298c-1.899-1.705-6.11-4.962-7.832-6.282l-0.27-0.207H183.138z M182.798,77.792
	c1.492,1.148,5.195,4.017,7.114,5.686v109.493c-0.895,0.574-50.755,32.626-51.805,33.301c-1.05-0.675-50.911-32.727-51.804-33.301
	V83.501c1.104-1.092,4.53-4.17,6.652-5.709H182.798z"/>
<path fill="#726F6D" d="M73.991,29.659C54.978,41.484,43.165,55.977,37.815,63.563c-13.268,18.815-21.295,24.352-26.091,27.66
	l-2.087,1.46l-0.006,0.49c-0.011,0.309-0.246,7.656,2.002,15.754c3.024,10.888,9.14,17.788,17.686,19.954
	c11.82,2.994,23.59-3.582,35.982-20.104l1.733-2.427c7.837-11.171,31.688-45.164,71.073-45.164
	c39.384,0,63.236,33.993,71.074,45.164l1.732,2.427c12.393,16.522,24.161,23.099,35.981,20.104
	c8.547-2.166,14.662-9.065,17.687-19.954c2.249-8.098,2.014-15.445,2.002-15.754l-0.018-0.498l-2.077-1.454
	c-4.796-3.307-12.821-8.843-26.09-27.659c-5.35-7.586-17.162-22.08-36.176-33.904c-19.396-12.065-40.968-18.181-64.116-18.181
	S93.388,17.594,73.991,29.659 M12.86,92.868c4.905-3.383,13.116-9.045,26.589-28.152c5.262-7.462,16.885-21.72,35.598-33.36
	c19.074-11.863,40.292-17.88,63.06-17.88c22.769,0,43.986,6.017,63.06,17.88c18.714,11.64,30.335,25.897,35.598,33.36
	c13.473,19.106,21.684,24.769,26.589,28.152c0,0,0.778,0.544,1.239,0.866c0,0.064,0,0.125,0,0.201c0,2.006-0.163,8.089-1.951,14.501
	c-2.865,10.275-8.328,16.501-16.238,18.504c-10.95,2.775-22.036-3.559-33.89-19.364l-1.696-2.377
	c-7.984-11.381-32.285-46.015-72.71-46.015S73.382,93.818,65.397,105.2l-1.695,2.377c-11.854,15.805-22.94,22.139-33.891,19.364
	c-7.91-2.002-13.373-8.229-16.238-18.504c-1.788-6.413-1.951-12.496-1.951-14.501c0-0.076,0-0.137,0-0.201
	C12.083,93.412,12.86,92.868,12.86,92.868"/>
<path fill="#726F6D" d="M138.203,268.959c-4.65,0-13.101-0.7-13.101-0.7l0.281,1.016c0.165,0.435,3.586,11.058,13.392,11.058
	c8.628,0,12.206-8.065,13.304-11.356l0.024-0.717C150.804,268.509,142.852,268.959,138.203,268.959 M138.876,278.328
	c-7.974,0-11.222-9.043-11.222-9.043s6.709,0.414,10.555,0.414s6.399-0.108,7.55-0.157c-1.325,1.925-2.325,1.922-3.926,1.922
	c-0.802,0-2.006,0.666-1.969,1.87c0.027,0.941,0.796,1.733,2.103,1.733c2.898,0,5.104-4.049,5.727-5.761
	c0,0,1.711-0.072,2.211-0.122C149.905,269.185,146.837,278.328,138.876,278.328"/>
<path fill="#726F6D" d="M177.816,263.74c-14.408,4.266-28.596,4.734-28.596,4.734l1.415,0.868c1.733,3.199,5.802,7.953,14.006,7.953
	c8.479,0,12.798-7.021,15.198-13.288L177.816,263.74z M164.437,275.15c-7.333,0-11.05-5.209-11.05-5.209
	c1.2-0.066,2.366-0.333,2.366-0.333c1.135,1.466,3.396,3.05,5.329,3.05s2.502-0.836,2.572-1.5c0.101-0.95-0.729-1.517-1.267-1.417
	c-0.271,0.05-0.365,0.229-1.096,0.267c-1.9,0.101-2.172-0.8-2.172-0.8c8.733-1.066,12.43-2.2,17.63-3.601
	C175.485,267.942,172.505,275.15,164.437,275.15"/>
<path fill="#726F6D" d="M100.025,263.74l-2.024,0.268c2.401,6.268,6.718,13.288,15.199,13.288c8.203,0,12.635-5.021,14.454-7.953
	l0.966-0.868C128.621,268.475,114.433,268.006,100.025,263.74 M113.404,275.15c-8.068,0-11.048-7.208-12.315-9.543
	c5.2,1.4,8.897,2.534,17.631,3.601c0,0-0.271,0.9-2.171,0.8c-0.732-0.038-0.825-0.217-1.096-0.267
	c-0.537-0.1-1.367,0.467-1.267,1.417c0.069,0.664,0.638,1.5,2.571,1.5s4.196-1.584,5.329-3.05c0,0,1.166,0.267,2.367,0.333
	C124.453,269.941,120.737,275.15,113.404,275.15"/>
<rect x="89.439" y="110.636" fill="#726F6D" width="97.42" height="6.643"/>
<path fill="#726F6D" d="M172.052,145.915l-0.043-12.793l1.4-2.199l-3.499-6.202l-3.501,6.202l1.399,2.199v6.701h-4.049v-6.701
	l1.399-2.199l-3.5-6.202l-3.501,6.202l1.4,2.199v6.701h-4.051v-6.701l1.4-2.199l-3.501-6.236l-3.5,6.201l1.4,2.234v12.802h7.9v4
	c0,0-2.799-0.199-4.899,0.699c-2.101,0.901-4.601,2.201-5.8,2.601c-1.201,0.4-1.785,0.3-1.985-0.3c-0.203-0.607-0.016-1,0.685-1.6
	c0.331-0.284,3.434-1.667,3.8-2.7c0.215-0.604-0.099-0.751-0.399-1c-0.709-0.591-5.302-4.101-5.302-4.101s0.701-2.301,0.701-3.7
	v-3.3c0-3,1.3-7.535,4.5-10.535h-5.3l-3.201-7.133l-4.1,7.133l-3.933-0.033l-3.8-7.233l-3.468,7.2h-5.4c0,0,2.601,3.935,3.934,6.001
	c1.334,2.067,4.065,7.489,4.534,10.068c0.133,0.734,0.133,1.934-0.934,2.8s-4.066,3.2-4.066,6.534c0,3.333,1.467,4.667,1.867,5.334
	s2.133,2.866,2.133,3.866c0,1.001-0.533,2.199-0.533,2.199s-2.067,4.401-2.733,5.468c-0.667,1.067-2.8,2.401-3.467-1.066
	c-0.667-3.467-1.134-12.935-1-13.935c0.134-0.999,0.333-2.267,0.867-3.2c0.534-0.934,2.734-4.732,3.667-7.134
	c0,0-6.21-0.658-8.601-15.001c-0.066-0.4-0.666-0.867-1.133,0.134c-0.467,1-0.8,1.133-1.067,1.533s-0.934,0.467-1.734,0.134
	c-0.8-0.334-1.6-0.867-2.467-1.067c-0.866-0.2-1.934-0.468-2.6,0.799c-0.667,1.268-1.934,4.134-2.601,5.468
	c-0.666,1.333-2,2-3.4,1.6c-1.4-0.4-2.867-1-3.533-1.267c-0.667-0.266-1.067,0-0.667,0.667c0.4,0.667,1.601,3.2,1.934,4.534
	c0.334,1.334,0.866,5.134,0.8,5.934c-0.067,0.8,0.467,0.8,1.133,0.068c0.667-0.735,3.267-3.335,5.734-4.535
	c2.467-1.2,6.133-1.534,7.067,0.067c0.934,1.6-1.576,4.159-3.659,5.199c-0.801,0.4-0.741,1.601,0.058,1.801
	c0.801,0.201,2.667,0.533,3.134,2.267c0.466,1.733,0.633,18.435,0.833,25.435c0.2,7.002,2.6,8.69,5.5,8.791c2.9,0.1,4.9,0,4.9,0
	s0.201,3.7-0.6,9.5c-0.8,5.801-0.8,8.102,1.101,10.601c1.899,2.502,3.3,4.601,3.4,6.102c0.1,1.499,0.1,2.5-0.2,4.2
	c-0.3,1.7-0.3,4.801,4.2,3.9c4.5-0.899,12-3.9,8.501-8.4c-3.5-4.501-5.2-8.102-4.7-9.302c0.499-1.2,3-1.899,4.3-3.199
	c1.301-1.301,1.4-2.7-0.101-4.601c-1.499-1.9-6.1-8.101-5-11.701c0,0,16.702,17.802,17.902,19.001c1.2,1.201,2.363,0.898,2.499-1
	c0.1-1.399-0.299-2.601-0.499-3.7c-0.201-1.101-0.301-3.1-0.301-5.101c0-2,0.701-5.2,0.899-6.7c0.201-1.5-0.198-4.2-2.599-4.4
	c-1.2-0.101-2.801,0.2-2.801-1.2c0-1.399,0.5-3.389,0.8-4.59c0.301-1.199,0.1-1.399-0.7-1.899c-0.8-0.501-2.199-0.3-2.899,0.5
	c-0.699,0.8-2.5,1.6-3.701,0.8c0,0,1.701-4.7,4.401-7.4c0,0,7.399,2.301,10.1,5.3v29.892c0,1.776,4.801,1.977,4.801-0.1v-30.492
	c0,0,2.096-2.612,2.301-4.3c0.2-1.65,0.3-2.399-0.2-4.2c0,0,1.5-1,1.5-3.301c0-2.299-1.7-6.127-3.5-7.828v-5.879L172.052,145.915z
	 M133.907,134.798c-0.85,0.45-1.954-0.128-2.175-1.626c-0.125-0.85-0.358-2.674,0.042-2.85c0.37-0.161,1.608,0.901,2.209,1.85
	C134.582,133.122,134.757,134.348,133.907,134.798 M137.033,147.862c-1.75-2.839-2.563-5.938-2.563-5.938h5.075
	C139.544,141.924,138.807,144.948,137.033,147.862 M141.807,133.172c-0.255,1.492-1.325,2.076-2.175,1.626s-0.674-1.676-0.074-2.626
	c0.6-0.949,1.914-2.011,2.283-1.85C142.241,130.498,141.958,132.297,141.807,133.172 M159.208,162.325c-5.7,0-8.101-3.201-8.101-4.3
	c0-0.7,1.601-1.5,4.302-1.5c2.699,0,3.799,1.699,3.799,1.699V162.325z"/>
<path fill="#726F6D" d="M89.439,80.752v26.468h15.044l-2.089-6.958l11.134,2.601l11.173-0.031v-2.913h-5.772v-12.8h5.3l1.8-3.5
	l1.8,3.5h5.3v12.8h-5.772v2.913h14.131v-2.913h-5.772v-12.8h5.301l1.801-3.5l1.799,3.5h5.302v12.8h-5.773v2.913h13.858v-2.913
	h-5.771v-12.8h5.3l1.8-3.5l1.799,3.5h5.302v12.8h-5.773v2.913h7.074v4.388h19.126V80.752H89.439z M117.71,90.279l-4.004,11.241
	l-7.467-1.835l11.472-12.238L117.71,90.279z"/>
<path fill="#726F6D" d="M195.33,221.257l-2.371,1.369l8.67,15.019l2.196-1.268c4.625-2.672,5.229-6.493,2.231-11.75
	C203.986,220.904,200.863,218.062,195.33,221.257"/>
<path fill="#726F6D" d="M246.201,182.95c-3.178-3.492-7.961-5.749-12.184-5.749c-7.24,0-10.272,3.48-12.486,6.022l-0.322,0.37
	c-23.277,26.51-55.12,42.978-83.101,42.978c-27.982,0-59.824-16.468-83.101-42.978l-0.323-0.37
	c-2.214-2.542-5.245-6.022-12.486-6.022c-4.223,0-9.005,2.257-12.184,5.749c-2.376,2.611-5.069,7.195-4.408,14.204
	c0.905,9.582,16.113,34.423,43.2,49.817c21.831,12.407,45.147,18.699,69.302,18.699c24.156,0,47.472-6.292,69.301-18.699
	c27.088-15.395,42.296-40.235,43.201-49.817C251.271,190.146,248.578,185.562,246.201,182.95 M72.945,241.098
	c-3.984-2.209-9.125-6.742-5.048-14.099l7.391-13.334l5.641,3.127l-7,12.63c-2.159,3.893-2.973,6.807,0.552,8.762
	c3.552,2.049,5.725-0.354,7.833-4.154l6.983-12.598l5.641,3.126l-7.425,13.395C83.468,245.248,77.236,243.478,72.945,241.098
	 M117.204,255.796l-4.881-1.308l-8.179-19.597l-4.352,16.239l-5.435-1.457l6.104-22.78l5.011,1.343l8.051,19.423l4.316-16.109
	l5.468,1.466L117.204,255.796z M135.371,257.979l-6.19-0.324l1.235-23.553l6.19,0.325L135.371,257.979z M158.191,255.79
	l-6.138,0.863l-2.848-20.253l-6.604,0.929l-0.434-3.103l19.248-2.706l0.437,3.104l-6.506,0.914L158.191,255.79z M174.073,252.353
	l-7.289-22.43l13.105-4.26l0.968,2.981l-7.178,2.331l2.01,6.185l6.986-2.27l0.979,3.013l-6.985,2.27l2.353,7.241l8.522-2.77
	l0.979,3.013L174.073,252.353z M205.765,238.925l-7.935,4.581L186,223.014l7.991-4.613c7.231-4.176,13.646-4.016,17.555,2.822
	C214.785,226.965,214.02,234.158,205.765,238.925"/>
<path fill="#726F6D" d="M25.153,131.965c-11.211,0-20.298,9.088-20.298,20.299c0,11.21,9.087,20.298,20.298,20.298
	c11.21,0,20.298-9.088,20.298-20.298C45.451,141.053,36.363,131.965,25.153,131.965 M35.899,136.771
	c0.346,0.276,1.219,0.995,1.219,0.995c1.746,1.559,3.319,3.39,4.231,5.573c1.152,2.753-2.398,6.884-3.439,7.854
	c-4.696,4.383-7.617,4.311-9.296,4.551c-1.679,0.239-2.737-0.799-2.7-2.055c0.109-3.699,2.728-10.002,3.467-11.163
	c0.485-0.762,1.318-1.248,1.318-1.248c1.733-0.486,3.413-1.233,4.285-2.216C35.856,138.077,35.899,136.771,35.899,136.771
	 M19.043,134.115c1.864-0.62,3.853-0.984,5.927-0.984c3.147,0,6.145,0.588,8.694,2.201c0.646,0.41,0.84,0.925,0.84,1.656
	c0,2.372-3.738,3.176-6.224,3.176c-2.486,0-5.538-0.99-7.698-1.664c-2.16-0.674-2.642-1.939-2.642-2.494
	C17.941,135.453,18.357,134.343,19.043,134.115 M11.078,163.137c-2.535-2.507-4.347-7.013-4.347-11.767
	c0-1.842,0.273-3.62,0.781-5.296c0,0,0.426-0.766,0.841-0.114c0.297,0.466,0.698,0.941,1.059,1.576
	c0.362,0.634,2.333,2.132,2.149,3.31c-0.693,4.455-0.067,10.4,0.141,11.372C11.91,163.188,11.604,163.656,11.078,163.137
	 M11.561,147.864c-0.898-0.497-1.97-2.783-2.317-3.465c-0.249-0.487-0.233-1.852,0.106-2.452c1.483-2.625,3.598-5.014,6.334-6.28
	c0.314-0.146,0.8-0.158,0.8,0.618c0,0.434,0.213,1.114,0.221,1.532c0.009,0.417,0.194,1.311-0.36,2.003
	c-0.555,0.693-3.008,4.993-3.606,7.419C12.605,147.792,12.46,148.361,11.561,147.864 M25.359,169.604
	c-0.129-0.005-0.259,0.004-0.389,0.004c-3.358,0-7.029-1.272-9.207-2.49c-2.251-1.26-3.093-7.017-3.093-9.962
	c0-9.499,3.916-15.209,4.54-16.318c0.624-1.11,2.011-1.249,3.051-0.972c1.041,0.277,1.442,0.487,2.635,0.85
	c0.647,0.197,1.94,0.467,2.911,0.676c0.971,0.208,2.011,0.416,1.387,2.219c-0.623,1.802-2.715,6.165-2.945,11.327
	c-0.208,4.662,0.416,9.307,1.473,12.153C26.411,168.939,26.399,169.642,25.359,169.604 M30.142,168.865
	c-1.043,0.338-1.522-0.406-2.008-0.962c-1.872-2.14-2.357-7.893-2.357-8.656c0-0.763,0.277-1.595,0.809-1.608
	c4.552-0.113,7.789-1.442,10.755-3.883s4.253-5.198,4.522-5.735c0.27-0.537,0.855-0.442,0.996,0.336
	c0.114,0.635,0.352,1.788,0.352,3.014C43.209,159.646,37.635,166.439,30.142,168.865"/>
<path fill="#726F6D" d="M251.573,131.924c-11.211,0-20.299,9.088-20.299,20.298c0,11.211,9.088,20.299,20.299,20.299
	c11.21,0,20.298-9.088,20.298-20.299C271.871,141.013,262.783,131.924,251.573,131.924 M243.061,135.292
	c2.548-1.613,5.545-2.202,8.692-2.202c2.075,0,4.063,0.364,5.928,0.984c0.688,0.228,1.104,1.337,1.104,1.892
	c0,0.555-0.482,1.82-2.643,2.493c-2.16,0.674-5.212,1.664-7.699,1.664c-2.485,0-6.222-0.805-6.222-3.176
	C242.221,136.217,242.415,135.701,243.061,135.292 M235.375,143.298c0.911-2.182,2.485-4.014,4.229-5.573
	c0,0,0.874-0.718,1.219-0.995c0,0,0.045,1.306,0.917,2.29c0.871,0.983,2.552,1.73,4.284,2.216c0,0,0.832,0.486,1.318,1.249
	c0.738,1.161,3.357,7.465,3.467,11.164c0.037,1.255-1.021,2.293-2.699,2.054c-1.68-0.239-4.601-0.168-9.297-4.551
	C237.774,150.182,234.224,146.05,235.375,143.298 M246.582,168.824c-7.491-2.426-13.066-9.218-13.066-17.495
	c0-1.225,0.238-2.377,0.352-3.013c0.14-0.778,0.725-0.873,0.995-0.335c0.271,0.536,1.556,3.294,4.522,5.735
	c2.967,2.44,6.204,3.767,10.756,3.883c0.531,0.013,0.809,0.845,0.809,1.607c0,0.762-0.485,6.516-2.357,8.656
	C248.106,168.418,247.625,169.162,246.582,168.824 M260.961,167.078c-2.177,1.219-5.849,2.491-9.208,2.491
	c-0.129,0-0.259-0.01-0.389-0.005c-1.039,0.037-1.051-0.664-0.364-2.513c1.058-2.846,1.681-7.491,1.475-12.155
	c-0.23-5.16-2.322-9.522-2.946-11.325c-0.623-1.803,0.416-2.012,1.387-2.219c0.971-0.208,2.266-0.479,2.913-0.677
	c1.192-0.362,1.594-0.572,2.634-0.848c1.041-0.278,2.428-0.139,3.052,0.97c0.623,1.11,4.54,6.82,4.54,16.319
	C264.054,160.062,263.212,165.818,260.961,167.078 M263.984,147.2c-0.597-2.428-3.052-6.726-3.605-7.419
	c-0.555-0.694-0.369-1.585-0.36-2.003c0.009-0.417,0.222-1.101,0.222-1.533c0-0.775,0.486-0.763,0.8-0.617
	c2.737,1.266,4.853,3.654,6.335,6.279c0.339,0.601,0.354,1.965,0.106,2.453c-0.348,0.682-1.42,2.968-2.318,3.465
	C264.265,148.321,264.12,147.752,263.984,147.2 M265.646,163.096c-0.525,0.521-0.831,0.052-0.624-0.918
	c0.209-0.971,0.834-6.916,0.141-11.372c-0.184-1.178,1.788-2.676,2.149-3.311s0.764-1.109,1.059-1.574
	c0.415-0.653,0.843,0.113,0.843,0.113c0.507,1.677,0.781,3.454,0.781,5.295C269.995,156.085,268.182,160.589,265.646,163.096"/>
<path fill="#726F6D" d="M36.594,54.09c-2.683-4.079-6.201-2.47-7.22-2.016c-0.652,0.289-1.848,1.158-2.578,2.328
	c0,0-7.323,8.093-15.423,16.055c-1.126,1.106-2.396,3.2-2.5,5.105c-0.093,1.716,0.579,3.423,1.586,4.497
	c2.204,2.35,6.062,2.224,8.035,0.733l0.133,6.467c2.034-1.633,9.367-8.668,11.968-11.966l7.634-10.369
	C38.667,63.024,39.028,57.792,36.594,54.09 M18.314,78.418c-1.267,1.186-4.421,2.174-6.202,0.174
	c-0.685-0.77-1.123-1.868-1.052-3.144c0.08-1.468,0.983-3.18,1.853-3.926c1.521-1.304,8.08-7.931,12.781-13.13
	c0.104,0.946,0.934,2.533,0.934,2.533c0.628,0.889,1.419,2.168,3.563,3.218C28.992,66.208,25.943,71.27,18.314,78.418
	 M36.295,65.792c0,0-4.134,7.201-15.936,18.935l-0.029-5.225c8.869-8.14,13.057-16.311,13.057-16.311s-3.265-1.234-4.7-3.101
	c-0.734-1.028-1.033-2.433-0.885-3.383c0.274-1.765,1.655-2.661,2.115-2.866c1.026-0.456,2.934-1.439,5.026,1.467
	C37.212,58.459,36.618,64.392,36.295,65.792"/>
<path fill="#726F6D" d="M267.735,75.562c-0.104-1.905-0.956-3.904-2.396-5.309c-8.136-7.929-15.322-15.852-15.322-15.852
	c-0.73-1.17-1.925-2.04-2.577-2.328c-1.021-0.454-4.539-2.062-7.221,2.016c-2.435,3.701-2.072,8.934-1.635,10.834l7.635,10.369
	c2.601,3.298,9.934,10.333,11.968,11.966l0.133-6.467c1.973,1.491,5.729,1.548,7.933-0.802
	C267.259,78.917,267.829,77.279,267.735,75.562 M256.445,85.06c-12.14-11.707-16.062-19.228-16.062-19.228
	c-0.324-1.399-0.782-7.373,1.486-10.523c2.093-2.907,4.001-1.923,5.026-1.467c0.46,0.205,1.841,1.101,2.115,2.866
	c0.147,0.95-0.151,2.355-0.886,3.383c-1.436,1.866-4.7,3.101-4.7,3.101s4.183,8.199,13.051,16.337L256.445,85.06z M264.699,78.592
	c-1.631,1.741-4.923,1.273-6.2,0.099c-7.787-7.165-10.922-12.498-12.12-14.566c2.143-1.049,3.568-2.645,3.568-2.645
	c0.857-1.202,0.815-2.161,0.919-3.107c4.714,5.153,11.512,12.016,13.033,13.32c0.87,0.746,1.705,2.288,1.785,3.755
	C265.753,76.724,265.404,77.841,264.699,78.592"/>
<path fill="#726F6D" d="M107.841,3.385c-4.093,0-12.409,2.774-14.277,17.442l1.995-0.797c6.783-2.275,13.152-4.264,20.471-5.606
	c-7.215,1.293-13.506,3.209-20.169,5.444c0.7-4.045,1.898-7.298,3.533-9.679c-0.131,2.09,1.576,4.318,4.973,4.318
	c3.398,0,5.289-1.96,5.289-3.135c0-1.177-0.714-2.875-2.544-2.875c-1.829,0-2.221,1.306-2.09,1.829
	c0.13,0.523-0.262,0.653-0.785,0.785c-0.522,0.13-1.96-0.654-1.438-2.483c0.575-2.011,3.006-3.105,5.878-3.105
	c5.452,0,11.45,3.915,16.765,7.618c0.088-0.009,0.172-0.019,0.26-0.026l1.797-1.015C120.901,6.913,114.358,3.385,107.841,3.385"/>
<path fill="#726F6D" d="M168.4,3.385c-6.516,0-13.061,3.528-19.657,8.713l1.797,1.015c0.117,0.01,0.229,0.024,0.345,0.034
	c5.296-3.684,11.257-7.558,16.681-7.558c2.872,0,5.304,1.095,5.877,3.104c0.523,1.83-0.914,2.613-1.438,2.483
	c-0.522-0.13-0.913-0.262-0.783-0.784c0.131-0.523-0.263-1.83-2.091-1.83c-1.829,0-2.544,1.699-2.544,2.874
	c0,1.177,1.89,3.137,5.289,3.137c3.396,0,5.104-2.227,4.974-4.318c1.633,2.38,2.831,5.63,3.529,9.672
	c0.103,0.034,0.202,0.067,0.305,0.101l1.992,0.797C180.81,6.159,172.493,3.385,168.4,3.385"/>
<path fill="#726F6D" d="M148.41,11.129C145.603,4.867,142.025,0,138.967,0c-2.445,0-6.865,3.367-11.689,12.615l3.174-0.428
	c2.35-0.2,6.25-0.2,8.051-0.2s6.401,0.05,8.061,0.35l2.439,0.202L148.41,11.129z M138.499,11.445c-1.764,0-6.175,0.097-8.085,0.196
	c0.333-0.552,0.606-0.922,0.916-1.416c0,0,0.64,0.335,2.731,0.335c2.091,0,4.182-1.732,4.443-3.529
	c0.111-0.768-0.458-2.32-1.961-2.091c-1.185,0.18-0.894-0.767-0.894-0.767c1.865-2.15,2.857-1.915,3.306-1.915
	c2.271,0,5.522,5.511,7.247,9.499C145.132,11.679,140.262,11.445,138.499,11.445"/>
<path fill="#726F6D" d="M236.542,87.087l-5.959,5.365l1.06,1.177c1.803,2.003,4.17,2.366,6.048,0.675
	c1.879-1.691,1.873-3.862,0.227-5.69L236.542,87.087z"/>
<path fill="#726F6D" d="M261.494,95.113c-4.94-3.408-13.209-9.11-27.061-28.754c-8.275-11.736-39.68-50.03-96.326-50.03
	c-56.646,0-88.051,38.294-96.327,50.03C28.025,85.866,19.393,91.825,14.755,95.026l-0.18,0.124l0.006,0.219
	c0.202,5.862,1.945,25.264,15.93,28.807c9.711,2.46,19.822-3.53,30.908-18.312c0.405-0.539,0.978-1.355,1.642-2.302
	c8.198-11.683,33.138-47.231,75.046-47.231c41.909,0,66.849,35.548,75.045,47.229c0.666,0.949,1.239,1.765,1.643,2.304
	c11.087,14.781,21.197,20.771,30.908,18.312c14.043-3.558,15.77-22.883,15.964-28.722l0.007-0.218L261.494,95.113z M62.025,92.616
	L49.197,81.853l8.149,16.338l-1.797,2.142l-17.107-5.557l12.754,10.746l-2.729,3.252L30.4,93.613l3.769-4.491l17.603,5.754
	L43.568,77.92l4.375-5.214l18.066,15.161L62.025,92.616z M79.856,73.084l-6.17-2.622l-5.469,5.864l3.068,5.948l-2.757,2.957
	L57.231,62.765l4.021-4.312l23.154,9.751L79.856,73.084z M101.852,56.784L81.941,49.4l8.909,14.258l-4.771,2.982L73.581,46.639
	l4.4-2.749l19.695,7.359l-8.837-14.144l4.8-3l12.498,20.001L101.852,56.784z M120.628,50.923
	c-11.717,2.492-15.433-5.172-16.384-9.319c-1.667-7.681,3.39-13.349,11.112-14.991c3.461-0.735,5.69-0.234,7.554,0.517l-0.717,3.005
	l-0.034,0.006c-1.066-0.433-2.75-1.154-5.479-0.574c-3.895,0.828-7.31,4.893-6.065,10.751c0.842,3.961,4.221,8.566,9.88,7.363
	c2.696-0.573,3.915-1.876,4.698-2.773l2.16,2.463C125.644,48.987,123.871,50.304,120.628,50.923 M151.863,49.18l-6.198-0.108
	l0.188-10.779l-9.263-0.162l-0.188,10.78l-6.198-0.108l0.412-23.582l6.198,0.109l-0.168,9.634l9.265,0.162l0.167-9.634l6.2,0.108
	L151.863,49.18z M171.954,51.605l-1.03,2.993l-14.367-4.947l7.677-22.299l13.031,4.486l-1.021,2.963l-7.136-2.458l-2.117,6.148
	l6.945,2.392l-1.031,2.995l-6.944-2.392l-2.479,7.199L171.954,51.605z M189.171,47.436c0.445,0.986,1.09,1.771,1.617,2.886
	c1.956,3.849,1.943,5.996,0.299,8.598c-2.235,3.723-7.04,4.147-11.437,1.505c-3.547-2.13-5.164-4.618-5.854-6.987l3.126-1.354
	c0.511,1.742,1.077,3.52,3.505,5.058c1.887,1.174,3.853,0.759,4.979-1.117c0.917-1.525-0.401-3.913-1.527-5.826
	c-0.48-0.927-1.307-2.34-1.307-2.34c-1.282-2.447-1.773-4.816-0.048-7.689c1.708-2.843,5.82-3.644,10.863-0.615
	c2.931,1.761,4.225,3.856,5.103,6.178l-2.856,1.236c-0.362-1.255-1.111-3.062-2.93-4.154c-1.729-1.04-3.624-0.941-4.435,0.407
	C187.513,44.485,188.316,45.805,189.171,47.436 M192.972,69.164l13.684-15.198l-4.958-4.463l2.122-2.307l14.423,12.986l-2.097,2.329
	l-4.884-4.397l-13.684,15.198L192.972,69.164z M216.352,89.476l-2.426,2.035l-9.769-11.64l18.067-15.16l8.858,10.557l-2.4,2.015
	l-4.853-5.782l-4.979,4.18l4.721,5.626l-2.426,2.036l-4.722-5.626l-5.833,4.894L216.352,89.476z M242.411,98.488
	c-3.982,3.584-7.586,1.798-7.631,1.748l-3.592,10.713l-5.265-4.236l4.434-9.93l-2.053-2.278l-6.96,6.267l-4.148-4.607l17.528-15.78
	l6.424,7.135C244.62,91.375,245.741,95.489,242.411,98.488"/>
<polygon fill="#726F6D" points="70.784,69.158 62.501,65.441 66.693,73.544 "/>
<path fill="#726F6D" d="M217.774,265.006v4.253h-1.303v-9.419h3.364c1.579,0,3.21,0.496,3.21,2.361c0,1.134-0.679,2.009-1.775,2.27
	v0.025c1.136,0.274,1.292,0.875,1.436,1.932c0.144,0.938,0.247,1.943,0.587,2.831h-1.396c-0.115-0.562-0.273-1.175-0.338-1.735
	c-0.105-0.848-0.105-1.617-0.535-2.088c-0.378-0.43-0.899-0.391-1.421-0.43H217.774z M217.749,263.883h2.152
	c1.448-0.064,1.774-0.716,1.774-1.46c0-0.743-0.326-1.396-1.774-1.462h-2.152V263.883z"/>
<path fill="#726F6D" d="M212.466,264.67c0,4.007,3.261,7.268,7.268,7.268c4.008,0,7.267-3.261,7.267-7.268
	c0-4.008-3.259-7.268-7.267-7.268C215.727,257.402,212.466,260.662,212.466,264.67 M213.445,264.67c0-3.468,2.821-6.289,6.289-6.289
	c3.467,0,6.288,2.821,6.288,6.289s-2.821,6.288-6.288,6.288C216.266,270.958,213.445,268.138,213.445,264.67"/>
</svg>
