<?xml version="1.0" encoding="utf-8"?>
<!-- Generator: Adobe Illustrator 15.1.0, SVG Export Plug-In . SVG Version: 6.00 Build 0)  -->
<!DOCTYPE svg PUBLIC "-//W3C//DTD SVG 1.1//EN" "http://www.w3.org/Graphics/SVG/1.1/DTD/svg11.dtd">
<svg version="1.1" id="Layer_1" xmlns="http://www.w3.org/2000/svg" xmlns:xlink="http://www.w3.org/1999/xlink" x="0px" y="0px"
	 width="106.081px" height="107.464px" viewBox="0 0 106.081 107.464" enable-background="new 0 0 106.081 107.464"
	 xml:space="preserve">
<g>
	<path fill="#FFFFFE" d="M0,58.371c0,5.314,4.325,9.641,9.642,9.641c5.317,0,9.643-4.326,9.643-9.641
		c0-5.318-4.325-9.645-9.643-9.645C4.325,48.727,0,53.053,0,58.371 M0.767,58.371c0-4.895,3.981-8.877,8.875-8.877
		c4.895,0,8.876,3.982,8.876,8.877c0,4.893-3.981,8.873-8.876,8.873C4.748,67.244,0.767,63.264,0.767,58.371"/>
	<path fill="#FFFFFE" d="M86.797,58.354c0,5.315,4.325,9.642,9.642,9.642s9.643-4.326,9.643-9.642c0-5.316-4.326-9.642-9.643-9.642
		S86.797,53.038,86.797,58.354 M87.563,58.354c0-4.894,3.981-8.876,8.875-8.876s8.876,3.982,8.876,8.876s-3.982,8.874-8.876,8.874
		S87.563,63.248,87.563,58.354"/>
	<path fill="#FFFFFE" d="M83.519,69.016l-0.117,0.137c-7.766,8.844-18.017,14.714-27.419,15.705l0.079,0.763
		c9.591-1.009,20.026-6.978,27.916-15.962l0.12-0.139c0.874-1.003,2.338-2.684,5.612-2.684c1.94,0,4.041,0.98,5.479,2.562
		c1.059,1.163,2.261,3.197,1.971,6.283c-0.418,4.414-6.75,14.058-17.109,19.944c-8.536,4.852-17.655,7.312-27.107,7.312
		c-9.451,0-18.572-2.461-27.106-7.312C15.477,89.739,9.144,80.096,8.727,75.682c-0.291-3.086,0.912-5.12,1.97-6.283
		c1.438-1.582,3.538-2.562,5.479-2.562c3.274,0,4.738,1.681,5.612,2.684l0.119,0.139c7.876,8.969,18.294,14.936,27.866,15.962
		l0.082-0.763c-9.387-1.006-19.62-6.876-27.372-15.705l-0.118-0.137c-0.896-1.029-2.567-2.945-6.189-2.945
		c-2.151,0-4.468,1.076-6.046,2.811c-1.164,1.279-2.484,3.51-2.167,6.873c0.433,4.576,6.91,14.524,17.494,20.54
		c8.652,4.916,17.899,7.41,27.485,7.41s18.834-2.494,27.485-7.41c10.585-6.016,17.062-15.964,17.493-20.54
		c0.317-3.363-1.002-5.594-2.166-6.873c-1.578-1.734-3.896-2.811-6.045-2.811C86.086,66.07,84.416,67.986,83.519,69.016"/>
	<path fill="#FFFFFE" d="M70.205,29.055H35.389l-0.099,0.07c-0.891,0.623-2.544,2.11-2.873,2.469l-0.101,0.11v42.689l20.626,13.258
		l20.626-13.258V31.656l-0.127-0.113c-0.729-0.654-2.343-1.902-3.003-2.408l-0.103-0.08H70.205z M70.074,29.822
		c0.572,0.439,1.992,1.539,2.728,2.179v41.974c-0.344,0.22-19.456,12.507-19.859,12.766c-0.402-0.259-19.517-12.546-19.858-12.766
		V32.011c0.424-0.419,1.735-1.599,2.549-2.188H70.074z"/>
	<path fill="#FFFFFE" d="M28.364,11.369c-7.289,4.534-11.817,10.089-13.868,12.998C9.41,31.58,6.334,33.701,4.494,34.971l-0.8,0.56
		l-0.003,0.188c-0.003,0.117-0.094,2.934,0.769,6.037c1.159,4.174,3.503,6.82,6.778,7.65c4.532,1.147,9.044-1.373,13.794-7.707
		l0.664-0.93c3.005-4.283,12.148-17.314,27.246-17.314S77.185,36.486,80.188,40.77l0.665,0.93c4.75,6.334,9.263,8.854,13.793,7.707
		c3.276-0.83,5.62-3.477,6.78-7.65c0.862-3.104,0.771-5.92,0.768-6.037l-0.007-0.191l-0.796-0.557
		c-1.839-1.27-4.915-3.391-10.002-10.604c-2.05-2.909-6.579-8.464-13.867-12.998C70.085,6.745,61.816,4.4,52.942,4.4
		S35.799,6.745,28.364,11.369 M4.93,35.602c1.88-1.299,5.028-3.467,10.193-10.793c2.017-2.861,6.472-8.325,13.646-12.789
		c7.312-4.547,15.445-6.854,24.174-6.854c8.729,0,16.862,2.306,24.174,6.854c7.174,4.463,11.629,9.928,13.646,12.789
		c5.165,7.324,8.312,9.494,10.194,10.793c0,0,0.298,0.207,0.475,0.332c0,0.023,0,0.047,0,0.076c0,0.77-0.063,3.102-0.748,5.561
		c-1.099,3.938-3.192,6.324-6.226,7.092c-4.198,1.064-8.446-1.364-12.991-7.424l-0.649-0.91c-3.061-4.363-12.377-17.64-27.874-17.64
		s-24.812,13.276-27.873,17.64l-0.649,0.91c-4.545,6.06-8.794,8.488-12.992,7.424c-3.032-0.768-5.126-3.154-6.225-7.092
		c-0.685-2.459-0.748-4.791-0.748-5.561c0-0.029,0-0.053,0-0.076C4.632,35.809,4.93,35.602,4.93,35.602"/>
	<path fill="#FFFFFE" d="M52.979,103.104c-1.782,0-5.022-0.27-5.022-0.27l0.107,0.391c0.063,0.166,1.375,4.238,5.134,4.238
		c3.308,0,4.68-3.09,5.101-4.354l0.01-0.275C57.81,102.933,54.762,103.104,52.979,103.104 M53.237,106.696
		c-3.058,0-4.303-3.469-4.303-3.469s2.573,0.16,4.047,0.16c1.475,0,2.454-0.043,2.895-0.059c-0.508,0.736-0.893,0.736-1.505,0.736
		c-0.308,0-0.77,0.254-0.756,0.715c0.011,0.361,0.307,0.664,0.807,0.664c1.111,0,1.956-1.549,2.195-2.207
		c0,0,0.655-0.025,0.849-0.045C57.466,103.192,56.289,106.696,53.237,106.696"/>
	<path fill="#FFFFFE" d="M68.165,101.104c-5.523,1.635-10.962,1.814-10.962,1.814l0.542,0.332c0.664,1.227,2.225,3.049,5.369,3.049
		c3.251,0,4.905-2.691,5.826-5.094L68.165,101.104z M63.035,105.478c-2.811,0-4.235-1.998-4.235-1.998
		c0.461-0.023,0.907-0.127,0.907-0.127c0.435,0.562,1.302,1.17,2.044,1.17c0.741,0,0.958-0.32,0.985-0.574
		c0.037-0.365-0.28-0.58-0.486-0.545c-0.104,0.02-0.139,0.088-0.42,0.104c-0.729,0.039-0.833-0.309-0.833-0.309
		c3.35-0.406,4.767-0.842,6.759-1.379C67.271,102.716,66.129,105.478,63.035,105.478"/>
	<path fill="#FFFFFE" d="M38.345,101.104l-0.777,0.102c0.921,2.402,2.575,5.094,5.827,5.094c3.146,0,4.843-1.924,5.54-3.049
		l0.371-0.332C49.306,102.919,43.867,102.739,38.345,101.104 M43.473,105.478c-3.092,0-4.234-2.762-4.721-3.658
		c1.994,0.537,3.411,0.973,6.759,1.379c0,0-0.104,0.348-0.833,0.309c-0.28-0.016-0.316-0.084-0.42-0.104
		c-0.206-0.035-0.523,0.18-0.485,0.545c0.026,0.254,0.244,0.574,0.986,0.574c0.74,0,1.607-0.607,2.042-1.17
		c0,0,0.448,0.104,0.907,0.127C47.708,103.479,46.283,105.478,43.473,105.478"/>
	<rect x="34.285" y="42.412" fill="#FFFFFE" width="37.346" height="2.547"/>
	<path fill="#FFFFFE" d="M65.955,55.936l-0.017-4.903l0.537-0.844l-1.342-2.377l-1.342,2.377l0.537,0.844v2.568h-1.553v-2.568
		l0.537-0.844l-1.342-2.377l-1.343,2.377l0.537,0.844v2.568h-1.553v-2.568l0.536-0.844l-1.341-2.39l-1.342,2.377l0.536,0.856v4.907
		h3.028v1.533c0,0-1.072-0.076-1.878,0.268c-0.805,0.346-1.764,0.844-2.224,0.998c-0.46,0.153-0.685,0.114-0.762-0.115
		c-0.077-0.232-0.006-0.383,0.263-0.613c0.128-0.109,1.317-0.639,1.457-1.035c0.082-0.231-0.039-0.287-0.153-0.385
		c-0.271-0.225-2.031-1.57-2.031-1.57s0.269-0.882,0.269-1.419v-1.265c0-1.15,0.498-2.889,1.725-4.039h-2.031l-1.229-2.734
		l-1.57,2.734l-1.508-0.013l-1.457-2.772l-1.329,2.76h-2.07c0,0,0.997,1.508,1.508,2.301c0.511,0.792,1.559,2.869,1.738,3.858
		c0.051,0.282,0.051,0.743-0.358,1.073c-0.408,0.334-1.559,1.227-1.559,2.506c0,1.277,0.562,1.789,0.716,2.044
		c0.153,0.257,0.817,1.099,0.817,1.482s-0.205,0.843-0.205,0.843s-0.792,1.688-1.047,2.097c-0.256,0.409-1.073,0.921-1.33-0.409
		c-0.255-1.328-0.434-4.957-0.382-5.342c0.05-0.383,0.127-0.868,0.331-1.227c0.205-0.358,1.049-1.814,1.406-2.734
		c0,0-2.381-0.254-3.298-5.751c-0.025-0.153-0.255-0.332-0.433,0.052c-0.18,0.383-0.308,0.435-0.409,0.587
		c-0.103,0.153-0.359,0.18-0.666,0.052c-0.306-0.129-0.612-0.332-0.945-0.41c-0.331-0.076-0.741-0.178-0.996,0.307
		c-0.256,0.486-0.741,1.586-0.998,2.098c-0.255,0.51-0.767,0.766-1.303,0.611c-0.537-0.152-1.099-0.382-1.354-0.484
		s-0.409,0-0.256,0.256c0.154,0.256,0.613,1.227,0.741,1.738c0.129,0.512,0.332,1.968,0.307,2.273
		c-0.025,0.309,0.18,0.309,0.435,0.026c0.255-0.28,1.253-1.277,2.197-1.739c0.946-0.459,2.353-0.586,2.711,0.027
		C44.228,55.02,43.266,56,42.467,56.4c-0.308,0.152-0.284,0.612,0.022,0.689c0.308,0.076,1.022,0.203,1.201,0.867
		c0.18,0.666,0.243,7.068,0.319,9.752c0.077,2.684,0.996,3.331,2.108,3.37c1.112,0.038,1.879,0,1.879,0s0.077,1.417-0.229,3.642
		c-0.308,2.223-0.308,3.104,0.421,4.062c0.729,0.96,1.266,1.764,1.305,2.34c0.037,0.574,0.037,0.958-0.077,1.609
		c-0.115,0.652-0.115,1.842,1.61,1.495c1.725-0.345,4.6-1.495,3.258-3.22s-1.993-3.105-1.802-3.564
		c0.191-0.462,1.15-0.729,1.648-1.227c0.499-0.5,0.537-1.037-0.038-1.765s-2.338-3.106-1.917-4.485c0,0,6.402,6.824,6.862,7.283
		c0.46,0.461,0.907,0.344,0.958-0.382c0.039-0.538-0.114-0.997-0.191-1.419s-0.114-1.189-0.114-1.955
		c0-0.768,0.269-1.994,0.345-2.568c0.077-0.576-0.076-1.611-0.997-1.688c-0.46-0.038-1.073,0.076-1.073-0.461
		c0-0.535,0.192-1.299,0.307-1.759c0.115-0.46,0.038-0.536-0.269-0.729c-0.307-0.191-0.844-0.114-1.111,0.193
		c-0.269,0.305-0.959,0.613-1.418,0.305c0,0,0.651-1.8,1.686-2.835c0,0,2.837,0.882,3.872,2.031v11.46c0,0.68,1.84,0.756,1.84-0.039
		V65.715c0,0,0.805-1.001,0.883-1.648c0.077-0.633,0.115-0.92-0.077-1.609c0,0,0.575-0.384,0.575-1.266c0-0.881-0.651-2.35-1.342-3
		v-2.254L65.955,55.936z M51.332,51.674c-0.325,0.172-0.749-0.049-0.833-0.622c-0.048-0.327-0.139-1.025,0.016-1.094
		c0.142-0.062,0.616,0.345,0.846,0.709C51.591,51.032,51.658,51.502,51.332,51.674 M52.531,56.682
		c-0.672-1.088-0.982-2.275-0.982-2.275h1.944C53.493,54.406,53.211,55.564,52.531,56.682 M54.361,51.052
		c-0.099,0.571-0.508,0.794-0.834,0.622s-0.259-0.642-0.029-1.007c0.23-0.364,0.735-0.771,0.875-0.709
		C54.527,50.026,54.419,50.716,54.361,51.052 M61.031,62.227c-2.185,0-3.105-1.227-3.105-1.648c0-0.268,0.614-0.576,1.649-0.576
		s1.456,0.652,1.456,0.652V62.227z"/>
	<path fill="#FFFFFE" d="M34.285,30.956v10.146h5.769l-0.801-2.667l4.268,0.997l4.282-0.012v-1.115h-2.212v-4.908h2.031l0.69-1.342
		l0.689,1.342h2.032v4.908h-2.213v1.115h5.418v-1.115h-2.214v-4.908h2.032l0.69-1.342l0.69,1.342h2.032v4.908h-2.215v1.115h5.314
		v-1.115h-2.213v-4.908h2.031l0.69-1.342l0.688,1.342h2.033v4.908h-2.214v1.115H64.3v1.682h7.331V30.956H34.285z M45.123,34.608
		l-1.535,4.31l-2.861-0.704l4.396-4.692V34.608z"/>
	<path fill="#FFFFFE" d="M74.878,84.818l-0.909,0.525l3.324,5.757l0.843-0.486c1.772-1.025,2.004-2.49,0.855-4.504
		C78.197,84.682,76.999,83.593,74.878,84.818"/>
	<path fill="#FFFFFE" d="M94.379,70.135c-1.218-1.34-3.051-2.205-4.669-2.205c-2.777,0-3.938,1.334-4.788,2.309l-0.123,0.143
		C75.876,80.543,63.67,86.854,52.942,86.854c-10.727,0-22.934-6.312-31.855-16.474l-0.124-0.143
		c-0.849-0.975-2.011-2.309-4.787-2.309c-1.619,0-3.452,0.865-4.671,2.205c-0.911,0.999-1.942,2.756-1.689,5.444
		c0.348,3.673,6.177,13.195,16.562,19.096c8.367,4.756,17.306,7.17,26.565,7.17s18.197-2.414,26.567-7.17
		c10.383-5.9,16.214-15.423,16.561-19.096C96.323,72.891,95.29,71.134,94.379,70.135 M27.964,92.425
		c-1.528-0.848-3.499-2.586-1.937-5.406l2.834-5.11l2.162,1.198l-2.684,4.842c-0.828,1.492-1.139,2.607,0.212,3.357
		c1.361,0.787,2.194-0.135,3.002-1.592l2.678-4.829l2.162,1.198l-2.846,5.135C31.996,94.013,29.608,93.335,27.964,92.425
		 M44.93,98.06l-1.872-0.504l-3.135-7.51l-1.668,6.225l-2.084-0.561l2.341-8.73l1.921,0.516l3.087,7.443l1.654-6.174l2.096,0.561
		L44.93,98.06z M51.894,98.894l-2.373-0.121l0.474-9.031l2.374,0.127L51.894,98.894z M60.643,98.058l-2.354,0.328l-1.092-7.764
		l-2.532,0.357l-0.167-1.189l7.38-1.037l0.167,1.188l-2.494,0.352L60.643,98.058z M66.729,96.739l-2.795-8.6l5.025-1.631
		l0.371,1.143l-2.752,0.893l0.771,2.371l2.679-0.871l0.374,1.154l-2.678,0.871l0.901,2.775l3.269-1.061l0.375,1.154L66.729,96.739z
		 M78.879,91.591l-3.041,1.756l-4.535-7.854l3.063-1.77c2.771-1.6,5.23-1.539,6.729,1.081
		C82.336,87.007,82.043,89.763,78.879,91.591"/>
	<path fill="#FFFFFE" d="M9.642,50.588c-4.297,0-7.781,3.484-7.781,7.783c0,4.295,3.484,7.779,7.781,7.779
		c4.298,0,7.781-3.484,7.781-7.779C17.423,54.072,13.939,50.588,9.642,50.588 M13.762,52.43c0.132,0.106,0.467,0.383,0.467,0.383
		c0.67,0.597,1.273,1.299,1.622,2.136c0.442,1.056-0.919,2.638-1.318,3.011c-1.801,1.68-2.92,1.652-3.563,1.744
		s-1.049-0.307-1.035-0.787c0.042-1.418,1.046-3.834,1.329-4.279c0.186-0.293,0.506-0.479,0.506-0.479
		c0.664-0.186,1.309-0.472,1.642-0.849C13.745,52.932,13.762,52.43,13.762,52.43 M7.301,51.413c0.714-0.238,1.477-0.378,2.271-0.378
		c1.206,0,2.355,0.225,3.333,0.844c0.248,0.156,0.321,0.354,0.321,0.635c0,0.91-1.433,1.218-2.386,1.218s-2.123-0.38-2.951-0.638
		c-0.827-0.258-1.013-0.743-1.013-0.955C6.877,51.926,7.037,51.5,7.301,51.413 M4.246,62.538c-0.972-0.96-1.665-2.688-1.665-4.511
		c0-0.707,0.104-1.389,0.299-2.03c0,0,0.162-0.294,0.322-0.044c0.113,0.178,0.268,0.36,0.405,0.604
		c0.14,0.243,0.895,0.816,0.824,1.269c-0.265,1.707-0.025,3.986,0.054,4.359C4.565,62.558,4.447,62.737,4.246,62.538 M4.432,56.684
		c-0.345-0.191-0.755-1.067-0.888-1.328c-0.095-0.188-0.09-0.71,0.04-0.94c0.568-1.006,1.379-1.921,2.429-2.407
		c0.121-0.057,0.307-0.062,0.307,0.236c0,0.166,0.081,0.428,0.085,0.588c0.003,0.16,0.074,0.502-0.138,0.768
		c-0.213,0.266-1.154,1.914-1.384,2.844C4.832,56.655,4.775,56.873,4.432,56.684 M9.722,65.018c-0.049-0.002-0.1,0.002-0.149,0.002
		c-1.288,0-2.695-0.488-3.529-0.955c-0.863-0.484-1.187-2.689-1.187-3.82c0-3.641,1.502-5.829,1.741-6.256
		c0.239-0.424,0.771-0.479,1.17-0.371c0.398,0.105,0.552,0.186,1.01,0.325c0.248,0.075,0.744,0.18,1.116,0.259
		c0.372,0.08,0.771,0.16,0.532,0.852c-0.239,0.69-1.041,2.363-1.129,4.342c-0.081,1.787,0.158,3.568,0.564,4.66
		C10.124,64.763,10.119,65.031,9.722,65.018 M11.555,64.733c-0.4,0.13-0.585-0.155-0.771-0.368
		c-0.718-0.821-0.903-3.025-0.903-3.318s0.106-0.611,0.311-0.615c1.744-0.045,2.986-0.555,4.122-1.49
		c1.139-0.936,1.63-1.992,1.734-2.198c0.104-0.206,0.327-0.17,0.382,0.128c0.044,0.244,0.134,0.686,0.134,1.156
		C16.563,61.199,14.428,63.805,11.555,64.733"/>
	<path fill="#FFFFFE" d="M96.438,50.573c-4.297,0-7.781,3.483-7.781,7.781s3.484,7.78,7.781,7.78c4.298,0,7.781-3.482,7.781-7.78
		S100.736,50.573,96.438,50.573 M93.177,51.863c0.977-0.617,2.125-0.844,3.332-0.844c0.796,0,1.558,0.14,2.271,0.377
		c0.264,0.088,0.423,0.514,0.423,0.726c0,0.214-0.185,0.698-1.013,0.956c-0.829,0.259-1.998,0.637-2.95,0.637
		c-0.954,0-2.386-0.307-2.386-1.217C92.854,52.219,92.928,52.02,93.177,51.863 M90.229,54.933c0.35-0.837,0.952-1.538,1.621-2.136
		c0,0,0.335-0.275,0.468-0.381c0,0,0.018,0.5,0.352,0.877c0.335,0.377,0.979,0.663,1.643,0.85c0,0,0.318,0.188,0.505,0.479
		c0.283,0.445,1.287,2.861,1.328,4.28c0.015,0.481-0.391,0.878-1.034,0.786c-0.643-0.092-1.764-0.063-3.563-1.744
		C91.149,57.572,89.788,55.987,90.229,54.933 M94.525,64.719c-2.872-0.93-5.009-3.534-5.009-6.707c0-0.471,0.091-0.912,0.135-1.155
		c0.054-0.298,0.278-0.335,0.381-0.128c0.104,0.205,0.597,1.262,1.734,2.197c1.137,0.937,2.378,1.445,4.123,1.489
		c0.203,0.005,0.31,0.323,0.31,0.616s-0.186,2.498-0.903,3.318C95.109,64.562,94.926,64.848,94.525,64.719 M100.038,64.049
		c-0.835,0.467-2.242,0.955-3.529,0.955c-0.051,0-0.1-0.004-0.149-0.002c-0.399,0.015-0.403-0.256-0.14-0.963
		c0.404-1.091,0.644-2.871,0.564-4.66c-0.088-1.979-0.89-3.65-1.128-4.342c-0.239-0.69,0.159-0.77,0.531-0.851
		c0.371-0.079,0.868-0.183,1.115-0.259c0.458-0.139,0.612-0.22,1.011-0.326c0.398-0.105,0.931-0.053,1.17,0.373
		c0.239,0.424,1.739,2.613,1.739,6.255C101.223,61.359,100.9,63.566,100.038,64.049 M101.196,56.43
		c-0.229-0.932-1.17-2.58-1.382-2.845c-0.213-0.267-0.142-0.608-0.138-0.769c0.003-0.16,0.085-0.42,0.085-0.586
		c0-0.299,0.186-0.294,0.307-0.238c1.049,0.485,1.859,1.4,2.428,2.408c0.13,0.229,0.136,0.754,0.041,0.939
		c-0.134,0.262-0.544,1.139-0.888,1.328C101.304,56.857,101.249,56.641,101.196,56.43 M101.833,62.522
		c-0.201,0.198-0.318,0.02-0.238-0.353c0.079-0.371,0.319-2.65,0.055-4.359c-0.071-0.451,0.685-1.025,0.822-1.27
		c0.14-0.242,0.293-0.424,0.407-0.603c0.158-0.25,0.322,0.043,0.322,0.043c0.195,0.644,0.3,1.324,0.3,2.03
		C103.501,59.834,102.806,61.562,101.833,62.522"/>
	<path fill="#FFFFFE" d="M14.028,20.735c-1.028-1.564-2.377-0.946-2.769-0.773c-0.249,0.111-0.708,0.443-0.988,0.893
		c0,0-2.807,3.102-5.912,6.155c-0.432,0.424-0.918,1.227-0.958,1.957c-0.037,0.657,0.222,1.312,0.607,1.723
		c0.845,0.902,2.325,0.854,3.08,0.282l0.052,2.479c0.778-0.626,3.59-3.322,4.588-4.588l2.926-3.975
		C14.822,24.16,14.961,22.154,14.028,20.735 M7.021,30.062c-0.485,0.454-1.695,0.832-2.378,0.066
		c-0.263-0.295-0.43-0.717-0.402-1.205c0.03-0.563,0.376-1.221,0.71-1.506c0.582-0.499,3.098-3.039,4.899-5.033
		c0.04,0.362,0.357,0.971,0.357,0.971c0.24,0.34,0.545,0.831,1.366,1.232C11.114,25.381,9.944,27.322,7.021,30.062 M13.912,25.222
		c0,0-1.584,2.761-6.107,7.258l-0.011-2.002c3.399-3.12,5.005-6.253,5.005-6.253s-1.251-0.474-1.802-1.189
		c-0.282-0.393-0.396-0.933-0.34-1.296c0.105-0.676,0.635-1.021,0.811-1.099c0.394-0.174,1.125-0.552,1.927,0.563
		C14.265,22.41,14.037,24.685,13.912,25.222"/>
	<path fill="#FFFFFE" d="M102.635,28.967c-0.041-0.73-0.366-1.496-0.92-2.035c-3.118-3.039-5.873-6.077-5.873-6.077
		c-0.279-0.449-0.737-0.781-0.987-0.893c-0.391-0.173-1.74-0.791-2.77,0.773c-0.933,1.418-0.793,3.425-0.626,4.153l2.928,3.975
		c0.996,1.266,3.808,3.962,4.588,4.588l0.051-2.479c0.756,0.571,2.195,0.593,3.04-0.308
		C102.452,30.253,102.671,29.624,102.635,28.967 M98.307,32.607c-4.653-4.487-6.158-7.369-6.158-7.369
		c-0.124-0.537-0.299-2.828,0.57-4.035c0.803-1.115,1.533-0.737,1.928-0.563c0.176,0.078,0.704,0.422,0.811,1.099
		c0.057,0.364-0.059,0.903-0.341,1.296c-0.549,0.716-1.801,1.189-1.801,1.189s1.603,3.143,5.003,6.263L98.307,32.607z
		 M101.471,30.129c-0.625,0.666-1.887,0.488-2.377,0.037c-2.984-2.746-4.188-4.791-4.646-5.584c0.822-0.401,1.368-1.014,1.368-1.014
		c0.329-0.461,0.313-0.829,0.353-1.191c1.807,1.975,4.413,4.606,4.996,5.107c0.334,0.285,0.653,0.876,0.685,1.439
		C101.875,29.412,101.741,29.84,101.471,30.129"/>
	<path fill="#FFFFFE" d="M41.34,1.298c-1.568,0-4.756,1.063-5.473,6.686l0.765-0.305c2.6-0.872,5.042-1.634,7.849-2.15
		c-2.767,0.497-5.179,1.231-7.733,2.088c0.269-1.552,0.728-2.797,1.354-3.711c-0.05,0.802,0.604,1.657,1.906,1.657
		c1.303,0,2.027-0.752,2.027-1.203c0-0.45-0.273-1.102-0.976-1.102c-0.701,0-0.852,0.5-0.801,0.701c0.05,0.2-0.101,0.25-0.301,0.3
		c-0.2,0.05-0.751-0.25-0.552-0.951c0.221-0.771,1.152-1.19,2.254-1.19c2.09,0,4.39,1.5,6.428,2.92
		c0.032-0.004,0.065-0.007,0.099-0.01l0.688-0.39C46.347,2.65,43.838,1.298,41.34,1.298"/>
	<path fill="#FFFFFE" d="M64.555,1.298c-2.497,0-5.006,1.353-7.536,3.34l0.69,0.39c0.044,0.003,0.088,0.008,0.132,0.012
		c2.03-1.413,4.315-2.897,6.395-2.897c1.101,0,2.032,0.42,2.253,1.191c0.199,0.701-0.352,1.001-0.552,0.951
		c-0.2-0.05-0.35-0.1-0.3-0.3c0.05-0.202-0.101-0.701-0.801-0.701c-0.702,0-0.976,0.65-0.976,1.101c0,0.45,0.724,1.202,2.026,1.202
		s1.957-0.854,1.907-1.655c0.626,0.912,1.085,2.159,1.354,3.708c0.038,0.014,0.077,0.026,0.116,0.039l0.765,0.305
		C69.312,2.361,66.124,1.298,64.555,1.298"/>
	<path fill="#FFFFFE" d="M56.892,4.267C55.815,1.867,54.444,0,53.272,0c-0.938,0-2.632,1.292-4.481,4.837l1.217-0.165
		c0.901-0.076,2.396-0.076,3.086-0.076c0.69,0,2.454,0.019,3.09,0.134l0.937,0.077L56.892,4.267z M53.093,4.388
		c-0.676,0-2.367,0.037-3.1,0.074c0.127-0.211,0.232-0.353,0.351-0.542c0,0,0.245,0.128,1.047,0.128
		c0.803,0,1.604-0.663,1.703-1.353c0.043-0.294-0.176-0.889-0.75-0.801C51.889,1.963,52,1.601,52,1.601
		c0.716-0.825,1.096-0.734,1.268-0.734c0.87,0,2.117,2.112,2.777,3.641C55.636,4.477,53.77,4.388,53.093,4.388"/>
	<path fill="#FFFFFE" d="M90.678,33.385l-2.285,2.057l0.406,0.451c0.691,0.768,1.6,0.906,2.318,0.26
		c0.721-0.648,0.718-1.481,0.087-2.182L90.678,33.385z"/>
	<path fill="#FFFFFE" d="M100.243,36.462c-1.896-1.306-5.064-3.493-10.375-11.022C86.696,20.939,74.657,6.26,52.942,6.26
		c-21.716,0-33.754,14.679-36.927,19.179c-5.272,7.477-8.582,9.762-10.359,10.989l-0.068,0.046L5.59,36.56
		c0.078,2.247,0.745,9.685,6.106,11.044c3.723,0.941,7.599-1.354,11.849-7.02c0.154-0.209,0.374-0.521,0.63-0.883
		c3.142-4.479,12.702-18.106,28.768-18.106c16.066,0,25.626,13.628,28.769,18.104c0.255,0.363,0.475,0.676,0.63,0.885
		c4.25,5.666,8.126,7.961,11.848,7.02c5.384-1.364,6.046-8.773,6.12-11.012l0.003-0.084L100.243,36.462z M23.776,35.504
		l-4.917-4.125l3.124,6.262l-0.688,0.822l-6.559-2.131l4.89,4.119l-1.047,1.246l-6.926-5.811l1.446-1.723l6.747,2.207l-3.145-6.5
		l1.676-1.999l6.927,5.812L23.776,35.504z M30.611,28.016l-2.364-1.004L26.15,29.26l1.176,2.279l-1.057,1.135l-4.33-8.613
		l1.542-1.653l8.876,3.739L30.611,28.016z M39.044,21.768l-7.633-2.831l3.416,5.467l-1.829,1.143l-4.791-7.667l1.687-1.055
		l7.55,2.821l-3.388-5.423l1.841-1.149l4.79,7.667L39.044,21.768z M46.243,19.522c-4.493,0.955-5.918-1.984-6.281-3.573
		c-0.64-2.945,1.299-5.118,4.26-5.747c1.326-0.282,2.18-0.09,2.896,0.198l-0.274,1.152l-0.014,0.003
		c-0.409-0.167-1.054-0.442-2.102-0.22c-1.493,0.316-2.802,1.875-2.324,4.122c0.323,1.519,1.619,3.284,3.787,2.821
		c1.034-0.218,1.502-0.719,1.802-1.062l0.828,0.944C48.164,18.78,47.484,19.284,46.243,19.522 M58.216,18.853l-2.376-0.042
		l0.072-4.131l-3.552-0.063l-0.072,4.134l-2.375-0.043l0.157-9.039l2.376,0.042l-0.065,3.693l3.552,0.062l0.064-3.693l2.377,0.042
		L58.216,18.853z M65.917,19.783l-0.394,1.147l-5.509-1.896l2.943-8.548l4.994,1.719l-0.391,1.135L64.826,12.4l-0.811,2.356
		l2.661,0.917l-0.396,1.147l-2.661-0.916l-0.951,2.759L65.917,19.783z M72.519,18.184c0.17,0.378,0.416,0.68,0.62,1.107
		c0.749,1.475,0.743,2.298,0.113,3.296c-0.856,1.426-2.698,1.589-4.384,0.576c-1.36-0.817-1.98-1.77-2.245-2.678l1.199-0.518
		c0.196,0.667,0.413,1.348,1.343,1.939c0.724,0.449,1.479,0.291,1.909-0.429c0.352-0.584-0.154-1.5-0.585-2.233
		c-0.185-0.355-0.5-0.898-0.5-0.898c-0.492-0.937-0.681-1.846-0.02-2.947c0.655-1.09,2.231-1.397,4.164-0.236
		c1.124,0.675,1.619,1.479,1.957,2.37l-1.096,0.473c-0.139-0.481-0.426-1.173-1.123-1.592c-0.663-0.398-1.389-0.36-1.699,0.156
		C71.882,17.053,72.189,17.559,72.519,18.184 M73.975,26.514l5.246-5.826l-1.901-1.712l0.813-0.884l5.529,4.979l-0.804,0.892
		l-1.873-1.685l-5.244,5.825L73.975,26.514z M82.938,34.301l-0.931,0.779l-3.743-4.463l6.926-5.811l3.395,4.047l-0.92,0.773
		l-1.859-2.217l-1.91,1.602l1.81,2.156l-0.929,0.781l-1.811-2.156l-2.235,1.875L82.938,34.301z M92.927,37.756
		c-1.526,1.373-2.908,0.688-2.926,0.669l-1.377,4.106l-2.018-1.623l1.699-3.807l-0.786-0.874l-2.667,2.402l-1.591-1.765l6.718-6.05
		l2.462,2.735C93.773,35.029,94.202,36.605,92.927,37.756"/>
	<polygon fill="#FFFFFE" points="27.135,26.512 23.96,25.088 25.566,28.193 	"/>
	<path fill="#FFFFFE" d="M83.482,101.587v1.631h-0.499V99.61h1.29c0.604,0,1.229,0.188,1.229,0.902c0,0.436-0.26,0.771-0.68,0.873
		v0.006c0.435,0.107,0.494,0.338,0.55,0.742c0.056,0.359,0.095,0.746,0.225,1.084h-0.535c-0.044-0.215-0.104-0.449-0.13-0.664
		c-0.04-0.324-0.04-0.619-0.204-0.801c-0.146-0.166-0.345-0.148-0.546-0.166H83.482z M83.473,101.157h0.825
		c0.556-0.023,0.68-0.273,0.68-0.559s-0.124-0.535-0.68-0.559h-0.825V101.157z"/>
	<path fill="#FFFFFE" d="M81.447,101.46c0,1.537,1.25,2.787,2.786,2.787c1.537,0,2.785-1.25,2.785-2.787
		c0-1.535-1.248-2.785-2.785-2.785C82.697,98.675,81.447,99.925,81.447,101.46 M81.822,101.46c0-1.33,1.083-2.412,2.411-2.412
		c1.329,0,2.411,1.082,2.411,2.412c0,1.328-1.082,2.41-2.411,2.41C82.905,103.87,81.822,102.788,81.822,101.46"/>
</g>
</svg>
