<?xml version="1.0" encoding="utf-8"?>
<!-- Generator: Adobe Illustrator 15.1.0, SVG Export Plug-In  -->
<!DOCTYPE svg PUBLIC "-//W3C//DTD SVG 1.1//EN" "http://www.w3.org/Graphics/SVG/1.1/DTD/svg11.dtd" [
	<!ENTITY ns_flows "http://ns.adobe.com/Flows/1.0/">
]>
<svg version="1.1"
	 xmlns="http://www.w3.org/2000/svg" xmlns:xlink="http://www.w3.org/1999/xlink" xmlns:a="http://ns.adobe.com/AdobeSVGViewerExtensions/3.0/"
	 x="0px" y="0px" width="124px" height="65px" viewBox="0 0 124 65" overflow="visible" enable-background="new 0 0 124 65"
	 xml:space="preserve">
<defs>
</defs>
<path fill="#FFFFFF" d="M60.063,28.037l-0.009,4.743c-0.011,5.353,1.987,6.44,7.306,6.447l5.231,0.013
	c4.742,0.007,6.869-0.691,6.876-3.604c0-0.326-0.038-0.656-0.078-1.034l-10.673-0.019l0.016-6.885h20.116L88.822,38.94
	c-0.014,6.907-4.436,8.873-13.918,8.851l-10.101-0.016c-4.7-0.01-8.051-0.252-10.62-2.559c-2.491-2.259-3.426-5.362-3.417-10.014
	l0.023-9.298c0.02-10.238,3.908-13.172,14.048-13.153H89.05l0.039,8.524l-21.734,0.06C61.468,21.326,60.075,22.215,60.063,28.037z
	 M124,32.502C124,50.449,96.239,65,61.999,65C27.755,65,0,50.449,0,32.502C0,14.557,27.755,0,61.999,0
	C96.239,0,124,14.557,124,32.502z M14.209,15.477l-0.002-0.027C7.335,20.261,3.279,26.144,3.279,32.502
	c0,6.351,4.046,12.228,10.904,17.034L14.209,15.477z M112.078,48.132H91.757v-0.543v-7.815V7.068
	c-8.69-2.526-18.786-3.978-29.566-3.978c-17.664,0-33.503,3.888-44.299,10.035h19.134c3.478,0.007,6.007,0.312,7.886,1.444
	c3.186,1.933,4.284,5.503,4.271,11.422c-0.018,9.158-2.356,12.803-8.94,12.786H23.293v15.804
	c10.376,4.558,23.984,7.329,38.897,7.329C83.216,61.91,101.653,56.408,112.078,48.132z M36.662,30.275
	c2.534,0.004,3.272-1.294,3.279-4.629c0.007-2.724-0.933-4.007-3.261-4.012H23.312l-0.021,8.641H36.662z M121.098,32.502
	c0-8.724-7.614-16.558-19.7-21.943v29.214h14.556v4.744C119.251,40.85,121.098,36.785,121.098,32.502z"/>
</svg>
