<?xml version="1.0" encoding="utf-8"?>
<!-- Generator: Adobe Illustrator 15.1.0, SVG Export Plug-In . SVG Version: 6.00 Build 0)  -->
<!DOCTYPE svg PUBLIC "-//W3C//DTD SVG 1.1//EN" "http://www.w3.org/Graphics/SVG/1.1/DTD/svg11.dtd">
<svg version="1.1" id="Layer_1" xmlns="http://www.w3.org/2000/svg" xmlns:xlink="http://www.w3.org/1999/xlink" x="0px" y="0px"
	 width="127px" height="127px" viewBox="234 234 127 127" enable-background="new 234 234 127 127" xml:space="preserve">
<path fill="#FFFFFF" d="M297.575,234C262.462,234,234,262.462,234,297.575c0,35.111,28.462,63.573,63.575,63.573
	c35.112,0,63.574-28.462,63.574-63.573C361.149,262.462,332.688,234,297.575,234z M297.575,359.279
	c-34.08,0-61.706-27.626-61.706-61.705c0-34.08,27.625-61.706,61.706-61.706c34.078,0,61.705,27.626,61.705,61.706
	C359.28,331.653,331.653,359.279,297.575,359.279z"/>
<path fill="#FFFFFF" d="M286.012,284.576c1.949,1.434,3.768,1.901,5.817,1.277c1.932-0.5,3.373-1.844,4.198-4.029
	c0.827-2.305,0.928-4.605,0.178-7.138c-0.75-2.654-1.977-4.58-3.804-6.014c-1.951-1.556-3.769-1.903-5.82-1.4
	c-1.93,0.623-3.369,1.965-4.195,4.15c-0.828,2.186-0.929,4.485-0.178,7.14C282.835,281.096,284.184,283.141,286.012,284.576z"/>
<path fill="#FFFFFF" d="M279.67,296.078c1.686-0.983,2.757-2.687,2.98-4.987c0.341-2.422-0.285-4.715-1.636-7.003
	c-1.352-2.285-3.061-3.964-5.245-4.791c-2.187-0.948-4.121-0.808-5.928,0.175c-1.683,1.103-2.758,2.688-2.978,5.107
	c-0.341,2.302,0.284,4.595,1.636,6.88c1.351,2.286,3.061,3.965,5.246,4.913C275.93,297.199,277.866,297.183,279.67,296.078z"/>
<path fill="#FFFFFF" d="M306.534,286.124c2.056-0.019,3.86-1.003,5.296-2.831c1.314-1.947,2.019-4.252,1.995-6.913
	c-0.025-2.662-0.893-4.952-2.24-6.876c-1.347-1.802-3.171-2.753-5.105-2.735c-2.056,0.018-3.863,1.002-5.176,2.948
	c-1.436,1.828-2.14,4.133-2.115,6.794c0.024,2.661,0.771,4.952,2.116,6.755C302.774,285.188,304.479,286.141,306.534,286.124z"/>
<path fill="#FFFFFF" d="M327.674,282.654c-0.985-2.049-2.206-3.368-4.146-3.834c-1.94-0.465-3.75,0.034-5.553,1.382
	c-1.679,1.466-2.994,3.292-3.576,5.839c-0.703,2.425-0.562,4.722,0.304,6.893c0.866,2.047,2.329,3.244,4.148,3.833
	c1.939,0.467,3.751,0.089,5.552-1.381c1.803-1.345,2.994-3.413,3.577-5.838C328.562,287.001,328.541,284.823,327.674,282.654z"/>
<path fill="#FFFFFF" d="M298.734,287.802c0,0-23.978,7.964-23.978,27.052c0,7.47,6.054,13.525,13.526,13.525
	c3.63,0,6.924-1.433,9.354-3.761v-2.011l-0.005,0.009c-2.449-1.334-8.126-5.005-8.126-9.934c0-2.874,2.33-5.206,5.206-5.206
	c1.622,0,3.069,0.741,4.024,1.903c0.954-1.162,2.402-1.903,4.023-1.903c2.874,0,5.207,2.332,5.207,5.206
	c0,5.769-5.685,8.856-8.13,9.936c-0.002,0-0.002,1.117-0.002,2c2.428,2.328,5.721,3.761,9.353,3.761
	c7.47,0,13.525-6.056,13.525-13.525C322.711,298.536,298.734,287.802,298.734,287.802z"/>
<path fill="#FFFFFF" d="M249.401,312.438c-0.135-0.43-0.042-0.781,0.173-0.892c0.213-0.109,1.265-0.503,3.095-1.074
	c0.843-0.265,1.313-0.133,1.502,0.473c0.275,0.879-0.426,1.377-2.174,1.925C250.496,313.339,249.7,313.395,249.401,312.438z
	 M261.495,262.45c0.195,0.14,0.55,0.063,0.87-0.253c0.715-0.705,0.301-1.386-0.805-2.506c-1.287-1.304-2.051-1.7-2.707-1.053
	c-0.451,0.446-0.353,0.924,0.268,1.553C260.467,261.556,261.299,262.311,261.495,262.45z M357.216,297.575
	c0,32.937-26.702,59.64-59.641,59.64c-32.939,0-59.643-26.702-59.643-59.64c0-32.939,26.703-59.643,59.643-59.643
	C330.514,237.933,357.216,264.636,357.216,297.575z M334.01,253.902l-8.952,9.148c-0.723,0.739-0.952,1.029-0.408,1.559l1.301,1.275
	c0.351,0.344,0.693,0.257,1.101-0.159l3.18-3.249l0.264,0.258l-1.872,4.167c-0.338,0.755-0.594,1.018-0.097,1.504l1.244,1.217
	c0.116,0.115,0.188,0.246,0.291,0.346c0.322,0.315,0.678,0.332,0.935,0.07c0.074-0.077,0.136-0.197,0.197-0.348l1.804-4.507
	c1.345,0.382,2.604-0.465,4.458-2.36c2.713-2.772,2.991-4.55,1.075-6.425c-0.614-0.602-1.201-1.085-1.654-1.529
	c-0.307-0.301-0.657-0.704-1.11-1.148C335.047,253.018,334.688,253.209,334.01,253.902z M297.575,257.061
	c-22.372,0-40.514,18.142-40.514,40.514c0,22.368,18.142,40.512,40.514,40.512s40.513-18.144,40.513-40.512
	C338.088,275.203,319.947,257.061,297.575,257.061z M316.955,255.758c-0.499,0.905-1.03,1.572-1.364,2.176
	c-0.271,0.491-0.133,0.96,0.388,1.247c0.466,0.257,0.938,0.419,1.313,0.627c1.237,0.683,2.181,1.302,2.916,1.708
	c0.95,0.524,1.2,0.071,1.938-1.269c0.594-1.075,0.736-1.463,0.003-1.869c-0.144-0.08-0.692-0.357-1.588-0.852
	c-0.556-0.307-0.547-0.449-0.225-1.035l0.632-1.103c0.251-0.453,0.372-0.632,0.893-0.345c0.662,0.366,1.087,0.699,1.41,0.876
	c0.519,0.287,0.964-0.009,1.432-0.858l0.303-0.548c0.52-0.943,0.625-1.304-0.235-1.778c-0.502-0.277-0.945-0.448-1.25-0.616
	c-0.593-0.326-0.492-0.592-0.107-1.29l0.136-0.245c0.312-0.566,0.542-0.686,0.936-0.468l0.824,0.455
	c0.251,0.139,0.456,0.276,0.654,0.385c0.645,0.356,0.971,0.315,1.387-0.44c0.063-0.113,0.253-0.5,0.617-1.161
	c0.417-0.755,0.326-1.099-0.408-1.505c-0.197-0.108-0.314-0.149-0.351-0.169c-0.126-0.07-0.224-0.148-0.295-0.188l-2.796-1.542
	c-0.949-0.524-1.364-0.704-1.854,0.183c-0.125,0.226-0.19,0.387-0.243,0.481L316.955,255.758z M309.469,256.759l0.687,0.206
	c0.96,0.289,1.278,0.294,1.62-0.84c0.266-0.887,0.451-1.642,0.643-2.281c0.528-1.754,1.45-4.604,2.636-8.545l0.372-1.238
	c0.224-0.743,0.334-1.182,0.214-1.42c-0.14-0.245-0.428-0.354-0.898-0.495l-0.901-0.271c-0.883-0.265-1.149-0.301-1.417,0.587
	c-0.043,0.145-0.221,0.879-0.618,2.199c-1.862,6.19-2.982,9.633-3.2,10.355C308.237,256.232,308.293,256.406,309.469,256.759z
	 M294.041,253.682c-0.031,0.818,0.199,1.236,0.71,1.256l1.329,0.051c1.002,0.038,1.088-0.066,1.112-0.69
	c0.017-0.453,0.072-0.838,0.086-1.205l0.24-6.288l0.246,0.009c0.773,2.812,1.168,4.271,1.7,4.292
	c0.491,0.019,1.036-1.384,1.694-4.162l0.307,0.011c0.018,0.626,0.021,1.618-0.031,2.975l-0.156,4.134
	c-0.03,0.797,0.121,1.126,0.694,1.147l1.841,0.07c0.511,0.02,0.646-0.32,0.68-1.225c0.006-0.129-0.01-0.798,0.036-2.004
	c0.114-2.994,0.156-5.191,0.208-6.57c0.074-1.938,0.21-3.376,0.246-4.303c0.039-1.033-0.05-1.382-0.786-1.411l-2.249-0.085
	c-0.43-0.017-0.663,0.19-0.828,0.766l-1.383,5.102l-0.245-0.009l-0.809-4.603c-0.219-1.237-0.479-1.398-1.175-1.424l-1.902-0.072
	c-0.798-0.031-1.048,0.089-1.075,0.778c-0.015,0.409,0.029,0.842,0.012,1.316c-0.033,0.861-0.1,1.548-0.12,2.065l-0.355,9.346
	L294.041,253.682z M280.591,243.1c0.063,0.251,0.125,0.413,0.151,0.518l2.522,10.143c0.251,1.003,0.316,1.853,0.484,2.522
	c0.137,0.543,0.559,0.793,1.133,0.649c0.517-0.13,0.973-0.333,1.389-0.438c1.37-0.343,2.483-0.534,3.297-0.738
	c1.052-0.264,0.926-0.765,0.554-2.25c-0.299-1.191-0.458-1.573-1.271-1.37c-0.159,0.04-0.75,0.21-1.742,0.459
	c-0.616,0.155-0.706,0.044-0.869-0.604l-0.289-1.237c-0.127-0.502-0.159-0.716,0.417-0.861c0.735-0.185,1.271-0.23,1.63-0.32
	c0.576-0.145,0.698-0.664,0.462-1.604l-0.152-0.606c-0.262-1.045-0.431-1.381-1.383-1.142c-0.557,0.139-0.997,0.317-1.334,0.401
	c-0.656,0.164-0.763-0.098-0.957-0.871l-0.068-0.272c-0.158-0.627-0.071-0.871,0.366-0.98l0.913-0.229
	c0.279-0.07,0.521-0.109,0.74-0.164c0.715-0.179,0.926-0.433,0.716-1.268c-0.031-0.126-0.156-0.54-0.34-1.271
	c-0.209-0.836-0.511-1.028-1.324-0.823c-0.219,0.055-0.333,0.105-0.372,0.116c-0.139,0.035-0.264,0.043-0.343,0.063l-3.097,0.777
	C280.771,241.966,280.345,242.118,280.591,243.1z M266.081,250.207l6.23,11.181c0.504,0.903,0.717,1.204,1.379,0.835l1.592-0.887
	c0.429-0.239,0.443-0.592,0.16-1.1l-2.213-3.972l0.322-0.18l3.464,2.979c0.628,0.538,0.806,0.858,1.414,0.52l1.52-0.847
	c0.144-0.08,0.29-0.112,0.415-0.182c0.394-0.219,0.51-0.556,0.332-0.876c-0.053-0.094-0.15-0.187-0.278-0.289l-3.81-3.008
	c0.749-1.181,0.292-2.629-0.997-4.945c-1.888-3.388-3.514-4.16-5.856-2.854c-0.751,0.419-1.38,0.844-1.936,1.153
	c-0.375,0.209-0.861,0.431-1.415,0.739C265.528,248.961,265.61,249.36,266.081,250.207z M254.649,260.002
	c0.226,0.23,1.283,1.156,2.994,2.889c1.908,1.933,3.529,3.692,4.952,5.135c0.605,0.613,1.029,1.013,1.226,1.213
	c0.106,0.107,0.258,0.29,0.47,0.505c0.348,0.353,0.646,0.392,0.923,0.119c0.233-0.23,0.42-0.565,0.711-0.853
	c0.218-0.216,0.439-0.342,0.598-0.5c0.394-0.388,0.373-0.701-0.036-1.115c-0.136-0.139-0.739-0.633-1.678-1.584
	c-0.499-0.506-0.46-0.816,0.064-1.335c0.088-0.086,0.205-0.171,0.292-0.257c1.661-1.639,1.296-4.398-1.323-7.052
	c-2.725-2.761-4.943-3.115-6.983-1.102c-1.632,1.61-2.401,2.551-2.443,2.594C254.052,259.076,254.133,259.48,254.649,260.002z
	 M246.227,313.624c0.037,0.116,0.059,0.261,0.096,0.377c0.697,2.228,3.317,3.166,6.875,2.053c3.702-1.159,5.031-2.969,4.176-5.703
	c-0.685-2.188-1.169-3.302-1.187-3.36c-0.206-0.515-0.602-0.627-1.302-0.408c-0.309,0.098-1.616,0.613-3.938,1.34
	c-2.592,0.812-4.899,1.447-6.833,2.052c-0.822,0.257-1.371,0.451-1.639,0.535c-0.144,0.044-0.376,0.096-0.665,0.187
	c-0.473,0.147-0.644,0.395-0.528,0.765c0.098,0.313,0.311,0.633,0.433,1.023c0.091,0.293,0.104,0.547,0.17,0.763
	c0.166,0.526,0.453,0.651,1.008,0.478c0.186-0.058,0.901-0.368,2.176-0.767C245.748,312.744,246.007,312.92,246.227,313.624z
	 M256.056,325.616l0.539-0.316c0.93-0.544,1.205-0.8,0.708-1.647c-0.29-0.495-0.584-0.868-0.759-1.169
	c-0.342-0.582-0.121-0.76,0.567-1.162l0.243-0.142c0.557-0.326,0.816-0.312,1.043,0.076l0.476,0.812
	c0.146,0.248,0.251,0.47,0.364,0.664c0.374,0.637,0.674,0.768,1.418,0.332c0.111-0.065,0.473-0.301,1.125-0.682
	c0.744-0.436,0.842-0.778,0.418-1.502c-0.113-0.194-0.194-0.289-0.214-0.324c-0.073-0.124-0.117-0.241-0.158-0.312l-1.614-2.755
	c-0.548-0.937-0.813-1.304-1.687-0.791c-0.223,0.13-0.362,0.235-0.454,0.289l-9.029,5.265c-0.893,0.522-1.69,0.824-2.285,1.172
	c-0.483,0.284-0.605,0.757-0.305,1.271c0.269,0.458,0.592,0.839,0.809,1.209c0.714,1.22,1.208,2.234,1.633,2.958
	c0.548,0.936,0.995,0.676,2.315-0.098c1.06-0.621,1.382-0.882,0.957-1.605c-0.083-0.142-0.411-0.66-0.929-1.543
	c-0.321-0.548-0.241-0.666,0.337-1.004l1.107-0.624c0.445-0.262,0.642-0.354,0.942,0.159c0.383,0.653,0.578,1.156,0.765,1.475
	C254.686,326.134,255.219,326.106,256.056,325.616z M268.629,328.585c-0.239-0.253-0.524-0.49-0.791-0.772
	c-0.296-0.312-0.601-0.729-1.023-1.175c-0.127-0.134-0.833-0.817-2.073-2.126c-0.45-0.476-0.928-0.446-1.491,0.087
	c-1.033,0.978-1.503,1.453-1.374,1.809c0.181,0.505,0.685,0.817,0.956,1.293c0.068,0.133,0.004,0.224-0.184,0.4
	c-1.174,1.111-1.889,1.703-2.092,1.896c-0.282,0.266-0.52,0.548-0.771,0.785l-4.052,3.838c-0.282,0.266-0.592,0.503-0.858,0.755
	c-0.438,0.414-0.457,0.771,0.008,1.261c0.352,0.373,0.695,0.64,0.933,0.893c0.155,0.164,0.251,0.298,0.322,0.372
	c0.367,0.387,0.695,0.357,1.165-0.088c0.203-0.192,0.504-0.562,0.99-1.022l6.324-6.015l0.266-0.253
	c0.266-0.251,0.474-0.25,0.853,0.15l0.465,0.491c0.479,0.505,1.025,0.016,2.105-1.007l0.187-0.178
	C269.169,329.343,269.164,329.149,268.629,328.585z M278.145,339.554c0.258,0.034,0.478,0.146,0.679,0.246
	c0.201,0.102,0.364,0.186,0.503,0.183c0.38-0.026,0.57-0.221,0.773-0.623c0.136-0.271,0.226-0.539,0.323-0.731
	c0.185-0.365,0.349-0.645,0.436-0.818c0.408-0.807,0.259-1.147-0.508-1.535c-3.709-1.873-5.553-0.583-8.049,4.361
	c-1.291,2.559-2.031,4.479-1.841,6.192c0.199,1.741,1.116,2.47,2.687,3.263c0.932,0.471,1.396,0.416,1.804-0.393
	c0.049-0.096,0.254-0.596,0.721-1.52c0.262-0.52,0.197-0.89-0.132-1.057c-0.182-0.092-0.458-0.183-0.75-0.33
	c-1.151-0.581-0.631-1.839,0.602-4.283C276.499,340.316,277.057,339.392,278.145,339.554z M288.674,339.241
	c-0.098-0.271-0.332-0.353-0.708-0.45l-2.438-0.63c-0.575-0.149-0.778,0.31-1.325,1.526c-0.163,0.381-1.061,2.463-2.826,6.259
	c-0.25,0.558-0.376,1.127-0.599,1.581l-1.398,2.865c-0.271,0.554-0.533,0.998-0.635,1.394c-0.108,0.418,0.041,0.656,0.596,0.8
	l1.823,0.472c0.773,0.2,1.018-0.093,1.256-1.01c0.06-0.23,0.099-0.465,0.169-0.735c0.097-0.376,0.563-0.544,1.297-0.354
	c0.516,0.133,0.685,0.377,0.668,0.93c-0.008,0.443-0.184,0.954-0.194,1.485c-0.006,0.266,0.212,0.567,0.47,0.635l1.745,0.451
	c0.555,0.144,0.997-0.099,1.117-0.559c0.205-0.793,0.104-1.953,0.217-3.371c0.2-2.485,0.485-4.325,0.545-5.535
	C288.618,341.498,288.792,339.605,288.674,339.241z M301.491,354.897c0.001-0.107-0.038-0.237-0.097-0.39l-1.79-4.511
	c1.238-0.648,1.57-2.13,1.612-4.781c0.063-3.878-0.957-5.36-3.638-5.402c-0.859-0.015-1.618,0.038-2.251,0.028
	c-0.431-0.007-0.963-0.059-1.596-0.069c-1.004-0.015-1.132,0.371-1.147,1.341l-0.208,12.798c-0.017,1.034,0.019,1.401,0.775,1.413
	l1.822,0.029c0.491,0.009,0.68-0.291,0.689-0.873l0.074-4.546l0.368,0.006l1.506,4.313c0.274,0.78,0.269,1.147,0.964,1.157
	l1.739,0.028c0.164,0.002,0.307,0.048,0.449,0.05C301.215,355.496,301.484,355.264,301.491,354.897z M313.624,351.113
	c-0.276-1.196-0.429-1.581-1.246-1.392c-0.16,0.036-0.753,0.195-1.749,0.426c-0.619,0.144-0.708,0.03-0.859-0.62l-0.267-1.243
	c-0.116-0.504-0.145-0.719,0.434-0.853c0.738-0.171,1.276-0.207,1.635-0.289c0.578-0.135,0.711-0.651,0.492-1.596l-0.141-0.609
	c-0.243-1.05-0.405-1.389-1.362-1.167c-0.559,0.129-1.004,0.298-1.342,0.376c-0.658,0.152-0.763-0.111-0.941-0.888l-0.062-0.273
	c-0.146-0.63-0.056-0.872,0.384-0.973l0.917-0.212c0.279-0.065,0.522-0.099,0.742-0.15c0.718-0.166,0.933-0.414,0.739-1.255
	c-0.029-0.126-0.146-0.54-0.316-1.275c-0.194-0.841-0.492-1.037-1.31-0.849c-0.22,0.051-0.334,0.101-0.373,0.109
	c-0.141,0.031-0.265,0.039-0.345,0.057l-3.111,0.72c-1.056,0.244-1.485,0.387-1.257,1.374c0.058,0.253,0.116,0.416,0.141,0.521
	l2.337,10.188c0.232,1.009,0.283,1.859,0.438,2.532c0.127,0.544,0.544,0.802,1.123,0.669c0.519-0.119,0.978-0.314,1.396-0.411
	c1.376-0.318,2.492-0.487,3.31-0.677C314.086,353.108,313.969,352.604,313.624,351.113z M328.394,341.66
	c0.1-0.07,0.229-0.135,0.33-0.205c1.911-1.341,2.011-4.121-0.128-7.172c-2.227-3.176-4.354-3.894-6.701-2.249
	c-1.877,1.316-2.792,2.115-2.842,2.15c-0.428,0.353-0.415,0.764,0.006,1.363c0.187,0.265,1.072,1.353,2.471,3.347
	c1.558,2.223,2.864,4.227,4.026,5.886c0.495,0.706,0.846,1.17,1.006,1.399c0.087,0.123,0.206,0.33,0.38,0.576
	c0.284,0.406,0.571,0.495,0.89,0.271c0.268-0.188,0.508-0.488,0.844-0.724c0.251-0.176,0.489-0.264,0.674-0.394
	c0.452-0.315,0.484-0.628,0.149-1.105c-0.11-0.157-0.623-0.746-1.389-1.84C327.698,342.384,327.789,342.084,328.394,341.66z
	 M341.566,333.394l-0.847-0.766c-0.702-0.637-1.084-0.761-1.593-0.199c-0.206,0.227-0.337,0.469-0.488,0.635
	c-0.33,0.364-0.594,0.4-1.033,0.114c-0.406-0.258-2.21-1.892-5.437-4.812c-1.263-1.143-1.967-1.809-2.127-1.953
	c-0.399-0.361-0.684-0.592-0.919-0.557c-0.104,0.017-0.203,0.094-0.326,0.23c-0.165,0.182-0.38,0.484-0.696,0.833
	c-0.357,0.395-0.578,0.607-0.634,0.668c-0.426,0.47-0.167,0.761,0.632,1.484c1.343,1.215,2.537,2.269,3.576,3.208
	c1.916,1.736,3.629,3.343,5.195,4.76l0.159,0.145c1.037,0.939,1.515,1.344,2.036,0.768c0.139-0.151,0.217-0.303,0.312-0.408
	l1.719-1.896c0.137-0.152,0.346-0.35,0.579-0.608C342.197,334.463,342.157,333.929,341.566,333.394z M348.719,323.164
	c-0.7-0.424-1.841-0.661-3.166-1.177c-2.323-0.905-4.004-1.708-5.146-2.111c-3.301-1.163-5.063-1.872-5.445-1.864
	c-0.287,0.018-0.433,0.217-0.635,0.549l-1.305,2.153c-0.308,0.507,0.074,0.835,1.081,1.709c0.319,0.265,2.054,1.723,5.182,4.503
	c0.463,0.401,0.971,0.685,1.342,1.029l2.344,2.162c0.451,0.417,0.801,0.797,1.152,1.009c0.367,0.224,0.639,0.148,0.937-0.342
	l0.975-1.61c0.415-0.684,0.205-1.002-0.605-1.493c-0.203-0.123-0.416-0.227-0.656-0.373c-0.332-0.2-0.359-0.696,0.033-1.344
	c0.276-0.455,0.559-0.547,1.083-0.374c0.422,0.137,0.861,0.451,1.367,0.613c0.252,0.082,0.604-0.041,0.742-0.268l0.933-1.54
	C349.229,323.904,349.124,323.41,348.719,323.164z M353.798,311.55c0.264-0.841-0.347-1.054-1.457-1.402
	c-2.323-0.729-3.631-1.098-3.898-1.181c-0.802-0.253-1.462-0.523-2.059-0.712l-5.818-1.827c-0.205-0.064-0.343-0.128-0.446-0.161
	c-0.698-0.219-0.904-0.069-1.131,0.653l-0.38,1.211c-0.216,0.685,0.137,0.859,1,1.13l5.744,1.847l-0.122,0.391
	c-4.15-0.015-6.483-0.212-7.021-0.229c-0.494-0.006-0.62,0.105-0.767,0.574l-0.559,1.778c-0.27,0.858,0.226,1.078,1.231,1.396
	l11.885,3.73c1.068,0.336,1.398,0.439,1.705-0.537l0.312-0.996c0.271-0.86-0.014-1.035-0.96-1.332l-5.736-1.801l0.123-0.391
	l6.233,0.22c1.249,0.049,1.371,0.022,1.623-0.778L353.798,311.55z M296.687,343.075c-0.615-0.011-0.927,0.373-0.94,1.147
	c-0.004,0.323,0.028,0.841,0.017,1.53c-0.02,1.271-0.029,1.789,0.953,1.804c0.696,0.012,1.155-0.562,1.168-1.424
	C297.92,344.044,297.874,343.094,296.687,343.075z M271.158,252.632c0.619,1.11,0.871,1.562,1.729,1.084
	c0.608-0.339,0.719-1.066,0.299-1.819c-1.017-1.825-1.532-2.624-2.57-2.046c-0.536,0.299-0.616,0.787-0.238,1.464
	C270.536,251.598,270.823,252.03,271.158,252.632z M334.406,261.195c1.461-1.494,2.081-2.215,1.232-3.045
	c-0.439-0.43-0.93-0.367-1.473,0.188c-0.226,0.231-0.559,0.629-1.04,1.122c-0.89,0.909-1.251,1.278-0.549,1.965
	C333.074,261.912,333.803,261.811,334.406,261.195z M284.244,346.309c-0.179,0.444-0.283,0.684-0.283,0.684
	c-0.065,0.251,0.165,0.511,0.659,0.638c0.556,0.144,0.762-0.002,0.865-0.399c0.032-0.125,0.056-0.297,0.079-0.469l0.495-4.524
	l-0.164-0.02L284.244,346.309z M341.697,323.361c-0.111-0.067-0.269-0.139-0.427-0.211l-4.19-1.774l-0.066,0.151l3.443,2.758
	c0.374,0.298,0.573,0.467,0.573,0.467c0.222,0.134,0.536-0.01,0.801-0.448C342.129,323.813,342.047,323.573,341.697,323.361z
	 M323.431,334.904c-0.52,0.364-0.503,0.853,0.005,1.575c1.102,1.57,1.794,2.452,1.964,2.622c0.17,0.171,0.532,0.154,0.9-0.104
	c0.822-0.576,0.527-1.317-0.376-2.604C324.873,334.893,324.185,334.376,323.431,334.904z"/>
</svg>
