<?xml version="1.0" encoding="utf-8"?>
<!-- Generator: Adobe Illustrator 15.1.0, SVG Export Plug-In  -->
<!DOCTYPE svg PUBLIC "-//W3C//DTD SVG 1.1//EN" "http://www.w3.org/Graphics/SVG/1.1/DTD/svg11.dtd" [
	<!ENTITY ns_flows "http://ns.adobe.com/Flows/1.0/">
]>
<svg version="1.1"
	 xmlns="http://www.w3.org/2000/svg" xmlns:xlink="http://www.w3.org/1999/xlink" xmlns:a="http://ns.adobe.com/AdobeSVGViewerExtensions/3.0/"
	 x="0px" y="0px" width="595px" height="350px" viewBox="-76.026 -194.688 595 350"
	 overflow="visible" enable-background="new -76.026 -194.688 595 350" xml:space="preserve">
<defs>
</defs>
<g>
	<path fill="#666666" d="M1.001,15.49c0,19.75,30.664,11.289,30.664,22.574c0,6.552-5.734,8.773-11.365,8.773
		c-5.828,0-10.043-3.333-10.248-9.569H0.001c-0.102,11.673,8.75,16.523,19.297,16.523c10.352,0,22.412-3.843,22.412-16.233
		c0-11.384-9.844-12.396-18.389-15.225c-3.619-1.105-12.262-1.494-12.262-7.151c0-5.646,4.121-8.063,9.24-8.063
		c5.531,0,10.459,2.121,10.062,8.573h10.049C41.106,4.196,30.362,0.177,20.81,0.177C11.665,0.177,1.001,4.912,1.001,15.49
		 M87.745,26.971c0,9.479-3.52,19.867-15.18,19.867c-10.65,0-13.359-10.389-13.359-19.867c0-9.176,3.418-19.852,14.271-19.852
		C84.938,7.119,87.745,17.503,87.745,26.971 M49.653,71.626h9.553V46.527h0.299c3.314,5.238,9.951,7.265,14.074,7.265
		c18.186,0,24.215-13.816,24.215-26.821c0-13.699-7.027-26.794-21.207-26.794c-7.939,0-14.266,2.3-17.182,9.569h-0.199l-0.305-8.067
		h-9.746c0.193,3.021,0.396,6.041,0.498,9.061V71.626z M136.554,27.677c0.199,9.38-1.908,19.161-13.168,19.161
		c-5.629,0-9.953-3.121-9.953-9.379c0-7.365,7.746-9.472,13.572-9.782H136.554z M127.913,21.028
		c-11.963,0-24.529,4.135-24.529,18.347c0,9.877,8.844,14.417,17.588,14.417c6.941,0,12.564-2.728,15.688-9.077h0.191
		c0.111,2.315,0.299,4.537,0.508,6.854c0.096,1.209,1.807,0.703,2.713,0.703h6.432c-0.303-4.229-0.398-8.458-0.398-10.68V17.408
		c0-14.111-10.254-17.231-20.617-17.231c-9.939,0-18.588,3.919-19.096,15.006h10.062c0.094-5.239,4.613-8.063,9.445-8.063
		c10.146,0,10.654,5.145,10.654,13.909H127.913z M196.954,17.909c-0.506-10.987-8.541-17.732-19.193-17.732
		c-15.98,0-23.416,12.396-23.416,27.203c0,14.911,6.436,26.412,22.609,26.412c11.158,0,19.602-6.954,20.41-18.354h-9.555
		c-0.504,7.268-4.42,11.4-10.754,11.4c-9.148,0-12.664-7.971-12.664-19.867c0-11.885,3.516-19.852,12.664-19.852
		c6.84,0,9.857,4.443,10.357,10.79H196.954z M248.323,28.787v-4.732c0-14.015-7.145-23.591-22.221-23.878
		c-15.982,0-23.414,12.396-23.414,27.203c0,14.911,6.434,26.412,22.619,26.412c12.051,0,20.904-5.75,22.412-17.246h-10.062
		c-1.096,7.368-4.816,10.292-12.256,10.292c-9.75,0-13.363-9.179-12.656-18.051H248.323z M212.745,22.141
		c0-8.258,4.713-15.021,12.656-15.021c9.248,0,13.072,6.55,12.875,15.021H212.745z"/>
	<g>
		<path fill="#B2B2B2" d="M261.118,52.441v-5.562l30.096-39.677h-30.096V1.589h37.348v5.562L268.569,46.83h29.896v5.611H261.118z"/>
		<path fill="#B2B2B2" d="M313.812,28.354c0.031,5.961,1.57,10.795,4.617,14.502c3.08,3.71,7.516,5.563,13.309,5.563
			c3.676,0,6.887-1.21,9.637-3.627c2.748-2.449,4.4-5.197,4.965-8.242h6.604c-1.521,5.892-4.238,10.279-8.143,13.159
			c-3.875,2.881-8.84,4.321-14.9,4.321c-7.117,0-12.68-2.484-16.684-7.449c-4.006-4.999-6.01-11.521-6.01-19.565
			c0-7.879,2.102-14.354,6.307-19.419C317.751,2.534,323.312,0,330.198,0c7.713,0,13.525,2.483,17.432,7.45
			c3.939,4.931,5.908,11.901,5.908,20.904H313.812z M314.009,22.743h32.926c-0.363-5.197-1.986-9.351-4.867-12.464
			c-2.848-3.111-6.754-4.668-11.719-4.668c-4.834,0-8.658,1.655-11.473,4.967C316.095,13.89,314.474,17.944,314.009,22.743z"/>
		<path fill="#B2B2B2" d="M390.386,0l0.051,5.761c-1.428-0.1-2.723-0.149-3.883-0.149c-4.352,0-7.721,1.474-10.109,4.42
			c-2.357,2.948-3.537,6.97-3.537,12.068v30.342h-6.109V12.515c0-3.873-0.164-7.516-0.496-10.926h6.307
			c0.199,2.882,0.299,5.53,0.299,7.945c1.324-3.376,3.027-5.81,5.113-7.299C380.14,0.745,382.905,0,386.315,0
			C388.136,0,389.493,0,390.386,0z"/>
		<path fill="#B2B2B2" d="M397.044,27.017c0-8.079,2.186-14.604,6.555-19.566C408.003,2.483,413.745,0,420.829,0
			c7.582,0,13.492,2.599,17.73,7.796c4.271,5.165,6.406,11.571,6.406,19.221c0,8.11-2.234,14.648-6.705,19.614
			c-4.467,4.935-10.279,7.4-17.432,7.4c-7.215,0-12.992-2.615-17.33-7.847C399.194,40.952,397.044,34.564,397.044,27.017z
			 M403.649,27.017c0,5.758,1.588,10.776,4.766,15.044c3.18,4.241,7.383,6.359,12.615,6.359c5.658,0,9.965-2.201,12.91-6.605
			c2.945-4.403,4.42-9.336,4.42-14.798c0-6.127-1.59-11.225-4.768-15.298c-3.146-4.07-7.35-6.107-12.613-6.107
			c-5.463,0-9.717,2.12-12.764,6.355C405.171,16.208,403.649,21.221,403.649,27.017z"/>
	</g>
</g>
</svg>
