<?xml version="1.0" encoding="utf-8"?>
<!-- Generator: Adobe Illustrator 15.1.0, SVG Export Plug-In  -->
<!DOCTYPE svg PUBLIC "-//W3C//DTD SVG 1.1//EN" "http://www.w3.org/Graphics/SVG/1.1/DTD/svg11.dtd" [
	<!ENTITY ns_flows "http://ns.adobe.com/Flows/1.0/">
]>
<svg version="1.1"
	 xmlns="http://www.w3.org/2000/svg" xmlns:xlink="http://www.w3.org/1999/xlink" xmlns:a="http://ns.adobe.com/AdobeSVGViewerExtensions/3.0/"
	 x="0px" y="0px" width="595px" height="350px" viewBox="-48.259 -200.141 595 350"
	 overflow="visible" enable-background="new -48.259 -200.141 595 350" xml:space="preserve">
<defs>
</defs>
<path fill="#666666" d="M133.119,13.363c-3.95-1.382-8.624-2.306-13.626-2.306c-2.766,0-7.57,0.066-7.57,3.029
	c0,5.991,24.158,0.33,24.158,18.038c0,12.312-12.179,15.403-22.381,15.403c-6.781,0-12.376-0.657-18.959-2.172V33.44
	c4.739,1.978,10.531,3.029,15.799,3.029c4.147,0,7.899-0.855,7.899-3.159c0-6.188-24.159-0.593-24.159-18.433
	C94.28,2.238,107.446,0,117.913,0c4.938,0,10.4,0.593,15.206,1.581V13.363z"/>
<path fill="#666666" d="M139.558,0.79h30.349c7.175,0,16.852,3.423,16.852,15.798c0,11.982-7.702,16.919-16.918,16.919h-12.639
	v13.232h-17.644V0.79z M156.74,22.843h3.884c4.213,0,8.492-0.789,8.492-5.924c0-4.871-4.279-5.464-8.559-5.464h-3.817V22.843z"/>
<path fill="#666666" d="M197.313,0.79h24.291l16.393,45.949h-18.498l-3.028-9.941h-14.878l-2.83,9.941h-17.577L197.313,0.79z
	 M204.028,25.74h10.204l-5.003-15.075h-0.132L204.028,25.74z"/>
<path fill="#666666" d="M239.004,0.79h17.644v32.389h21.656v13.561h-39.3V0.79z"/>
<path fill="#666666" d="M281.052,0.79h25.872c13.165,0,22.447,4.478,22.447,23.106c0,17.378-10.007,22.843-23.174,22.843h-25.146
	V0.79z M298.694,35.285h4.41c6.385,0,7.834-4.213,7.834-11.849c0-7.9-1.58-11.981-7.898-11.981h-4.346V35.285z"/>
<path fill="#666666" d="M349.869,0.79v45.949h-17.644V0.79H349.869z"/>
<path fill="#666666" d="M353.965,0.79h26.397l8.491,32.389h0.132V0.79h15.141v45.949h-25.937l-8.952-33.309h-0.132v33.309h-15.141
	V0.79z"/>
<path fill="#666666" d="M453.097,45.026c-6.057,1.78-11.784,2.502-19.025,2.502c-15.272,0-27.517-8.03-27.517-24.421
	C406.555,7.703,419.326,0,434.071,0c8.625,0,12.772,0.658,17.184,1.711v12.376c-2.503-1.448-7.176-2.632-12.113-2.632
	c-8.755,0-14.548,4.409-14.548,12.771c0,6.318,2.566,11.849,9.609,11.849c1.251,0,2.698,0,3.753-0.396V23.437h15.141V45.026z"/>
<path fill="#666666" d="M495.521,13.363c-3.949-1.382-8.623-2.306-13.626-2.306c-2.765,0-7.572,0.066-7.572,3.029
	c0,5.991,24.159,0.33,24.159,18.038c0,12.312-12.177,15.403-22.38,15.403c-6.781,0-12.376-0.657-18.961-2.172V33.44
	c4.741,1.978,10.535,3.029,15.8,3.029c4.147,0,7.901-0.855,7.901-3.159c0-6.188-24.159-0.593-24.159-18.433
	C456.683,2.238,469.847,0,480.314,0c4.937,0,10.403,0.593,15.206,1.581V13.363z"/>
<path fill="#666666" d="M27.348,0.48H0l7.023,7.024c0,0-7.023,9.073-7.023,20.634s9.696,18.646,20.014,18.646
	s18.018-8.639,18.018-23.151c0-3.139-0.305-11.902,5.849-11.902s6.254,5.532,6.254,6.525c0,0.995-0.376,5.408-4.062,8.082
	l-6.813-6.815v27.262h27.077l-6.847-6.846c0,0,7.201-9.064,7.201-20.501C66.69,8.002,57.367,0.48,47.05,0.48
	S28.653,8.81,28.653,23.633c0,5.563-0.312,11.965-6.278,11.965c-3.294,0-5.842-2.425-5.842-6.526s3.231-7.272,4.04-8.08l6.806,6.807
	L27.348,0.48z"/>
</svg>
