<?xml version="1.0" encoding="utf-8"?>
<!-- Generator: Adobe Illustrator 15.1.0, SVG Export Plug-In . SVG Version: 6.00 Build 0)  -->
<!DOCTYPE svg PUBLIC "-//W3C//DTD SVG 1.1//EN" "http://www.w3.org/Graphics/SVG/1.1/DTD/svg11.dtd">
<svg version="1.1" id="Layer_1" xmlns="http://www.w3.org/2000/svg" xmlns:xlink="http://www.w3.org/1999/xlink" x="0px" y="0px"
	 width="43px" height="43px" viewBox="20 20 43 43" enable-background="new 20 20 43 43" xml:space="preserve">
<path fill="#E31B23" d="M63,41.5C63,53.375,53.375,63,41.5,63C29.625,63,20,53.375,20,41.5C20,29.625,29.625,20,41.5,20
	C53.375,20,63,29.625,63,41.5z M41.5,22.293c-10.608,0-19.207,8.599-19.207,19.207c0,10.609,8.599,19.207,19.207,19.207
	S60.707,52.109,60.707,41.5C60.707,30.892,52.109,22.293,41.5,22.293z"/>
<path fill="#FFFFFF" d="M41.525,48.792v-7.545h3.495l0.315-2.541h-3.81v-1.271c0-0.701,0.567-1.27,1.271-1.27h2.538v-2.542h-2.538
	c-2.106,0-3.812,1.707-3.812,3.812v1.271h-1.907v2.541h1.907v7.545H41.525z"/>
</svg>
