<?xml version="1.0" encoding="utf-8"?>
<!-- Generator: Adobe Illustrator 15.1.0, SVG Export Plug-In . SVG Version: 6.00 Build 0)  -->
<!DOCTYPE svg PUBLIC "-//W3C//DTD SVG 1.1//EN" "http://www.w3.org/Graphics/SVG/1.1/DTD/svg11.dtd">
<svg version="1.1" id="Layer_1" xmlns="http://www.w3.org/2000/svg" xmlns:xlink="http://www.w3.org/1999/xlink" x="0px" y="0px"
	 width="43px" height="43px" viewBox="20 20 43 43" enable-background="new 20 20 43 43" xml:space="preserve">
<path fill="#E31B23" d="M63,41.5C63,53.375,53.375,63,41.5,63C29.625,63,20,53.375,20,41.5C20,29.625,29.625,20,41.5,20
	C53.375,20,63,29.625,63,41.5z M41.5,22.293c-10.608,0-19.207,8.599-19.207,19.207c0,10.608,8.599,19.206,19.207,19.206
	S60.706,52.108,60.706,41.5C60.706,30.892,52.108,22.293,41.5,22.293z"/>
<path fill="#FFFFFF" d="M39.724,42.666c0-0.884,1.946-1.141,1.946-3.22c0-1.246-0.115-1.998-1.097-2.441
	c0-0.311,1.733-0.106,1.733-0.684c-0.299,0-3.796,0-3.796,0s-3.845,0.094-3.845,3.349s3.361,2.878,3.361,2.878s0,0.493,0,0.826
	s0.451,0.221,0.507,0.896c-0.227,0-4.67-0.117-4.67,2.832c0,2.947,3.915,2.805,3.915,2.805s4.527,0.207,4.527-3.454
	C42.306,44.258,39.724,43.55,39.724,42.666z M36.444,39.859c-0.355-1.308,0.112-2.572,1.046-2.827
	c0.933-0.253,1.979,0.6,2.334,1.906c0.356,1.309-0.114,2.575-1.046,2.829C37.843,42.021,36.799,41.166,36.444,39.859z
	 M38.388,48.966c-1.568,0.106-2.9-0.735-2.978-1.88c-0.077-1.143,1.13-2.155,2.697-2.262c1.568-0.105,2.903,0.735,2.979,1.879
	C41.164,47.846,39.955,48.857,38.388,48.966z"/>
<polygon fill="#FFFFFF" points="49.432,38.963 49.432,39.742 46.787,39.742 46.787,42.381 46.009,42.381 46.009,39.742 
	43.367,39.742 43.367,38.963 46.009,38.963 46.009,36.32 46.787,36.32 46.787,38.963 "/>
</svg>
