<?xml version="1.0" encoding="utf-8"?>
<!-- Generator: Adobe Illustrator 15.1.0, SVG Export Plug-In . SVG Version: 6.00 Build 0)  -->
<!DOCTYPE svg PUBLIC "-//W3C//DTD SVG 1.1//EN" "http://www.w3.org/Graphics/SVG/1.1/DTD/svg11.dtd">
<svg version="1.1" id="Layer_1" xmlns="http://www.w3.org/2000/svg" xmlns:xlink="http://www.w3.org/1999/xlink" x="0px" y="0px"
	 width="43px" height="43px" viewBox="20 20 43 43" enable-background="new 20 20 43 43" xml:space="preserve">
<path fill="#E31B23" d="M63,41.5C63,53.375,53.375,63,41.5,63S20,53.375,20,41.5S29.625,20,41.5,20S63,29.625,63,41.5z M41.5,22.293
	c-10.608,0-19.207,8.599-19.207,19.207c0,10.609,8.6,19.205,19.207,19.205c10.608,0,19.205-8.596,19.205-19.205
	C60.705,30.892,52.109,22.293,41.5,22.293z"/>
<path fill="#FFFFFF" d="M34.478,37.845h2.884v9.283h-2.884V37.845z M35.919,33.231c0.923,0,1.673,0.749,1.673,1.672
	s-0.75,1.673-1.673,1.673c-0.924,0-1.672-0.749-1.672-1.673C34.247,33.98,34.995,33.231,35.919,33.231"/>
<path fill="#FFFFFF" d="M39.17,37.845h2.768v1.268h0.039c0.384-0.729,1.326-1.499,2.728-1.499c2.923,0,3.463,1.921,3.463,4.42v5.093
	h-2.883v-4.516c0-1.075-0.02-2.46-1.501-2.46c-1.5,0-1.731,1.174-1.731,2.383v4.593h-2.882L39.17,37.845L39.17,37.845z"/>
</svg>
