<?xml version="1.0" encoding="utf-8"?>
<!-- Generator: Adobe Illustrator 15.1.0, SVG Export Plug-In . SVG Version: 6.00 Build 0)  -->
<!DOCTYPE svg PUBLIC "-//W3C//DTD SVG 1.1//EN" "http://www.w3.org/Graphics/SVG/1.1/DTD/svg11.dtd">
<svg version="1.1" id="Layer_1" xmlns="http://www.w3.org/2000/svg" xmlns:xlink="http://www.w3.org/1999/xlink" x="0px" y="0px"
	 width="43px" height="43px" viewBox="20 20 43 43" enable-background="new 20 20 43 43" xml:space="preserve">
<path fill="#E31B23" d="M63,41.5C63,53.374,53.374,63,41.5,63S20,53.374,20,41.5S29.626,20,41.5,20S63,29.626,63,41.5z M41.5,22.293
	c-10.608,0-19.207,8.599-19.207,19.207c0,10.608,8.599,19.206,19.207,19.206S60.706,52.108,60.706,41.5
	C60.706,30.892,52.108,22.293,41.5,22.293z"/>
<path fill="#FFFFFF" d="M41.586,33.714c-4.41,0-6.634,3.163-6.634,5.798c0,1.595,0.606,3.016,1.902,3.545
	c0.212,0.086,0.402,0.004,0.464-0.231c0.043-0.163,0.144-0.574,0.189-0.745c0.062-0.232,0.039-0.314-0.134-0.516
	c-0.373-0.441-0.612-1.012-0.612-1.82c0-2.346,1.755-4.446,4.569-4.446c2.493,0,3.862,1.522,3.862,3.557
	c0,2.676-1.186,4.934-2.942,4.934c-0.972,0-1.698-0.803-1.465-1.788c0.279-1.177,0.819-2.444,0.819-3.292
	c0-0.76-0.408-1.394-1.252-1.394c-0.992,0-1.789,1.027-1.789,2.403c0,0.875,0.295,1.468,0.295,1.468s-1.017,4.304-1.196,5.056
	c-0.353,1.503-0.052,3.342-0.026,3.527c0.014,0.11,0.157,0.138,0.22,0.054c0.092-0.119,1.274-1.578,1.677-3.036
	c0.114-0.412,0.653-2.553,0.653-2.553c0.321,0.616,1.264,1.158,2.266,1.158c2.985,0,5.009-2.722,5.009-6.361
	C47.462,36.279,45.13,33.714,41.586,33.714z"/>
</svg>
