<?xml version="1.0" encoding="utf-8"?>
<!-- Generator: Adobe Illustrator 15.1.0, SVG Export Plug-In . SVG Version: 6.00 Build 0)  -->
<!DOCTYPE svg PUBLIC "-//W3C//DTD SVG 1.1//EN" "http://www.w3.org/Graphics/SVG/1.1/DTD/svg11.dtd">
<svg version="1.1" id="Layer_1" xmlns="http://www.w3.org/2000/svg" xmlns:xlink="http://www.w3.org/1999/xlink" x="0px" y="0px"
	 width="43px" height="43px" viewBox="20 20 43 43" enable-background="new 20 20 43 43" xml:space="preserve">
<path fill="#E31B23" d="M63,41.5C63,53.374,53.374,63,41.5,63S20,53.374,20,41.5S29.626,20,41.5,20S63,29.626,63,41.5z M41.5,22.294
	c-10.608,0-19.207,8.599-19.207,19.206c0,10.608,8.599,19.207,19.207,19.207S60.706,52.108,60.706,41.5
	C60.706,30.893,52.108,22.294,41.5,22.294z"/>
<path fill="#FFFFFF" d="M49.615,37.403c-0.607,0.271-1.261,0.452-1.946,0.535c0.7-0.42,1.237-1.085,1.489-1.877
	c-0.654,0.389-1.38,0.67-2.153,0.822c-0.616-0.658-1.499-1.069-2.475-1.069c-1.871,0-3.389,1.518-3.389,3.391
	c0,0.265,0.029,0.524,0.087,0.773c-2.817-0.143-5.314-1.493-6.986-3.543c-0.293,0.5-0.46,1.083-0.46,1.704
	c0,1.176,0.598,2.214,1.508,2.822c-0.557-0.019-1.079-0.171-1.535-0.423c0,0.012,0,0.028,0,0.042c0,1.644,1.169,3.015,2.72,3.325
	c-0.284,0.076-0.584,0.118-0.894,0.118c-0.219,0-0.431-0.021-0.638-0.061c0.432,1.347,1.684,2.326,3.168,2.355
	c-1.161,0.908-2.623,1.45-4.211,1.45c-0.272,0-0.543-0.017-0.808-0.047c1.5,0.962,3.282,1.522,5.195,1.522
	c6.236,0,9.646-5.166,9.646-9.646c0-0.147-0.002-0.293-0.01-0.438C48.586,38.68,49.161,38.083,49.615,37.403z"/>
</svg>
