<?xml version="1.0" encoding="utf-8"?>
<!-- Generator: Adobe Illustrator 15.1.0, SVG Export Plug-In . SVG Version: 6.00 Build 0)  -->
<!DOCTYPE svg PUBLIC "-//W3C//DTD SVG 1.1//EN" "http://www.w3.org/Graphics/SVG/1.1/DTD/svg11.dtd">
<svg version="1.1" id="Layer_1" xmlns="http://www.w3.org/2000/svg" xmlns:xlink="http://www.w3.org/1999/xlink" x="0px" y="0px"
	 width="43px" height="43px" viewBox="20 20 43 43" enable-background="new 20 20 43 43" xml:space="preserve">
<path fill="#E31B23" d="M63,41.5C63,53.375,53.375,63,41.5,63C29.626,63,20,53.375,20,41.5C20,29.626,29.626,20,41.5,20
	C53.375,20,63,29.626,63,41.5z M41.5,22.294c-10.608,0-19.207,8.598-19.207,19.207c0,10.608,8.6,19.208,19.207,19.208
	c10.607,0,19.208-8.601,19.208-19.208C60.708,30.892,52.109,22.294,41.5,22.294z"/>
<path fill="#FFFFFF" d="M34.337,32.974h1.455l0.938,2.883h0.089l0.895-2.883h1.466l-1.681,4.22v2.993h-1.443v-2.859L34.337,32.974z"
	/>
<path fill="#FFFFFF" d="M39.333,36.081c0-0.422,0.173-0.76,0.521-1.011c0.348-0.251,0.814-0.378,1.402-0.378
	c0.536,0,0.973,0.134,1.314,0.398c0.341,0.266,0.513,0.604,0.513,1.022v2.823c0,0.469-0.168,0.834-0.503,1.101
	c-0.334,0.268-0.794,0.399-1.382,0.399c-0.565,0-1.018-0.136-1.357-0.411c-0.339-0.276-0.508-0.645-0.508-1.11L39.333,36.081
	L39.333,36.081z M40.663,39.017c0,0.15,0.046,0.265,0.138,0.349c0.092,0.081,0.225,0.123,0.394,0.123
	c0.176,0,0.314-0.043,0.418-0.126c0.102-0.084,0.155-0.2,0.155-0.346v-2.978c0-0.119-0.054-0.215-0.159-0.29
	c-0.105-0.074-0.244-0.109-0.415-0.109c-0.156,0-0.285,0.036-0.384,0.109c-0.098,0.075-0.148,0.171-0.148,0.29V39.017z"/>
<path fill="#FFFFFF" d="M47.81,34.78v5.467h-1.294v-0.604c-0.238,0.224-0.487,0.392-0.746,0.508
	c-0.258,0.116-0.509,0.174-0.751,0.174c-0.298,0-0.524-0.081-0.677-0.243c-0.151-0.164-0.227-0.408-0.227-0.733v-4.57h1.294v4.19
	c0,0.13,0.027,0.224,0.083,0.283c0.053,0.058,0.142,0.086,0.264,0.086c0.095,0,0.216-0.04,0.361-0.116
	c0.144-0.076,0.278-0.175,0.398-0.294V34.78H47.81z"/>
<path fill="#FFFFFF" d="M48.775,42.851c0-0.946-0.974-1.715-2.173-1.715c-1.712-0.058-3.464-0.083-5.249-0.079
	c-1.786-0.004-3.537,0.021-5.25,0.079c-1.198,0-2.172,0.769-2.172,1.715c-0.072,0.751-0.104,1.5-0.101,2.249
	c-0.002,0.75,0.029,1.503,0.101,2.252c0,0.948,0.974,1.715,2.172,1.715c1.712,0.057,3.464,0.084,5.25,0.08
	c1.785,0.004,3.537-0.023,5.249-0.08c1.199,0,2.173-0.767,2.173-1.715c0.071-0.749,0.103-1.502,0.099-2.252
	C48.878,44.351,48.847,43.602,48.775,42.851z"/>
<path d="M38.151,42.31h-3.154v0.771h1.063v4.545h1.028V43.08h1.063L38.151,42.31L38.151,42.31z M39.832,46.681
	c-0.086,0.086-0.18,0.158-0.283,0.212c-0.103,0.055-0.188,0.082-0.254,0.082c-0.085,0-0.146-0.02-0.186-0.062
	c-0.038-0.04-0.057-0.108-0.057-0.202v-3.007h-0.913v3.279c0,0.232,0.054,0.408,0.161,0.525s0.267,0.176,0.478,0.176
	c0.17,0,0.348-0.043,0.529-0.127c0.182-0.084,0.356-0.205,0.525-0.363v0.434h0.913v-3.924h-0.913L39.832,46.681L39.832,46.681z
	 M43.368,43.654c-0.143,0-0.28,0.031-0.421,0.094c-0.138,0.062-0.27,0.152-0.392,0.274V42.31h-0.92v5.317h0.92v-0.303
	c0.12,0.119,0.25,0.209,0.39,0.266c0.141,0.057,0.298,0.086,0.478,0.086c0.271,0,0.478-0.074,0.621-0.221
	c0.143-0.148,0.213-0.363,0.213-0.642v-2.176c0-0.32-0.074-0.564-0.227-0.731C43.877,43.738,43.657,43.654,43.368,43.654z
	 M43.318,46.706c0,0.127-0.025,0.218-0.079,0.271c-0.053,0.057-0.134,0.084-0.246,0.084c-0.077,0-0.15-0.014-0.219-0.043
	c-0.071-0.027-0.145-0.072-0.219-0.139v-2.444c0.062-0.053,0.124-0.094,0.188-0.119c0.063-0.023,0.129-0.039,0.191-0.039
	c0.127,0,0.221,0.035,0.284,0.105c0.065,0.066,0.099,0.168,0.099,0.299V46.706z M47.63,45.758v-0.999
	c0-0.371-0.11-0.656-0.335-0.856c-0.224-0.197-0.545-0.297-0.963-0.297c-0.406,0-0.741,0.107-0.998,0.32
	c-0.258,0.216-0.389,0.493-0.389,0.833v1.762c0,0.376,0.118,0.673,0.354,0.888c0.234,0.217,0.556,0.324,0.964,0.324
	c0.456,0,0.797-0.102,1.026-0.305c0.227-0.205,0.341-0.506,0.341-0.907v-0.295h-0.938v0.271c0,0.23-0.03,0.38-0.089,0.448
	c-0.062,0.066-0.166,0.102-0.317,0.102c-0.146,0-0.249-0.041-0.308-0.119c-0.062-0.081-0.093-0.226-0.093-0.431v-0.739H47.63
	L47.63,45.758z M45.885,44.751c0-0.162,0.033-0.281,0.095-0.352c0.064-0.072,0.167-0.107,0.313-0.107c0.14,0,0.24,0.035,0.304,0.107
	c0.062,0.07,0.095,0.189,0.095,0.352v0.399h-0.807V44.751L45.885,44.751z"/>
<path d="M38.151,42.368h-3.154v0.771h1.063v4.545h1.028v-4.545h1.063L38.151,42.368L38.151,42.368z M39.832,46.737
	c-0.086,0.086-0.18,0.157-0.283,0.212s-0.188,0.082-0.254,0.082c-0.085,0-0.146-0.021-0.186-0.061
	c-0.038-0.041-0.057-0.112-0.057-0.206V43.76h-0.913v3.279c0,0.234,0.054,0.408,0.161,0.525s0.267,0.176,0.478,0.176
	c0.17,0,0.348-0.043,0.529-0.127c0.182-0.084,0.356-0.205,0.525-0.363v0.434h0.913V43.76h-0.913L39.832,46.737L39.832,46.737z
	 M43.368,43.711c-0.143,0-0.28,0.031-0.421,0.096c-0.138,0.061-0.27,0.151-0.392,0.272v-1.711h-0.92v5.315h0.92v-0.301
	c0.12,0.117,0.25,0.207,0.39,0.264c0.141,0.057,0.298,0.086,0.478,0.086c0.271,0,0.478-0.074,0.621-0.221
	c0.143-0.148,0.213-0.363,0.213-0.642v-2.176c0-0.318-0.074-0.562-0.227-0.73C43.877,43.795,43.657,43.711,43.368,43.711z
	 M43.318,46.763c0,0.126-0.025,0.218-0.079,0.272c-0.053,0.053-0.134,0.08-0.246,0.08c-0.077,0-0.15-0.012-0.219-0.041
	c-0.071-0.027-0.145-0.074-0.219-0.137v-2.446c0.062-0.053,0.124-0.094,0.188-0.119c0.063-0.025,0.129-0.039,0.191-0.039
	c0.127,0,0.221,0.035,0.284,0.105c0.065,0.068,0.099,0.168,0.099,0.299V46.763z M47.63,45.814v-1.001
	c0-0.369-0.11-0.654-0.335-0.854c-0.224-0.2-0.545-0.298-0.963-0.298c-0.406,0-0.741,0.107-0.998,0.321
	c-0.258,0.215-0.389,0.492-0.389,0.83v1.762c0,0.378,0.118,0.675,0.354,0.89c0.234,0.217,0.556,0.324,0.964,0.324
	c0.456,0,0.797-0.102,1.026-0.305c0.227-0.203,0.341-0.508,0.341-0.909v-0.293h-0.938v0.271c0,0.23-0.03,0.38-0.089,0.446
	c-0.062,0.07-0.166,0.104-0.317,0.104c-0.146,0-0.249-0.041-0.308-0.121c-0.062-0.08-0.093-0.224-0.093-0.429v-0.741h1.745V45.814z
	 M45.885,44.808c0-0.164,0.033-0.281,0.095-0.354c0.064-0.07,0.167-0.105,0.313-0.105c0.14,0,0.24,0.035,0.304,0.105
	c0.062,0.072,0.095,0.189,0.095,0.354v0.397h-0.807V44.808L45.885,44.808z"/>
</svg>
