<?xml version="1.0" encoding="utf-8"?>
<!-- Generator: Adobe Illustrator 15.1.0, SVG Export Plug-In  -->
<!DOCTYPE svg PUBLIC "-//W3C//DTD SVG 1.1//EN" "http://www.w3.org/Graphics/SVG/1.1/DTD/svg11.dtd" [
	<!ENTITY ns_flows "http://ns.adobe.com/Flows/1.0/">
]>
<svg version="1.1"
	 xmlns="http://www.w3.org/2000/svg" xmlns:xlink="http://www.w3.org/1999/xlink" xmlns:a="http://ns.adobe.com/AdobeSVGViewerExtensions/3.0/"
	 x="0px" y="0px" width="252px" height="23px" viewBox="0 -0.585 252 23"
	 overflow="visible" enable-background="new 0 -0.585 252 23" xml:space="preserve">
<defs>
</defs>
<polygon fill="#FFFFFF" points="0,0.36 17.72,0.36 17.72,3.778 10.794,3.778 10.794,21.44 7.046,21.44 7.046,3.778 0,3.778 "/>
<polygon fill="#FFFFFF" points="37.809,13.133 27.525,13.133 27.525,21.44 23.806,21.44 23.806,0.36 27.525,0.36 27.525,9.835 
	37.809,9.835 37.809,0.39 41.527,0.39 41.527,21.44 37.809,21.44 "/>
<polygon fill="#FFFFFF" points="50.282,0.36 63.985,0.36 63.985,3.778 54.001,3.778 54.001,9.685 63.055,9.685 63.055,12.983 
	54.001,12.983 54.001,18.019 63.985,18.019 63.985,21.44 50.282,21.44 "/>
<polygon fill="#FFFFFF" points="84.495,0.36 98.197,0.36 98.197,3.778 88.183,3.778 88.183,9.925 97.057,9.925 97.057,13.223 
	88.183,13.223 88.183,21.44 84.495,21.44 "/>
<path fill="#FFFFFF" d="M115.078,0c6.537,0,11.274,4.587,11.274,10.884c0,6.206-4.826,10.884-11.274,10.884
	c-6.446,0-11.244-4.646-11.244-10.884C103.834,4.798,108.751,0,115.078,0 M115.108,18.5c4.078,0,7.256-3.268,7.256-7.557
	c0-4.317-3.028-7.585-7.256-7.585c-4.167,0-7.255,3.268-7.255,7.585C107.853,15.172,111.03,18.5,115.108,18.5"/>
<path fill="#FFFFFF" d="M133.488,0.36h3.72v12.354c0,4.017,1.827,5.696,5.005,5.696c3.179,0,5.128-1.68,5.128-5.729V0.36h3.718
	v12.354c0,6.296-3.567,9.115-8.846,9.115c-5.276,0-8.725-2.819-8.725-9.115V0.36z"/>
<polygon fill="#FFFFFF" points="159.545,0.241 160.715,0.241 173.757,13.822 173.757,0.36 177.475,0.36 177.475,21.587 
	176.484,21.587 163.263,8.365 163.263,21.44 159.545,21.44 "/>
<path fill="#FFFFFF" d="M186.229,0.36h7.946c6.537,0,11.273,4.408,11.273,10.524c0,6.026-4.826,10.556-11.273,10.556h-7.946V0.36z
	 M189.979,3.779V18.02h4.227c4.079,0,7.258-2.968,7.258-7.076c0-4.137-3.029-7.165-7.258-7.165H189.979z"/>
<path fill="#FFFFFF" d="M212.856,0.36h6.746c5.607,0,8.425,3.089,8.425,7.496c0,2.188-1.108,5.277-3.929,6.656
	c1.589,1.38,2.041,3.567,4.561,3.567h0.838v3.299c0,0-0.78,0.18-2.008,0.18c-5.247,0-4.948-4.827-7.497-6.267
	c-0.36,0.03-0.719,0.03-1.108,0.03h-2.308v6.118h-3.72V0.36z M216.576,3.779v8.244h2.755c3.481,0,4.681-1.858,4.681-4.167
	c0-2.309-1.17-4.077-4.681-4.077H216.576z"/>
<polygon fill="#FFFFFF" points="251.895,0.36 244.158,13.103 244.158,21.44 240.411,21.44 240.411,13.073 232.675,0.36 
	236.962,0.36 242.332,9.685 247.697,0.36 "/>
</svg>
